<?xml version="1.0" encoding="utf-8"?>
<!-- Generator: Adobe Illustrator 18.1.1, SVG Export Plug-In . SVG Version: 6.00 Build 0)  -->
<svg version="1.1" id="Layer_1" xmlns="http://www.w3.org/2000/svg" xmlns:xlink="http://www.w3.org/1999/xlink" x="0px" y="0px"
	 viewBox="0 0 500 500" enable-background="new 0 0 500 500" xml:space="preserve">
<g>
	<path fill="#D3D3D3" d="M479.4,104.7V161c-0.4,0.8-0.7,1.7-0.5,2.9c0.3,2.4,0.4,4.8,0.5,7.2v8.5c-0.4,10.6-1.9,21.2-2.7,31.9
		c-0.6,8.5,0.3,16.8,1.5,25.1c-1.1,10.6-2.3,21.4-1.9,31.9c-1,9.2-1.4,18.3,1.5,26.6c-0.1,1.9-0.2,3.8-0.2,5.7
		c-1.5,7.9-3.5,15.7-2.4,23.8c0.1,0.4,0.2,0.8,0.3,1.2c0.2,48.6,2,97.2,2.2,145.8c-1.3,2-2.7,3.9-4.4,5.7c-7.4,0-14.8,0.4-22.2,1
		H349.9c-0.2,0-0.3,0-0.5,0h-29.6c-0.6-0.2-1.2-0.4-1.8-0.6c-1.8-0.6-3.3-0.3-4.4,0.6H195.2c-13.4-0.4-26.7-0.5-40.1,0h-109
		c-4.7-1.4-9.2-3.2-13.7-5.4V350.3c0.9-12,2.1-24,3.1-36.1c4.3-10.7,3.8-24,3.1-34.9c-0.4-6-1.3-11.9-2.4-17.7
		c0.2-22.3,0.9-45.8-3.8-67.8v-67.3c0-0.7,0-1.3,0-2c0,0,0-0.1,0-0.1V90.2c1.2-14.7,0.6-29.6,0.2-44.4c0.5-3.2,1.3-6.2,2.8-9
		c1.3-2.6,3.2-4.3,5.4-5.5h7c19.1,0.5,38.1,2.1,57.2,2.9c23.8,1,47.3-1,71.1-1.2c23.4-0.3,46.8,0.4,70.2,0
		c13.4-0.3,27.7-0.2,41.6-1.6h27.4c0.7,0.4,1.6,0.6,2.7,0.6c14.2-0.6,27.5,5.1,41.6,5.5c4.2,0.1,8.3-0.3,12.4-0.9
		c0.8,0.6,1.8,1,3.2,1c8.6-0.1,17.1-0.7,25.6-1.6c2.6-0.1,5.2-0.2,7.8-0.3c0.8,1.1,2.2,1.9,4,1.8c11.7-0.5,23.4-0.8,35-0.9
		c8.6-0.1,14.1-3.2,20.7,2.4c4.2,3.6,5.8,9.3,7,14.7C478.8,70.6,480.1,87.4,479.4,104.7z"/>
</g>
</svg>
