<?xml version="1.0" encoding="utf-8"?>
<!-- Generator: Adobe Illustrator 18.1.1, SVG Export Plug-In . SVG Version: 6.00 Build 0)  -->
<svg version="1.1" id="Layer_1" xmlns="http://www.w3.org/2000/svg" xmlns:xlink="http://www.w3.org/1999/xlink" x="0px" y="0px"
	 viewBox="0 0 180.9 153.1" enable-background="new 0 0 180.9 153.1" xml:space="preserve">
<g>
	<g>
		<path fill="none" stroke="#000000" stroke-width="1.88" stroke-miterlimit="10" d="M50.3,71.8"/>
	</g>
</g>
<g>
	<g>
		<g>
			<g>
				<g>
					<path fill="#202020" d="M43.2,105.1c0-0.1,0.1-0.2,0.1-0.2c-0.1,0-0.1-0.1-0.2-0.1L43.2,105.1z"/>
					<path fill="#202020" d="M62.7,115.4C62.7,115.4,62.7,115.4,62.7,115.4c0.1-0.1,0.1-0.2,0.2-0.2
						C62.7,115.2,62.7,115.2,62.7,115.4z"/>
					<path fill="#202020" d="M57.6,112.2c0-0.1,0.1-0.3,0.1-0.4C57.7,111.8,57.6,112,57.6,112.2z"/>
					<path fill="#202020" d="M44.2,107.6c0-0.3,0-0.5,0-0.8C44.1,107,43.9,107.4,44.2,107.6z"/>
					<path fill="#202020" d="M57.7,113c0-0.2,0-0.6,0-0.8C57.6,112.5,57.6,112.7,57.7,113z"/>
					<path fill="#202020" d="M68,125.6c0-0.2,0.1-0.4,0.1-0.7c-0.1,0-0.1,0-0.2,0L68,125.6z"/>
					<path fill="#202020" d="M83.5-0.9c-0.2,0.4-0.1,0.6,0.2,0.8C83.6-0.3,83.5-0.5,83.5-0.9z"/>
					<path fill="#202020" d="M76.3,5.7c0-0.1,0-0.2,0-0.3C76.3,5.5,76.3,5.7,76.3,5.7z"/>
					<path fill="#202020" d="M84,5.7c0.1,0.1,0.2,0.2,0.3,0.2C84.2,5.8,84.1,5.8,84,5.7z"/>
					<path fill="#202020" d="M37.3,61.8l0.4,0.1C37.5,61.8,37.4,61.8,37.3,61.8z"/>
					<path fill="#202020" d="M29,70.1C29,70.1,29,70.1,29,70.1L29,70.1z"/>
					<path fill="#202020" d="M28.9,70.2C29,70.2,29,70.1,28.9,70.2C29,70.1,28.9,70.1,28.9,70.2z"/>
					<path fill="#202020" d="M66.4,126.8c0.7,0.2,1.3,1.2,2,1c0,0-0.1-0.6-0.2-1.1c-0.1-0.6-0.2-1.1-0.2-1.1
						C67.8,126.6,67.1,127.2,66.4,126.8z"/>
					<path fill="#202020" d="M46.3,23.4c-0.4,0.3-0.5,0.6-0.5,0.8C46,24,46.2,23.7,46.3,23.4L46.3,23.4z"/>
					<path fill="#202020" d="M40.7,35.7C40.7,35.7,40.7,35.7,40.7,35.7C40.7,35.7,40.7,35.7,40.7,35.7L40.7,35.7z"/>
					<path fill="#202020" d="M46.6,22.3c0-0.1,0-0.3-0.1-0.4C46.3,22,46.4,22.2,46.6,22.3z"/>
					<path fill="#202020" d="M39.3,104.7c-0.1,0-0.2,0-0.3-0.1C39.1,104.7,39.2,104.7,39.3,104.7z"/>
					<path fill="#202020" d="M41.9,36.1l-1.3-0.4c0,0.2,0,0.4,0,0.7C41.1,37.2,41.8,36.6,41.9,36.1z"/>
					<path fill="#202020" d="M46.6,22.3c0.1,0.4,0,0.8-0.3,1.1l0.7,0.2C47.8,23,46.9,22.6,46.6,22.3z"/>
					<path fill="#202020" d="M86.3,0.8c-0.8-0.1-0.2-2-1.1-1.4L85.4,1c-0.3-0.6-1.2-0.7-1.7-1.1c0.6,1.2,2.3,0.7,2.7,2.7
						C86.7,3.3,86,3.8,85.5,4c0.9-0.5,0.8,0.9,0.8,1.5c-0.8,0-1.3,0.9-2.1,0.5c0.1,0.3-0.1,0.7-0.4,0.8l-0.3-0.3
						c-0.3,0.8,0.5,0.1,0.6,0.6C83.9,7.5,82.6,7.4,82,8c0.6-0.6,0.7-1.5,0.9-2.3c-1.6,0.5-1.2-1.8-1.7-2.8c-0.5,1.2-0.4,2.1-0.7,3.3
						c-1.5,0.2-2-2.4-1.9-2.7c-0.4,1.2-0.4,3-0.5,3.7c-0.5-1.8-0.9-2.1-1.2-3.6c-1.3-0.1-0.7,0.9-0.6,1.6c0.1-0.3,0.3-0.6,0.6-0.4
						c-0.9,0.6,0.9,2.4,1.2,3.6c-1,0-2.4,0.8-3.3-0.5l1,1.2C75.4,10.2,75,9,74.5,8.6c0.4,1.1,1.8,2,0.9,3.3
						c-1.5-2.1-1.2,0.7-2.7-1.1c-0.5,0.6,0.1,1.8-0.6,2.1c-1.5-0.5-1.1-3.2-0.5-3.2c0.8-0.7,0.6,0.9,0.9,0.6l0.3-1.2
						c-0.7,0-1.9,0.3-2.5-0.7c-0.5,1,1.3,0.3,0.9,1.5l-0.9,0c-0.5,1.2,1.3,1.2,0.4,2.4c0-1.5-1.2,1-2.2-0.4c1.3,1.7-1.9,1.9-1,3.4
						l0.9-0.1l-0.7-0.6c0.6-0.6,0.8-1.5,1.7-1.7c0,1,1.3,1.2,1.1,2.3c-0.4,1.9-1-0.6-1.2-0.5l-0.2,1.7l1.2,0.2
						c-0.5,0.9-1.4,1.8-2.5,2.5c-2.3,0.2-0.5-1.1-2.4-1.2c-0.2,0.7,0.2,1.1-0.5,1.5c0.7,0.2,0.5-0.7,0.8-0.9c1.2,0.8-0.9,1.5,0,2.4
						c-0.6-0.2-0.9-0.7-1-1.3c-0.8,1.3-2.1,2-3.5,1l0.5,1.7c-2.4,1.1,0.5-2.2-1.8-1.8c-0.8,0.4-1.4,1-1.4,1.7l0.6-0.4
						c0.1,1.1,0.5,1.5,0.1,2.6c-0.6,0.3-1-0.8-1.1,0.4c-2.2,0.5-2-1.7-2.6-3.1c-1.7,0.2-1.3-3-1.6-1.8l0.4,0.1l0.1,2.7
						c2.2,0.6-0.6-1.7,1-0.6l0.8-0.4c0.3,0.9-1.6,1.6-1.1,2.5c-0.3-0.4-0.9-1.6-0.2-2.1l-1.6-1.3c-0.5,0.1,0,1.4-0.8,0.9
						c-1.4-0.6-0.3-2.3-2.2-1.7c-1.9,0.8-0.3,2.8-1.6,3.3c0.4,0.3,0.6,0,1-0.2c0,0.8,1,0.8,0.7,1.7c-1.1-0.9-2.2,0.1-3.1,0.7
						c-0.2-0.8-1.2-1-1.2-1.5c-0.3,0.5-0.6,1-0.5,1.6c2.4-0.5-1.1,2.2,1.1,2.3c-1.5,1-2.5,0.2-3.8,0.2c-0.2-0.4,1.1-1.9-0.5-1.4
						c-0.6,2.2,1.4,1.4,1.3,3.6l1.2-0.2c1.1,1.3-1.3,1.5-1.3,2c-0.8,0,0.5-1-0.7-1.5c-1.1,0.3-0.9,1.5-1.8,1.4
						c-0.2-1.3-0.2-0.7-0.2-2c-2,1.4-0.7-1.2-2.7-0.7c-0.4,0.5,0.6,1.2-0.4,1.5c1.2,0.7,1.4,1.1,2.7,0.2c0.6,1.8-1.9,0.8-2.1,2.4
						c0.8-0.4,0.4,0.1,1-0.6c1,1.2,1.4,1.2,1.6,2.9c0.6-0.9,0-2.5,1.4-3c1.2,1.1-0.7,2,0.4,3.7c0,1.3-1.9,1.6-3,1.4
						c-0.4,1.8-1.8,2.9-1.6,5c-1.2,0.1-2.2,3-4.1,3.7c-0.8-0.6-2.3,0.9-1.9-0.6c0,0.3-1.1,1.4-0.3,1.8c0-0.3,0.2-0.2,0.5-0.5
						l0.4,1.1c-1,0.2-1,1.9-2.1,1.9c-0.8-0.6,1-1.5-0.1-2c0.3,1.9-2,4.5-3.4,4.6c-0.7,0.3-1.7-0.8-2-0.8L24,53
						c-0.4-0.3-0.7-0.7-1.3-1c-0.7,0.1-0.7,0.8-0.9,1.2C20,53.4,20,52,20.1,50.7l1-0.2c0.2-0.9,1.1-1.3-0.1-2
						c-0.3,0.4,0,0.8,0.1,1.2l-0.9-0.3c-0.1,0.8-1.1,1.9-0.4,2.6c-0.7,0.1-1.1,0.5-1.6,0.8c-0.2,0.2-0.4,0.4-0.7,0.5
						c-0.1,0.1-0.2,0.1-0.4,0.2c-0.2,0.1-0.4,0.1-0.6,0.2c1.2-0.1,0.5,1,1.2,1.4c0,0,0.1,0,0.2-0.1c0.1,0,0.1-0.1,0.2-0.1
						c0.1,0,0.1-0.1,0.2-0.1c0.3-0.1,0.6-0.2,0.6-0.2c-0.1,0.2-0.3,0.4-0.5,0.7c-0.2,0.3-0.5,0.6-0.7,0.9c-0.5,0.6-1.1,1.1-1.8,1.2
						c-0.3-0.5-0.4-0.7-1.4-0.7c0.7,0,0.4,0.6,0.3,1.1c-0.1,0.5-0.1,0.9,1,0.7c0.3-0.7,0.7-1.2,1.4-1.6c1.3,0.7,0.4,1.6,0.4,2.6
						c-0.5,0.8-1.4,2.1-1.9,3.1c-0.8,0.2-2.4-0.5-2.5,0.8c1.2-0.2,1.4,0.4,1.5,1c0.1,0.7,0,1.4,0.6,1.8c-0.7,0.2-0.7,0.6-0.8,0.9
						c-0.1,0.3-0.1,0.6-1.1,0.7c-0.2-0.4,1-1.4,0.3-2.1c-0.9-0.5-2.9-0.9-1.9-2.3c-2.2,1.3-0.2,1.3-0.6,2.1l0.4-0.5
						c0.1,0.4,1.4,0.3,0.9,0.7c-2.2,1.4-3.7,1.3-6.5,2.1c1.1-0.1,1.3,0.7,1.1,0.9c-1.2,0.4-1.8,0.3-2.5,0.1
						c-0.7-0.2-1.3-0.5-2.7-0.3c0.6,0.6-0.7,1.4,0.6,1.3c-0.5,0.5-0.7,0.2-1.5,0.5c0.7,0.4,1,0.9,0.2,1.5c-0.5-0.1-1.3-0.3-0.2-0.9
						c-1.3,0.7-3.7,0.8-4.4,0.4l2.2-1.2c-0.6-0.7-2,1.1-3.2,1c0.4-0.6,1.7-1,1.8-1.4c-1.8,0.2-1.8,1.6-2.5,2.2
						c-1.5,1.1-2.5,0.6-3.3,0.6c0.1,1,1.4,0.4,2.7-0.1c1.3-0.5,2.5-1,2.7-0.1c0.3,0.2,0.3,0.4,0.3,0.7c0,0.1,0,0.1-0.1,0.2l-0.1,0.1
						c0,0,0,0.1,0,0.1c0.1,0.1,0.1,0.3,0.2,0.5c0.8,0.5,1.4,1,2.1,1.5c1-0.9,3,0,4.8,0.9c-1.4-1.2,1.9-0.4-1-1.8l1.6-0.1
						c0.6,0.5,0.7,1.2,1.4,1.8C5.9,76,5.7,76.2,5.2,76L8,77.7l-1.2,0c1.1,1.1,1.8,2.8,3.1,3.4c-0.8-0.5-0.1-1.3,1-0.9
						c0.9,0.2,2.1,0.5,2.5,1c-1.1,0.7,1.2,2.7-1.5,2c1.2,0.7,1.7,0.8,2.2,1c0.5,0.1,1,0.2,2.1,0.8l-1.4-0.8c0.4-0.3,1.2-0.5,1.8-0.8
						c0.6-0.3,1.1-0.6,1-1.2c1.6,0.6,2.5-0.9,3.9,0.1c0,0.8-1.8,1.1-2.8,0.5c0.3,0.4,0.2,1.1,1.2,1c-0.4,0.8-1.9,0.2-2.2,0.4
						c0.7,0.7,0.4-0.3,1.4,0.2c1,0.2,0.9,0.6,0.7,1.1c-0.2,0.5-0.3,1.1,0.5,1.4c-0.3-0.2-0.5-0.9,0.1-0.9c1.5,1.5,1.5,0.1,3,0.8
						c-0.4,1.6-1.8,2.5-1.1,3.7l-0.5-0.6c-0.2,0.9,0,1.5,0.4,1.9c2.9,1.2,6.1,1.4,8.9,2.9l-1-0.6c0.1-0.6,1,0.3,1.4-0.1l0,0.9
						c0.9-0.5-0.2-1.8,0.8-2.2c0,0.2,0.1,0.3,0.2,0.4l-0.2-0.7c0.7,1.3,2.8,0.9,2.3,2.8c-1.9-2-2.6,1.7-4.7,0
						c1.2,0.8-0.7,0.9-0.9,1.3c0.3,0.7,0.8-0.3,1.1,0.6c-0.6,0.5-2.3-0.4-2.2,0.6c0.9-0.7,1.3,0,2.1-0.3c0.2,0.7-0.6,0.5-0.7,0.9
						c0.3,0.2,0.8,0,0.8,0.4l-0.7,0.3c0.3,2,1.2-0.3,2.2,1.4c0.8-0.6,0.2-0.9-0.4-1.4c1.4-1.7,3.4,0.5,5-1.1c1.5,1.2-1,0.2-0.4,1.8
						c-0.6,1.6-1.9,0.1-3,0.4l0.3,1.8c-1.8,0.8-1.9-0.4-3.4,0.5c0.7,1,0.9,0.6,2.2,1.1c-0.1-2.4,1.4-0.1,2.1-2.1
						c0.2,1-0.3,1,0.5,2.1c-0.8-0.4-1.2,0.9-1.9,0.1c1.2,1.3,1.2,0.7,2.4,2c1.4-0.4,0.2-2.5,2.3-1.3c0.3,0.4-0.2,0.6-0.3,0.4
						c0.5,1.5,1.1-1.2,2.2-0.9c0.5,0.4,0.3,1-0.1,0.9c1.2,0.4,1.6-0.6,2.2-0.2l-0.1-0.3c0.5,0,1.5-1.8,2.4-0.6
						c0.6,0.9-0.1,1-0.5,1.3c0.9,0.4,1,1.2,0.9,1.9c0.2-0.2,0.4-0.3,0.6-0.1c1.1,0.8-0.4,1.3-0.3,1.8c0.7,2,1.8-1.6,3.2,0.1
						l-1.2-2.3c0.6-0.3,1.4-0.8,1.1-1.2c-0.8,0.5-2,0.3-2.4-0.5c0.4-0.4,1-0.1,1.5,0.1c0.5,0.1,0.9,0.2,1-0.7
						c0.1,0.5,0.8,0.9,1.1,1.4c-1.3,0.2,1,1.7-0.7,1.7c1.9,2.1,1.5,2.9,3.8,4.5c-0.7,0.2-3.3,0-3.6-1.4l0.5-0.5
						c-1.7-0.9,0.2,1.5-0.9,1.9c2.7,0.6,2.1,4.3,4.2,6.1c0.2-0.7,0.8-0.5,1.4-0.7c-0.7-0.8-0.8-0.5-0.7-1.6c0.8-0.4,0.9,0.4,1.6,0.3
						c0.9-0.3-0.5-0.7-0.3-1.3c1,0.6,1,0.4,2,0.5c-0.3,0.9-0.7,1.1-1.1,1.9c1.3,2.3,2.5,1.2,3.4,3.2c-0.5-1.1-0.5,1-0.9-0.3l0.3,0.7
						c-2.1-1-3.8-3.5-5.4-2.1c1,1.1,2.6,1.3,3.6,2.8l-0.4,0.1c0.6,1.2,0.5-0.3,0.9-0.2c1.4,0.9-0.9,2.7,1,2.9c0,0-0.1-0.4-0.2-0.8
						c-0.1-0.4-0.2-0.8-0.2-0.8c1.4,0.6,0-0.4,1.4-0.8c2,1.3,3,5,5.1,7.8c0.4-1.1,0.4-1.5,0-2.6c2.1-0.2,2,0.4,3.3-0.8l-0.5-1.6
						l1.7-0.7c0.2,0.4,0.3,0.9,0.3,1.3c1.2-0.2,0.6,2.6,1.6,2.3l-0.6-1.4c0.6-1,1.2,0.7,1.8,1.6c0.4-0.7,0.1-1.5-0.4-2.3
						c-0.5-0.9-1.2-1.7-1.7-2.7c-0.6,0.4-2.6-0.9-2,1c-0.7,0.3-1.5-0.6-1.8-1.2c0.5,0.2,1.2-2.2,2.4-0.8c-1.5-1.2-0.3-0.7-1.6-2.2
						c0.6,0-1.5-2.8-0.1-3.4c-0.9-0.1-2,1.2-3.1-0.5c-0.7,1,0.3,3-1.5,2.3l1.1,0.5c0.2,1.5-1.2,0.2-0.7,2c-0.2-0.5-1.2-1.1-0.7-1.7
						c-1.8,1.5-2.3-1.6-3.8-0.8c0.4-0.7,0.2-1.1-0.5-1.8c0.6-0.2,0.8-1,1.6-0.6c0.2,0.6,0.6,0.8,0.5,1.7c1.8-1.6-0.7-2.4-1.1-3.9
						c0,0.3-0.2,0.5-0.7,0.3c-0.2-1-1.1-2.8,0.2-3c0,0-0.7-0.9-1.4-1.7c-0.7-0.8-1.4-1.7-1.4-1.7c0.4-0.3,0.6,0.4,0.8,0.5l-1.4-1.9
						c0.3-0.9,1.1,0.2,1.8,0l-1-1.3l0.7-0.2c-0.3,0-0.8-0.4-1.1-0.9c-0.3-0.5-0.5-1.1-0.1-1.6c-0.6-0.6-1.4-0.5-2.1-0.6
						c-0.8-0.2-1.4-0.5-1.8-1.9c1-0.6,1.2,1,2.2,1c0-0.7-1.6-1.5-0.9-2.3c-1.7-1.2-3.2,0.3-4.7,0.2c-1-1.2,0.7-0.7,0.9-1
						c-0.2-0.4-2.4,0.3-1.4-1c-1.1-0.1-2.2,0.2-1.8,1.3c-0.5-0.7-1.7-1.2-2.2-1.1c1.8-0.6,0-1.2,1-2.1c-0.5-1.2-2-3.6-4.2-3.2l1.7-1
						l-1.1-1c0.1-1.6,1.8,0.2,2.3,0.7c-1.1-1.7-2.1-2.6-3.3-3.9c0,0.7-0.4,0.7-0.7,1.3c-1,0-1.1-0.9-1.7-1.3c0.2-0.4,0.6-0.6,1-0.4
						l-1-0.7c0.9-0.7,0.5-1.2,1.9-0.8l-1-0.6c-0.6-1.1,0.7-0.6,1.2-0.6c0,0-0.3-0.4-0.6-0.8C37.3,81.4,37,81,37,81
						c-1-0.1-0.5,1-1.7,0.2c-0.5-2.1-2.5-3.5-3.7-5.2l0.3,1.8c-0.7-1.1-1.8,0.4-2.7,0.7c-0.1-0.1-0.2-0.2-0.3-0.4L28.8,78
						c0-0.1-0.1-0.1-0.1-0.1c0,0-0.1-0.2-0.1-0.2c-0.1-0.2-0.2-0.4-0.1-0.6c1-0.3,1.9-1.3,2.5-1.9c-0.1-0.3-1.8,0.9-2.7,0.9
						c2.4-1,0.5-0.6,1.8-1.1c-0.2-0.1-0.6-0.2-1.1-0.3c-0.5-0.1-0.9-0.3-1.2-0.5c-0.5,0-0.8,0.2-1.4,0.2C25.8,74.2,27,74,27.6,74
						c-0.2-0.1-0.4-0.1-0.7-0.2c-0.8-0.1-1.4-0.2-1.9-0.3c0.2,0.1-0.3,0.1-1.2,0.1c0.1-0.3,2.2-0.1,1-0.5c1.8,0.1,0.6,0.4,2.4,0.4
						c0.3-0.2-0.3-0.3-0.9-0.6c1.1,0.1,0.1,0.2,1.1,0.2c-0.4-0.4-0.9-1.1-1-1.6l1.2,0.3c0.1-0.2,0-0.4-0.4-0.7
						c0.5,0.1,0.7,0.3,0.7,0.5c0.3-0.2-0.1-0.9,0-1.1c0.5,0.4-0.1,0.2,0.3,0.5c0.3-0.1,0.1-0.5,0.1-0.9c0-0.4,0.1-0.7,0.7-0.3
						c0.1,0.1,0.1,0.2,0,0.2c0.2-0.1,0.3-0.2,0.4-0.4l0.1-0.3l0.5-0.6c0.7-0.8,1.4-1.6,2.3-2.4c2.5-0.3-0.4-1.7,1.4-2.9
						c1.7,2.2,2.5-1.6,3.5-1.8l-0.5-0.2c0.2-1.5,2-1.6,3-1.4c1.4-0.8,3.3-2.3,4-4.1l0.1,0.7c0.6-1.4,1.9-1.2,2.5-2.6
						c0.1,0.2-0.1,0.8,0.4,0.6c5.8-3.1,10.1-8.4,15.6-12.1c5.3-3.4,11.2-7.5,16.7-12c5.6-4.5,10.8-9.6,14.7-14.7
						c0,0-0.9-3.2-2.3-6.6C90.2,6,88.3,2.2,86.3,0.8z"/>
					<path fill="#202020" d="M37.2,104.7c0-0.1,0-0.1-0.1-0.2C37.1,104.6,37.1,104.6,37.2,104.7z"/>
					<path fill="#202020" d="M18.4,82.5c0.1,0.1,0.2,0.2,0.3,0.2C18.7,82.6,18.6,82.5,18.4,82.5z"/>
					<path fill="#202020" d="M11.5,65.2l-0.4,0.4C11.4,65.5,11.5,65.4,11.5,65.2z"/>
					<path fill="#202020" d="M40.1,36.8c-0.6-0.5-0.6-2.3-1.7-2.3c-2.6,1.7,0.7,3.3-2,5l1.9-0.2c-0.9-1.1-0.4-2.4,0.5-3.2l0.9,0.6
						c0,0.4,0,0.7-0.1,1C40,37.5,39.4,36.9,40.1,36.8z"/>
					<path fill="#202020" d="M39.4,37.7c0,0,0.1,0,0.1,0c0,0,0,0,0-0.1C39.5,37.7,39.5,37.7,39.4,37.7z"/>
				</g>
			</g>
		</g>
	</g>
</g>
<g>
	<g>
		<g>
			<g>
				<g>
					<path fill="#202020" d="M151.5,81.9c0-0.1,0-0.2,0-0.3c-0.1,0-0.1,0-0.2,0.1L151.5,81.9z"/>
					<path fill="#202020" d="M169.6,78.4C169.6,78.4,169.6,78.4,169.6,78.4c0-0.1,0.1-0.2,0.1-0.3C169.6,78.3,169.6,78.3,169.6,78.4
						z"/>
					<path fill="#202020" d="M164.7,78.8c0-0.1,0-0.2-0.1-0.4C164.6,78.5,164.6,78.6,164.7,78.8z"/>
					<path fill="#202020" d="M153.2,83c-0.1-0.2-0.2-0.4-0.3-0.6C152.8,82.7,152.9,83.1,153.2,83z"/>
					<path fill="#202020" d="M165,79.4c-0.1-0.2-0.2-0.4-0.3-0.6C164.8,79,164.9,79.2,165,79.4z"/>
					<path fill="#202020" d="M177.2,82.9c0-0.2-0.1-0.4-0.2-0.5c-0.1,0.1-0.1,0.1-0.2,0.2L177.2,82.9z"/>
					<path fill="#202020" d="M34.4,82.7c0.3-0.1,0.4-0.3,0.4-0.7C34.8,82.3,34.6,82.5,34.4,82.7z"/>
					<path fill="#202020" d="M42.3,83.8c-0.1,0.1-0.1,0.1-0.2,0.2C42.2,83.9,42.3,83.8,42.3,83.8z"/>
					<path fill="#202020" d="M38.4,78.1c0-0.1,0-0.3,0-0.4C38.4,77.9,38.4,78,38.4,78.1z"/>
					<path fill="#202020" d="M93.1,66.1l-0.2-0.3C92.9,66,93,66.1,93.1,66.1z"/>
					<path fill="#202020" d="M103.4,65.3C103.4,65.3,103.4,65.4,103.4,65.3C103.4,65.4,103.4,65.3,103.4,65.3z"/>
					<path fill="#202020" d="M103.7,65.4c-0.1,0-0.1,0-0.2,0C103.6,65.4,103.6,65.4,103.7,65.4z"/>
					<path fill="#202020" d="M176.5,84.7c0.6-0.3,1.4,0.1,1.9-0.5l-1.1-1.3C177.4,83.7,177.1,84.6,176.5,84.7z"/>
					<path fill="#202020" d="M69.1,90.6c0.4,0,0.6-0.1,0.7-0.3C69.6,90.4,69.4,90.4,69.1,90.6L69.1,90.6z"/>
					<path fill="#202020" d="M78.4,84.4C78.3,84.4,78.3,84.4,78.4,84.4C78.3,84.5,78.4,84.4,78.4,84.4L78.4,84.4z"/>
					<path fill="#202020" d="M68.4,91.3c-0.1,0.1-0.1,0.2-0.1,0.4C68.4,91.6,68.4,91.5,68.4,91.3z"/>
					<path fill="#202020" d="M148.7,84.1c-0.1,0-0.1,0.1-0.2,0.1C148.6,84.2,148.7,84.1,148.7,84.1z"/>
					<path fill="#202020" d="M77.8,83.3l0.5,1.1c0.1-0.2,0.2-0.3,0.3-0.5C78.8,83,78.1,83.1,77.8,83.3z"/>
					<path fill="#202020" d="M68.4,91.3c0.2-0.4,0.4-0.6,0.7-0.7L68.8,90C68.1,90,68.4,90.8,68.4,91.3z"/>
					<path fill="#202020" d="M34.2,79.6c0.3,0.7-1.1,1.4-0.4,1.8l1-1.2c-0.2,0.6,0.1,1.4,0.1,2c0.5-1.2-0.7-2.2,0.5-3.8
						c0.3-0.7,1-0.5,1.3-0.3c-0.7-0.3,0.2-1.2,0.5-1.6c0.4,0.6,1.2,0.4,1.3,1.3c0.1-0.3,0.5-0.4,0.7-0.2l0,0.4
						c0.6-0.3-0.1-0.4,0.1-0.8c0.4-0.1,0.9,0.9,1.6,0.9c-0.7,0-1.3,0.5-1.8,0.9c1.1,0.9-0.5,2.1-0.9,3.2c1-0.4,1.5-1.1,2.4-1.7
						c0.9,1-0.5,3.1-0.7,3.2c1-0.5,2.1-1.7,2.6-2.2c-0.9,1.6-0.8,2.1-1.6,3.4c0.6,1,0.9-0.1,1.3-0.7c-0.2,0.1-0.5,0.2-0.6-0.1
						c0.8,0.2,1-2.3,1.6-3.4c0.5,0.8,1.7,1.2,1.4,2.7l0.2-1.6c0.8-0.3,0.3,0.9,0.3,1.4c0.4-1.1,0.2-2.7,1.5-2.9
						c-0.5,2.5,1.1,0.3,0.8,2.7c0.6-0.1,1-1.4,1.6-1.1c0.5,1.4-1.2,3.1-1.5,2.6c-0.8,0,0.2-1.1-0.1-1.1l-0.9,0.6
						c0.4,0.5,1.2,1.2,1,2.3c0.9-0.4-0.5-1.2,0.4-1.7l0.5,0.6c0.9-0.5,0-1.8,1.2-2c-0.9,1.1,1.3,0.1,1,1.8c0.2-2.1,2.1-0.1,2.5-1.8
						l-0.6-0.5l0.1,1c-0.7,0-1.3,0.5-1.9,0.1c0.6-0.7,0-1.8,0.7-2.4c1.3-1.2,0.2,1.2,0.4,1.2l1-1.1l-0.6-1c0.8-0.3,1.8-0.3,2.7-0.1
						c1.4,1.4-0.3,1.2,0.7,2.4c0.5-0.4,0.4-1,1.1-0.8c-0.3-0.6-0.7,0.2-0.9,0.1c-0.2-1.4,1.3-0.5,1.3-1.8c0.2,0.5,0.1,1.1-0.1,1.6
						c1.2-0.4,2.2-0.1,2.5,1.6l0.6-1.6c1.9,0.7-1.4,1.4,0.1,2.6c0.7,0.2,1.3,0.2,1.7-0.5l-0.6-0.1c0.5-0.9,0.5-1.5,1.3-2
						c0.5,0.2,0.1,1.3,0.8,0.4c1.5,1,0.3,2.5-0.1,4c1.1,0.9-0.8,3.1,0,2.4L63,88.2l1.3-2.1c-1-1.9-0.5,1.7-0.9-0.2l-0.6-0.2
						c0.3-0.9,1.7-0.2,1.9-1.2c0,0.5-0.3,1.8-1,1.8l0.3,2.1c0.4,0.2,0.7-1.1,0.9-0.2c0.5,1.3-1,2,0.4,2.6c1.5,0.5,1.6-2,2.6-1.6
						c-0.1-0.5-0.3-0.4-0.7-0.5c0.4-0.7-0.2-1.3,0.4-1.7c0.2,1.4,1.3,1.4,2.2,1.4c-0.3,0.7,0.2,1.5-0.1,1.9c0.4-0.2,0.8-0.4,1.1-1
						c-1.6-1.1,1.7-1,0.5-2.5c1.3,0.2,1.5,1.4,2.3,2.2c-0.1,0.4-1.6,0.8-0.4,1.4c1.4-1.3-0.1-2,1-3.7l-0.8-0.6
						c0-1.8,1.5-0.3,1.7-0.7c0.5,0.5-0.8,0.4-0.3,1.7c0.8,0.4,1.2-0.6,1.7,0c-0.6,1.2-0.2,0.7-0.8,1.7c1.8,0.1-0.2,1.4,1.2,2.2
						c0.5-0.2,0.2-1.2,0.9-0.9c-0.3-1.3-0.3-1.7-1.4-1.8c0.5-1.8,1.5,0.5,2.4-0.5c-0.6-0.2-0.2-0.4-0.9-0.1c0-1.5-0.2-1.8,0.5-3.2
						c-0.8,0.4-1.2,2-2.2,1.5c-0.2-1.6,1.4-1.1,1.5-3.2c0.6-1,1.8-0.1,2.4,0.7c1.1-1.2,2.4-1.2,3.3-2.9c0.7,0.6,2.7-1,4.1-0.4
						c0.2,0.9,1.7,0.7,0.8,1.6c0.1-0.3,1.3-0.4,1.1-1.2c-0.1,0.3-0.3,0-0.5,0.1l0.3-1.1c0.6,0.5,1.5-0.9,2.1-0.1
						c0.1,0.9-1.3,0.5-0.9,1.6c0.7-1.6,3.4-2.2,4.1-1.4c0.5,0.3,0.5,1.7,0.7,1.9l0.9,0c0.1,0.5,0,1,0.2,1.6c0.4,0.4,0.8-0.1,1.1-0.3
						c1.1,1,0.4,2.1-0.3,3l-0.6-0.5c-0.5,0.6-1.2,0.3-0.9,1.6c0.3-0.1,0.4-0.6,0.5-0.9l0.3,0.8c0.4-0.5,1.5-0.7,1.5-1.7
						c0.7,0.8,1.7,0,2.4,0.9c-0.4-0.7,0.2-1,0.1-1.8l-0.8-0.4c0.7-0.2,1.8-0.9,2.4-0.2c-0.1,0.6-0.2,0.8,0.1,1.5
						c-0.4-0.9,1.3-1,0.4-2.2c-0.4,0.3-0.8,0.4-1.2,0.3c-0.2-1.4,0.6-1.5,1.1-2.2c0.6-0.3,1.6-0.6,2.4-1c0.4,0.4,0.4,1.9,1.3,1.1
						c-0.9-1.4,1.1-2.1,1.5-3.4c0.7,0.7,1.3-1,1.8,0.1c-0.4,0.4-1.5,0.3-1.9,1.3c-0.1,1,0,2.5-1.2,2.9c1.3,0.6,0.9-0.7,1.5-1.1
						l-0.5,0.1c0.3-0.4-0.1-1.1,0.3-1.1c1.6,0.5,1.7,1.6,2.6,2.9c-0.2-0.7,0.4-1.3,0.7-1.3c0.9,1-0.3,2,0.2,3.5
						c0.5-0.8,1.1-0.5,1-1.2c0.4,0,0.1,0.4,0.4,0.7c0.4-0.8,0.7-1.2,1.3-1.1c-0.1,0.4-0.3,1-0.8,0.7c0.6,0.4,0.6,1.9,0.2,2.7
						l-0.9-0.7c-0.6,0.9,0.9,0.5,0.7,1.5c-0.5,0.2-0.7-0.5-1-0.2c0.1,1.1,1.1,0.2,1.6,0.1c0.8,0.3,0.3,1.2,0.3,1.8
						c1.5-1.5-1.3-2,0.1-3.4c0.6-1.1,1.8-0.8,2.6-0.9c-0.5-1.4,0.3-1.9,1.3-2.2c-1.1-0.2-0.1-1.6-1.5-0.9l0.1-1.1
						c0.6,0.1,1.2,0.7,1.7,0.8c-0.2,0.3-0.1,0.5-0.3,0.7l1.8-0.2l-0.3,0.7c1,0.3,2.2,1.3,2.8,1c-0.5,0-0.8-1.1-0.2-1.3
						c0.4-0.4,1-0.8,1.5-0.6c0,1.3,1.8,1.6,0.5,2.6c1.5-0.4,1.1-0.7,2.6-1.2l-1,0.2c0.1-1,1.1-2.5,0.3-3.3c1.2-0.4,0.8-2.3,2.3-2.3
						c0.5,0.7-0.5,1.9-1.4,2.1c0.4,0.1,0.7,0.7,1.2,0.1c0.2,0.9-1,1.3-1,1.6c0.7,0.2,0.1-0.5,0.8-0.7c1.4-0.9,0.5,1.8,1.7,1.3
						c-0.3,0-0.6-0.4-0.3-0.8c1.5,0.3,1-0.8,2.3-1.1c0.3,1.5-0.3,3,0.7,3.5l-0.6-0.1c0.2,0.8,0.6,1.2,1,1.3c2.3-0.8,4.5-2.5,7-3.1
						l-0.9,0.2c-0.1-0.5,0.8-0.4,0.9-1l0.3,0.8c0.4-1-0.8-1.2-0.3-2.2c0,0.1,0.2,0.2,0.3,0.1l-0.4-0.4c0.9,0.6,2.2-1,2.6,0.8
						c-2-0.3-1.1,2.9-3.1,2.9c1.1-0.1-0.1,1.1-0.1,1.6c0.5,0.4,0.5-0.7,1-0.2c-0.2,0.7-1.6,1.1-1.2,1.7c0.4-1.1,0.8-0.8,1.3-1.5
						c0.4,0.4-0.2,0.7-0.1,1.1c0.3,0,0.5-0.4,0.7-0.2l-0.4,0.7c0.9,1.3,0.7-1,2-0.3c0.3-0.9-0.2-0.8-0.8-0.8c0.3-2.1,2.4-1.7,2.9-4
						c1.4,0-0.6,0.8,0.4,1.6c0.2,1.6-1.2,1.3-1.8,2.2l0.9,1.2c-0.9,1.7-1.4,0.9-2.1,2.5c0.8,0.3,0.9-0.1,1.9-0.5
						c-1-1.7,0.9-0.9,0.6-2.9c0.5,0.6,0.2,0.9,1.2,1.2c-0.7,0.2-0.4,1.4-1.2,1.3c1.3,0.2,1.1-0.3,2.4,0c0.8-1.1-0.8-2,1-2.5
						c0.3,0.1,0.1,0.5-0.1,0.5c1,0.8,0.2-1.6,1.1-2.1c0.5,0,0.6,0.5,0.3,0.8c0.9-0.5,0.8-1.4,1.4-1.6l-0.2-0.2
						c0.3-0.3,0.3-2.3,1.4-2c0.8,0.2,0.3,0.9,0.2,1.3c0.7-0.2,1.1,0.3,1.4,0.8c0-0.3,0.2-0.5,0.3-0.4c1.2-0.1,0.2,1.2,0.6,1.5
						c1.3,1.1,0.6-2.4,2.3-1.8l-1.8-1.1c0.3-0.6,0.6-1.5,0.2-1.6c-0.3,0.9-1.3,1.5-1.9,1.1c0.1-1.1,2.1-0.6,1.4-2.1
						c0.3,0.3,1,0.2,1.4,0.5c-0.9,1,1.5,0.8,0.2,1.7c2.2,0.5,2.3,1.3,4.5,1.3c-0.5,0.6-2.4,1.9-3.2,1l0.1-0.7
						c-1.5,0.3,0.7,1.1,0.1,2c2.2-1.1,3.1,2.1,5.2,2.3c-0.1-0.7,0.4-0.9,0.8-1.4c-0.8-0.2-0.8,0.1-1-0.9c0.4-0.7,0.8-0.2,1.3-0.7
						c0.6-0.7-0.6-0.3-0.7-0.8c0.9-0.1,0.9-0.3,1.7-0.7c0.1,0.9-0.1,1.2-0.2,2.1c1.7,1,2.3-0.5,3.6,0.5c-0.7-0.6-0.1,1-0.8,0.3
						l0.4,0.4c-1.9,0.5-4-0.6-4.7,1.5c1.1,0.3,2.3-0.5,3.6,0.1l-0.3,0.3c0.8,0.6,0.2-0.5,0.6-0.7c1.4-0.1,0.2,2.5,1.7,1.6
						c0,0-0.2-0.2-0.4-0.4c-0.2-0.2-0.4-0.4-0.4-0.4c1.2-0.4-0.1-0.3,0.8-1.4c2-0.1,4,2,6.6,2.7c-0.1-1-0.2-1.2-1-1.8
						c1.5-1.3,1.7-0.9,2.3-2.5c0,0-0.2-0.2-0.5-0.4c-0.2-0.2-0.5-0.4-0.5-0.4l1-1.5c0.3,0.2,0.5,0.4,0.7,0.8
						c0.8-0.8,1.4,1.5,2.1,0.7l-1-0.6c0.1-1.1,1.1-0.2,2,0c0.1-1.4-2-1.5-3.3-2.3c-0.3,0.6-2.3,0.9-1.2,1.8
						c-0.4,0.6-1.4,0.5-1.8,0.2c0.5-0.2,0.1-2.3,1.6-2c-1.6,0-0.5-0.3-1.9-0.7c0.4-0.4-2.1-1.2-1.2-2.5c-0.7,0.4-1.1,2-2.5,1.4
						c-0.2,1.1,1.3,2.1-0.3,2.6l1-0.3c0.7,1-0.8,0.9,0.2,1.9c-0.3-0.3-1.3-0.1-1.1-0.9c-0.8,2.2-2.3,0.1-3.1,1.6
						c0.1-0.7-0.2-1-1-1.1c0.4-0.5,0.3-1.2,1-1.4c0.3,0.4,0.8,0.3,1,1c0.4-1.1,0.1-1.5-0.5-1.7c-0.5-0.2-1.3-0.2-1.7-0.7
						c0.1,0.2,0,0.5-0.4,0.6c-0.5-0.6-1.8-1.6-1-2.4c0,0-0.9-0.3-1.7-0.6c-0.9-0.3-1.7-0.5-1.7-0.5c0.2-0.5,0.6,0,0.8-0.1l-1.8-0.7
						c-0.2-0.9,0.9-0.5,1.3-1.1l-1.4-0.4l0.4-0.6c-0.5,0.3-2.1,0-2.1-1.2c-1.6-0.1-2.3,2.1-3.9,0.5c0.4-1.1,1.2-0.1,1.9-0.7
						c-0.3-0.5-1.7-0.1-1.5-1.2c-1.6,0.2-2,2.3-3,3.2c-1.1-0.2,0.2-1,0.2-1.3c-0.3-0.2-1.4,1.8-1.3,0.2c-0.8,0.7-1.3,1.6-0.7,2.2
						c-0.6-0.2-1.5,0.1-1.8,0.6c0.9-1.5-0.5-0.8-0.2-2.2c-0.4-0.3-1-0.6-1.7-0.7c-0.7-0.1-1.5,0.1-2.2,0.9l0.7-1.8l-1.1-0.1
						c-0.5-1.3,1.2-0.9,1.8-0.9c-1.4-0.6-2.4-0.7-3.7-1c0.3,0.5,0,0.8,0,1.4c-0.6,0.6-1.1-0.1-1.6,0c0-0.5,0.1-0.9,0.5-0.9l-0.9,0
						c0.3-1.1-0.1-1.2,1-1.8L139,69c-0.8-0.5,0.3-0.9,0.6-1.2c0,0-0.4-0.1-0.7-0.3c-0.4-0.1-0.7-0.2-0.7-0.2c-0.7,0.5,0.1,1.1-1,1.2
						c-1.1-1.3-2.9-1.3-4.4-1.9l0.9,1.3c-0.9-0.5-1,1.4-1.5,2.1c-0.8-0.4-1.9-0.5-2.6-1.1c1-0.8,0.9-2.1,0.3-3.1
						c-1.7-0.4-1.6,1.6-2.7,2.1c1.1-2.2-1.1-1-0.7-2.2c-2.2-0.3-4.5,0.2-6.7-0.2c0,0.3,0.6,0.8,0.1,1.1c-0.9,0.2-1.1-0.7-1.2-1.2
						c-1.1,0-1.8,0.7-2.2,1.3c0.5-0.2,0.5,0.2,0.3,0.8c-1.1,0.1-0.6-1.4-1.7-0.5c-0.1-1.3,1.2-0.5,1.2-1.7c-0.9-0.2-1.6,0.3-2.3,0.8
						c-0.1-0.8,0.6-0.1,0.2-0.8c-1.5,0.4-3.3,1-4.5,1.3l-0.2-1.1c-0.7,0-1.2,0.2-1.5,0.6c-0.3-0.4,0-0.7,0.4-0.8
						c-0.9-0.2-2.1,0.5-2.7,0.6c0.1-0.6,0.5,0,0.7-0.5c-1.1-0.4-2.8,1.5-3.4,0.1c0.1-0.2,0.2-0.2,0.3-0.2c-1.7-0.2-3.2,0.4-5.1,0.4
						c-1.6-1.4-0.7,1.6-2.3,1.3c0.2-2.8-2.2-0.3-2.9-0.9l0.2,0.4c-0.9,1.1-1.9,0-2.5-0.8c-1.2-0.3-3.1-0.3-4.4,0.7l0.3-0.6
						c-1.1,0.7-1.6-0.2-2.7,0.4c0-0.2,0.4-0.5,0.1-0.8c-4.8-1.1-9.9,0.4-14.6-0.2c-9.2-1.2-20.3-2.5-29.3-1.5c0,0-1.4,2.7-2.9,6.1
						C35.8,73.3,34.2,77.2,34.2,79.6z"/>
					<path fill="#202020" d="M147.3,85.4c0,0-0.1-0.1-0.1-0.1C147.2,85.3,147.3,85.4,147.3,85.4z"/>
					<path fill="#202020" d="M126.4,79.4c0.1,0,0.2,0,0.3,0C126.6,79.3,126.5,79.3,126.4,79.4z"/>
					<path fill="#202020" d="M107.5,80.7l0.4-0.1C107.7,80.6,107.6,80.6,107.5,80.7z"/>
					<path fill="#202020" d="M79.2,83.9c0.1,0.8-0.8,2.2-0.1,2.9c2.3,0.2,1.2-3.1,3.5-2.7l-1.1-1c0,1.4-0.9,2.2-1.8,2.2l-0.2-1
						c0.2-0.3,0.4-0.5,0.5-0.7C79.6,83.4,79.6,84.2,79.2,83.9z"/>
					<path fill="#202020" d="M80,83.6C80,83.6,80,83.5,80,83.6C80,83.5,80,83.5,80,83.6C80,83.6,80,83.6,80,83.6z"/>
				</g>
			</g>
		</g>
	</g>
</g>
</svg>
