<?xml version="1.0" encoding="utf-8"?>
<!-- Generator: Adobe Illustrator 18.1.1, SVG Export Plug-In . SVG Version: 6.00 Build 0)  -->
<svg version="1.1" id="Layer_1" xmlns="http://www.w3.org/2000/svg" xmlns:xlink="http://www.w3.org/1999/xlink" x="0px" y="0px"
	 viewBox="0 0 792 1224" enable-background="new 0 0 792 1224" xml:space="preserve">
<rect fill="#FFFFFF" stroke="#FFFFFF" stroke-miterlimit="10" width="786.1" height="1218.1"/>
<path fill="#FFCC99" stroke="#F7941E" stroke-width="6.75" stroke-miterlimit="10" d="M379.8,454.4c47-2.4,96.3,6.3,134.3,34.1
	s62.3,77.3,51.2,123.1c-7.3,30.3-29,55.9-55.4,72.4c-26.4,16.5-57.4,24.6-88.4,28.2c-60.3,7-128.2-5.7-165.9-53.3
	C217,609.9,225,530.6,272.8,490.4C302.2,465.8,341.6,456.4,379.8,454.4z"/>
<g>
	<path fill="#F7941E" d="M449.4,389.7c0,0,0.3-0.8,1-2.2c0.7-1.4,1.6-3.5,3-6c1.3-2.6,3-5.7,5.1-9.2c0.5-0.9,1.1-1.8,1.7-2.7
		c0.6-0.9,1.2-1.9,1.8-2.8c0.6-1,1.4-1.8,2.3-2.7c0.8-0.9,1.7-1.8,2.6-2.7c1.8-1.8,3.7-3.7,5.9-5.4c1-0.9,2.2-1.8,3.3-2.6
		c0.6-0.4,1.2-0.8,1.8-1.3l0.9-0.6l0.2-0.2l0.3-0.2l0.4-0.3c0.6-0.4,1.2-0.7,1.8-1.1c0.7-0.4,1.4-0.7,2.1-1.1c0.7-0.4,1.4-0.7,2.1-1
		c0.7-0.3,1.4-0.7,2.1-1c2.9-1.2,6-2.2,9.2-2.9c6.4-1.3,13.5-1.6,20.3,0.4c3.4,1,6.8,2.4,9.8,4.5l0.6,0.4l0.6,0.5l1,0.8
		c0.6,0.5,1.3,0.9,2,1.7l2,2c0.6,0.7,1.1,1.4,1.7,2.1l0.8,1.1l0.7,1.2c0.5,0.8,1,1.5,1.4,2.3c0.8,1.6,1.6,3.2,2.2,4.9
		c0.7,1.7,1.1,3.4,1.5,5.1c0.2,0.8,0.3,1.7,0.5,2.6c0.1,0.9,0.3,1.7,0.4,2.6c0.1,0.9,0.2,1.7,0.2,2.6c0.1,0.9,0,1.7,0.1,2.6
		c0.1,1.7-0.1,3.4-0.2,5.1c-0.4,3.3-0.9,6.6-1.8,9.8c-0.8,3.2-2.1,6.2-3.5,9c-0.4,0.7-0.7,1.4-1.1,2c-0.4,0.6-0.7,1.3-1.1,1.9
		c-0.8,1.3-1.6,2.7-2.5,3.8c-3.3,4.9-7,9-10.6,12.6c-0.9,0.9-1.8,1.7-2.7,2.6c-0.8,0.9-1.7,1.7-2.7,2.3c-1.9,1.3-3.7,2.5-5.4,3.6
		c-3.4,2.2-6.5,3.9-9,5.4c-2.5,1.4-4.5,2.5-5.9,3.2c-1.4,0.7-2.1,1.1-2.1,1.1s2.4-2.3,6.5-6.3c2.1-2,4.5-4.5,7.3-7.3
		c1.4-1.4,2.8-3,4.3-4.6c0.7-0.9,1.5-1.6,2.4-2.3c0.8-0.8,1.7-1.6,2.5-2.4c3.4-3.3,6.8-7.2,9.8-11.6c0.8-1.1,1.4-2.2,2.2-3.3
		c0.4-0.5,0.7-1.2,1-1.8c0.3-0.6,0.7-1.2,1-1.8c1.2-2.5,2.3-5.1,3-7.8c0.8-2.7,1.3-5.6,1.6-8.5c0.1-1.5,0.2-2.9,0.2-4.4
		c0-0.7,0-1.5-0.1-2.2l-0.2-2.2c0-0.7-0.2-1.5-0.3-2.2c-0.1-0.7-0.2-1.5-0.4-2.2c-0.4-1.4-0.7-2.9-1.3-4.3c-0.4-1.4-1.2-2.7-1.8-4
		c-0.3-0.6-0.8-1.2-1.1-1.9l-0.6-0.9l-0.7-0.9c-0.5-0.6-0.9-1.2-1.3-1.7l-1.4-1.4c-0.4-0.5-1.1-1-1.8-1.5l-1-0.8l-0.2-0.2l-0.1-0.1
		l-0.1,0c0.1,0-0.2-0.2,0.1,0.1l-0.5-0.3c-2.4-1.7-5.1-2.8-7.8-3.6c-5.6-1.6-11.6-1.4-17.1-0.3c-2.8,0.6-5.5,1.4-8,2.5
		c-0.6,0.3-1.3,0.6-1.9,0.8c-0.6,0.3-1.2,0.6-1.8,0.9c-0.6,0.3-1.1,0.6-1.7,0.9c-0.6,0.4-1.2,0.7-1.8,1.1l-0.4,0.3l-0.1,0.1l-0.1,0
		c0.2-0.1,0,0,0,0l-0.2,0.1l-0.8,0.6c-0.5,0.4-1.1,0.7-1.6,1.1c-1,0.8-2,1.5-3,2.4c-1.9,1.6-3.7,3.3-5.4,5c-0.8,0.9-1.6,1.7-2.3,2.6
		c-0.7,0.9-1.4,1.7-2.2,2.5c-0.8,0.7-1.6,1.5-2.3,2.2c-0.8,0.7-1.5,1.4-2.2,2.2c-2.7,2.8-5.1,5.4-7.1,7.5c-1.9,2.1-3.5,3.8-4.5,5
		C449.9,389.1,449.4,389.7,449.4,389.7z"/>
</g>
<g>
	<path fill="#F7941E" d="M427,564c-0.2-1-0.4-1.9-0.5-2.9c-0.2-1-0.3-1.9-0.5-2.9c-0.3-1.9-0.6-3.8-0.9-5.8l-0.8-5.8
		c-0.1-1-0.3-1.9-0.3-2.9c0-1,0.1-1.9,0.2-2.9l0-1.1l0.7-0.9c2.2-2.8,5.5-4.8,8.8-5.6c3.3-0.8,6.7-0.6,9.8,0.2
		c3.2,0.8,6.1,2.4,8.7,4.5c0.7,0.7,1,0.9,1.6,1.6l0.9,0.9l0.7,0.9c1,1.2,1.8,2.5,2.6,3.9c1.5,2.7,2.6,5.5,3.4,8.4
		c0.8,2.8,1.4,5.7,1.8,8.5l0.1,0.6l0.1,0.5l0.1,1l0.3,2.1c0.2,1.3,0.3,2.8,0.4,4.2c0.1,1.4,0.2,2.9,0.2,4.3c0,1.4,0.1,2.8,0.1,4.3
		l-0.1,4.3c-0.1,1.4-0.2,2.8-0.2,4.3c-0.1,1.4-0.2,2.8-0.4,4.2l-0.2,2.1c-0.1,0.7-0.2,1.4-0.3,2.1c-0.2,1.4-0.4,2.8-0.7,4.2
		l-0.8,4.2c-0.7,2.8-1.3,5.5-2.1,8.2l-0.6,2l-0.7,2c-0.5,1.3-0.9,2.7-1.4,4c-0.5,1.3-1,2.6-1.5,4c-0.3,0.7-0.7,1.3-1,1.9l-1.2,1.8
		c-0.7,1.2-1.6,2.4-2.4,3.5l-1.2,1.7l-1.3,1.7c-1.7,2.2-3.7,4.3-5.6,6.4c1-2.7,2-5.2,2.9-7.9l0.7-2l0.6-2c0.4-1.3,0.8-2.6,1.2-3.9
		l0.5-2c0.2-0.7,0.3-1.3,0.6-1.9c0.6-1.2,1-2.5,1.5-3.7c0.5-1.2,0.9-2.5,1.3-3.8l0.6-1.9l0.6-1.9c0.8-2.6,1.4-5.2,2-7.8l0.8-3.9
		c0.3-1.3,0.4-2.6,0.6-4c0.1-0.7,0.2-1.3,0.3-2l0.2-2c0.1-1.3,0.3-2.7,0.4-4l0.2-4l0.1-4c0-1.3-0.1-2.7-0.1-4c0-1.3-0.1-2.7-0.2-4
		c-0.1-1.3-0.2-2.6-0.4-4l-0.5-4c-0.8-5.2-2.1-10.3-4.4-14.6c-0.6-1.1-1.2-2.1-2-3l-0.6-0.7l-0.5-0.6c-0.3-0.3-1-1-1.3-1.3
		c-1.6-1.4-3.7-2.5-5.9-3.1c-2.2-0.6-4.5-0.7-6.5-0.2c-2.1,0.5-3.8,1.6-5,3.1l0.7-2c0,1,0.1,1.9,0,2.9c-0.1,1-0.3,1.9-0.5,2.9
		l-1,5.7c-0.4,1.9-0.8,3.8-1.1,5.7c-0.2,1-0.4,1.9-0.6,2.9C427.5,562.1,427.3,563,427,564z"/>
</g>
<g>
	<path fill="#F7941E" d="M389.3,621.3c0.4,1,0.9,2,1.3,3c0.4,1,0.9,2,1.3,3c0.8,2,1.6,4.1,2.4,6.1l2.3,6.1c0.4,1,0.8,2,1.1,3.1
		c0.3,1.1,0.4,2.1,0.6,3.2l0.3,1.1l-0.4,1c-1.6,3.6-4.5,6.6-7.9,8.3c-3.3,1.8-7,2.5-10.6,2.5c-3.6,0-7.2-0.9-10.5-2.5
		c-0.9-0.5-1.4-0.7-2.2-1.3l-1.2-0.8l-1.1-0.8c-1.4-1.1-2.7-2.3-3.8-3.5c-2.4-2.5-4.3-5.3-6-8.1c-1.7-2.9-3.1-5.8-4.3-8.8l-0.3-0.6
		l-0.2-0.5l-0.4-1.1l-0.8-2.2c-0.6-1.4-1.1-3-1.6-4.5l-0.8-2.3c-0.3-0.8-0.4-1.5-0.7-2.3c-0.4-1.5-0.9-3.1-1.3-4.6l-1.1-4.7
		c-0.3-1.6-0.6-3.1-0.9-4.7c-0.3-1.6-0.5-3.2-0.8-4.7l-0.3-2.4c-0.1-0.8-0.2-1.6-0.2-2.4c-0.1-1.6-0.4-3.2-0.4-4.8l-0.3-4.8
		c0-3.2-0.1-6.4,0-9.6l0.1-2.4l0.2-2.4c0.1-1.6,0.2-3.2,0.4-4.8c0.2-1.6,0.4-3.2,0.5-4.8c0.1-0.8,0.4-1.6,0.6-2.3l0.7-2.3
		c0.4-1.5,1.1-3,1.6-4.5l0.8-2.2l1-2.2l1-2.2c0.3-0.7,0.6-1.5,1-2.2c0.7-1.4,1.4-2.8,2.2-4.2c-0.4,3.2-0.9,6.3-1.1,9.4l-0.2,2.3
		l-0.2,2.3c-0.1,1.5-0.3,3.1-0.3,4.6l-0.1,2.3c0,0.8,0,1.5-0.2,2.3c-0.3,1.5-0.4,3-0.6,4.5c-0.2,1.5-0.3,3-0.4,4.5l-0.2,2.3
		l-0.1,2.3c-0.2,3-0.1,6.1,0,9.1l0.2,4.6c0.1,1.5,0.3,3,0.4,4.5c0.1,0.8,0.1,1.5,0.2,2.3l0.3,2.3c0.2,1.5,0.4,3,0.7,4.5
		c0.3,1.5,0.6,3,0.9,4.5l1.1,4.4c0.3,1.5,0.8,2.9,1.2,4.4c0.2,0.7,0.4,1.5,0.6,2.2l0.7,2.1c0.5,1.4,0.9,2.8,1.5,4.3l1.7,4.3
		c2.3,5.5,5.1,10.8,9,14.9c1,1,2,2,3.1,2.8l0.8,0.6l0.8,0.5c0.4,0.3,1.4,0.8,1.8,1.1c2.3,1.1,4.9,1.8,7.5,1.8c2.6,0,5.3-0.5,7.4-1.7
		c2.2-1.1,3.8-2.9,4.8-5l-0.2,2.1c-0.2-1.1-0.6-2.1-0.8-3.1c-0.2-1.1-0.2-2.2-0.3-3.3l-0.6-6.5c-0.2-2.2-0.3-4.4-0.5-6.6
		c-0.1-1.1-0.1-2.2-0.2-3.3C389.4,623.5,389.3,622.4,389.3,621.3z"/>
</g>
<g>
	<path fill="#F7941E" d="M521.3,850.3c1.1-0.1,2.1-0.1,3.1-0.2c1.1,0,2.1-0.1,3.2-0.1c2.1,0,4.2,0,6.4,0.1l3.2,0.2l3.2,0.3l3.2,0.5
		c1.1,0.2,2.1,0.6,3.1,1l3.1,1.3c1,0.5,2,1,3,1.4c1,0.5,2,1.1,2.9,1.7c1,0.6,1.9,1.3,2.8,2c0.9,0.7,1.8,1.5,2.6,2.3
		c0.8,0.8,1.6,1.7,2.4,2.6c0.7,1,1.4,1.9,2,2.9l1.6,3.1l1.5,2.8l-3,1.5l-25,12.7l-3.3,1.7l-1.4-3.6l-0.5-1.2l-0.5-1.2l-0.6-1.1
		l-0.7-1.1l-0.7-1.1l-0.8-1l-0.9-1l-0.9-0.9l-1-0.9l-1-0.8l-1.1-0.7l-1.1-0.7l-1.1-0.6l-1.2-0.5l-1.2-0.5l-1.2-0.4l3.9-4.9
		c1.5,2.6,3.2,5.2,4.8,7.9c1.6,2.7,3.3,5.5,4.6,8.8c0.6,1.6,1.2,3.4,1.4,5.5c0,0.5,0.1,1.1,0,1.7c0,0.6-0.1,1.2-0.3,1.8
		c-0.3,1.2-0.9,2.5-1.8,3.4c-0.4,0.5-0.9,0.9-1.4,1.3c-0.5,0.3-1,0.6-1.5,0.9c-0.5,0.2-1,0.4-1.5,0.6l-1.4,0.4
		c-1.9,0.4-3.6,0.6-5.4,0.6c-0.4,0-0.8,0-1.3,0l-0.6,0l-0.3,0l-0.2,0l-0.1,0l-0.3,0c-0.8-0.1-1.5-0.1-2.3-0.2
		c-0.9-0.2-1.9-0.4-2.8-0.6c-0.9-0.3-1.7-0.5-2.6-0.9c-1.7-0.7-3.3-1.6-4.8-2.6c-0.7-0.5-1.4-1.2-2-1.9l-0.9-1
		c-0.3-0.4-0.5-0.7-0.8-1.1l-0.7-1.1l-0.6-1.2c-0.4-0.8-0.8-1.6-1.1-2.4c-0.7-1.6-1-3.3-1.3-5c-0.1-0.8-0.1-1.7-0.2-2.5
		c0-0.8,0.1-1.7,0.1-2.5c0.1-0.8,0.3-1.6,0.4-2.4c0.2-0.8,0.5-1.5,0.7-2.3l0.1,2.3c0.1,0.8,0.2,1.5,0.4,2.3c0.2,0.7,0.4,1.5,0.6,2.2
		c0.3,0.7,0.5,1.4,0.8,2.1c0.6,1.3,1.4,2.5,2.2,3.7c0.4,0.6,0.8,1.1,1.4,1.6l0.7,0.7l0.8,0.7c1,0.9,2.2,1.5,3.3,2.3
		c0.5,0.4,1,0.8,1.6,1.1c0.5,0.4,1.2,0.6,1.7,0.9c0.6,0.3,1.2,0.4,1.8,0.6c0.6,0.2,1.1,0.2,1.7,0.4c0.7,0.1,1.5,0.2,2.3,0.2l0,0l0,0
		c-0.4,0-0.1,0-0.2,0l0.1,0l0.1,0l0.3,0l0.5,0c0.4,0,0.7,0,1.1,0c1.4,0,2.7-0.2,3.9-0.4c1.2-0.3,2-0.7,2.3-1.1
		c0.2-0.2,0.2-0.4,0.4-0.6c0.1-0.3,0.1-0.7,0.1-1.2c-0.1-1-0.4-2.3-0.9-3.5c-1-2.5-2.5-5.1-4.1-7.7c-1.6-2.6-3.3-5.2-4.9-8l-4.4-7.6
		l8.3,2.6l1.6,0.5l1.6,0.6l1.5,0.7l1.5,0.8l1.5,0.9l1.4,1l1.3,1.1l1.3,1.1l1.2,1.2l1.1,1.3l1,1.3l1,1.4l0.9,1.5l0.8,1.5l0.7,1.6
		l0.6,1.6l-4.7-1.9l25-12.7l-1.6,4.4l-1.2-2.4l-1.5-2.2l-1.8-2c-0.7-0.6-1.4-1.2-2.1-1.8c-0.8-0.5-1.5-1.1-2.3-1.6
		c-0.8-0.5-1.6-1-2.4-1.4c-0.9-0.4-1.7-0.8-2.6-1.2c-0.9-0.4-1.8-0.7-2.7-1.1c-0.9-0.3-1.9-0.5-2.8-1l-2.7-1.2l-2.8-1.1l-2.9-1
		c-1.9-0.7-3.9-1.4-5.9-2L521.3,850.3z"/>
</g>
<path id="SVGID_x5F_1_x5F_" fill="none" d="M319.6,533.3c-34.8-3.4-67.2,26.4-71.5,60.1c-4.3,33.7,15.4,67.5,43.9,87.3
	c28.5,19.8,64.5,27.1,99.5,27.5c31,0.4,62.8-4.5,89.2-20.1c26.4-15.5,46.6-43.1,47.1-73.1c0.5-30-22.3-60.5-53.1-64.5"/>
<text opacity="0.33"><textPath  xlink:href="#SVGID_x5F_1_x5F_" startOffset="40.2018%">
<tspan  fill="#F7941E" font-family="'FFFTusj-Bold'" font-size="12">Monica M Raffaelli 2015</tspan></textPath>
</text>
<g>
	<path fill="#F7941E" d="M320.5,720.6c0,0-0.6,0-1.7,0.1c-1.1,0.1-2.7,0.3-4.8,0.6c-1,0.2-2.2,0.4-3.5,0.7c-1.3,0.3-2.6,0.7-4.1,1.2
		c-2.9,0.9-6.2,2.2-9.7,4.1c-6.9,3.6-14.6,9.4-21.4,17.8c-1.7,2.1-3.3,4.3-4.8,6.8c-1.5,2.4-2.9,5-4.2,7.7c-1.3,2.7-2.5,5.5-3.7,8.4
		c-1.1,2.9-2,6-2.7,9.2c-0.7,3.2-1.1,6.5-1.2,9.8l0,0.6l0,0.2c0,0.1,0-0.2,0,0l0,0.3l0,1.3c0,0.9,0,1.8,0,2.7c0,1.9,0.2,3.5,0.4,5.2
		c0.1,0.9,0.2,1.7,0.3,2.6c0.2,0.9,0.3,1.8,0.5,2.6c0.2,0.9,0.3,1.8,0.5,2.7c0.2,0.9,0.5,1.8,0.7,2.6c0.5,1.8,0.9,3.6,1.6,5.3
		c0.3,0.9,0.6,1.8,0.9,2.6l0.5,1.3c0.2,0.4,0.4,0.9,0.6,1.3c2.9,7,6.8,13.7,11.6,20.1c4.8,6.3,10.5,12.3,16.9,17.5
		c1.6,1.3,3.3,2.5,4.9,3.8c1.7,1.2,3.5,2.4,5.2,3.6c1.8,1.2,3.6,2.2,5.4,3.3l0.7,0.4l0.7,0.3l1.5,0.8l2.9,1.5
		c7.6,3.8,15.8,6.8,24.3,9.2c17,4.6,35,6.4,53,6.1c9-0.2,18-0.8,26.9-2c8.9-1.1,17.7-2.7,26.2-4.9c8.5-2.2,16.9-5,24.8-8.4
		c7.9-3.4,15.3-7.6,22.2-12.3c0.8-0.6,1.7-1.2,2.5-1.7c0.8-0.7,1.7-1.3,2.5-2c0.8-0.7,1.7-1.3,2.5-2c0.8-0.7,1.5-1.3,2.3-2
		c3-2.6,5.9-5.5,8.5-8.5c5.3-5.9,9.8-12.4,13.3-19.1c7.1-13.4,10.1-27.8,9-40.8c-0.3-3.3-0.8-6.3-1.6-9.3c-0.4-1.5-0.9-3-1.3-4.4
		c-0.2-0.7-0.5-1.4-0.7-2.1c-0.3-0.7-0.5-1.4-0.8-2.1c-1-2.8-2.2-5.4-3.5-7.9c-1.3-2.5-2.8-4.8-4.3-7.1c-3.1-4.4-6.5-8.2-10-11.3
		c-3.5-3.2-7-5.7-10.4-7.6c-3.4-2-6.6-3.4-9.5-4.4c-2.9-1-5.4-1.7-7.5-2.1c-2.1-0.4-3.7-0.7-4.8-0.8c-1.1-0.1-1.7-0.2-1.7-0.2
		s0.6,0,1.7,0c1.1,0,2.8,0.1,4.9,0.2c4.3,0.4,10.6,1.5,18.1,5c7.4,3.4,15.8,9.2,23.2,18.1c1.8,2.2,3.6,4.6,5.3,7.2
		c1.6,2.6,3.2,5.4,4.6,8.4c1.4,3,2.5,6.2,3.3,9.5c0.8,3.3,1.4,7,1.7,10.5c1.2,14.3-2.1,30.1-9.7,44.4c-3.8,7.2-8.6,14.1-14.3,20.4
		c-2.9,3.2-5.8,6.2-9.2,9.1c-0.8,0.7-1.7,1.4-2.5,2.2c-0.8,0.7-1.7,1.3-2.5,2c-0.8,0.7-1.7,1.3-2.5,2c-0.9,0.6-1.8,1.3-2.8,1.9
		c-7.2,5-15.1,9.4-23.3,12.9c-8.3,3.6-16.9,6.5-25.8,8.7c-8.9,2.3-17.9,3.9-27.1,5.1c-9.1,1.1-18.4,1.8-27.6,2
		c-18.5,0.3-37.2-1.4-54.9-6.3c-8.9-2.4-17.4-5.6-25.6-9.7l-2.9-1.5l-1.5-0.8l-0.8-0.4l-0.7-0.4c-1.9-1.2-3.9-2.2-5.8-3.5
		c-1.8-1.3-3.7-2.5-5.5-3.8c-1.8-1.4-3.6-2.7-5.2-4.1c-6.8-5.6-12.9-11.9-18-18.7c-5.1-6.8-9.3-14.1-12.5-21.6
		c-3.1-7.5-5.1-15.2-6-23c-0.2-1.9-0.5-4-0.4-5.7c0-0.9,0-1.8,0-2.7l0-1.3l0-0.3c0,0.1,0-0.3,0-0.3l0-0.2l0-0.7
		c0.1-3.8,0.6-7.4,1.4-10.9c0.7-3.5,1.7-6.9,2.8-10.1c1.1-3.2,2.4-6.3,4.1-9.2c1.6-2.8,3.4-5.5,5.2-7.9c1.8-2.5,3.8-4.7,5.8-6.8
		c4-4.2,8.1-7.6,12.2-10.4c4.1-2.7,8.2-4.8,12-6.4c3.8-1.6,7.3-2.6,10.4-3.2c1.5-0.4,3-0.5,4.3-0.7c1.3-0.2,2.5-0.3,3.6-0.4
		c2.2-0.1,3.8-0.2,4.9-0.1C320,720.5,320.5,720.6,320.5,720.6z"/>
</g>
<g>
	<path fill="#F7941E" d="M541.9,757.8c0.5-0.9,1.1-1.8,1.7-2.7c0.6-0.9,1.1-1.8,1.7-2.6c1.2-1.7,2.4-3.4,3.7-5.1l2-2.5l2.1-2.4
		l2.3-2.4c0.8-0.8,1.7-1.4,2.6-1.9l2.8-1.8c1-0.6,1.9-1.1,2.9-1.6c1-0.5,2-0.9,3.1-1.4c1.1-0.4,2.2-0.8,3.2-1.1
		c1.1-0.3,2.2-0.6,3.4-0.8c1.2-0.2,2.3-0.3,3.5-0.4c1.2,0,2.4,0,3.5,0l3.5,0.5l3.2,0.4l-0.5,3.4l-4.2,27.7l-0.6,3.7l-3.7-1l-1.3-0.3
		l-1.3-0.2l-1.3-0.2l-1.3-0.1l-1.3,0l-1.3,0.1l-1.3,0.1l-1.3,0.2l-1.3,0.3l-1.2,0.4l-1.2,0.4l-1.2,0.5l-1.2,0.6l-1.1,0.6l-1.1,0.7
		l-1,0.8l-1.8-6c3,0.3,6.1,0.4,9.2,0.6c3.2,0.2,6.4,0.5,9.8,1.3c1.7,0.4,3.5,1,5.3,2c0.5,0.3,0.9,0.6,1.4,1c0.5,0.3,0.9,0.8,1.3,1.3
		c0.8,1,1.5,2.2,1.7,3.5c0.2,0.6,0.2,1.2,0.2,1.9c0,0.6-0.1,1.2-0.1,1.7c-0.1,0.5-0.2,1-0.4,1.6l-0.5,1.4c-0.7,1.8-1.7,3.3-2.6,4.7
		c-0.2,0.4-0.5,0.7-0.7,1L581,786l-0.2,0.3l-0.1,0.1l0,0.1l-0.2,0.2c-0.5,0.6-1,1.2-1.6,1.8c-0.7,0.7-1.4,1.4-2.2,2
		c-0.7,0.5-1.5,1.1-2.2,1.6c-1.6,0.9-3.2,1.7-4.9,2.4c-0.9,0.3-1.8,0.5-2.7,0.5l-1.3,0.1c-0.4,0-0.9,0-1.3,0l-1.3,0l-1.3-0.2
		c-0.9-0.1-1.7-0.3-2.6-0.5c-1.7-0.4-3.3-1.1-4.8-1.9c-0.8-0.4-1.4-0.9-2.1-1.3c-0.7-0.5-1.3-1-1.9-1.5c-0.6-0.6-1.2-1.2-1.7-1.7
		c-0.5-0.6-1-1.3-1.5-1.9l2,1.3c0.7,0.3,1.4,0.7,2.1,1c0.7,0.2,1.4,0.5,2.1,0.8c0.7,0.2,1.4,0.4,2.1,0.5c1.4,0.2,2.9,0.4,4.3,0.3
		c0.7,0,1.4,0,2.1-0.2l1-0.2l1-0.3c1.3-0.3,2.5-0.9,3.7-1.4c0.6-0.1,1.2-0.4,1.8-0.6c0.6-0.2,1.1-0.6,1.7-0.9c0.6-0.3,1-0.8,1.6-1.1
		c0.5-0.4,0.9-0.8,1.3-1.2c0.5-0.5,1-1.2,1.5-1.7l0,0l0,0c-0.2,0.3-0.1,0.1-0.1,0.1l0-0.1l0.1-0.1l0.2-0.2l0.3-0.4
		c0.2-0.3,0.4-0.6,0.6-0.9c0.8-1.2,1.5-2.3,1.9-3.4c0.5-1.1,0.6-2.1,0.4-2.5c0-0.3-0.2-0.4-0.3-0.7c-0.2-0.2-0.5-0.5-0.9-0.7
		c-0.8-0.5-2.1-1-3.4-1.3c-2.7-0.6-5.7-0.9-8.7-1.1c-3-0.2-6.2-0.3-9.4-0.6l-8.7-0.8l6.9-5.2l1.4-1l1.4-0.9l1.5-0.9l1.5-0.8l1.6-0.7
		l1.6-0.6l1.6-0.5l1.7-0.4l1.7-0.3l1.7-0.2l1.7-0.1l1.7,0l1.7,0.1l1.7,0.2l1.7,0.3l1.6,0.4l-4.3,2.7l4.2-27.7l2.7,3.8l-2.6-0.4
		l-2.7,0l-2.7,0.3c-0.9,0.2-1.8,0.4-2.7,0.6c-0.9,0.3-1.8,0.6-2.6,0.9c-0.9,0.4-1.7,0.8-2.6,1.2c-0.8,0.5-1.7,0.9-2.5,1.4
		c-0.8,0.5-1.6,1-2.4,1.6c-0.8,0.6-1.5,1.2-2.4,1.7l-2.6,1.5l-2.6,1.6l-2.5,1.7c-1.7,1.2-3.4,2.4-5,3.7L541.9,757.8z"/>
</g>
<g>
	<path fill="#F7941E" d="M274.4,858.1l-6,1.9c-2,0.6-4,1.3-5.9,2l-2.9,1l-2.8,1.1l-2.7,1.2c-0.9,0.5-1.8,0.7-2.8,1
		c-0.9,0.3-1.8,0.7-2.7,1.1c-0.9,0.4-1.7,0.8-2.6,1.2c-0.8,0.4-1.6,0.9-2.4,1.4c-0.8,0.5-1.5,1.1-2.3,1.6c-0.7,0.6-1.4,1.2-2.1,1.8
		l-1.8,2l-1.5,2.2l-1.2,2.4l-1.6-4.4l25,12.7l-4.7,1.9l0.6-1.6l0.7-1.6l0.8-1.5l0.9-1.5l1-1.4l1-1.3l1.1-1.3l1.2-1.2l1.3-1.1
		l1.3-1.1l1.4-1l1.5-0.9l1.5-0.8l1.5-0.7l1.6-0.6l1.6-0.5l8.3-2.6l-4.4,7.6c-1.6,2.8-3.3,5.4-4.9,8c-1.6,2.6-3.1,5.2-4.1,7.7
		c-0.5,1.3-0.9,2.5-0.9,3.5c-0.1,0.5,0,0.9,0.1,1.2c0.1,0.3,0.1,0.5,0.4,0.6c0.3,0.4,1.2,0.9,2.3,1.1c1.2,0.3,2.5,0.4,3.9,0.4
		c0.3,0,0.7,0,1.1,0l0.5,0l0.3,0l0.1,0l0.1,0c-0.1,0,0.2,0-0.2,0l0,0l0,0c0.8-0.1,1.6-0.1,2.3-0.2c0.6-0.2,1.1-0.2,1.7-0.4
		c0.6-0.2,1.2-0.4,1.8-0.6c0.6-0.3,1.2-0.5,1.7-0.9c0.5-0.4,1.1-0.7,1.6-1.1c1-0.7,2.3-1.3,3.3-2.3l0.8-0.7l0.7-0.7
		c0.5-0.5,0.9-1,1.4-1.6c0.9-1.1,1.6-2.3,2.2-3.7c0.3-0.7,0.5-1.4,0.8-2.1c0.2-0.7,0.4-1.4,0.6-2.2c0.1-0.7,0.2-1.5,0.4-2.3l0.1-2.3
		c0.2,0.7,0.5,1.5,0.7,2.3c0.1,0.8,0.3,1.6,0.4,2.4c0.1,0.8,0.1,1.6,0.1,2.5c-0.1,0.8,0,1.7-0.2,2.5c-0.2,1.7-0.6,3.4-1.3,5
		c-0.3,0.8-0.6,1.6-1.1,2.4l-0.6,1.2l-0.7,1.1c-0.3,0.4-0.5,0.8-0.8,1.1l-0.9,1c-0.6,0.7-1.2,1.4-2,1.9c-1.5,1-3.1,1.9-4.8,2.6
		c-0.8,0.4-1.7,0.6-2.6,0.9c-0.9,0.2-1.9,0.4-2.8,0.6c-0.8,0.1-1.6,0.2-2.3,0.2l-0.3,0l-0.1,0l-0.2,0l-0.3,0l-0.6,0
		c-0.4,0-0.8,0-1.3,0c-1.7,0-3.5-0.2-5.4-0.6l-1.4-0.4c-0.5-0.2-1-0.4-1.5-0.6c-0.5-0.3-1-0.5-1.5-0.9c-0.5-0.4-1-0.7-1.4-1.3
		c-0.9-0.9-1.5-2.2-1.8-3.4c-0.1-0.6-0.3-1.2-0.3-1.8c-0.1-0.6,0-1.1,0-1.7c0.2-2.1,0.8-3.9,1.4-5.5c1.3-3.2,3-6,4.6-8.8
		c1.6-2.7,3.4-5.3,4.8-7.9l3.9,4.9l-1.2,0.4l-1.2,0.5l-1.2,0.5l-1.1,0.6l-1.1,0.7l-1.1,0.7l-1,0.8l-1,0.9l-0.9,0.9l-0.9,1l-0.8,1
		l-0.7,1.1l-0.7,1.1l-0.6,1.1l-0.5,1.2l-0.5,1.2l-1.4,3.6l-3.3-1.7l-25-12.7l-3-1.5l1.5-2.8l1.6-3.1c0.7-1,1.3-1.9,2-2.9
		c0.8-0.9,1.6-1.8,2.4-2.6c0.9-0.8,1.7-1.6,2.6-2.3c0.9-0.7,1.9-1.4,2.8-2c1-0.6,1.9-1.2,2.9-1.7c1-0.5,2-1,3-1.4l3.1-1.3
		c1-0.4,2-0.8,3.1-1l3.2-0.5l3.2-0.3l3.2-0.2c2.1-0.1,4.2-0.1,6.4-0.1c1.1,0,2.1,0.1,3.2,0.1C272.3,858,273.4,858,274.4,858.1z"/>
</g>
<g>
	<path fill="#F7941E" d="M250.1,758.2l-5-3.8c-1.7-1.3-3.3-2.5-5-3.7l-2.5-1.7l-2.6-1.6l-2.6-1.5c-0.9-0.5-1.6-1.1-2.4-1.7
		c-0.8-0.6-1.6-1.1-2.4-1.6c-0.8-0.5-1.7-0.9-2.5-1.4c-0.8-0.4-1.7-0.8-2.6-1.2c-0.9-0.3-1.7-0.6-2.6-0.9c-0.9-0.2-1.8-0.4-2.7-0.6
		l-2.7-0.3l-2.7,0l-2.6,0.4l2.7-3.8l4.2,27.7l-4.3-2.7l1.6-0.4l1.7-0.3l1.7-0.2l1.7-0.1l1.7,0l1.7,0.1l1.7,0.2l1.7,0.3l1.7,0.4
		l1.6,0.5l1.6,0.6l1.6,0.7l1.5,0.8l1.5,0.9l1.4,0.9l1.4,1l6.9,5.2l-8.7,0.8c-3.2,0.3-6.4,0.4-9.4,0.6c-3,0.2-6,0.5-8.7,1.1
		c-1.3,0.3-2.6,0.7-3.4,1.3c-0.4,0.2-0.7,0.5-0.9,0.7c-0.2,0.2-0.3,0.4-0.3,0.7c-0.1,0.5,0,1.4,0.4,2.5c0.5,1.1,1.1,2.3,1.9,3.4
		c0.2,0.3,0.4,0.6,0.6,0.9l0.3,0.4l0.2,0.2l0.1,0.1l0,0.1c-0.1-0.1,0.1,0.2-0.1-0.1l0,0l0,0c0.5,0.6,1,1.2,1.5,1.7
		c0.5,0.4,0.8,0.8,1.3,1.2c0.5,0.4,1,0.8,1.6,1.1c0.6,0.3,1.1,0.7,1.7,0.9c0.6,0.2,1.2,0.5,1.8,0.6c1.2,0.4,2.4,1.1,3.7,1.4l1,0.3
		l1,0.2c0.7,0.1,1.4,0.2,2.1,0.2c1.4,0.1,2.8-0.1,4.3-0.3c0.7-0.1,1.4-0.3,2.1-0.5c0.7-0.2,1.4-0.5,2.1-0.8c0.7-0.3,1.4-0.7,2.1-1
		l2-1.3c-0.5,0.6-1,1.3-1.5,1.9c-0.6,0.6-1.1,1.2-1.7,1.7c-0.6,0.5-1.3,1.1-1.9,1.5c-0.7,0.4-1.4,0.9-2.1,1.3
		c-1.5,0.8-3.1,1.5-4.8,1.9c-0.8,0.2-1.7,0.4-2.6,0.5l-1.3,0.2l-1.3,0c-0.4,0-0.9,0-1.3,0l-1.3-0.1c-0.9,0-1.8-0.2-2.7-0.5
		c-1.7-0.7-3.3-1.5-4.9-2.4c-0.8-0.5-1.5-1-2.2-1.6c-0.7-0.6-1.4-1.3-2.2-2c-0.6-0.6-1-1.2-1.6-1.8l-0.2-0.2l0-0.1l-0.1-0.1
		l-0.2-0.3l-0.4-0.5c-0.2-0.3-0.5-0.7-0.7-1c-1-1.4-1.9-2.9-2.6-4.7l-0.5-1.4c-0.1-0.5-0.2-1-0.4-1.6c-0.1-0.6-0.1-1.1-0.1-1.7
		c0-0.6,0-1.2,0.2-1.9c0.2-1.3,0.9-2.5,1.7-3.5c0.4-0.5,0.8-0.9,1.3-1.3c0.4-0.4,0.9-0.7,1.4-1c1.8-1.1,3.6-1.6,5.3-2
		c3.4-0.8,6.6-1.1,9.8-1.3c3.2-0.2,6.3-0.3,9.2-0.6l-1.8,6l-1-0.8l-1.1-0.7l-1.1-0.6l-1.2-0.6l-1.2-0.5l-1.2-0.4l-1.2-0.4l-1.3-0.3
		l-1.3-0.2l-1.3-0.1l-1.3-0.1l-1.3,0l-1.3,0.1l-1.3,0.2l-1.3,0.2l-1.3,0.3l-3.7,1l-0.6-3.7l-4.2-27.7l-0.5-3.4l3.2-0.4l3.5-0.5
		c1.2,0,2.4,0,3.5,0c1.2,0.1,2.3,0.3,3.5,0.4c1.1,0.3,2.3,0.5,3.4,0.8c1.1,0.4,2.2,0.7,3.2,1.1c1,0.5,2.1,0.9,3.1,1.4
		c1,0.5,2,1.1,2.9,1.6l2.8,1.8c0.9,0.6,1.8,1.2,2.6,1.9l2.3,2.4l2.1,2.4l2,2.5c1.3,1.7,2.5,3.4,3.7,5.1c0.6,0.9,1.2,1.8,1.7,2.6
		C249,756.4,249.6,757.3,250.1,758.2z"/>
</g>
<g>
	<path fill="#F7941E" d="M305.6,399.9c0,0-0.6-0.7-1.7-1.9c-1.1-1.2-2.7-3-4.8-5.4c-2.1-2.3-4.6-5.1-7.5-8.1
		c-0.7-0.8-1.5-1.5-2.3-2.3c-0.8-0.8-1.6-1.6-2.5-2.4c-0.9-0.8-1.6-1.7-2.4-2.7c-0.8-1-1.7-1.8-2.5-2.7c-1.8-1.8-3.7-3.6-5.8-5.4
		c-1-0.9-2.1-1.7-3.2-2.6c-0.5-0.4-1.1-0.8-1.7-1.2l-0.9-0.6l-0.2-0.2c0,0-0.1-0.1,0,0l-0.1,0l-0.1-0.1l-0.5-0.3
		c-0.6-0.4-1.3-0.8-1.9-1.2c-0.6-0.3-1.2-0.7-1.9-1l-0.9-0.5l-1-0.5c-0.7-0.3-1.3-0.6-2-0.9c-2.7-1.1-5.6-2-8.6-2.7
		c-6-1.2-12.5-1.4-18.5,0.3c-3,0.9-5.9,2.1-8.5,3.9l-0.5,0.3c0.3-0.2,0,0,0.1-0.1l-0.1,0.1l-0.1,0.1l-0.3,0.2l-1,0.8
		c-0.7,0.5-1.5,1.1-1.9,1.6l-1.5,1.6c-0.5,0.6-1,1.2-1.5,1.8l-0.7,0.9l-0.6,1c-0.4,0.7-0.9,1.3-1.2,2c-0.7,1.4-1.4,2.8-1.9,4.4
		c-0.6,1.5-1,3-1.4,4.6c-0.2,0.8-0.3,1.6-0.5,2.4c-0.1,0.8-0.3,1.6-0.3,2.4c-0.1,0.8-0.1,1.6-0.2,2.4c-0.1,0.8,0,1.6-0.1,2.4
		c-0.1,1.6,0.1,3.2,0.2,4.8c0.3,3.1,0.8,6.3,1.7,9.2c0.8,3,2,5.8,3.2,8.4c0.4,0.7,0.7,1.3,1.1,2c0.4,0.7,0.7,1.4,1.1,2
		c0.8,1.2,1.5,2.4,2.3,3.6c3.3,4.8,6.9,8.9,10.5,12.5c0.9,0.9,1.8,1.8,2.7,2.6c1,0.8,1.8,1.6,2.6,2.5c1.6,1.7,3.1,3.4,4.6,4.9
		c3,3,5.7,5.6,7.9,7.8c4.5,4.3,7,6.7,7,6.7s-0.8-0.4-2.3-1.2c-1.5-0.8-3.6-1.9-6.3-3.5c-2.7-1.5-6-3.4-9.6-5.8
		c-1.8-1.2-3.8-2.5-5.8-3.9c-1-0.7-2-1.5-2.9-2.5c-0.9-0.9-1.9-1.8-2.8-2.8c-3.8-3.8-7.8-8.3-11.4-13.5c-0.9-1.3-1.8-2.7-2.6-4.1
		c-0.5-0.7-0.8-1.4-1.2-2.1l-0.6-1l-0.3-0.5l-0.1-0.3l-0.1-0.1l-0.1-0.2l0-0.1c-1.4-3.1-2.8-6.2-3.7-9.6c-1-3.4-1.6-6.9-2-10.5
		c-0.1-1.8-0.3-3.6-0.2-5.4c0-0.9,0-1.8,0.1-2.7c0.1-0.9,0.2-1.8,0.3-2.8c0.1-0.9,0.2-1.8,0.4-2.8c0.2-0.9,0.3-1.8,0.5-2.7
		c0.5-1.8,0.9-3.6,1.6-5.4c0.6-1.8,1.5-3.5,2.3-5.2c0.5-0.8,1-1.6,1.5-2.5l0.8-1.2l0.9-1.1c0.6-0.8,1.2-1.5,1.8-2.3l2.2-2.2
		c0.7-0.8,1.4-1.2,2.1-1.8l1-0.8l0.7-0.5l0.6-0.4c3.2-2.2,6.8-3.7,10.4-4.8c7.3-2.1,14.8-1.8,21.7-0.4c3.4,0.8,6.7,1.8,9.8,3.1
		c0.8,0.3,1.5,0.7,2.3,1l1.1,0.5l1.1,0.6c0.7,0.4,1.5,0.8,2.2,1.2c0.7,0.4,1.3,0.8,1.9,1.2l0.5,0.3l0.3,0.2l0.2,0.2l1,0.7
		c0.6,0.5,1.3,0.9,1.9,1.3c1.2,0.9,2.4,1.8,3.5,2.8c2.3,1.9,4.3,3.9,6.3,5.8c0.9,1,1.9,1.9,2.8,2.9c0.9,0.9,1.8,1.9,2.5,2.9
		c0.7,1,1.4,2,2,3c0.6,1,1.2,1.9,1.8,2.9c2.3,3.7,4.1,7.1,5.5,9.8c1.4,2.7,2.5,5,3.2,6.4C305.2,399.1,305.6,399.9,305.6,399.9z"/>
</g>
<g>
	<path fill="#F7941E" d="M370.9,415c0,0,0.4,0.4,1,1c0.6,0.7,1.4,1.6,2.2,2.8c0.8,1.2,1.6,2.6,2.3,4.2c0.4,0.8,0.7,1.6,1,2.4
		c0.3,0.8,0.6,1.7,0.9,2.6c0.3,0.9,0.5,1.7,0.7,2.6c0.2,0.9,0.3,1.7,0.5,2.6c0.2,1.7,0.3,3.3,0.3,4.8c0,1.4-0.1,2.6-0.3,3.5
		c-0.1,0.9-0.3,1.4-0.3,1.4s-0.4-0.4-1-1c-0.6-0.7-1.4-1.6-2.2-2.8c-0.8-1.2-1.6-2.6-2.3-4.2c-0.4-0.8-0.7-1.6-1-2.4
		c-0.3-0.8-0.6-1.7-0.9-2.6c-0.3-0.9-0.5-1.8-0.7-2.6c-0.2-0.9-0.4-1.7-0.5-2.6c-0.2-1.7-0.3-3.3-0.3-4.8c0-1.4,0.1-2.6,0.3-3.5
		C370.8,415.6,370.9,415,370.9,415z"/>
</g>
<g>
	<path fill="#F7941E" d="M402.3,411.6c0,0,0.1,0.1,0.2,0.3c0.1,0.2,0.3,0.4,0.5,0.8c0.4,0.7,0.8,1.6,1.2,2.8c0.4,1.2,0.8,2.5,1,4
		c0.2,1.4,0.3,3,0.3,4.5c0,3.1-0.6,6.1-1.5,8.4c-0.4,1.1-0.9,2.1-1.3,2.8c-0.2,0.3-0.4,0.6-0.5,0.8c-0.1,0.2-0.2,0.3-0.2,0.3
		s-0.1-0.1-0.2-0.3c-0.1-0.2-0.3-0.4-0.5-0.8c-0.4-0.7-0.8-1.6-1.2-2.8c-0.8-2.3-1.4-5.4-1.3-8.5c0-1.5,0.2-3.1,0.5-4.5
		c0.3-1.4,0.7-2.8,1.1-3.9c0.4-1.1,0.9-2.1,1.3-2.8c0.2-0.3,0.4-0.6,0.5-0.8C402.2,411.7,402.3,411.6,402.3,411.6z"/>
</g>
<path fill="#FFCC99" stroke="#F7941E" stroke-width="6.75" stroke-miterlimit="10" d="M405.7,835.8c1.4,4.9,4,9.7,8.4,12.3
	c4.4,2.5,10.8,1.9,13.7-2.3c2.6-3.9,1.4-9,0.6-13.6s-0.7-10.2,3.1-12.8c4.9-3.3,11.7,0.9,17.5-0.5c6.1-1.6,8.8-9.6,6.2-15.4
	c-2.6-5.7-8.8-9.1-15.1-10c-10.7-1.5-21.9,3.2-28.6,11.7C404.9,813.7,402.8,825.4,405.7,835.8z"/>
<path fill="#FFCC99" stroke="#F7941E" stroke-width="6.75" stroke-miterlimit="10" d="M389,835.6c-1.2,4.9-3.6,9.9-7.9,12.6
	s-10.8,2.3-13.7-1.8c-2.7-3.8-1.8-9-1.1-13.6s0.4-10.2-3.6-12.7c-5.1-3.2-11.7,1.4-17.5,0.1c-6.1-1.3-9.1-9.3-6.8-15.1
	s8.5-9.4,14.7-10.5c10.6-1.9,22,2.5,29,10.7C389,813.4,391.5,825.1,389,835.6z"/>
<path fill="#FFCC99" stroke="#F7941E" stroke-width="6.75" stroke-miterlimit="10" d="M424,775.7c2.9-4.1,5-9.2,4.2-14.3
	c-0.8-5-5.4-9.6-10.4-9.1c-4.6,0.5-7.9,4.6-10.9,8.1c-3.1,3.5-7.4,7-11.9,5.7c-5.7-1.7-6.7-9.7-11.5-13.3c-5.1-3.7-13-0.8-15.8,4.9
	c-2.8,5.6-1.5,12.6,1.8,18c5.5,9.3,16.4,15,27.2,14.8C407.3,790.3,417.8,784.5,424,775.7z"/>
<g>
	<path fill="#F7941E" d="M319,392.2c0,0,0-0.3,0.1-0.8c0.1-0.5,0.2-1.3,0.4-2.2c0.4-2,1.1-4.9,2.7-8.3c0.7-1.8,1.7-3.6,2.9-5.6
		c1.2-2,2.7-4,4.5-6.1c1.8-2,3.9-4,6.4-5.9c0.6-0.5,1.3-0.9,2-1.3c0.7-0.4,1.4-0.8,2.1-1.1c0.4-0.2,0.7-0.3,1.1-0.5l0.3-0.1l0.1,0
		l0.1-0.1l0.1-0.1l0.5-0.2c0.7-0.3,1.4-0.6,2.3-0.9c3.3-1.1,6.8-1.8,10.5-2c3.7-0.2,7.5,0.1,11.3,1.1c3.8,1,7.5,2.5,11,4.7l1.3,0.9
		c0.2,0.2,0.4,0.3,0.7,0.5l0.6,0.4c0.8,0.6,1.6,1.2,2.4,1.9c1.5,1.3,3,2.7,4.5,4.1c2.9,2.8,5.7,5.7,8.7,8c1.5,1.2,3.1,2.2,4.8,3
		c0.8,0.4,1.7,0.8,2.6,1l0.6,0.2c-0.3-0.1,0,0-0.1,0l0.1,0l0.2,0l0.4,0.1l1.5,0.3c0.3,0.1,0.4,0,0.7,0.1l0.6,0l0.6,0
		c0.2,0,0.4,0,0.6,0c0.9-0.1,1.8-0.1,2.7-0.4l1.3-0.3l1.3-0.5c0.9-0.3,1.7-0.8,2.6-1.2c3.4-1.8,6.3-4.5,8.6-7.6
		c2.3-3.1,4-6.8,4.9-10.5c0.1-0.5,0.2-0.9,0.2-1.4l0.1-0.7l0.1-0.4l0-0.1c0,0,0-0.2,0,0l0-0.2l0.1-1.6c0-0.5,0.1-1.1,0.1-1.5
		c0-1.8-0.1-3.8-0.5-5.7c-1.4-7.6-5.4-14.7-10.9-19.7c-2.7-2.5-5.8-4.6-9-6c-3.2-1.4-6.6-2.2-9.8-2.2c-3.2,0-6.2,0.9-8.7,2.5
		c-1.3,0.9-2.1,1.7-3,2.9c-0.9,1.1-1.5,2.4-2,3.7c-0.5,1.3-0.8,2.6-1,3.9c-0.1,1.3-0.1,2.5,0,3.7c0.2,1.2,0.4,2.3,0.9,3.2l0.2,0.4
		l0.2,0.3l0.2,0.3l0.1,0.2l0.1,0.1l0,0c0,0,0.1,0.1,0,0c0.2,0.2,0.5,0.5,0.6,0.7c0.2,0.2,0.3,0.3,0.5,0.5c1.6,1.4,3.7,2.1,5.7,2.4
		c2,0.3,4,0,5.7-0.4c3.5-0.9,6.1-2.1,7.9-3c1.8-0.9,2.7-1.3,2.7-1.3s-0.9,0.6-2.5,1.8c-1.7,1.1-4,2.9-7.6,4.4
		c-1.8,0.7-3.9,1.3-6.4,1.4c-2.4,0.1-5.3-0.4-7.9-2.1c-0.3-0.2-0.7-0.5-1-0.7c-0.3-0.3-0.5-0.4-0.8-0.7c-0.3-0.3-0.6-0.6-0.9-1
		l-0.4-0.5l-0.3-0.5c-1-1.4-1.6-3-2.1-4.6c-0.4-1.7-0.4-3.5-0.2-5.2c0.3-1.7,0.7-3.5,1.3-5.1c0.7-1.7,1.5-3.3,2.7-4.8
		c1.1-1.5,2.8-3.1,4.3-4.1c3.3-2.2,7.4-3.3,11.5-3.3c4.1,0,8.1,1,11.9,2.7c3.7,1.7,7.3,4,10.4,6.9c6.2,5.7,10.9,13.7,12.5,22.5
		c0.4,2.2,0.6,4.4,0.6,6.8c0,0.6,0,1.1-0.1,1.6l-0.1,1.6l0,0.2c0,0.3,0,0.1,0,0.2l0,0.1l-0.1,0.4l-0.1,0.9c-0.1,0.6-0.2,1.1-0.3,1.7
		c-1,4.5-3,8.7-5.7,12.4c-2.7,3.7-6.2,6.9-10.3,9.1c-1.1,0.5-2.1,1.1-3.2,1.4l-1.7,0.6l-1.7,0.4c-1.1,0.3-2.4,0.3-3.5,0.5
		c-0.6,0.1-1.3,0-1.9,0c-0.6,0-1.3-0.1-1.9-0.2l-1.5-0.3l-1-0.2l-0.8-0.3c-1.1-0.3-2.2-0.8-3.2-1.3c-2.1-1-3.9-2.3-5.6-3.6
		c-3.4-2.7-6.3-5.7-9.1-8.4c-1.4-1.4-2.8-2.7-4.2-3.9c-0.7-0.6-1.4-1.2-2.2-1.7l-0.6-0.4l-0.5-0.3l-1.1-0.7c-3-1.9-6.3-3.2-9.5-4.1
		c-6.6-1.7-13.3-1.1-18.8,0.8c-0.6,0.2-1.4,0.5-2.1,0.8l-0.5,0.2l-0.1,0.1c0,0,0.1,0,0,0l-0.1,0l-0.2,0.1c-0.3,0.2-0.6,0.3-1,0.5
		c-0.6,0.3-1.2,0.7-1.8,1c-0.6,0.3-1.2,0.7-1.8,1c-2.4,1.3-4.5,2.9-6.4,4.5c-3.7,3.3-6.5,6.7-8.4,9.8c-1.9,3.1-3.2,5.7-3.9,7.6
		c-0.4,0.9-0.6,1.7-0.8,2.1C319.1,392,319,392.2,319,392.2z"/>
</g>
<path fill="#FFCC99" stroke="#F7941E" stroke-width="6.75" stroke-miterlimit="10" d="M313.5,361c0.4-3.7,0.9-7.5,0-11.2
	c-0.9-3.6-3.3-7.1-6.9-8.2c-6.6-1.9-12.9,6.3-10.9,12.8c2,6.6,9.6,10.1,16.5,9.7c0.2-2,0.3-4.1,0.5-6.1"/>
<path fill="#FFCC99" stroke="#F7941E" stroke-width="6.75" stroke-miterlimit="10" d="M444.3,356.6c-0.4-3.7-0.9-7.5,0-11.2
	c0.9-3.6,3.3-7.1,6.9-8.2c6.6-1.9,12.9,6.3,10.9,12.8c-2,6.6-9.6,10.1-16.5,9.7c-0.2-2-0.3-4.1-0.5-6.1"/>
<g>
	<path fill="#FFCC99" stroke="#F7941E" stroke-width="6.75" stroke-miterlimit="10" d="M446.9,1099c-5.6,2.5-10.4,6.9-13.3,12.3
		c0.3,0.7,0.6,1.3,1,2c-0.5-6.3-6.9-11.4-13.1-10.6c0.1,6.1,3.8,12,9.2,14.7c-8.5-2.1-18,1.3-23.3,8.1c8.4,4.6,20,2.3,25.9-5.3
		c-4.2,7.1-3.4,16.7,1.9,23c5.3-5.5,6.9-14.4,3.7-21.4c3.9,5,10.8,7.5,17,6.3c-2.2-6.7-8.4-11.8-15.3-12.7
		C446,1112.4,448.8,1105.1,446.9,1099z"/>
	<path fill="#B5E2D0" stroke="#16AB97" stroke-width="6.75" stroke-miterlimit="10" d="M394.1,1128.9c-7.9,1.8-15.1,6.2-20.3,12.3
		c0.2,0.9,0.5,1.9,0.7,2.8c0.9-8.2-5.9-16.4-14-17c-1.5,7.8,1.7,16.3,7.9,21.3c-10.3-4.9-23.4-3.1-32,4.3c9.6,8.1,25,8.1,34.6,0.1
		c-7.2,8-8.7,20.6-3.6,30c8.3-5.7,12.6-16.7,10.3-26.5c3.7,7.4,11.8,12.5,20.1,12.6c-1.1-9.1-7.7-17.3-16.3-20.3
		C389.4,1145.8,395,1137.2,394.1,1128.9z"/>
	<path fill="#B5E2D0" stroke="#16AB97" stroke-width="6.75" stroke-miterlimit="10" d="M385.1,1177.9c1.4-7.9,0.1-16.3-3.6-23.5
		c-1-0.1-1.9-0.3-2.9-0.4c7.2,4,17.4,0.9,21.1-6.5c-6.7-4.3-15.7-4.7-22.7-0.8c8.4-7.7,11.8-20.4,8.3-31.2
		c-11.1,5.7-17.1,20-13.3,31.9c-4.6-9.7-15.7-15.9-26.4-14.8c2.1,9.8,10.6,18,20.5,19.7c-8.3,0.6-16.1,6.1-19.3,13.8
		c8.8,2.5,18.9-0.5,25-7.3C371.2,1167.2,377.1,1175.6,385.1,1177.9z"/>
</g>
<path fill="#C49A6C" stroke="#754C29" stroke-width="6.75" stroke-miterlimit="10" d="M446.9,42.4c-5.6,2.5-10.4,6.9-13.3,12.3
	c0.3,0.7,0.6,1.3,1,2c-0.5-6.3-6.9-11.4-13.1-10.6c0.1,6.1,3.8,11.9,9.2,14.7c-8.5-2.1-18,1.3-23.3,8.1c8.4,4.6,20,2.3,25.9-5.3
	c-4.2,7.1-3.4,16.7,1.9,23c5.3-5.5,6.9-14.4,3.7-21.4c3.9,5,10.8,7.5,17,6.3c-2.2-6.7-8.4-11.8-15.3-12.7
	C446,55.8,448.8,48.5,446.9,42.4z"/>
<path fill="none" stroke="#F7941E" stroke-width="6.75" stroke-miterlimit="10" d="M394.1,72.3c-7.9,1.8-15.1,6.2-20.3,12.3
	c0.2,0.9,0.5,1.9,0.7,2.8c0.9-8.2-5.9-16.4-14-17c-1.5,7.8,1.7,16.3,7.9,21.3c-10.3-4.9-23.4-3.1-32,4.3c9.6,8.1,25,8.1,34.6,0.1
	c-7.2,8-8.7,20.6-3.6,30c8.3-5.7,12.6-16.7,10.3-26.5c3.7,7.4,11.8,12.5,20.1,12.6c-1.1-9.1-7.7-17.3-16.3-20.3
	C389.4,89.2,395,80.6,394.1,72.3z"/>
<path fill="none" stroke="#F7941E" stroke-width="6.75" stroke-miterlimit="10" d="M385.1,121.4c1.4-7.9,0.1-16.3-3.6-23.5
	c-1-0.1-1.9-0.3-2.9-0.4c7.2,4,17.4,0.9,21.1-6.5c-6.7-4.3-15.7-4.7-22.7-0.8c8.4-7.7,11.8-20.4,8.3-31.2
	c-11.1,5.7-17.1,20-13.3,31.9c-4.6-9.7-15.7-15.9-26.4-14.8c2.1,9.8,10.6,18,20.5,19.7c-8.3,0.6-16.1,6.1-19.3,13.8
	c8.8,2.5,18.9-0.5,25-7.3C371.2,110.6,377.1,119,385.1,121.4z"/>
</svg>
