<?xml version="1.0" encoding="utf-8"?>
<!-- Generator: Adobe Illustrator 18.1.1, SVG Export Plug-In . SVG Version: 6.00 Build 0)  -->
<svg version="1.1" id="Layer_1" xmlns="http://www.w3.org/2000/svg" xmlns:xlink="http://www.w3.org/1999/xlink" x="0px" y="0px"
	 viewBox="0 0 928.5 501.6" enable-background="new 0 0 928.5 501.6" xml:space="preserve">
<g>
	<g>
		<path fill="none" stroke="#CCCCCC" stroke-width="25.5562" stroke-miterlimit="10" d="M63.6,205.6c-1-45.4-1.9-90.9-2.9-136.3
			c-0.3-13.5-0.3-27.9,7.3-39.1c6.1-8.9,16.5-14.4,27.1-16.4c18.5-3.6,38.7,2.5,52.1,15.8s19.7,33.4,16.2,52"/>
		
			<rect x="150.3" y="70.1" transform="matrix(1 -8.281346e-03 8.281346e-03 1 -0.6604 1.3641)" fill="#CCCCCC" stroke="#CCCCCC" stroke-width="4.2802" stroke-miterlimit="10" width="28.1" height="20.6"/>
		
			<line fill="#BDCCD4" stroke="#BDCCD4" stroke-width="0" stroke-linecap="round" stroke-linejoin="round" x1="127" y1="188.7" x2="127" y2="188.7"/>
		<path fill="#EEE8AA" d="M137.1,433.2c0.1,0,0.3,0.1,0.4,0l-0.9-1.9h-0.5L137.1,433.2z"/>
		<polygon fill="#EEE8AA" points="136.6,431.8 12.2,167.9 136.1,431.8 		"/>
		
			<line fill="#EEE8AA" stroke="#EEE8FF" stroke-width="0" stroke-linecap="round" stroke-linejoin="round" x1="8.3" y1="163.8" x2="204.3" y2="163.8"/>
		
			<line fill="#EEE8AA" stroke="#EEE8FF" stroke-width="0" stroke-linecap="round" stroke-linejoin="round" x1="134.3" y1="431.8" x2="136.3" y2="431.8"/>
		
			<line fill="#EEE8AA" stroke="#EEE8FF" stroke-width="0" stroke-linecap="round" stroke-linejoin="round" x1="135.2" y1="431" x2="135.2" y2="431"/>
		
			<line fill="#EEE8AA" stroke="#EEE8FF" stroke-width="0" stroke-linecap="round" stroke-linejoin="round" x1="328.3" y1="431.8" x2="136.3" y2="431.8"/>
		
			<line fill="#EEE8AA" stroke="#EEE8FF" stroke-width="0" stroke-linecap="round" stroke-linejoin="round" x1="134.3" y1="431.8" x2="126.3" y2="431.8"/>
		
			<line fill="#EEE8AA" stroke="#EEE8FF" stroke-width="0" stroke-linecap="round" stroke-linejoin="round" x1="438.3" y1="163.8" x2="204.3" y2="163.8"/>
		
			<line fill="#EEE8AA" stroke="#EEE8FF" stroke-width="0" stroke-linecap="round" stroke-linejoin="round" x1="502.3" y1="163.8" x2="632.3" y2="163.8"/>
		
			<line fill="#EEE8AA" stroke="#EEE8FF" stroke-width="0" stroke-linecap="round" stroke-linejoin="round" x1="502.3" y1="163.8" x2="438.3" y2="163.8"/>
		
			<line fill="#EEE8AA" stroke="#EEE8FF" stroke-width="0" stroke-linecap="round" stroke-linejoin="round" x1="626.3" y1="429.8" x2="328.3" y2="429.8"/>
		
			<line fill="#EEE8AA" stroke="#EEE8FF" stroke-width="0" stroke-linecap="round" stroke-linejoin="round" x1="316.3" y1="429.8" x2="328.3" y2="429.8"/>
		<g>
			<path fill="#EEE8AA" d="M916.3,167.3l-1.8,4.5H720.9l2.3-6H501.8h-61.3H12.2l124.4,266h191.6H136.6l0.9,1.6
				c-0.1,0.1-0.3,0.3-0.4,0.3l-1-1.8h-0.9h-9.7h9.7h0.9L12.2,166.2L11,163l-5.6-13.9C16,196,26.5,241.7,37.1,288.6
				c8.6,38.2,17.6,79.8,34.3,109.6c16.2,28.9,41.6,47.4,64.1,37.6c0.2-1.1,0.4-2,0.6-2h1.1c0.1,0,0.3,0.1,0.4,0l0,0h192.1l1,1.7
				c-0.7,0.4-1.4-1.7-2.1,0.3h298h32.8h133.8c-0.7-2-1.4,0.2-2.1-0.2l1.5-2.9c0.2,0.3,0.4,1,0.6,2.1c22.5,9.8,47.9-9.5,64.1-38.3
				c16.7-29.6,25.7-70.3,34.3-108.2c10.6-46.6,21.1-91,31.7-137.5L916.3,167.3z"/>
		</g>
		<polygon fill="#EEE8AA" points="318.2,429.8 328,429.8 625.9,429.8 660.9,429.8 625.9,429.8 328,429.8 		"/>
		<path fill="#EEE8AA" d="M579.1,431.8h212.2H579.1z"/>
		<path fill="#EEE8AA" d="M791.4,429.8H805H791.4z"/>
		
			<line fill="#EEE8AA" stroke="#EEE8FF" stroke-width="0" stroke-linecap="round" stroke-linejoin="round" x1="578.3" y1="431.8" x2="790.3" y2="431.8"/>
		
			<line fill="#EEE8AA" stroke="#EEE8FF" stroke-width="0" stroke-linecap="round" stroke-linejoin="round" x1="790.3" y1="429.8" x2="804.3" y2="429.8"/>
		
			<line fill="#EEE8AA" stroke="#EEE8FF" stroke-width="0" stroke-linecap="round" stroke-linejoin="round" x1="626.3" y1="429.8" x2="660.3" y2="429.8"/>
		
			<line fill="#EEE8AA" stroke="#EEE8FF" stroke-width="0" stroke-linecap="round" stroke-linejoin="round" x1="724.3" y1="163.8" x2="916.3" y2="163.8"/>
		
			<line fill="#EEE8AA" stroke="#EEE8FF" stroke-width="0" stroke-linecap="round" stroke-linejoin="round" x1="696.3" y1="163.8" x2="724.3" y2="163.8"/>
		
			<line fill="#EEE8AA" stroke="#EEE8FF" stroke-width="0" stroke-linecap="round" stroke-linejoin="round" x1="632.3" y1="163.8" x2="696.3" y2="163.8"/>
		<g>
			<path fill="#FFFFFF" d="M154.1,72c0,0,1.3-0.2,3.2-0.4c1-0.1,2.1-0.2,3.3-0.2c1.2-0.1,2.5-0.1,3.7-0.1c2.6,0,5.1,0.1,7,0.3
				c1.9,0.2,3.2,0.4,3.2,0.4s-1.3,0.2-3.2,0.4c-1.9,0.2-4.5,0.3-7,0.3c-1.3,0-2.6,0-3.7-0.1c-1.2,0-2.3-0.1-3.3-0.2
				C155.4,72.2,154.1,72,154.1,72z"/>
		</g>
		<path fill="#EEE9AA" d="M841,434c0.3,6-20,11.4-45.2,12.1s-45.9-3.6-46.2-9.5s20-11.4,45.2-12.1C820,423.8,840.7,428,841,434z"/>
		<path fill="#EEEEE0" stroke="#EEE9AA" stroke-width="1.7075" stroke-miterlimit="10" d="M845.6,458.1c7.2-1.5,15.1-4.9,19.2-9.9
			c2.9-3.6,3.3-7.4,2.3-10.6c-1-3.2-3.3-5.7-5.7-8.3c-1.7-1.9-3.5-3.9-6.1-5.1c-2.6-1.3-6.3-1.9-10.1-0.9c-3.8,0.9-7.3,3.2-9.8,5.8
			s-4.1,5.3-5.5,8c-2.2,4.3-4,8.7-3.8,12.7s2.6,7.6,7.5,8.8C837,459.4,841.4,459,845.6,458.1z"/>
		<path fill="#EEEEE0" stroke="#EEE9AA" stroke-width="1.7075" stroke-miterlimit="10" d="M744.1,470.9c7.2-1.5,15.1-4.9,19.2-9.9
			c2.9-3.6,3.3-7.4,2.3-10.6c-1-3.2-3.3-5.7-5.7-8.3c-1.7-1.9-3.5-3.9-6.1-5.1c-2.6-1.3-6.3-1.9-10.1-0.9c-3.8,0.9-7.3,3.2-9.8,5.8
			s-4.1,5.3-5.5,8c-2.2,4.3-4,8.7-3.8,12.7s2.6,7.6,7.5,8.8C735.6,472.2,739.9,471.8,744.1,470.9z"/>
		<path fill="#EEE9AA" stroke="#EEE9AA" stroke-width="3.4149" stroke-miterlimit="10" d="M772.7,427.3c2.5,8.2-3.7,17.2-15.4,22.6
			c14.5,3.6,25.6,11,29.2,19.6c-0.8-9.9,10-19.9,26.1-24.3C795.2,443.1,780.2,436.3,772.7,427.3z"/>
		<path fill="#EEE9AA" d="M846.3,433.7c-18.1-0.7-35.2-5.3-46.1-12.3c1,8.1-3.3,16.4-11.9,23.5c16.2,4.6,29.6,11.4,38.5,19.5
			C822.4,453.7,830,441.7,846.3,433.7z"/>
		<path fill="#EEE9AA" d="M741.3,448.4c-0.9-2.7-1.8-5.6-1.2-8.3c0.8-4.1,3.3-6,8.4-5.2c5.5,0.9,10.7,2.9,15,5.7
			c1,0.7,2.1,1.4,2.7,2.4c0.6,0.9,0.9,2.1,0.3,3.1c-1,1.7-3.6,2.1-5.9,2.7c-2.8,0.7-6.3,1.9-8.3,3.7c-1.6,1.5-2.4,4.1-3.2,6.3
			c-1.9,5.1-2,10.6-0.1,15.7c-4.7,2.5-11.8,2.2-16.9,0.2c-5.7-2.3-8.3-6.6-8.6-11.4c0.2,2.8,9.6,1.4,11.3,0.8
			c3.7-1.2,6.5-3.9,7.3-6.9c1.9-6.7-3-11.3-7.6-16.3c2.4-2.9,6.5-5,11-5.6"/>
		<path fill="#EEE9AA" d="M866.9,445.4c-4.5,0.9-9.1,0.7-13.2-1.2c-0.1-0.1-0.2-0.2-0.3-0.3c-2.8-2.8-5.5-5.7-6.4-9.7
			c-0.7-3.3-0.1-7,2.5-9.3c0.4-0.4,1.7-1.7,2.3-1.6c-2.1-0.1-3.9-0.2-5.9,0.2c-2.1,0.4-4.1,0.9-6,1.8c-1.8,0.9-2.8,2.3-4.3,3.7
			c-1,0.9-2.1,2-2.2,3.4c0,1.2,0.9,2.3,1.7,3.2c0.7,0.8,2.3,1.8,1.5,2.9c4.9,2.1,9.3,4.4,12.8,8.6c1.1,1.3,2,2.7,2.7,4.2
			c0.4,0.9,1,3,1.8,3.4c0.4,0.2,1,0.2,1.5,0.2c2.4-0.4,4-2.5,5.8-3.8c0.9-0.6,2-0.8,2.9-1.3c0.8-0.5,1.5-3.1,2.3-3.2
			c0,0-0.1,0-0.1,0C866.5,446,866.7,445.7,866.9,445.4z"/>
		<path fill="#EEE9AA" stroke="#EEE9AA" stroke-width="3.4149" stroke-miterlimit="10" d="M814,485.6c1.2-0.2,2.4-0.5,3.6-0.9
			c5.3-1.8,10-4.6,15.3-6.5c5.7-2,12.1-3,16.7-6.2c4.9-3.4,6.7-9.3,4.5-14.1c-3.1,1-6.4,1.8-9.4,2.9c-2.2,0.8-3.6,1.8-6.1,2.1
			c-2.5,0.3-5,0-7.4-0.7c-0.7-0.2-6.3-2.5-5.8-3.2c-4,5.7-10.7,10-18.3,11.7c-7.6,1.7-16,0.8-22.8-2.5c-5.5,4.4-12.7,7.4-20.3,8.6
			c-3.6,0.6-6.9,0.7-10.5,0c-2.4-0.4-8-1.5-8.4-4c0.9,4.5,4.3,8.7,9.1,11.4c5,2.8,12.2,2.2,17.9,1.3c4.5-0.7,9.1-1.8,13.7-1.7
			C795.4,484.2,804.7,487.4,814,485.6z"/>
		<path fill="#EEEEE0" stroke="#EEEEE0" stroke-width="1.7075" stroke-miterlimit="10" d="M838.6,468.7c5.8-0.7,11.8-3,14.3-7.1
			c1.7-3,1.3-6.5-0.2-9.5c-1.5-3-4-5.6-6.5-8.2c-1.9-1.9-3.7-3.9-6.2-5.3c-2.5-1.4-5.7-2.3-8.8-1.8c-3,0.5-5.6,2.2-7.2,4.3
			c-1.6,2.1-2.4,4.4-3,6.8c-1,3.7-1.6,7.6-0.7,11.3c1,3.7,3.8,7.2,8.1,8.8C831.6,469.1,835.2,469.1,838.6,468.7z"/>
		<path fill="#EEEEE0" d="M809.3,478.2c-6.8,0.6-14.7-0.5-19.6-4.3c-3.5-2.7-4.8-6.5-4.7-9.9c0.1-3.5,1.6-6.7,3-9.9
			c1.1-2.4,2.2-4.9,4.2-6.9c2-2,5.1-3.7,8.8-3.8c3.6-0.2,7.3,1.1,10.2,2.9c2.8,1.8,4.9,4.1,6.8,6.4c3,3.7,5.7,7.6,6.5,11.6
			c0.8,4.1-0.5,8.4-4.6,10.9C817.3,477.1,813.3,477.9,809.3,478.2z"/>
		<path fill="#EEEEE0" d="M765.1,480.5c6.6-1.1,13.7-3.9,17-8.6c2.4-3.3,2.5-7,1.3-10.1c-1.2-3.1-3.6-5.7-5.9-8.3
			c-1.8-1.9-3.6-3.9-6.1-5.3s-6-2.1-9.5-1.4c-3.4,0.7-6.5,2.8-8.7,5.1c-2.1,2.3-3.4,4.9-4.4,7.4c-1.7,4-3,8.2-2.5,12.1
			s3.1,7.4,7.7,8.8C757.3,481.4,761.3,481.2,765.1,480.5z"/>
		<path fill="#EEEEE0" d="M861.3,435.3c2.7-2,6.2-2,9.2,0c3,2,5.4,6,6.4,10.5c-1.8-3-4.4-4.9-7-5.2c-2.6-0.3-5.2,1-6.9,3.5"/>
		<path fill="#EEEEE0" d="M729.4,455.1c-3.4-0.1-6.1,2-7.2,5.5c-1.1,3.5-0.5,8.3,1.5,12.6c-0.4-3.6,0.4-6.7,2.3-8.6
			c1.8-1.8,4.7-2.2,7.6-1.1"/>
		<path fill="#EEEEE0" d="M751.5,468.2c-4,1.6-5.8,5.5-4.7,10.2s5.1,10.2,10.6,14.5c-3-4.1-4.2-8.3-3.3-11.4c0.9-3.1,4-5,8.2-5.2"/>
		<path fill="#EEEEE0" d="M851.8,453.4c4.3,0.4,7.1,3.5,7.5,8.3c0.4,4.8-1.7,11.1-5.5,16.6c1.6-4.7,1.4-9-0.4-11.7
			c-1.8-2.7-5.3-3.6-9.3-2.6"/>
		<path fill="#EEEEE0" d="M803.4,452.1c8.8,1.4,15,8,16.5,17.5s-1.9,21.6-8.9,32c2.5-9,1.6-17.6-2.4-23.2
			c-4.1-5.5-11.2-7.9-19.3-6.4"/>
		<g>
			<path fill="#EEEEE0" d="M739.1,424.8l0.2-1.3l0.3-1.3l0.4-1.3l0.5-1.3l0.6-1.2l0.7-1.2l0.8-1.1l0.9-1.1l0.9-1l1-1l1.1-0.9
				l1.2-0.8l1.2-0.7l1.3-0.7l1.4-0.6l1.4-0.5l1.3-0.3c0.5-0.1,1-0.2,1.6-0.3l1.5-0.1l1.5,0l1.5,0.1l1.5,0.2l1.5,0.3l1.5,0.4l1.4,0.5
				l1.4,0.6l1.4,0.7l1.3,0.8l1.3,0.9l1.2,1l1.1,1.1l1.1,1.2l-6.9,2.6l-0.1-2.1l0.1-2.1c0.1-0.7,0.2-1.4,0.3-2l0.5-2l0.7-1.9l0.8-1.9
				l1-1.8l1.1-1.7l1.3-1.6l1.4-1.5l1.5-1.4c0.5-0.4,1.1-0.8,1.6-1.3l1.8-1.1l1.9-1l2-0.8l2-0.6l1.9-0.3c0.8-0.1,1.6-0.2,2.3-0.2
				l2.1,0l2.1,0.2c0.7,0.1,1.4,0.2,2,0.4l2,0.6l1.9,0.7l1.9,0.9l1.8,1c0.6,0.4,1.1,0.8,1.7,1.2l1.6,1.3l1.5,1.4l1.3,1.6
				c0.4,0.6,0.8,1.1,1.2,1.7l1,1.8l0.9,1.9l-6.3-1.2c1.4-1.3,2.9-2.5,4.6-3.5c1.7-1,3.5-1.9,5.4-2.5c1-0.3,2-0.5,3-0.7l0.8-0.1
				l0.5,0l0.3,0c0.2,0,0.4,0,0.7,0l0.9,0c2.1,0.1,4.1,0.6,6,1.5c1.9,0.9,3.6,2.2,4.8,3.8c0.3,0.4,0.6,0.8,0.9,1.3l0.2,0.3l0.1,0.2
				l0,0l0.1,0.1l0,0l0,0l0,0.1l0.2,0.6c0.4,1.1,0.6,2.1,0.7,3c0.1,2-0.3,3.9-1.3,5.6c-0.5,0.8-1.1,1.5-1.8,2.1
				c-0.7,0.6-1.5,1-2.3,1.3c0.7-0.5,1.3-1.2,1.7-1.8c0.4-0.7,0.7-1.5,0.9-2.2c0.2-0.8,0.2-1.5,0.2-2.3c0-0.8-0.2-1.5-0.4-2.2
				c-0.2-0.7-0.5-1.3-0.9-1.8l-0.4-0.5l0-0.1l0,0l0,0c0-0.1,0.1,0.1,0,0.1l0,0l-0.1-0.1l-0.2-0.2c-0.2-0.3-0.5-0.5-0.7-0.7
				c-1.1-0.9-2.3-1.5-3.6-1.8c-1.3-0.3-2.7-0.4-4.1-0.3c-0.3,0.1-0.5,0.1-1,0.2l-0.3,0.1l0,0l0,0c0.2,0,0,0,0.1,0l0,0l-0.1,0l-0.1,0
				l-0.5,0.1c-0.7,0.2-1.3,0.4-1.9,0.7c-1.3,0.6-2.5,1.4-3.6,2.3c-1.1,0.9-2.2,1.9-3.2,3l-3.5,3.8l-2.8-5l-0.7-1.2l-0.8-1.1
				c-0.3-0.3-0.6-0.7-0.9-1l-0.9-1l-1-0.9l-1.1-0.8c-0.4-0.2-0.8-0.5-1.2-0.7l-1.2-0.6l-1.2-0.5l-1.3-0.4l-1.3-0.3
				c-0.4-0.1-0.9-0.1-1.3-0.2l-1.3-0.1l-1.3,0c-0.4,0-0.7,0.1-1.1,0.1l-0.8,0.2l-0.4,0.1l-0.2,0l-0.1,0l-0.1,0l0,0l0,0
				c0.1,0-0.2,0,0.2,0l-1.2,0.3l-1.2,0.5l-1.2,0.6l-1.1,0.7c-0.4,0.3-0.7,0.5-1.1,0.8l-1,0.9l-1,1l-0.9,1l-0.8,1.1l-0.7,1.2
				l-0.6,1.2l-0.5,1.2l-0.4,1.3c-0.1,0.4-0.2,0.9-0.3,1.3l-0.2,1.3l-0.1,1.3l-0.5,11.2l-6.4-8.6l-0.6-0.8c-0.2-0.3-0.4-0.5-0.7-0.8
				l-0.7-0.7l-0.8-0.7l-0.8-0.6l-0.9-0.6l-0.9-0.5l-1-0.5l-1-0.4l-1-0.4l-1-0.3l-1.1-0.2l-1.1-0.2l-1.1-0.1c-0.3,0-0.7,0-1,0l-0.6,0
				l-0.3,0l-0.2,0l-0.1,0l0-0.1l0-0.1h0c0,0-0.1,0.1,0.1,0l-1.1,0.2l-1.1,0.2l-1.1,0.3l-1.1,0.4l-1.1,0.5l-1,0.5l-1,0.6l-1,0.7
				l-1,0.7l-0.9,0.8l-0.9,0.9l-0.8,0.9l-0.8,1l-0.7,1l-0.6,1.1L739.1,424.8z"/>
		</g>
		<g>
			<path fill="#EEEEE0" d="M801.7,357.8c0.7,0.1,1.3,0.3,1.9,0.5c0.6,0.2,1.2,0.4,1.8,0.7c0.6,0.3,1.2,0.6,1.8,0.9
				c0.6,0.3,1.1,0.7,1.7,1l1.6,1.2l1.5,1.3c1,0.9,1.9,1.9,2.7,2.9l1.2,1.6l1.1,1.7c0.3,0.6,0.7,1.2,1,1.8c0.3,0.6,0.6,1.2,0.8,1.8
				l0.7,1.9l0.6,1.9l0.5,2c0.1,0.7,0.2,1.3,0.3,2l-9.7-2.2c0.4-0.6,0.8-1.1,1.2-1.6c0.4-0.5,0.8-1,1.3-1.5c0.5-0.5,0.9-1,1.4-1.4
				c0.5-0.5,1-0.9,1.5-1.3c0.5-0.4,1-0.8,1.6-1.2c0.5-0.4,1.1-0.7,1.6-1.1c0.6-0.3,1.1-0.7,1.7-1l1.8-0.8c0.6-0.2,1.2-0.5,1.8-0.7
				c0.6-0.2,1.2-0.4,1.9-0.5c0.6-0.1,1.3-0.3,1.9-0.4c0.6-0.1,1.3-0.2,1.9-0.2c0.6,0,1.3-0.1,1.9-0.1c0.6,0,1.3,0.1,1.9,0.1
				c0.6,0.1,1.3,0.2,1.9,0.3c0.6,0.2,1.2,0.3,1.8,0.5c-0.5,0.4-1.1,0.7-1.6,1c-0.5,0.3-1,0.7-1.5,1c-0.5,0.3-0.9,0.7-1.4,1
				c-0.5,0.3-0.9,0.7-1.3,1c-0.4,0.3-0.9,0.7-1.3,1c-0.4,0.4-0.8,0.7-1.2,1c-0.4,0.4-0.8,0.7-1.2,1c-0.4,0.3-0.7,0.7-1.1,1l-1.1,1
				c-0.3,0.4-0.7,0.7-1,1.1c-0.3,0.4-0.7,0.7-1,1.1c-0.3,0.4-0.6,0.7-0.9,1.1c-0.3,0.4-0.6,0.7-0.9,1.1c-0.3,0.4-0.6,0.8-0.9,1.1
				c-0.3,0.4-0.5,0.8-0.8,1.1c-0.2,0.4-0.5,0.8-0.8,1.2l-7.3,10.9l-2.4-13.1c-0.1-0.5-0.2-1-0.2-1.5c-0.1-0.5-0.2-1-0.3-1.5
				l-0.3-1.5l-0.3-1.5c-0.1-0.5-0.3-1-0.4-1.5c-0.2-0.5-0.3-1-0.4-1.5l-1-3c-0.2-0.5-0.4-1-0.6-1.5c-0.2-0.5-0.4-1-0.6-1.5
				c-0.4-1-0.9-2-1.3-3.1l-0.7-1.6c-0.3-0.5-0.5-1-0.8-1.6c-0.3-0.5-0.5-1.1-0.8-1.6C802.2,359,801.9,358.4,801.7,357.8z"/>
		</g>
		<g>
			<path fill="#EEEEE0" d="M742.2,388.5c0.4-0.3,0.8-0.5,1.3-0.7c0.4-0.2,0.9-0.4,1.3-0.5c0.5-0.2,0.9-0.3,1.4-0.4
				c0.5-0.1,0.9-0.2,1.4-0.3c0.5-0.1,1-0.1,1.4-0.2c0.5-0.1,1-0.1,1.5-0.1c1,0,2,0,3,0.2c0.5,0.1,1,0.2,1.5,0.3
				c0.5,0.1,1,0.2,1.5,0.4c0.5,0.1,1,0.3,1.4,0.5c0.5,0.2,0.9,0.4,1.4,0.6c0.9,0.4,1.8,0.9,2.7,1.5c0.9,0.6,1.7,1.3,2.5,2l-6.9,2.8
				c0-1.1,0.2-2.2,0.4-3.3c0.1-0.5,0.2-1.1,0.4-1.6c0.2-0.5,0.3-1,0.5-1.5c0.2-0.5,0.4-1,0.6-1.5c0.2-0.5,0.4-1,0.7-1.4
				c0.5-0.9,1.1-1.8,1.7-2.6c0.3-0.4,0.6-0.8,1-1.2c0.3-0.4,0.7-0.8,1-1.1c0.4-0.4,0.7-0.7,1.1-1.1c0.4-0.3,0.8-0.7,1.2-1
				c0.8-0.6,1.7-1.2,2.6-1.6c0.5-0.2,0.9-0.4,1.4-0.6c0.5-0.2,1-0.4,1.5-0.5c-0.2,0.5-0.4,0.9-0.6,1.4l-0.6,1.3
				c-0.4,0.9-0.7,1.7-1,2.6c-0.2,0.4-0.3,0.8-0.5,1.2c-0.2,0.4-0.3,0.8-0.5,1.2c-0.2,0.4-0.3,0.8-0.4,1.2l-0.4,1.2
				c-0.1,0.4-0.2,0.8-0.4,1.2c-0.1,0.4-0.2,0.8-0.3,1.2l-0.3,1.2c-0.1,0.4-0.2,0.8-0.2,1.2c-0.1,0.4-0.1,0.8-0.2,1.1
				c-0.1,0.4-0.1,0.8-0.2,1.1l-0.1,1.1l-0.1,1.1L765,403l-6.3-5.5c-0.3-0.2-0.5-0.5-0.8-0.7l-0.8-0.7c-0.3-0.2-0.5-0.5-0.8-0.7
				c-0.3-0.2-0.6-0.4-0.9-0.6c-0.3-0.2-0.6-0.4-0.9-0.6c-0.3-0.2-0.6-0.4-0.9-0.6c-0.6-0.4-1.3-0.8-2-1.1c-0.3-0.2-0.7-0.4-1-0.5
				c-0.4-0.2-0.7-0.4-1.1-0.5c-0.7-0.3-1.5-0.7-2.3-1c-0.8-0.3-1.6-0.6-2.4-0.9l-1.3-0.5C743.1,388.9,742.7,388.7,742.2,388.5z"/>
		</g>
		<path fill="#EEE9AA" stroke="#EEE9AA" stroke-width="5.8413" stroke-miterlimit="10" d="M88.2,434c-0.3,6,20,11.4,45.2,12.1
			s45.9-3.6,46.2-9.5s-20-11.4-45.2-12.1C109.2,423.8,88.5,428,88.2,434z"/>
		<path fill="#EEEEE0" stroke="#EEE9AA" stroke-width="1.7075" stroke-miterlimit="10" d="M83.6,458.1c-7.2-1.5-15.1-4.9-19.2-9.9
			c-2.9-3.6-3.3-7.4-2.3-10.6c1-3.2,3.3-5.7,5.7-8.3c1.7-1.9,3.5-3.9,6.1-5.1c2.6-1.3,6.3-1.9,10.1-0.9c3.8,0.9,7.3,3.2,9.8,5.8
			s4.1,5.3,5.5,8c2.2,4.3,4,8.7,3.8,12.7c-0.2,4-2.6,7.6-7.5,8.8C92.2,459.4,87.8,459,83.6,458.1z"/>
		<path fill="#EEEEE0" stroke="#EEE9AA" stroke-width="1.7075" stroke-miterlimit="10" d="M185.1,470.9c-7.2-1.5-15.1-4.9-19.2-9.9
			c-2.9-3.6-3.3-7.4-2.3-10.6c1-3.2,3.3-5.7,5.7-8.3c1.7-1.9,3.5-3.9,6.1-5.1c2.6-1.3,6.3-1.9,10.1-0.9c3.8,0.9,7.3,3.2,9.8,5.8
			c2.5,2.5,4.1,5.3,5.5,8c2.2,4.3,4,8.7,3.8,12.7c-0.2,4-2.6,7.6-7.5,8.8C193.6,472.2,189.3,471.8,185.1,470.9z"/>
		<path fill="#EEE8AA" stroke="#EEE8AA" stroke-width="5.8413" stroke-miterlimit="10" d="M156.5,427.3c-2.5,8.2,3.7,17.2,15.4,22.6
			c-14.5,3.6-25.6,11-29.2,19.6c0.8-9.9-10-19.9-26.1-24.3C134,443.1,149,436.3,156.5,427.3z"/>
		<path fill="#EEE8AA" d="M82.9,433.7c18.1-0.7,35.2-5.3,46.1-12.3c-1,8.1,3.3,16.4,11.9,23.5c-16.2,4.6-29.6,11.4-38.5,19.5
			C106.8,453.7,99.2,441.7,82.9,433.7z"/>
		<path fill="#EEE8AA" d="M187.9,448.4c0.9-2.7,1.8-5.6,1.2-8.3c-0.8-4.1-3.3-6-8.4-5.2c-5.5,0.9-10.7,2.9-15,5.7
			c-1,0.7-2.1,1.4-2.7,2.4c-0.6,0.9-0.9,2.1-0.3,3.1c1,1.7,3.6,2.1,5.9,2.7c2.8,0.7,6.3,1.9,8.3,3.7c1.6,1.5,2.4,4.1,3.2,6.3
			c1.9,5.1,2,10.6,0.1,15.7c4.7,2.5,11.8,2.2,16.9,0.2c5.7-2.3,8.3-6.6,8.6-11.4c-0.2,2.8-9.6,1.4-11.3,0.8
			c-3.7-1.2-6.5-3.9-7.3-6.9c-1.9-6.7,3-11.3,7.6-16.3c-2.4-2.9-6.5-5-11-5.6"/>
		<path fill="#EEE9AA" d="M62.3,445.4c4.5,0.9,9.1,0.7,13.2-1.2c0.1-0.1,0.2-0.2,0.3-0.3c2.8-2.8,5.5-5.7,6.4-9.7
			c0.7-3.3,0.1-7-2.5-9.3c-0.4-0.4-1.7-1.7-2.3-1.6c2.1-0.1,3.9-0.2,5.9,0.2c2.1,0.4,4.1,0.9,6,1.8c1.8,0.9,2.8,2.3,4.3,3.7
			c1,0.9,2.1,2,2.2,3.4c0,1.2-0.9,2.3-1.7,3.2c-0.7,0.8-2.3,1.8-1.5,2.9c-4.9,2.1-9.3,4.4-12.8,8.6c-1.1,1.3-2,2.7-2.7,4.2
			c-0.4,0.9-1,3-1.8,3.4c-0.4,0.2-1,0.2-1.5,0.2c-2.4-0.4-4-2.5-5.8-3.8c-0.9-0.6-2-0.8-2.9-1.3c-0.8-0.5-1.5-3.1-2.3-3.2
			c0,0,0.1,0,0.1,0C62.7,446,62.5,445.7,62.3,445.4z"/>
		<path fill="#EEE8AA" stroke="#EEE8AA" stroke-width="3.4149" stroke-miterlimit="10" d="M115.2,485.6c-1.2-0.2-2.4-0.5-3.6-0.9
			c-5.3-1.8-10-4.6-15.3-6.5c-5.7-2-12.1-3-16.7-6.2c-4.9-3.4-6.7-9.3-4.5-14.1c3.1,1,6.4,1.8,9.4,2.9c2.2,0.8,3.6,1.8,6.1,2.1
			c2.5,0.3,5,0,7.4-0.7c0.7-0.2,6.3-2.5,5.8-3.2c4,5.7,10.7,10,18.3,11.7c7.6,1.7,16,0.8,22.8-2.5c5.5,4.4,12.7,7.4,20.3,8.6
			c3.6,0.6,6.9,0.7,10.5,0c2.4-0.4,8-1.5,8.4-4c-0.9,4.5-4.3,8.7-9.1,11.4c-5,2.8-12.2,2.2-17.9,1.3c-4.5-0.7-9.1-1.8-13.7-1.7
			C133.8,484.2,124.6,487.4,115.2,485.6z"/>
		<path fill="#EEEEE0" stroke="#EEEEE0" stroke-width="1.7075" stroke-miterlimit="10" d="M90.6,468.7c-5.8-0.7-11.8-3-14.3-7.1
			c-1.7-3-1.3-6.5,0.2-9.5c1.5-3,4-5.6,6.5-8.2c1.9-1.9,3.7-3.9,6.2-5.3s5.7-2.3,8.8-1.8c3,0.5,5.6,2.2,7.2,4.3
			c1.6,2.1,2.4,4.4,3,6.8c1,3.7,1.6,7.6,0.7,11.3c-1,3.7-3.8,7.2-8.1,8.8C97.6,469.1,94,469.1,90.6,468.7z"/>
		<path fill="#EEEEE0" d="M119.9,478.2c6.8,0.6,14.7-0.5,19.6-4.3c3.5-2.7,4.8-6.5,4.7-9.9c-0.1-3.5-1.6-6.7-3-9.9
			c-1.1-2.4-2.2-4.9-4.2-6.9c-2-2-5.1-3.7-8.8-3.8c-3.6-0.2-7.3,1.1-10.2,2.9s-4.9,4.1-6.8,6.4c-3,3.7-5.7,7.6-6.5,11.6
			c-0.8,4.1,0.5,8.4,4.6,10.9C111.9,477.1,115.9,477.9,119.9,478.2z"/>
		<path fill="#EEEEE0" d="M164.1,480.4c-6.6-1-13.7-3.8-17.1-8.5c-2.4-3.3-2.4-7.1-1.2-10.2s3.7-5.8,6.1-8.5c1.8-2,3.6-4,6.2-5.4
			c2.6-1.4,6-2.2,9.6-1.5c3.5,0.7,6.6,2.7,8.7,5c2.1,2.3,3.3,4.9,4.4,7.5c1.7,4.1,3,8.3,2.4,12.2s-3.2,7.6-7.9,9
			C172,481.2,168,481.1,164.1,480.4z"/>
		<path fill="#EEEEE0" d="M67.9,435.3c-2.7-2-6.2-2-9.2,0c-3,2-5.4,6-6.4,10.5c1.8-3,4.4-4.9,7-5.2c2.6-0.3,5.2,1,6.9,3.5"/>
		<path fill="#EEEEE0" d="M177.7,468.2c4,1.6,5.8,5.5,4.7,10.2s-5.1,10.2-10.6,14.5c3-4.1,4.2-8.3,3.3-11.4s-4-5-8.2-5.2"/>
		<path fill="#EEEEE0" d="M77.4,453.4c-4.3,0.4-7.1,3.5-7.5,8.3c-0.4,4.8,1.7,11.1,5.5,16.6c-1.6-4.7-1.4-9,0.4-11.7
			c1.8-2.7,5.3-3.6,9.3-2.6"/>
		<path fill="#EEEEE0" d="M125.8,452.1c-8.8,1.4-15,8-16.5,17.5c-1.5,9.5,1.9,21.6,8.9,32c-2.5-9-1.6-17.6,2.4-23.2
			c4.1-5.5,11.2-7.9,19.3-6.4"/>
		<g>
			<path fill="#EEEEE0" d="M190.1,424.8l-0.6-1.2l-0.6-1.1l-0.7-1l-0.8-1l-0.8-0.9l-0.9-0.9l-0.9-0.8l-1-0.7l-1-0.7l-1-0.6l-1-0.5
				l-1.1-0.5l-1.1-0.4l-1.1-0.3l-1.1-0.2l-1.1-0.2c0.2,0,0,0,0.1,0h0l0,0.1l0,0l-0.1,0l-0.2,0l-0.3,0l-0.6,0c-0.3,0-0.7,0-1,0
				l-1.1,0.1L171,414l-1.1,0.2l-1,0.3l-1,0.4l-1,0.4l-1,0.5l-0.9,0.5l-0.9,0.6l-0.8,0.6l-0.8,0.7l-0.7,0.7c-0.2,0.3-0.4,0.5-0.7,0.8
				l-0.6,0.8l-6.4,8.6l-0.5-11.2l-0.1-1.3l-0.2-1.3c-0.1-0.4-0.2-0.9-0.3-1.3l-0.4-1.3l-0.5-1.2l-0.6-1.2l-0.7-1.2l-0.8-1.1l-0.9-1
				l-1-1l-1-0.9c-0.4-0.3-0.7-0.5-1.1-0.8l-1.1-0.7l-1.2-0.6l-1.2-0.5l-1.2-0.3c0.4,0.1,0.1,0,0.2,0l0,0l0,0l-0.1,0l-0.1,0l-0.2,0
				l-0.4-0.1l-0.8-0.2c-0.4,0-0.7,0-1.1-0.1l-1.3,0l-1.3,0.1c-0.4,0.1-0.9,0.2-1.3,0.2l-1.3,0.3l-1.3,0.4l-1.2,0.5l-1.2,0.6
				c-0.4,0.2-0.8,0.5-1.2,0.7l-1.1,0.8l-1,0.9l-0.9,1c-0.3,0.3-0.6,0.7-0.9,1l-0.8,1.1l-0.7,1.2l-2.8,5l-3.5-3.8
				c-1-1.1-2.1-2.1-3.2-3c-1.1-0.9-2.4-1.7-3.6-2.3c-0.6-0.3-1.3-0.5-1.9-0.7l-0.5-0.1l-0.1,0l-0.1,0l0,0c0,0-0.1,0,0.1,0l0,0l0,0
				l-0.3-0.1c-0.5-0.1-0.7-0.1-1-0.2c-1.3-0.2-2.7,0-4.1,0.3c-1.3,0.3-2.6,1-3.6,1.8c-0.2,0.2-0.5,0.4-0.7,0.7l-0.2,0.2l-0.1,0.1
				l0,0c0,0,0.1-0.2,0-0.1l0,0l0,0l0,0.1l-0.4,0.5c-0.3,0.5-0.7,1.1-0.9,1.8c-0.2,0.7-0.4,1.4-0.4,2.2c0,0.8,0,1.5,0.2,2.3
				c0.2,0.8,0.5,1.5,0.9,2.2c0.4,0.7,1,1.3,1.7,1.8c-0.8-0.3-1.6-0.7-2.3-1.3c-0.7-0.6-1.3-1.3-1.8-2.1c-0.9-1.6-1.4-3.6-1.3-5.6
				c0.1-1,0.3-2,0.7-3l0.2-0.6l0-0.1l0,0l0,0l0.1-0.1l0,0l0.1-0.2l0.2-0.3c0.2-0.5,0.6-0.9,0.9-1.3c1.3-1.6,3-2.9,4.8-3.8
				c1.9-0.9,3.9-1.4,6-1.5l0.9,0c0.3,0,0.5,0,0.7,0l0.3,0l0.5,0l0.8,0.1c1,0.1,2,0.4,3,0.7c1.9,0.6,3.8,1.5,5.4,2.5
				c1.7,1,3.2,2.2,4.6,3.5l-6.3,1.2l0.9-1.9l1-1.8c0.4-0.6,0.8-1.1,1.2-1.7l1.3-1.6l1.5-1.4l1.6-1.3c0.6-0.4,1.1-0.8,1.7-1.2l1.8-1
				l1.9-0.9l1.9-0.7l2-0.6c0.7-0.1,1.4-0.3,2-0.4l2.1-0.2l2.1,0c0.8,0.1,1.6,0.1,2.3,0.2l1.9,0.3l2,0.6l2,0.8l1.9,1l1.8,1.1
				c0.6,0.4,1.1,0.8,1.6,1.3l1.5,1.4l1.4,1.5l1.3,1.6l1.1,1.7l1,1.8l0.8,1.9l0.7,1.9l0.5,2c0.1,0.7,0.2,1.4,0.3,2l0.1,2.1l-0.1,2.1
				l-6.9-2.6l1.1-1.2l1.1-1.1l1.2-1l1.3-0.9l1.3-0.8l1.4-0.7l1.4-0.6l1.4-0.5l1.5-0.4l1.5-0.3l1.5-0.2l1.5-0.1l1.5,0l1.5,0.1
				c0.5,0.1,1,0.2,1.6,0.3l1.3,0.3l1.4,0.5l1.4,0.6l1.3,0.7l1.2,0.7l1.2,0.8l1.1,0.9l1,1l0.9,1l0.9,1.1l0.8,1.1l0.7,1.2l0.6,1.2
				l0.5,1.3l0.4,1.3l0.3,1.3L190.1,424.8z"/>
		</g>
		<g>
			<path fill="#EEEEE0" d="M127.5,357.8c-0.3,0.6-0.6,1.2-0.9,1.7c-0.3,0.6-0.5,1.1-0.8,1.6c-0.2,0.6-0.5,1.1-0.8,1.6l-0.7,1.6
				c-0.5,1-0.9,2.1-1.3,3.1c-0.2,0.5-0.4,1-0.6,1.5c-0.2,0.5-0.4,1-0.6,1.5l-1,3c-0.1,0.5-0.3,1-0.4,1.5c-0.1,0.5-0.3,1-0.4,1.5
				l-0.3,1.5l-0.3,1.5c-0.1,0.5-0.2,1-0.3,1.5c-0.1,0.5-0.1,1-0.2,1.5l-2.4,13.1l-7.3-10.9c-0.3-0.4-0.5-0.8-0.8-1.2
				c-0.3-0.4-0.6-0.8-0.8-1.1c-0.3-0.4-0.6-0.7-0.9-1.1c-0.3-0.4-0.6-0.7-0.9-1.1c-0.3-0.4-0.6-0.7-0.9-1.1c-0.3-0.3-0.7-0.7-1-1.1
				c-0.3-0.3-0.7-0.7-1-1.1l-1.1-1c-0.4-0.3-0.7-0.7-1.1-1c-0.4-0.3-0.8-0.7-1.2-1c-0.4-0.3-0.8-0.6-1.2-1c-0.4-0.3-0.9-0.6-1.3-1
				c-0.4-0.3-0.9-0.6-1.3-1c-0.5-0.3-0.9-0.6-1.4-1c-0.5-0.3-1-0.6-1.5-1c-0.5-0.3-1-0.6-1.6-1c0.6-0.2,1.2-0.4,1.8-0.5
				c0.6-0.1,1.2-0.2,1.9-0.3c0.6-0.1,1.3-0.1,1.9-0.1c0.6,0,1.3,0,1.9,0.1c0.6,0.1,1.3,0.1,1.9,0.2c0.6,0.1,1.3,0.3,1.9,0.4
				c0.6,0.2,1.2,0.3,1.9,0.5c0.6,0.2,1.2,0.4,1.8,0.7l1.8,0.8c0.6,0.3,1.1,0.6,1.7,1c0.5,0.4,1.1,0.7,1.6,1.1
				c0.5,0.4,1.1,0.8,1.6,1.2c0.5,0.4,1,0.9,1.5,1.3c0.5,0.5,0.9,1,1.4,1.4c0.4,0.5,0.9,1,1.3,1.5c0.4,0.5,0.8,1.1,1.2,1.6l-9.7,2.2
				c0.1-0.7,0.2-1.3,0.3-2l0.5-2l0.6-1.9l0.7-1.9c0.3-0.6,0.6-1.2,0.8-1.8c0.3-0.6,0.6-1.2,1-1.8l1.1-1.7l1.2-1.6
				c0.8-1,1.7-2,2.7-2.9l1.5-1.3l1.6-1.2c0.6-0.3,1.1-0.7,1.7-1c0.6-0.3,1.2-0.6,1.8-0.9c0.6-0.3,1.2-0.5,1.8-0.7
				C126.3,358.1,126.9,358,127.5,357.8z"/>
		</g>
		<g>
			<path fill="#EEEEE0" d="M187,388.5c-0.5,0.2-0.9,0.3-1.3,0.5l-1.3,0.5c-0.8,0.3-1.6,0.6-2.4,0.9c-0.8,0.3-1.5,0.6-2.3,1
				c-0.4,0.2-0.7,0.4-1.1,0.5c-0.4,0.2-0.7,0.4-1,0.5c-0.7,0.3-1.3,0.7-2,1.1c-0.3,0.2-0.6,0.4-0.9,0.6c-0.3,0.2-0.6,0.4-0.9,0.6
				c-0.3,0.2-0.6,0.4-0.9,0.6c-0.3,0.2-0.5,0.4-0.8,0.7l-0.8,0.7c-0.3,0.2-0.5,0.5-0.8,0.7l-6.3,5.5l-0.7-8.3l-0.1-1.1l-0.1-1.1
				c-0.1-0.4-0.1-0.8-0.2-1.1c-0.1-0.4-0.1-0.8-0.2-1.1c-0.1-0.4-0.1-0.8-0.2-1.2l-0.3-1.2c-0.1-0.4-0.2-0.8-0.3-1.2
				c-0.1-0.4-0.2-0.8-0.4-1.2l-0.4-1.2c-0.1-0.4-0.3-0.8-0.4-1.2c-0.2-0.4-0.3-0.8-0.5-1.2c-0.2-0.4-0.3-0.8-0.5-1.2
				c-0.3-0.8-0.7-1.7-1-2.6l-0.6-1.3c-0.2-0.5-0.4-0.9-0.6-1.4c0.5,0.1,1,0.3,1.5,0.5c0.5,0.2,0.9,0.4,1.4,0.6
				c0.9,0.5,1.8,1,2.6,1.6c0.4,0.3,0.8,0.6,1.2,1c0.4,0.3,0.7,0.7,1.1,1.1c0.4,0.4,0.7,0.8,1,1.1c0.4,0.4,0.7,0.8,1,1.2
				c0.6,0.8,1.2,1.7,1.7,2.6c0.3,0.5,0.5,0.9,0.7,1.4c0.2,0.5,0.4,1,0.6,1.5c0.2,0.5,0.3,1,0.5,1.5c0.2,0.5,0.3,1.1,0.4,1.6
				c0.2,1.1,0.3,2.2,0.4,3.3l-6.9-2.8c0.8-0.7,1.6-1.4,2.5-2c0.9-0.6,1.8-1.1,2.7-1.5c0.5-0.2,0.9-0.4,1.4-0.6
				c0.5-0.2,1-0.3,1.4-0.5c0.5-0.1,1-0.3,1.5-0.4c0.5-0.1,1-0.2,1.5-0.3c1-0.1,2-0.2,3-0.2c0.5,0,1,0,1.5,0.1c0.5,0.1,1,0.1,1.4,0.2
				c0.5,0.1,0.9,0.2,1.4,0.3c0.5,0.1,0.9,0.3,1.4,0.4c0.5,0.2,0.9,0.3,1.3,0.5C186.1,388.1,186.5,388.3,187,388.5z"/>
		</g>
		<g>
			<path fill="#FFFFFF" d="M75.2,456.3c0,0-0.1,0.2-0.3,0.5c-0.2,0.3-0.4,0.7-0.6,1.2c-0.2,0.5-0.5,1.1-0.7,1.7
				c-0.1,0.3-0.2,0.6-0.3,1c-0.1,0.3-0.2,0.7-0.3,1c-0.2,0.7-0.3,1.4-0.4,2.1c0,0.3-0.1,0.7-0.1,1c0,0.3-0.1,0.6-0.1,0.9
				c0,0.5,0,1,0,1.3c0,0.3,0,0.5,0,0.5s-0.1-0.2-0.2-0.5c-0.1-0.3-0.3-0.8-0.4-1.3c-0.1-0.6-0.2-1.3-0.2-2c0-0.4,0-0.7,0.1-1.1
				c0-0.4,0.1-0.8,0.2-1.2c0.1-0.4,0.2-0.8,0.3-1.1c0.1-0.4,0.3-0.7,0.5-1c0.3-0.7,0.7-1.2,1.1-1.7c0.4-0.4,0.8-0.8,1-1
				C75,456.4,75.2,456.3,75.2,456.3z"/>
		</g>
		<g>
			<path fill="#FFFFFF" d="M62.5,435.5c0,0-0.1,0-0.4,0.1c-0.2,0.1-0.5,0.2-0.9,0.3c-0.7,0.3-1.6,0.8-2.5,1.3
				c-0.9,0.6-1.6,1.2-2.2,1.8c-0.3,0.3-0.5,0.5-0.7,0.7c-0.2,0.2-0.3,0.3-0.3,0.3s0.1-0.5,0.6-1.2c0.4-0.7,1.2-1.6,2.1-2.2
				c0.9-0.6,2-1,2.8-1.1c0.4-0.1,0.8,0,1,0C62.3,435.4,62.5,435.5,62.5,435.5z"/>
		</g>
		<g>
			<path fill="#FFFFFF" d="M112,477.4c0,0,0.1,0.2,0.1,0.5c0.1,0.3,0.2,0.8,0.3,1.4c0.2,1.1,0.4,2.6,0.7,4c0.2,1.5,0.5,2.9,0.7,4
				c0.1,0.6,0.2,1,0.2,1.4c0,0.3,0.1,0.5,0.1,0.5s-0.6-0.6-1.1-1.6c-0.6-1-1.1-2.5-1.4-4.1c-0.3-1.5-0.2-3.1,0-4.3
				C111.6,478.1,112,477.4,112,477.4z"/>
		</g>
		<g>
			<path fill="#FFFFFF" d="M865.5,435.5c0,0,0.1,0,0.4-0.1c0.2,0,0.6,0,1,0c0.8,0.1,1.9,0.5,2.8,1.1c0.9,0.6,1.7,1.5,2.1,2.2
				c0.4,0.7,0.6,1.2,0.6,1.2s-0.1-0.1-0.3-0.3c-0.2-0.2-0.4-0.4-0.7-0.7c-0.6-0.5-1.4-1.2-2.2-1.8c-0.8-0.6-1.8-1-2.5-1.3
				c-0.4-0.1-0.7-0.3-0.9-0.3C865.7,435.5,865.5,435.5,865.5,435.5z"/>
		</g>
		<g>
			<path fill="#FFFFFF" d="M854.8,456.3c0,0,0.2,0.1,0.4,0.3c0.3,0.2,0.7,0.5,1,1c0.4,0.4,0.8,1,1.1,1.7c0.2,0.3,0.3,0.7,0.5,1
				c0.1,0.4,0.2,0.7,0.3,1.1c0.1,0.4,0.2,0.8,0.2,1.2c0.1,0.4,0.1,0.8,0.1,1.1c0,0.7-0.1,1.4-0.2,2c-0.1,0.6-0.3,1-0.4,1.3
				c-0.1,0.3-0.2,0.5-0.2,0.5s0-0.2,0-0.5c0-0.3,0-0.8,0-1.3c0-0.3,0-0.6-0.1-0.9c0-0.3-0.1-0.6-0.1-1c-0.1-0.7-0.2-1.4-0.4-2.1
				c-0.1-0.3-0.2-0.7-0.3-1c-0.1-0.3-0.2-0.7-0.3-1c-0.2-0.6-0.5-1.2-0.7-1.7c-0.2-0.5-0.4-0.9-0.6-1.2
				C854.9,456.5,854.8,456.3,854.8,456.3z"/>
		</g>
		<path fill="#EEEEE0" d="M199.8,455.1c3.4-0.1,6.1,2,7.2,5.5c1.1,3.5,0.5,8.3-1.5,12.6c0.4-3.6-0.4-6.7-2.3-8.6
			c-1.8-1.8-4.7-2.2-7.6-1.1"/>
		<g>
			<g>
				<polygon fill="#EEEEE0" points="126.2,129.4 0.1,172.3 126.2,171.7 91.8,171.6 126.2,171.7 160.7,171.6 126.2,171.7 
					252.4,172.3 				"/>
				<line fill="#EEEEE0" x1="160.7" y1="171.6" x2="126.2" y2="171.7"/>
				<line fill="#EEEEE0" x1="0.1" y1="172.3" x2="126.2" y2="171.7"/>
				<path fill="#EEEEE0" d="M252.4,172.3c0.7-18.5-4.4-35.6-10.5-43.1c-6.1-7.5-12.9-7.7-19.5-7.7c-24.2,0-48.5,0-72.7,0l0.1,0
					c-7.9,0-15.7,0-23.6,0c-7.9,0-15.7,0-23.6,0l0.1,0c-24.2,0-48.5,0-72.7,0c-6.6,0-13.5,0.1-19.5,7.7
					c-6.1,7.5-11.1,24.6-10.5,43.1l126.2-42.9L252.4,172.3z"/>
				<line fill="#EEEEE0" x1="126.2" y1="171.7" x2="91.8" y2="171.6"/>
				<line fill="#EEEEE0" x1="126.2" y1="171.7" x2="252.4" y2="172.3"/>
			</g>
			<g>
				<polygon fill="#EEEEE0" points="258,129.4 131.8,172.3 258,171.7 223.5,171.6 258,171.7 292.5,171.6 258,171.7 384.1,172.3 				
					"/>
				<line fill="#EEEEE0" x1="292.5" y1="171.6" x2="258" y2="171.7"/>
				<line fill="#EEEEE0" x1="131.8" y1="172.3" x2="258" y2="171.7"/>
				<path fill="#EEEEE0" d="M384.1,172.3c0.7-18.5-4.4-35.6-10.5-43.1c-6.1-7.5-12.9-7.7-19.5-7.7c-24.2,0-48.5,0-72.7,0l0.1,0
					c-7.9,0-15.7,0-23.6,0c-7.9,0-15.7,0-23.6,0l0.1,0c-24.2,0-48.5,0-72.7,0c-6.6,0-13.5,0.1-19.5,7.7
					c-6.1,7.5-11.1,24.6-10.5,43.1L258,129.4L384.1,172.3z"/>
				<line fill="#EEEEE0" x1="258" y1="171.7" x2="223.5" y2="171.6"/>
				<line fill="#EEEEE0" x1="258" y1="171.7" x2="384.1" y2="172.3"/>
			</g>
			<g>
				<polygon fill="#EEEEE0" points="433.6,129.4 307.4,172.3 433.6,171.7 399.1,171.6 433.6,171.7 468.1,171.6 433.6,171.7 
					559.8,172.3 				"/>
				<line fill="#EEEEE0" x1="468.1" y1="171.6" x2="433.6" y2="171.7"/>
				<line fill="#EEEEE0" x1="307.4" y1="172.3" x2="433.6" y2="171.7"/>
				<path fill="#EEEEE0" d="M559.8,172.3c0.7-18.5-4.4-35.6-10.5-43.1c-6.1-7.5-12.9-7.7-19.5-7.7c-24.2,0-48.5,0-72.7,0l0.1,0
					c-7.9,0-15.7,0-23.6,0c-7.9,0-15.7,0-23.6,0l0.1,0c-24.2,0-48.5,0-72.7,0c-6.6,0-13.5,0.1-19.5,7.7
					c-6.1,7.5-11.1,24.6-10.5,43.1l126.2-42.9L559.8,172.3z"/>
				<line fill="#EEEEE0" x1="433.6" y1="171.7" x2="399.1" y2="171.6"/>
				<line fill="#EEEEE0" x1="433.6" y1="171.7" x2="559.8" y2="172.3"/>
			</g>
			<g>
				<polygon fill="#EEEEE0" points="609.2,129.4 483,172.3 609.2,171.7 574.7,171.6 609.2,171.7 643.7,171.6 609.2,171.7 
					735.4,172.3 				"/>
				<line fill="#EEEEE0" x1="643.7" y1="171.6" x2="609.2" y2="171.7"/>
				<line fill="#EEEEE0" x1="483" y1="172.3" x2="609.2" y2="171.7"/>
				<path fill="#EEEEE0" d="M735.4,172.3c0.7-18.5-4.4-35.6-10.5-43.1c-6.1-7.5-12.9-7.7-19.5-7.7c-24.2,0-48.5,0-72.7,0l0.1,0
					c-7.9,0-15.7,0-23.6,0c-7.9,0-15.7,0-23.6,0l0.1,0c-24.2,0-48.5,0-72.7,0c-6.6,0-13.5,0.1-19.5,7.7
					c-6.1,7.5-11.1,24.6-10.5,43.1l126.2-42.9L735.4,172.3z"/>
				<line fill="#EEEEE0" x1="609.2" y1="171.7" x2="574.7" y2="171.6"/>
				<line fill="#EEEEE0" x1="609.2" y1="171.7" x2="735.4" y2="172.3"/>
			</g>
		</g>
		<g>
			<g>
				<polygon fill="#EEEEE0" points="319.3,129.4 193.1,172.3 319.3,171.7 284.8,171.6 319.3,171.7 353.8,171.6 319.3,171.7 
					445.5,172.3 				"/>
				<line fill="#EEEEE0" x1="353.8" y1="171.6" x2="319.3" y2="171.7"/>
				<line fill="#EEEEE0" x1="193.1" y1="172.3" x2="319.3" y2="171.7"/>
				<path fill="#EEEEE0" d="M445.5,172.3c0.7-18.5-4.4-35.6-10.5-43.1c-6.1-7.5-12.9-7.7-19.5-7.7c-24.2,0-48.5,0-72.7,0l0.1,0
					c-7.9,0-15.7,0-23.6,0c-7.9,0-15.7,0-23.6,0l0.1,0c-24.2,0-48.5,0-72.7,0c-6.6,0-13.5,0.1-19.5,7.7
					c-6.1,7.5-11.1,24.6-10.5,43.1l126.2-42.9L445.5,172.3z"/>
				<line fill="#EEEEE0" x1="319.3" y1="171.7" x2="284.8" y2="171.6"/>
				<line fill="#EEEEE0" x1="319.3" y1="171.7" x2="445.5" y2="172.3"/>
			</g>
			<g>
				<polygon fill="#EEEEE0" points="451,129.4 324.8,172.3 451,171.7 416.5,171.6 451,171.7 485.5,171.6 451,171.7 577.2,172.3 				
					"/>
				<line fill="#EEEEE0" x1="485.5" y1="171.6" x2="451" y2="171.7"/>
				<line fill="#EEEEE0" x1="324.8" y1="172.3" x2="451" y2="171.7"/>
				<path fill="#EEEEE0" d="M577.2,172.3c0.7-18.5-4.4-35.6-10.5-43.1c-6.1-7.5-12.9-7.7-19.5-7.7c-24.2,0-48.5,0-72.7,0l0.1,0
					c-7.9,0-15.7,0-23.6,0c-7.9,0-15.7,0-23.6,0l0.1,0c-24.2,0-48.5,0-72.7,0c-6.6,0-13.5,0.1-19.5,7.7
					c-6.1,7.5-11.1,24.6-10.5,43.1L451,129.4L577.2,172.3z"/>
				<line fill="#EEEEE0" x1="451" y1="171.7" x2="416.5" y2="171.6"/>
				<line fill="#EEEEE0" x1="451" y1="171.7" x2="577.2" y2="172.3"/>
			</g>
			<g>
				<polygon fill="#EEEEE0" points="626.7,129.4 500.5,172.3 626.7,171.7 592.2,171.6 626.7,171.7 661.1,171.6 626.7,171.7 
					752.8,172.3 				"/>
				<line fill="#EEEEE0" x1="661.1" y1="171.6" x2="626.7" y2="171.7"/>
				<line fill="#EEEEE0" x1="500.5" y1="172.3" x2="626.7" y2="171.7"/>
				<path fill="#EEEEE0" d="M752.8,172.3c0.7-18.5-4.4-35.6-10.5-43.1c-6.1-7.5-12.9-7.7-19.5-7.7c-24.2,0-48.5,0-72.7,0l0.1,0
					c-7.9,0-15.7,0-23.6,0c-7.9,0-15.7,0-23.6,0l0.1,0c-24.2,0-48.5,0-72.7,0c-6.6,0-13.5,0.1-19.5,7.7
					c-6.1,7.5-11.1,24.6-10.5,43.1l126.2-42.9L752.8,172.3z"/>
				<line fill="#EEEEE0" x1="626.7" y1="171.7" x2="592.2" y2="171.6"/>
				<line fill="#EEEEE0" x1="626.7" y1="171.7" x2="752.8" y2="172.3"/>
			</g>
			<g>
				<polygon fill="#EEEEE0" points="802.3,129.4 676.1,172.3 802.3,171.7 767.8,171.6 802.3,171.7 836.8,171.6 802.3,171.7 
					928.5,172.3 				"/>
				<line fill="#EEEEE0" x1="836.8" y1="171.6" x2="802.3" y2="171.7"/>
				<line fill="#EEEEE0" x1="676.1" y1="172.3" x2="802.3" y2="171.7"/>
				<path fill="#EEEEE0" d="M928.5,172.3c0.7-18.5-4.4-35.6-10.5-43.1c-6.1-7.5-12.9-7.7-19.5-7.7c-24.2,0-48.5,0-72.7,0l0.1,0
					c-7.9,0-15.7,0-23.6,0c-7.9,0-15.7,0-23.6,0l0.1,0c-24.2,0-48.5,0-72.7,0c-6.6,0-13.5,0.1-19.5,7.7
					c-6.1,7.5-11.1,24.6-10.5,43.1l126.2-42.9L928.5,172.3z"/>
				<line fill="#EEEEE0" x1="802.3" y1="171.7" x2="767.8" y2="171.6"/>
				<line fill="#EEEEE0" x1="802.3" y1="171.7" x2="928.5" y2="172.3"/>
			</g>
		</g>
		<g>
			<path fill="#FFFFFF" d="M753.3,132.1c0,0-45.9,0.3-114.7,0.6c-68.9,0.3-160.7,0.7-252.5,1.2c-23,0.1-45.9,0.2-68.5,0.4
				c-22.6,0.1-44.8,0.2-66.4,0.3c-10.8,0-21.3,0-31.7-0.1c-10.4,0-20.5,0-30.4-0.1c-19.7-0.2-38.4-0.3-55.6-0.4
				c-17.2-0.1-33-0.4-47-0.6c-7-0.1-13.5-0.2-19.6-0.3c-6.1-0.1-11.6-0.2-16.6-0.3c-10-0.2-18.2-0.3-23.6-0.5
				c-5.4-0.1-8.5-0.2-8.5-0.2v-0.5c0,0,3.1-0.1,8.5-0.2c5.4-0.1,13.4-0.3,23.4-0.5c5-0.1,10.6-0.2,16.7-0.3
				c6.1-0.1,12.6-0.2,19.6-0.3c14-0.2,29.8-0.5,47-0.6c17.2-0.1,35.9-0.3,55.6-0.4c9.9-0.1,20-0.1,30.4-0.1c10.4,0,20.9,0,31.7-0.1
				c21.5,0.1,43.8,0.2,66.4,0.3c22.6,0.1,45.6,0.2,68.5,0.4c91.8,0.4,183.6,0.8,252.5,1.2c68.9,0.4,114.7,0.6,114.7,0.6V132.1z"/>
		</g>
		<g>
			<path fill="#FFFFFF" d="M802.3,131.6c0,0,6.5-0.2,16.4-0.5c4.9-0.1,10.6-0.3,16.8-0.4c6.2-0.1,12.7-0.3,19.3-0.4
				c3.3-0.1,6.6-0.2,9.8-0.3c3.2-0.1,6.4-0.2,9.5-0.2c3.1,0,6,0,8.9,0.1c2.8,0.1,5.5,0.2,7.9,0.3c2.5,0.1,4.7,0.3,6.7,0.4
				c2,0.1,3.8,0.3,5.2,0.4c2.9,0.3,4.6,0.5,4.6,0.5v0.4c0,0-1.7,0.2-4.6,0.5c-1.4,0.1-3.2,0.3-5.2,0.4c-2,0.1-4.3,0.3-6.7,0.4
				c-2.5,0.1-5.1,0.2-8,0.3c-2.8,0.1-5.8,0.1-8.9,0.1c-3.1,0-6.3-0.1-9.5-0.2c-3.2-0.1-6.5-0.2-9.8-0.3c-6.6-0.1-13.1-0.3-19.3-0.4
				c-6.2-0.1-11.8-0.3-16.8-0.4c-9.8-0.3-16.4-0.5-16.4-0.5V131.6z"/>
		</g>
		<line fill="#EEE8AA" stroke="#EEE8AA" stroke-width="10" stroke-miterlimit="10" x1="184.3" y1="438.8" x2="744.3" y2="438.8"/>
	</g>
	<g>
		<path fill="#FFFFFF" d="M59.8,36c0,0,0.1-0.4,0.2-1.1c0.1-0.7,0.3-1.8,0.7-3.1c0.2-0.7,0.4-1.4,0.7-2.2c0.1-0.4,0.3-0.8,0.4-1.2
			c0.2-0.4,0.4-0.8,0.5-1.3c0.7-1.8,1.8-3.7,3.1-5.7c1.3-2,3-4,5.1-5.9c2-1.9,4.4-3.7,7-5.2c2.6-1.5,5.5-2.9,8.5-3.9
			c3-1,6.2-1.7,9.4-2.2c3.2-0.4,6.4-0.6,9.5-0.5c3.1,0.1,6.2,0.4,9.2,0.9c2.9,0.5,5.7,1.2,8.3,2.1c2.6,0.8,5,1.8,7.1,2.8
			c4.3,2,7.6,4.2,9.8,5.7c1.1,0.8,1.9,1.5,2.5,1.9c0.6,0.5,0.9,0.7,0.9,0.7l-0.1,0.2c0,0-0.3-0.2-0.9-0.6c-0.6-0.4-1.5-1-2.7-1.7
			c-2.3-1.4-5.7-3.2-10-4.9c-4.3-1.7-9.5-3.2-15.2-4.1c-5.7-0.8-11.9-1-18-0.1c-6.1,0.8-12.1,2.7-17.1,5.5c-2.5,1.4-4.8,3-6.8,4.7
			c-2,1.7-3.7,3.5-5.1,5.4c-1.4,1.8-2.5,3.6-3.4,5.3c-0.2,0.4-0.4,0.8-0.6,1.2c-0.2,0.4-0.4,0.8-0.5,1.2c-0.3,0.7-0.6,1.4-0.9,2.1
			c-0.2,0.6-0.5,1.2-0.6,1.7c-0.2,0.5-0.3,0.9-0.4,1.3c-0.2,0.7-0.3,1.1-0.3,1.1L59.8,36z"/>
	</g>
</g>
<text transform="matrix(1 0 0 1 393.7332 462.0222)" fill="#EEE8AA" font-family="'FFFTusj-Bold'" font-size="12">Monica M Raffaelli 2015</text>
</svg>
