<?xml version="1.0" encoding="utf-8"?>
<!-- Generator: Adobe Illustrator 18.1.1, SVG Export Plug-In . SVG Version: 6.00 Build 0)  -->
<svg version="1.1" id="Layer_1" xmlns="http://www.w3.org/2000/svg" xmlns:xlink="http://www.w3.org/1999/xlink" x="0px" y="0px"
	 viewBox="0 0 809.9 684.2" enable-background="new 0 0 809.9 684.2" xml:space="preserve">
<rect x="0.4" y="0.4" fill="#FFFFFF" stroke="#000000" stroke-width="0.8" stroke-miterlimit="10" width="809.1" height="683.4"/>
<g>
	<path d="M312.4,242.7c0,0-0.3-0.5-1-1.4c-0.7-0.9-1.6-2.2-2.9-4c-2.5-3.5-6-8.8-9.7-16c-3.7-7.2-7.7-16.2-10.6-27.1
		c-1.4-5.5-2.5-11.4-3.1-17.7c-0.5-6.3-0.4-13.1,0.6-20c0.2-1.7,0.6-3.5,0.9-5.2c0.4-1.7,0.8-3.5,1.3-5.2c0.5-1.8,1.1-3.5,1.7-5.2
		c0.7-1.7,1.3-3.5,2.1-5.2l0.6-1.3l0.3-0.7l0.3-0.6c0.4-0.8,0.8-1.7,1.3-2.5c0.5-0.8,1-1.7,1.5-2.5c0.5-0.8,1-1.6,1.6-2.5
		c2.2-3.3,4.7-6.4,7.5-9.3c5.6-5.8,12.4-10.8,20.2-14.4c1-0.4,2-0.8,2.9-1.3c1-0.4,2-0.7,3-1.1c1.1-0.4,2-0.6,3.1-1
		c1-0.3,2.1-0.6,3.1-0.8c4.2-1,8.6-1.7,12.9-2c17.6-1.2,35.8,2.6,52.6,9.8c16.9,7.2,32.6,17.9,45.4,31.7
		c6.3,6.9,11.9,14.5,16.3,22.7l1.6,3.1c0.5,1,1.1,2.1,1.5,3.2l1.4,3.2c0.4,1.1,1,2.1,1.3,3.2c0.7,2.2,1.5,4.4,2.2,6.6
		c0.3,1.1,0.6,2.2,0.9,3.3c0.3,1.1,0.6,2.3,0.8,3.4c3.9,18.1,2,37-4.4,53.3c-3.2,8.2-7.6,15.8-12.9,22.3
		c-5.3,6.6-11.6,12.1-18.3,16.6c-0.9,0.5-1.7,1.1-2.5,1.6l-0.2,0.1l-0.2,0.1l-0.3,0.2l-0.6,0.3l-1.3,0.7c-0.9,0.5-1.7,0.9-2.6,1.4
		c-0.9,0.5-1.7,0.9-2.6,1.3c-1.8,0.8-3.6,1.6-5.4,2.3c-1.8,0.7-3.6,1.3-5.4,1.9c-7.2,2.3-14.3,3.8-21.3,4.4
		c-0.9,0.1-1.7,0.2-2.6,0.3c-0.9,0-1.7,0.1-2.6,0.1c-1.7,0.1-3.4,0.1-5.1,0.2c-1.7,0-3.3-0.1-4.9-0.1c-0.8,0-1.6,0-2.4-0.1
		c-0.8-0.1-1.6-0.1-2.4-0.2c-1.6-0.1-3.1-0.3-4.7-0.4c-1.5-0.2-3-0.4-4.5-0.6c-3-0.3-5.8-1-8.6-1.5c-11-2.2-20.4-5.3-27.9-8.2
		c-1.9-0.7-3.7-1.4-5.3-2.1c-1.7-0.7-3.2-1.3-4.6-2c-2.9-1.3-5.3-2.4-7.2-3.4c-3.9-1.9-5.9-3-5.9-3s2.1,1,6,2.8
		c2,0.9,4.4,1.9,7.3,3.1c1.4,0.6,3,1.2,4.7,1.8c1.7,0.6,3.4,1.4,5.3,2c7.6,2.7,16.9,5.5,27.9,7.5c2.8,0.4,5.6,1,8.5,1.3
		c1.5,0.2,3,0.3,4.5,0.5c1.5,0.1,3.1,0.2,4.6,0.3c0.8,0,1.6,0.1,2.4,0.1c0.8,0,1.6,0,2.4,0c1.6,0,3.2,0,4.9,0c1.6-0.1,3.3-0.2,5-0.3
		c0.8,0,1.7-0.1,2.5-0.1c0.8-0.1,1.7-0.2,2.5-0.3c6.8-0.7,13.8-2.3,20.7-4.6c1.7-0.6,3.5-1.2,5.2-1.9c1.7-0.8,3.4-1.5,5.1-2.3
		c0.9-0.4,1.7-0.9,2.5-1.3c0.8-0.5,1.7-0.9,2.5-1.4l1.3-0.7l0.6-0.4l0.3-0.2l0.2-0.1c-0.1,0,0.1,0,0.1-0.1c0.8-0.5,1.6-1.1,2.4-1.6
		c12.9-8.6,23.6-22,29.6-37.8c6.1-15.8,7.6-33.9,3.9-51.2c-0.2-1.1-0.5-2.1-0.8-3.2c-0.3-1.1-0.6-2.2-0.9-3.3
		c-0.6-2.1-1.4-4.2-2.1-6.3c-0.3-1.1-0.8-2.1-1.3-3.1l-1.3-3.1c-0.4-1-0.9-2-1.5-3l-1.5-3c-4.3-7.9-9.7-15.3-15.8-21.9
		c-12.3-13.3-27.6-23.8-43.9-30.8c-2.1-0.8-4-1.8-6.2-2.5l-3.2-1.1c-0.5-0.2-1.1-0.4-1.5-0.5l-1.6-0.5c-4.2-1.3-8.5-2.4-12.8-3.3
		c-8.6-1.7-17.2-2.4-25.6-1.9c-4.2,0.3-8.4,0.9-12.4,1.9c-1,0.3-2,0.4-3,0.8c-1,0.3-2,0.6-3,0.9c-1,0.3-1.9,0.7-2.9,1
		c-0.9,0.4-1.9,0.8-2.8,1.2c-7.4,3.3-14,7.9-19.4,13.4c-2.7,2.7-5.1,5.7-7.3,8.8c-0.5,0.8-1,1.6-1.5,2.3c-0.5,0.8-0.9,1.6-1.4,2.4
		c-0.5,0.8-0.9,1.7-1.3,2.5l-0.3,0.6l-0.3,0.6l-0.6,1.2c-0.8,1.6-1.5,3.3-2.1,5c-0.6,1.7-1.2,3.4-1.7,5.1c-0.6,1.7-0.9,3.4-1.4,5.1
		c-0.3,1.7-0.7,3.4-1,5.1c-1.1,6.7-1.3,13.3-0.9,19.5c0.4,6.2,1.3,12.1,2.6,17.5c2.6,10.8,6.3,19.9,9.8,27.1
		c3.6,7.2,6.8,12.6,9.2,16.2c1.2,1.8,2.1,3.2,2.7,4.1C312.1,242.2,312.4,242.7,312.4,242.7z"/>
</g>
<g>
	<path d="M232.5,235.1c0,0,1.4-0.1,4-0.3c2.6-0.5,6.4-1,10.9-3.1c1.1-0.5,2.2-1.2,3.4-1.8c1.2-0.6,2.3-1.5,3.6-2.3
		c0.6-0.4,1.2-0.9,1.8-1.4c0.6-0.5,1.2-0.9,1.8-1.5c1.1-1.1,2.4-2.2,3.4-3.5c4.4-5.1,8.2-12,9.6-20.2c0.8-4.1,0.8-8.4,0.3-12.9
		c-0.2-2.2-0.7-4.4-1.2-6.7c-0.3-1.1-0.6-2.2-1-3.3c-0.3-1.1-0.8-2.2-1.2-3.3c-3.5-8.8-9.4-17.3-17.5-23.7c-4-3.2-8.6-5.9-13.5-7.8
		c-0.6-0.2-1.3-0.5-1.8-0.7l-2-0.6l-2-0.6c-0.7-0.2-1.3-0.3-1.9-0.4c-2.6-0.6-5.3-1-8-1.4c-5.4-0.6-10.9-0.5-16.4,0.1
		c-5.5,0.6-10.9,1.8-16.1,3.5c-10.5,3.5-20.2,9.3-27.2,17.7c-0.8,1.1-1.7,2-2.4,3.2c-0.7,1.1-1.5,2.2-2.2,3.4
		c-0.6,1.2-1.2,2.4-1.9,3.5c-0.5,1.2-1,2.4-1.5,3.7c-1.9,5-2.9,10.1-3.2,15.3c-0.3,5.1,0.2,10.2,1.5,15c1.2,4.8,3.2,9.3,5.6,13.4
		c0.6,1,1.3,2,1.9,2.9c0.3,0.4,0.7,0.9,1,1.4c0.4,0.5,0.7,0.9,1.1,1.4c1.4,1.7,3.1,3.3,4.8,4.8c3.4,2.9,7.1,5.2,10.9,6.8
		c3.8,1.6,7.7,2.7,11.4,3.1c3.7,0.4,7.4,0.3,10.7-0.3c3.3-0.6,6.3-1.8,8.8-3.2c2.5-1.5,4.6-3.2,6.3-5c3.3-3.6,5.1-7.1,6.1-9.5
		c0.6-1.2,0.8-2.2,1.1-2.8c0.2-0.6,0.3-1,0.3-1s-0.1,0.3-0.3,1c-0.2,0.6-0.4,1.6-0.9,2.9c-0.9,2.5-2.5,6.1-5.8,9.9
		c-1.7,1.9-3.7,3.7-6.3,5.3c-2.6,1.6-5.6,2.9-9,3.6c-3.4,0.8-7.2,1-11.1,0.7c-3.9-0.4-7.9-1.4-11.9-3c-4-1.7-7.9-3.9-11.5-6.9
		c-1.8-1.5-3.5-3.1-5.1-4.9c-0.4-0.4-0.8-0.9-1.2-1.4c-0.4-0.5-0.7-0.9-1.1-1.4c-0.7-1-1.4-2-2.1-3c-2.6-4.2-4.7-8.9-6.1-13.9
		c-0.3-1.3-0.6-2.5-0.9-3.8c-0.2-1.3-0.4-2.6-0.6-3.9c-0.1-0.7-0.1-1.3-0.2-2l-0.1-2c-0.1-1.3,0-2.7,0-4
		c0.5-10.8,4.2-21.9,11.6-30.8l0.7-0.9l0.7-0.8l1.4-1.5l0.7-0.8l0.4-0.4l0.4-0.4l1.6-1.4c0.5-0.5,1.1-1,1.6-1.4l1.7-1.3l1.7-1.3
		c0.6-0.4,1.2-0.8,1.8-1.2c4.8-3.1,10-5.6,15.5-7.4c5.5-1.8,11.1-3,16.8-3.6c5.7-0.6,11.4-0.6,17,0c2.8,0.4,5.6,0.8,8.3,1.5
		c0.7,0.2,1.4,0.3,2.1,0.5l2,0.6l2,0.6c0.7,0.2,1.3,0.5,2,0.8c5.2,2,10,4.9,14.2,8.3c8.5,6.8,14.4,15.8,17.9,25
		c0.4,1.2,0.9,2.3,1.2,3.5c0.3,1.2,0.6,2.3,0.9,3.5c0.5,2.3,0.9,4.7,1.1,7c0.4,4.6,0.4,9.1-0.6,13.3c-0.1,1.1-0.5,2.1-0.7,3.1
		c-0.1,0.5-0.3,1-0.4,1.5c-0.1,0.5-0.4,1-0.5,1.5c-0.4,1-0.7,1.9-1.1,2.8c-0.4,0.9-0.9,1.8-1.3,2.7c-1.9,3.4-4,6.5-6.4,9
		c-1.1,1.3-2.4,2.4-3.6,3.5c-0.6,0.6-1.3,1-1.9,1.5c-0.6,0.5-1.2,1-1.8,1.4c-1.3,0.8-2.5,1.6-3.7,2.2c-1.2,0.6-2.4,1.2-3.5,1.7
		c-4.6,2-8.5,2.4-11.1,2.8C233.9,235,232.5,235.1,232.5,235.1z"/>
</g>
<g>
	<path d="M221.1,240.7l1.6-0.6c0.5-0.2,1.1-0.3,1.6-0.4l1.6-0.3c0.5-0.1,1.1-0.2,1.7-0.2c1.1-0.1,2.2-0.2,3.4-0.2
		c1.1,0,2.2,0.1,3.4,0.3c1.1,0.1,2.2,0.4,3.3,0.6c0.6,0.1,1.1,0.3,1.6,0.5c0.5,0.2,1.1,0.4,1.6,0.6c1.1,0.4,2.1,0.9,3.1,1.5
		c0.5,0.3,1,0.6,1.5,0.9c0.5,0.3,0.9,0.7,1.4,1l3,2.2l-3.9,0.2c-1.5,0.1-2.9,0.2-4.4,0.3c-1.5,0.1-2.9,0.3-4.4,0.6
		c-1.4,0.2-2.9,0.5-4.3,0.8c-1.4,0.3-2.9,0.6-4.3,1c-1.4,0.4-2.8,0.8-4.2,1.2l-2.1,0.7l-2.1,0.8c-1.4,0.5-2.7,1.1-4.1,1.7l-2,0.9
		l-2,1l-0.9,0.4l-0.3-0.8c-0.2-0.5-0.4-1-0.5-1.5c-0.1-0.5-0.2-1-0.2-1.5c0-0.5,0-1,0.1-1.5c0.1-0.5,0.2-1,0.3-1.4
		c0.3-0.9,0.7-1.8,1.3-2.6c0.3-0.4,0.6-0.7,0.9-1.1c0.3-0.3,0.7-0.6,1.1-0.9c-0.3,0.4-0.6,0.7-0.9,1.1c-0.3,0.4-0.5,0.8-0.7,1.2
		c-0.4,0.8-0.7,1.7-0.8,2.5c-0.1,0.4-0.1,0.9-0.1,1.3c0,0.4,0.1,0.9,0.1,1.3c0.1,0.4,0.2,0.8,0.3,1.2c0.1,0.4,0.3,0.8,0.5,1.1
		l-1.2-0.3c1.3-0.8,2.6-1.6,3.9-2.4c1.3-0.7,2.7-1.4,4.1-2.1c1.4-0.6,2.8-1.2,4.2-1.7c1.4-0.5,2.9-1,4.3-1.4
		c1.5-0.4,2.9-0.8,4.4-1.1c1.5-0.3,3-0.6,4.5-0.8c1.5-0.2,3-0.4,4.5-0.5l2.3-0.2l2.3,0l-0.9,2.5l-1.2-1c-0.4-0.3-0.8-0.6-1.3-0.9
		c-0.9-0.5-1.8-1-2.7-1.5c-0.5-0.2-0.9-0.5-1.4-0.6c-0.5-0.2-1-0.4-1.5-0.6c-0.5-0.2-1-0.3-1.5-0.5c-0.5-0.1-1-0.3-1.5-0.4
		c-1-0.2-2.1-0.4-3.1-0.6l-1.6-0.2l-1.6-0.1l-1.6,0l-1.6,0.1l-1.6,0.2L221.1,240.7z"/>
</g>
<g>
	<path d="M344.7,297.1c0.5,0.9,0.9,1.9,1,3c0.1,1.1,0.1,2.2-0.2,3.3c-0.3,1.1-0.7,2.1-1.3,3.1c-0.6,0.9-1.3,1.8-2.2,2.6
		c-0.8,0.7-1.8,1.4-2.8,1.9c-0.5,0.3-1.1,0.4-1.6,0.6c-0.6,0.2-1,0.3-1.6,0.4c-2.3,0.4-4.5,0.4-6.8,0c-2.2-0.4-4.3-1.1-6.4-2
		c-2-0.9-4-2.1-5.7-3.4c-1.8-1.4-3.4-2.8-4.9-4.4c-1.5-1.6-2.9-3.2-4.3-4.9c-2.7-3.4-5.2-6.7-7.7-10.1l-7.6-10.1
		c-2.5-3.4-5-6.8-7.5-10.2c-2.5-3.4-4.9-6.9-7.3-10.3l-2.3-3.3l3.8,1.1c2.2,0.6,4.3,1.3,6.4,1.9c2.1,0.6,4.3,1.3,6.4,1.9
		c4.3,1.3,8.5,2.7,12.8,4.1c-4.4-0.8-8.8-1.6-13.2-2.5c-2.2-0.4-4.4-0.9-6.6-1.4c-2.2-0.5-4.4-0.9-6.6-1.4l1.5-2.2
		c2.6,3.3,5.3,6.6,7.9,9.9c2.6,3.3,5.2,6.6,7.8,10l7.7,10.1c2.5,3.4,5,6.8,7.6,10.1c1.3,1.6,2.6,3.2,3.9,4.8
		c1.4,1.5,2.8,2.9,4.3,4.2c1.6,1.3,3.2,2.4,5,3.3c1.8,0.9,3.6,1.7,5.6,2.1c1.9,0.5,3.9,0.7,5.8,0.5c0.4,0,1.1-0.2,1.5-0.2
		c0.5-0.1,0.9-0.2,1.4-0.4c0.9-0.3,1.8-0.8,2.6-1.4c1.6-1.1,2.9-2.8,3.6-4.6c0.4-0.9,0.5-2,0.5-3
		C345.3,299.2,345.1,298.2,344.7,297.1z"/>
</g>
<g>
	<path d="M241.3,127.5c0,0-3.2-0.6-8.9-1.5c-2.8-0.4-6.3-0.9-10.2-1.4c-2-0.2-4.1-0.4-6.3-0.7c-2.2-0.2-4.6-0.4-7-0.6
		c-2.4-0.2-5-0.4-7.6-0.5c-1.3-0.1-2.7-0.1-4-0.2c-1.4,0-2.8-0.1-4.2-0.1c-2.8-0.1-5.7-0.1-8.7-0.1c-3,0-6,0-9,0.2
		c-1.5,0.1-3.1,0.1-4.6,0.2c-1.6,0.1-3.1,0.2-4.7,0.3c-1.6,0.1-3.2,0.2-4.8,0.3c-1.6,0.2-3.2,0.3-4.8,0.5c-1.6,0.2-3.2,0.3-4.8,0.5
		c-1.6,0.2-3.2,0.4-4.8,0.6c-3.2,0.4-6.5,1-9.7,1.5c-6.5,1.1-12.9,2.4-19.1,3.8c-3.1,0.7-6.2,1.6-9.3,2.3c-3,0.9-6,1.7-9,2.6
		c-5.9,1.8-11.5,3.7-16.6,6.1c-5.1,2.3-9.7,5.1-13.5,8.1c-1.9,1.5-3.6,3.1-5.2,4.7c-1.5,1.6-2.9,3.3-4,4.9c-2.3,3.2-3.8,6.4-4.8,9.1
		c-1,2.7-1.4,4.9-1.6,6.4c-0.1,0.8-0.1,1.3-0.2,1.7c0,0.4-0.1,0.6-0.1,0.6s0-0.2,0-0.6c0-0.4,0.1-1,0.1-1.7c0.2-1.5,0.6-3.8,1.5-6.5
		c0.9-2.7,2.4-5.9,4.7-9.2c2.3-3.3,5.3-6.7,9.2-9.8c3.9-3.1,8.5-5.8,13.6-8.2c5.1-2.4,10.7-4.4,16.6-6.2c3-0.9,5.9-1.7,9-2.6
		c3.1-0.8,6.2-1.6,9.3-2.4c6.3-1.5,12.7-2.8,19.2-3.9c3.2-0.5,6.5-1.1,9.7-1.4c1.6-0.2,3.2-0.4,4.8-0.6c1.6-0.2,3.2-0.3,4.8-0.5
		c1.6-0.2,3.2-0.3,4.8-0.5c1.6-0.1,3.2-0.2,4.8-0.3c1.6-0.1,3.1-0.2,4.7-0.3c1.6-0.1,3.1-0.1,4.6-0.2c3.1-0.1,6.1-0.1,9.1-0.2
		c3-0.1,5.9,0,8.7,0.1c1.4,0,2.8,0.1,4.2,0.1c1.4,0.1,2.7,0.2,4,0.2c2.6,0.1,5.2,0.3,7.7,0.5c2.4,0.2,4.8,0.4,7,0.6
		c2.2,0.3,4.3,0.5,6.3,0.8c4,0.5,7.4,1.1,10.2,1.5C238,126.9,241.3,127.5,241.3,127.5z"/>
</g>
<g>
	<path d="M161.8,135.8c0,0-0.5,0.1-1.3,0.2c-0.9,0.1-2.2,0.3-3.8,0.6c-0.8,0.2-1.7,0.3-2.7,0.5c-1,0.2-2,0.5-3.1,0.7
		c-1.1,0.3-2.3,0.6-3.5,1c-1.2,0.4-2.5,0.8-3.9,1.2c-2.7,0.9-5.5,2-8.5,3.3c-3,1.3-6,2.9-9.1,4.6c-3.1,1.7-6.1,3.7-9.1,5.9
		c-3,2.2-5.9,4.6-8.7,7.1c-2.8,2.6-5.4,5.2-7.8,8c-2.4,2.8-4.6,5.7-6.6,8.6c-2,2.9-3.8,5.8-5.3,8.6c-1.6,2.8-2.9,5.6-4,8.1
		c-0.5,1.3-1.1,2.5-1.5,3.7c-0.5,1.2-0.9,2.3-1.3,3.4c-0.4,1.1-0.7,2.1-1,3c-0.3,0.9-0.5,1.8-0.8,2.6c-0.5,1.6-0.7,2.8-1,3.7
		c-0.2,0.9-0.3,1.3-0.3,1.3s0.1-0.5,0.3-1.3c0.2-0.9,0.4-2.1,0.9-3.7c0.2-0.8,0.4-1.7,0.7-2.6c0.3-1,0.6-2,0.9-3.1
		c0.4-1.1,0.8-2.2,1.2-3.5c0.5-1.2,1-2.5,1.5-3.8c1.1-2.6,2.4-5.4,3.9-8.2c1.5-2.9,3.3-5.8,5.3-8.7c2-2.9,4.2-5.8,6.6-8.7
		c2.4-2.8,5.1-5.5,7.8-8.1c2.8-2.5,5.7-4.9,8.8-7.1c3-2.1,6.1-4.1,9.2-5.9c3.1-1.7,6.2-3.3,9.2-4.5c3-1.3,5.9-2.3,8.5-3.2
		c1.4-0.4,2.6-0.8,3.9-1.2c1.2-0.3,2.4-0.6,3.5-0.9c1.1-0.2,2.2-0.5,3.1-0.7c1-0.2,1.9-0.3,2.7-0.5c1.6-0.3,2.9-0.4,3.8-0.6
		C161.4,135.8,161.8,135.8,161.8,135.8z"/>
</g>
<g>
	<path d="M471.2,147.8l0.8-2.2l0.6-2.3l0.5-2.3l0.4-2.3l0.2-2.3l0.1-2.3l0-2.3l-0.2-2.3l-0.3-2.3l-0.4-2.3l-0.5-2.3l-0.7-2.2
		l-0.8-2.2l-0.9-2.1l-1.1-2.1l-1.2-2l-1.3-1.9l-1.4-1.8l-1.5-1.8l-1.6-1.7l-1.7-1.6l-1.8-1.5l-1.9-1.4l-2-1.3l-2-1.1l-2.1-1
		l-2.1-0.9l-2.2-0.8l-2.2-0.6l-2.3-0.5l-2.3-0.4l-2.3-0.2l0.4-0.3c-0.3,1.7-0.6,3.3-0.8,5c-0.2,1.7-0.2,3.3,0.1,5
		c0.2,0.8,0.4,1.6,0.7,2.3c0.4,0.8,0.8,1.4,1.4,2c1.1,1.2,2.6,2,4.2,2.3c0.8,0.1,1.6,0.1,2.4-0.1c0.8-0.2,1.5-0.6,2-1.2
		c1.1-1.1,1.6-2.8,1.5-4.5c-0.1-1.6-0.8-3.2-1.8-4.5c-1-1.3-2.3-2.4-3.7-3.3c-1.4-0.9-2.9-1.8-4.3-2.6c-1.5-0.8-3-1.6-4.5-2.3
		c-1.5-0.7-3.1-1.4-4.6-2.1c-0.8-0.3-1.6-0.6-2.4-0.9c-0.8-0.3-1.6-0.6-2.4-0.8c-3.2-1.1-6.5-2-9.8-2.7c-1.7-0.3-3.3-0.6-5-0.9
		c-1.7-0.2-3.4-0.4-5-0.6c1.7,0.1,3.4,0.3,5.1,0.5c1.7,0.2,3.4,0.5,5,0.8c1.7,0.3,3.3,0.7,5,1.1c1.6,0.4,3.3,0.9,4.9,1.4
		c0.8,0.3,1.6,0.5,2.4,0.8c0.8,0.3,1.6,0.6,2.4,0.9c1.6,0.6,3.1,1.3,4.7,2c1.5,0.7,3,1.5,4.5,2.3c1.5,0.8,3,1.7,4.4,2.6
		c1.4,1,2.8,2,3.9,3.4c1.1,1.4,1.8,3,2,4.8c0.1,1.7-0.3,3.6-1.6,4.9c-0.6,0.6-1.4,1.1-2.3,1.4c-0.9,0.2-1.8,0.2-2.7,0.1
		c-1.8-0.3-3.3-1.2-4.6-2.5c-0.6-0.6-1.2-1.4-1.5-2.1c-0.4-0.8-0.6-1.6-0.8-2.5c-0.4-1.7-0.4-3.5-0.2-5.2c0.2-1.7,0.5-3.4,0.8-5
		l0.1-0.3l0.3,0l2.4,0.3l2.3,0.4l2.3,0.5l2.3,0.7l2.2,0.8l2.2,0.9l2.1,1.1l2.1,1.2l2,1.3l1.9,1.4l1.8,1.5l1.7,1.6l1.6,1.7l1.5,1.8
		l1.4,1.9l1.3,2l1.2,2l1.1,2.1l0.9,2.2l0.8,2.2l0.7,2.3l0.5,2.3l0.4,2.3l0.3,2.3l0.1,2.4l0,2.4l-0.1,2.3l-0.3,2.3l-0.4,2.3l-0.6,2.3
		l-0.7,2.2L471.2,147.8z"/>
</g>
<g>
	<path d="M119.8,174.3l-2.1,1l-2,1.2l-2,1.3l-1.9,1.4l-1.8,1.5l-1.7,1.6l-1.6,1.7l-1.5,1.8l-1.4,1.9l-1.3,1.9l-1.2,2l-1.1,2.1
		l-1,2.1l-0.8,2.2l-0.7,2.2l-0.6,2.3l-0.4,2.3l-0.3,2.3l-0.1,2.3l0,2.3l0.1,2.3l0.3,2.3l0.4,2.3l0.5,2.3l0.7,2.2l0.8,2.2l0.9,2.1
		l1,2.1l1.2,2l1.3,2l1.4,1.9l1.5,1.8l-0.5-0.1c1.4-1,2.8-1.9,4-3c1.3-1.1,2.5-2.3,3.3-3.7c0.4-0.7,0.8-1.4,1.1-2.2
		c0.3-0.8,0.4-1.6,0.4-2.4c0-1.6-0.5-3.3-1.4-4.6c-0.5-0.7-1.1-1.2-1.7-1.6c-0.7-0.4-1.5-0.6-2.3-0.6c-1.6,0-3.1,0.9-4.1,2.2
		c-1.1,1.2-1.7,2.8-1.8,4.5c-0.2,1.6,0,3.3,0.4,5c0.3,1.6,0.8,3.3,1.3,4.9c0.5,1.6,1,3.2,1.6,4.8c0.6,1.6,1.2,3.2,1.9,4.7
		c0.3,0.8,0.7,1.5,1.1,2.3c0.4,0.8,0.7,1.5,1.1,2.3c1.5,3,3.3,5.9,5.1,8.7c0.9,1.4,1.9,2.8,3,4.1c1,1.3,2.1,2.6,3.2,3.9
		c-1.1-1.3-2.2-2.5-3.3-3.9c-1.1-1.3-2.1-2.7-3.1-4.1c-1-1.4-1.9-2.8-2.8-4.2c-0.9-1.4-1.7-2.9-2.5-4.4c-0.4-0.7-0.8-1.5-1.1-2.3
		c-0.4-0.8-0.7-1.5-1.1-2.3c-0.7-1.5-1.3-3.1-1.9-4.7c-0.6-1.6-1.1-3.2-1.6-4.8c-0.5-1.6-1-3.3-1.3-4.9c-0.4-1.7-0.6-3.4-0.4-5.1
		c0.2-1.7,0.8-3.4,1.9-4.8c1.1-1.3,2.7-2.4,4.6-2.4c0.9,0,1.8,0.2,2.6,0.6c0.8,0.4,1.4,1.1,2,1.8c1,1.4,1.5,3.2,1.6,5
		c0,0.9-0.1,1.8-0.4,2.6c-0.3,0.9-0.7,1.6-1.2,2.4c-0.9,1.5-2.2,2.7-3.5,3.8c-1.3,1.1-2.7,2.1-4.1,3L106,238l-0.2-0.2l-1.5-1.8
		l-1.4-1.9l-1.3-2l-1.2-2.1l-1-2.1l-0.9-2.2l-0.8-2.2l-0.7-2.3l-0.5-2.3l-0.4-2.3l-0.3-2.3l-0.1-2.4l0-2.4l0.1-2.4l0.3-2.4l0.4-2.3
		l0.6-2.3l0.7-2.2l0.9-2.2l1-2.1l1.1-2.1l1.2-2l1.3-1.9l1.4-1.9l1.6-1.8l1.7-1.7l1.7-1.6l1.8-1.5l1.9-1.4l2-1.3l2.1-1.1L119.8,174.3
		z"/>
</g>
<g>
	<path d="M434.9,247.6c0,0,0.3-0.5,0.7-1.5c0.5-1,1.2-2.5,2.1-4.3c0.8-1.8,1.9-4,2.9-6.7c1.1-2.6,2.2-5.6,3.3-8.9
		c1.1-3.3,2.1-6.9,3-10.8c0.2-1,0.4-2,0.7-2.9c0.2-1,0.4-2,0.5-3c0.4-2,0.6-4.2,0.9-6.3c0.4-4.3,0.6-8.8,0.4-13.3
		c-0.2-4.5-0.8-9.1-1.9-13.6c-1-4.5-2.5-8.9-4.4-13.1c-0.9-2.1-2-4.1-3.1-6c-0.6-1-1.2-1.9-1.7-2.8c-0.6-1-1.2-1.8-1.9-2.7
		c-2.5-3.5-5.3-6.8-8.2-9.6c-1.4-1.4-2.9-2.7-4.3-3.9c-1.5-1.2-2.9-2.3-4.3-3.4c-2.9-2.1-5.6-3.8-8.1-5.2c-1.3-0.7-2.4-1.3-3.5-1.9
		c-1.1-0.5-2.1-1-3.1-1.5c-0.5-0.2-0.9-0.4-1.3-0.6c-0.4-0.2-0.8-0.3-1.2-0.5c-0.7-0.3-1.4-0.6-1.9-0.8c-1-0.4-1.6-0.7-1.6-0.7
		s0.6,0.2,1.6,0.6c0.5,0.2,1.2,0.4,1.9,0.7c0.4,0.1,0.8,0.3,1.2,0.5c0.4,0.2,0.9,0.4,1.3,0.6c0.9,0.4,2,0.9,3.1,1.4
		c1.1,0.6,2.3,1.2,3.6,1.8c2.6,1.3,5.4,3,8.3,4.9c1.5,1,3,2.1,4.5,3.2c1.5,1.2,3.1,2.4,4.5,3.8c3.1,2.7,6,5.9,8.8,9.4
		c0.7,0.9,1.4,1.8,2,2.7c0.6,0.9,1.3,1.9,1.9,2.9c1.2,2,2.4,4,3.4,6.1c2.1,4.2,3.8,8.7,5.1,13.4c1.2,4.6,2,9.4,2.5,14.1
		c0.4,4.7,0.4,9.4,0.2,13.9c-0.2,2.2-0.3,4.5-0.7,6.6c-0.1,1.1-0.3,2.1-0.4,3.2c-0.2,1-0.4,2.1-0.6,3.1c-0.7,4.1-1.7,7.9-2.7,11.3
		c-1,3.5-2,6.6-3,9.4c-0.9,2.8-2,5.1-2.8,7.1c-0.8,1.9-1.5,3.4-1.9,4.4c-0.4,1-0.7,1.5-0.7,1.5L434.9,247.6z"/>
</g>
<g>
	<path d="M162.7,201.7c0,0-0.1-0.2-0.2-0.7c-0.1-0.2-0.2-0.5-0.3-0.8c-0.1-0.3-0.2-0.8-0.3-1.2c-0.1-0.5-0.3-1-0.4-1.6
		c-0.1-0.6-0.2-1.2-0.3-1.8c-0.2-1.3-0.2-2.8-0.2-4.4c0.1-1.6,0.3-3.3,0.8-5.1c0.5-1.8,1.1-3.6,1.9-5.4c0.8-1.8,1.9-3.5,3-5.2
		c1.2-1.7,2.5-3.3,3.9-4.7c1.4-1.5,2.9-2.9,4.4-4.2c1.5-1.3,3.1-2.4,4.7-3.5c1.6-1.1,3.1-2,4.6-2.9c1.5-0.9,3-1.6,4.3-2.3
		c1.4-0.7,2.6-1.2,3.7-1.7c1.1-0.5,2.1-0.9,2.9-1.2c1.6-0.6,2.6-1,2.6-1s-0.9,0.4-2.5,1.1c-0.8,0.4-1.8,0.8-2.8,1.4
		c-1.1,0.6-2.3,1.2-3.6,1.9c-1.3,0.7-2.7,1.6-4.1,2.5c-1.4,0.9-2.9,2-4.4,3.1c-1.5,1.2-2.9,2.4-4.4,3.7c-1.4,1.3-2.8,2.8-4,4.3
		c-1.2,1.5-2.4,3.1-3.4,4.7c-1,1.6-1.9,3.3-2.5,5c-0.7,1.7-1.1,3.3-1.4,4.9c-0.3,1.6-0.4,3.1-0.4,4.5c0,1.4,0.1,2.7,0.4,3.8
		c0.1,0.6,0.2,1.1,0.3,1.5c0.1,0.5,0.2,0.9,0.4,1.3c0.1,0.4,0.2,0.7,0.3,1c0.1,0.3,0.2,0.6,0.3,0.8c0.2,0.4,0.3,0.7,0.3,0.7
		L162.7,201.7z"/>
</g>
<path fill="none" stroke="#000000" stroke-miterlimit="10" d="M229.3,296.7c-4.3,7.4-3.2,17.1,1.1,24.5c3.1,5.3,7.8,9.8,13.4,12.1
	c7.4,3.1,16.3,2.2,22.9-2.4c6.6-4.5,10.6-12.6,10.2-20.6c-0.6-12.8-12.7-23.4-25.5-24.2C242.9,285.6,233.6,289.3,229.3,296.7z"/>
<g>
	<path d="M261.9,309.9c0,0,0-0.2-0.1-0.5c0-0.3-0.1-0.7-0.1-1.3c-0.1-1-0.2-2.3-0.4-3.6c-0.2-1.3-0.4-2.5-0.6-3.5
		c-0.1-0.5-0.2-0.9-0.3-1.2c-0.1-0.3-0.1-0.5-0.1-0.5s0.2,0.1,0.4,0.3c0.3,0.2,0.6,0.5,1,0.9c0.8,0.9,1.4,2.3,1.6,3.8
		c0.2,1.5,0,3-0.5,4c-0.2,0.5-0.5,0.9-0.6,1.2C262,309.8,261.9,309.9,261.9,309.9z"/>
</g>
<g>
	<path d="M250.9,298.2c0,0,0.3,0.1,0.7,0.2c0.2,0.1,0.5,0.2,0.8,0.3c0.3,0.1,0.7,0.3,1,0.6c0.4,0.2,0.7,0.5,1.1,0.8
		c0.4,0.3,0.7,0.7,1,1.1c0.3,0.4,0.7,0.8,0.9,1.3c0.3,0.5,0.5,1,0.8,1.5c0.2,0.5,0.4,1.1,0.5,1.6c0.2,0.5,0.2,1.1,0.3,1.6
		c0,0.5,0.1,1,0,1.5c0,0.5-0.1,0.9-0.2,1.3c-0.1,0.4-0.2,0.8-0.3,1.1c-0.1,0.3-0.2,0.6-0.3,0.8c-0.2,0.4-0.4,0.6-0.4,0.6
		s0-0.3,0-0.7c0-0.5,0-1.1-0.1-1.9c0-0.4-0.1-0.8-0.2-1.2c0-0.4-0.2-0.9-0.3-1.3c-0.2-0.9-0.5-1.8-0.9-2.7c-0.2-0.4-0.4-0.9-0.6-1.3
		c-0.2-0.4-0.4-0.8-0.7-1.2c-0.3-0.4-0.5-0.8-0.7-1.1c-0.3-0.3-0.5-0.7-0.7-1c-0.5-0.6-0.9-1.1-1.2-1.4
		C251.1,298.4,250.9,298.2,250.9,298.2z"/>
</g>
<g>
	<path d="M227.2,308.5c-1.1,0.8-2.7,0.8-3.9,0.3c-1.3-0.5-2.4-1.6-3-2.8c-0.6-1.3-0.8-2.7-0.5-4.1c0.2-1.4,0.9-2.8,2.2-3.6
		c1.3-0.8,3.1-0.7,4.2,0.4c0.1,0.1,0.1,0.1,0.2,0.2l0.2,0.2c0.1,0.1,0.2,0.3,0.3,0.5c0.2,0.3,0.3,0.7,0.4,1.1
		c0.1,0.7,0.1,1.5-0.2,2.3c-0.2,0.4-0.4,0.7-0.8,1l-0.3,0.2c-0.2,0.1-0.2,0.1-0.3,0.1c-0.2,0-0.5,0.1-0.7,0.1
		c-0.9-0.1-1.6-0.6-2-1.2c-0.5-0.6-0.8-1.3-1-2c-0.1-0.4-0.1-0.8-0.1-1.1c0-0.4,0.1-0.8,0.1-1.1c0.3-1.5,1.1-2.7,2-3.8
		c0.9-1.1,1.9-2.2,3.4-2.7c0.7-0.3,1.6-0.3,2.4-0.1c0.9,0.3,1.5,0.8,2,1.5c0.5,0.6,0.8,1.3,1,2.2c0.2,0.8,0,1.8-0.6,2.5
		c-0.3,0.3-0.8,0.7-1.3,0.7c-0.5,0.1-1,0.1-1.4-0.1c-0.8-0.3-1.5-0.8-2-1.4c-0.1-0.2-0.2-0.3-0.3-0.5l-0.2-0.3l-0.1-0.2
		c-0.2-0.4-0.3-0.8-0.3-1.1c-0.1-0.8-0.2-1.5-0.1-2.3c0.2-1.5,0.7-2.9,1.4-4.2c0.4-0.6,0.9-1.3,1.6-1.8c0.3-0.3,0.6-0.4,1.1-0.6
		l0.2-0.1c0.1,0,0.2-0.1,0.3-0.1c0.2-0.1,0.4-0.1,0.7-0.1c1.7-0.1,3.4,0.8,4.2,2.4l0,0l0.1,0.1l0,0.1l0,0.1l0.1,0.2
		c0.1,0.1,0.1,0.4,0.2,0.6c0.1,0.3,0.1,0.5,0,0.7c0,0.2,0,0.4-0.1,0.7c-0.2,0.9-0.6,1.7-1.5,2.2c-0.2,0.1-0.5,0.2-0.8,0.3
		c-0.3,0-0.7,0.1-1-0.1c-0.2-0.1-0.3-0.1-0.4-0.2c-0.1-0.1-0.2-0.2-0.3-0.3c-0.2-0.2-0.3-0.4-0.4-0.6c-0.4-0.9-0.4-1.6-0.4-2.4
		c0-1.5,0.4-3,1.1-4.3c0.4-0.7,0.8-1.3,1.4-1.8c0.6-0.5,1.3-1,2.2-1.2c0.9-0.2,1.9-0.1,2.6,0.4c0.8,0.5,1.3,1,1.8,1.7
		c0.5,0.9,0.6,1.7,0.7,2.5c0,0.8-0.1,1.6-0.4,2.4c-0.1,0.4-0.3,0.8-0.7,1.2c-0.2,0.2-0.6,0.5-1.1,0.5c-0.5,0-1-0.2-1.2-0.4
		c-0.5-0.4-0.6-0.8-0.8-1.2l0-0.1l0,0c0,0,0,0.1,0-0.1l0-0.1l-0.1-0.2c0-0.1-0.1-0.1-0.1-0.3l-0.1-0.3c-0.1-0.9-0.1-1.7,0.1-2.4
		c0.2-0.8,0.4-1.5,0.8-2.1c0.3-0.7,0.7-1.3,1.2-1.9c0.5-0.6,1-1.1,1.7-1.6c1.7-1.1,3.6-0.6,4.9,0.4c1.3,1,2.2,2.8,1.7,4.6
		c-0.2,0.8-0.6,1.7-1.4,2.2c-0.4,0.3-0.9,0.5-1.4,0.6c-0.5,0-1.1-0.1-1.5-0.3c-0.9-0.5-1.4-1.4-1.7-2.2c-0.3-0.8-0.3-1.6-0.2-2.4
		c0.1-0.8,0.4-1.6,0.9-2.3c0.1-0.1,0.1-0.2,0.2-0.3l0.2-0.2c0.1-0.1,0.3-0.3,0.5-0.4c0.3-0.2,0.7-0.4,1.1-0.6c1.5-0.6,3-0.6,4.4-0.6
		h0.2l0.2,0.1c1,0.6,2.2,1.2,3.1,2.3c0.2,0.2,0.4,0.5,0.6,0.8l0.1,0.1l0.1,0.1l0.1,0.2c0.1,0.2,0.2,0.4,0.2,0.5
		c0.3,0.7,0.4,1.3,0.4,2.1c0,0.7-0.1,1.5-0.7,2.2c-0.1,0.1-0.1,0.2-0.2,0.2l-0.1,0.1l0,0l0,0l-0.1,0.1l0,0l-0.2,0.1
		c-0.1,0-0.2,0.1-0.3,0.2c-0.5,0.2-0.9,0.2-1.4,0.1c-0.9-0.2-1.5-0.6-2-1.1c-0.5-0.5-0.9-1.1-1.1-1.8c-0.4-1.4-0.2-2.9,0.5-4.1
		c0.7-1.2,1.7-2.1,2.9-2.7c1.2-0.6,2.6-0.8,3.9-0.6c1.3,0.2,2.6,0.9,3.5,1.9l0.1,0.1l0,0l0.1,0.1l0,0l0.1,0.2
		c0.1,0.2,0.2,0.4,0.3,0.5c0.1,0.3,0.2,0.6,0.3,0.9c0.2,0.6,0.3,1.3,0.3,1.9c0,0.6,0,1.3-0.1,1.9c-0.1,0.3-0.2,0.7-0.4,1
		c-0.1,0.3-0.6,0.7-0.8,0.9c-0.2,0.1-0.4,0.2-0.6,0.3c-0.2,0.1-0.5,0.1-0.8,0c-0.6-0.1-0.9-0.6-1.1-0.9c-0.3-0.7-0.4-1.4-0.4-2
		c0-1.3,0.3-2.6,1.1-3.7c1-1.2,2.6-1.4,3.8-1c1.3,0.4,2.4,1.3,3,2.4c0.6,1.1,0.8,2.5,0.7,3.7c-0.2,1.2-0.9,2.6-2.2,3.1l-0.4,0.1
		l-0.1-0.3l-0.2-0.6c-0.1-0.2-0.1-0.4-0.1-0.7c0-0.2,0-0.5,0-0.7c0-0.2,0.1-0.4,0.1-0.7c0-0.2,0.2-0.4,0.3-0.6
		c0.1-0.2,0.2-0.4,0.4-0.6c0.1-0.2,0.3-0.3,0.4-0.5c0.1-0.2,0.3-0.3,0.5-0.4c0.2-0.1,0.4-0.2,0.5-0.4c0.2-0.1,0.4-0.2,0.6-0.3
		c0.2-0.1,0.4-0.1,0.6-0.2c0.2-0.1,0.4-0.1,0.6-0.1c0.2-0.1,0.4,0,0.6-0.1c0.2,0,0.4,0,0.6,0c0.2,0,0.4,0.1,0.6,0.1
		c0.2,0.1,0.4,0.2,0.6,0.3l0,0l0,0l0.3,0.5c0.1,0.2,0.2,0.4,0.2,0.5c0.1,0.4,0.2,0.7,0.3,1.1c0,0.2,0,0.4,0,0.6c0,0.2,0,0.4,0,0.6
		c0,0.4-0.1,0.7-0.2,1.1c-0.1,0.4-0.2,0.7-0.4,1c-0.1,0.2-0.2,0.3-0.3,0.5c-0.1,0.2-0.2,0.3-0.4,0.4c-0.1,0.1-0.3,0.3-0.4,0.4
		c-0.1,0.1-0.3,0.2-0.5,0.3c-0.3,0.2-0.7,0.2-1.1,0.2c0.4,0,0.7-0.1,1.1-0.3c0.2-0.1,0.3-0.2,0.5-0.3c0.1-0.1,0.3-0.2,0.4-0.4
		c0.1-0.1,0.2-0.3,0.3-0.4c0.1-0.1,0.2-0.3,0.3-0.5c0.2-0.3,0.3-0.7,0.4-1c0.1-0.3,0.1-0.7,0.2-1.1c0-0.2,0-0.4,0-0.5
		c0-0.2,0-0.4-0.1-0.5c-0.1-0.4-0.1-0.7-0.3-1c-0.1-0.2-0.1-0.3-0.2-0.5l-0.3-0.4l0.1,0.1c-0.2-0.1-0.3-0.2-0.5-0.2
		c-0.2,0-0.4-0.1-0.6-0.1c-0.2,0-0.4,0-0.6,0c-0.2,0-0.4,0-0.6,0.1c-0.2,0-0.4,0.1-0.6,0.1c-0.2,0.1-0.4,0.1-0.5,0.2
		c-0.2,0.1-0.4,0.2-0.5,0.3c-0.2,0.1-0.3,0.2-0.5,0.3c-0.1,0.1-0.3,0.2-0.4,0.4c-0.1,0.1-0.3,0.3-0.4,0.4c-0.1,0.2-0.2,0.3-0.3,0.5
		c-0.1,0.2-0.2,0.3-0.2,0.5c0,0.2-0.1,0.4-0.1,0.5c0,0.2,0,0.4,0,0.5c0,0.2,0,0.4,0.1,0.5l0.2,0.5l-0.5-0.2c0.9-0.4,1.5-1.4,1.6-2.5
		c0.1-1.1-0.1-2.2-0.6-3.1c-0.6-0.9-1.4-1.6-2.5-1.9c-0.5-0.1-1-0.2-1.5,0c-0.3,0.1-0.4,0.1-0.7,0.3c-0.2,0.1-0.3,0.2-0.5,0.4
		c-0.6,0.8-0.8,2-0.8,3c0,0.5,0.1,1.1,0.3,1.5c0.1,0.2,0.2,0.3,0.2,0.2c0,0,0.2,0,0.3-0.1c0.7-0.4,0.7-1.6,0.6-2.7
		c0-0.5-0.1-1.1-0.3-1.6c-0.1-0.3-0.2-0.5-0.3-0.7c-0.1-0.1-0.1-0.2-0.1-0.3l-0.1-0.2l0,0l0,0c0,0,0.1,0.1,0,0l0,0l-0.1-0.1
		c-0.7-0.8-1.6-1.2-2.6-1.4c-1-0.1-2.1,0.1-3,0.5c-0.9,0.5-1.7,1.2-2.2,2.1c-0.5,0.9-0.6,1.9-0.4,2.8c0.2,0.8,1.1,1.7,1.8,1.8
		c0.2,0,0.3,0,0.4,0c0,0,0,0,0.1,0l0.2-0.1l0,0c0.1-0.1-0.1,0.1-0.1,0l0,0l0,0l0,0c0,0,0.1-0.1,0.1-0.1c0.2-0.2,0.3-0.7,0.3-1.1
		c0-0.5-0.1-1-0.3-1.4c0-0.1-0.1-0.2-0.1-0.3l-0.1-0.2c0,0-0.1-0.1,0-0.1l-0.1-0.1c-0.1-0.2-0.3-0.4-0.5-0.6
		c-0.7-0.7-1.6-1.3-2.7-1.9l0.4,0.1c-1.3,0-2.6,0-3.7,0.5c-0.3,0.1-0.5,0.2-0.7,0.4c-0.1,0.1-0.2,0.1-0.3,0.2l-0.2,0.2
		c0,0-0.1,0.1-0.1,0.1c-0.3,0.3-0.5,0.9-0.5,1.4c-0.1,0.5,0,1.1,0.1,1.6c0.2,0.5,0.5,0.9,0.7,1c0.2,0.1,0.3,0.1,0.5,0.1
		c0.1,0,0.3-0.1,0.4-0.2c0.3-0.2,0.6-0.7,0.7-1.2c0.2-0.9-0.2-2-1.1-2.6c-0.4-0.3-0.9-0.5-1.4-0.6c-0.1,0-0.2,0-0.3,0
		c0,0-0.1,0-0.1,0l-0.2,0c-0.1,0-0.2,0.1-0.3,0.1l-0.3,0.2c-0.9,0.6-1.7,1.7-2.2,2.7c-0.3,0.5-0.5,1.1-0.6,1.7
		c-0.2,0.5-0.2,1.2-0.1,1.6c0,0.1,0.2,0.7,0.2,0.8c0.1,0.2,0.3,0.5,0.3,0.5c0,0-0.1-0.1-0.2,0c-0.2,0-0.2,0.1-0.2,0.1
		c0.1-0.1,0.2-0.3,0.3-0.5c0.4-1,0.3-2.4-0.1-3.1c0,0-0.1-0.1-0.1-0.2c0,0-0.1-0.1-0.1-0.1l-0.3-0.3c-0.2-0.2-0.4-0.3-0.6-0.5
		c-0.4-0.2-0.9-0.3-1.3-0.2c-0.4,0.1-0.9,0.4-1.3,0.8c-0.4,0.4-0.8,0.9-1.1,1.4c-0.6,1-0.9,2.2-0.9,3.4c0,0.6,0.1,1.2,0.2,1.6
		c0,0.1,0.1,0.2,0.1,0.2c0,0,0,0,0,0.1c0,0,0,0,0,0c0,0,0,0,0,0c0,0,0.1,0,0.2-0.1c0.3-0.2,0.6-0.6,0.7-1.1c0.1-0.5,0.1-0.8-0.2-1.4
		c-0.5-0.9-1.5-1.5-2.5-1.4c-0.1,0-0.3,0-0.4,0c-0.1,0-0.1,0-0.2,0l-0.2,0.1c-0.2,0.1-0.5,0.2-0.7,0.4c-0.4,0.3-0.8,0.8-1.1,1.3
		c-0.3,0.5-0.6,1.1-0.8,1.7c-0.2,0.6-0.4,1.2-0.4,1.8c-0.2,1.2,0,2.4,0.6,3.3c0.3,0.4,0.8,0.8,1.2,0.9c0.2,0.1,0.5,0.1,0.6,0.1
		c0.2-0.1,0.3-0.1,0.5-0.3c0.6-0.6,0.3-2-0.4-2.9c-0.3-0.5-0.8-0.9-1.2-1c-0.5-0.2-1.1-0.1-1.6,0c-1.1,0.4-2.1,1.3-2.9,2.3
		c-0.8,1-1.6,2.1-1.9,3.3c-0.1,0.3-0.1,0.6-0.1,0.9c0,0.3,0,0.6,0.1,0.9c0.1,0.6,0.4,1.1,0.7,1.6c0.4,0.5,0.9,0.8,1.3,0.9
		c0.1,0,0.2,0,0.3,0c0.1,0,0.2-0.1,0.2-0.1l0.2-0.1c0.2-0.1,0.4-0.3,0.5-0.6c0.5-1,0.2-2.5-0.6-3.3c-0.8-0.9-2.3-1-3.4-0.4
		c-1.1,0.6-1.8,1.8-2,3.1c-0.3,1.3-0.1,2.7,0.4,3.9c0.5,1.2,1.5,2.2,2.7,2.8C224.6,309.2,226.1,309.2,227.2,308.5z"/>
</g>
<g>
	<path d="M259.6,278.1c0,0,0.1,0,0.3-0.1c0.2-0.1,0.5-0.1,0.8-0.3c0.7-0.3,1.7-0.8,2.8-1.8c1-1,2-2.4,2.7-4.3c0.3-0.9,0.5-1.9,0.6-3
		c0-0.5,0-1.1,0-1.6c-0.1-0.6-0.2-1.1-0.3-1.7c-0.6-2.3-1.9-4.5-3.8-6.5c-1.9-1.9-4.4-3.3-7.2-4.2c-2.8-0.9-5.9-1.1-9.1-0.9l-0.6,0
		l-0.6,0.1l-1.2,0.1c-0.8,0.1-1.5,0.2-2.3,0.4c-1.6,0.3-3.1,0.8-4.6,1.3c-3,1.1-5.9,2.6-8.4,4.4c-2.5,1.9-4.8,4.1-6.6,6.5
		c-0.4,0.6-0.9,1.3-1.2,1.8c-0.4,0.7-0.8,1.3-1.1,2c-0.3,0.6-0.6,1.2-0.9,1.9c-0.1,0.3-0.3,0.7-0.4,1c-0.1,0.3-0.2,0.7-0.3,1
		c-0.9,2.6-1.4,5.2-1.5,7.7c-0.2,2.4,0,4.7,0.3,6.7c0.4,2,0.8,3.7,1.3,5c0.2,0.7,0.5,1.3,0.7,1.8c0.2,0.5,0.4,1,0.6,1.3
		c0.4,0.7,0.6,1.1,0.6,1.1s-0.2-0.3-0.7-1c-0.2-0.3-0.5-0.7-0.8-1.2c-0.3-0.5-0.7-1.1-1-1.7c-0.7-1.3-1.3-3-1.9-5
		c-0.5-2-0.9-4.4-0.9-7c0-2.6,0.3-5.4,1.1-8.3c0.1-0.4,0.2-0.7,0.3-1.1c0.1-0.4,0.3-0.7,0.4-1.1c0.2-0.7,0.6-1.5,0.9-2.2
		c0.3-0.8,0.7-1.4,1.1-2.1c0.4-0.8,0.9-1.4,1.3-2.1c1.9-2.7,4.2-5.2,7-7.3c2.8-2,5.9-3.7,9.2-4.9c1.7-0.6,3.3-1,5-1.4
		c0.8-0.2,1.7-0.3,2.6-0.4l1.2-0.1l0.6-0.1l0.7,0c3.4-0.2,6.9,0.2,10.1,1.3c3.2,1,6,2.9,8.1,5.2c2.1,2.3,3.4,5,3.9,7.6
		c0.1,0.7,0.2,1.4,0.2,1.9c0,0.7,0,1.3-0.1,1.9c-0.2,1.2-0.5,2.3-1,3.3c-0.9,2-2.2,3.4-3.4,4.3c-1.2,0.9-2.3,1.3-3.1,1.5
		c-0.4,0.1-0.7,0.1-0.9,0.2C259.7,278,259.6,278.1,259.6,278.1z"/>
</g>
<g>
	<path d="M298.2,301.2c-0.3-0.5-0.9-0.8-1.4-0.9c-0.6-0.1-1.2,0-1.6,0.3c-0.5,0.3-0.9,0.7-1.1,1.2c-0.3,0.5-0.4,1-0.3,1.6
		c0.1,0.5,0.3,1.1,0.6,1.4c0.4,0.3,0.9,0.4,1.4,0.3c0.2-0.1,0.5-0.2,0.6-0.3c0.1-0.1,0.2-0.2,0.2-0.2c0.1-0.1,0.1-0.2,0.2-0.3
		c0.1-0.4,0-0.9-0.2-1.3l0.5,0.2c-1,0.3-1.7,1.4-1.6,2.5c0,0.3,0.1,0.5,0.2,0.7l0,0.1c0,0,0,0,0,0.1c0,0.1,0.1,0.1,0.1,0.2
		c0.1,0.1,0.2,0.1,0.3,0.2c0.4,0.3,1,0.4,1.5,0.4c0.5,0,1.1-0.2,1.5-0.5c0.2-0.2,0.4-0.4,0.4-0.6c0.1-0.2,0.1-0.4,0-0.6
		c-0.1-0.2-0.2-0.3-0.4-0.3c0,0-0.1,0-0.1,0c0,0,0,0-0.1,0c-0.1,0-0.1,0.1-0.2,0.2c-0.1,0.2-0.1,0.4,0,0.6c0.1,0.2,0.3,0.5,0.4,0.7
		l-0.1-0.1c0.1,0.1,0.3,0.2,0.5,0.2c0.2,0,0.3,0.1,0.5,0.1c0.4,0,0.7-0.1,1.1-0.2c0.7-0.3,1.3-0.8,1.5-1.5c0-0.1,0-0.2,0-0.3l0-0.3
		c0-0.2,0-0.4-0.1-0.6c-0.1-0.4-0.3-0.7-0.6-1c-0.5-0.6-1.4-0.9-2.2-0.8c0.2,0,0.4-0.1,0.6-0.1c0.2,0,0.4,0,0.6,0.1
		c0.4,0.1,0.8,0.3,1.1,0.6c0.3,0.3,0.6,0.6,0.8,1c0.1,0.2,0.1,0.4,0.2,0.6c0,0.1,0,0.2,0,0.4c0,0.1,0,0.2,0,0.3
		c-0.2,0.9-0.9,1.7-1.7,2c-0.4,0.2-0.9,0.3-1.3,0.3c-0.2,0-0.5,0-0.7-0.1c-0.2-0.1-0.5-0.1-0.7-0.3l0,0l0-0.1
		c-0.2-0.2-0.5-0.5-0.6-0.9c-0.2-0.4-0.2-0.9,0-1.3c0.1-0.2,0.2-0.4,0.4-0.5c0.1-0.1,0.2-0.1,0.4-0.2c0.1,0,0.2-0.1,0.4,0
		c0.5,0,0.9,0.4,1.1,0.8c0.2,0.5,0.2,0.9,0,1.3c-0.2,0.4-0.4,0.7-0.7,1c-0.6,0.5-1.3,0.8-2.1,0.8c-0.7,0-1.5-0.1-2.1-0.6
		c-0.2-0.1-0.3-0.2-0.5-0.4c-0.1-0.1-0.1-0.1-0.2-0.2c0,0,0,0-0.1-0.1l-0.1-0.1c-0.2-0.3-0.3-0.7-0.4-1.1c-0.1-0.8,0.1-1.5,0.5-2.2
		c0.4-0.6,1-1.1,1.8-1.3l0.3-0.1l0.2,0.2c0.5,0.6,0.6,1.4,0.4,2.2c-0.1,0.2-0.2,0.4-0.3,0.5c-0.1,0.2-0.3,0.3-0.4,0.4
		c-0.3,0.2-0.6,0.4-1,0.5c-0.7,0.2-1.5,0-2-0.6c-0.5-0.5-0.7-1.2-0.8-1.9c0-0.7,0.1-1.4,0.5-1.9c0.3-0.6,0.8-1,1.4-1.3
		c0.6-0.3,1.3-0.4,1.9-0.2C297.5,300.2,298,300.6,298.2,301.2z"/>
</g>
<g>
	<path d="M287.8,293.6c0.6,0.2,1.1,0.7,1.3,1.3c0.2,0.6,0.2,1.3,0,1.9c-0.2,0.6-0.7,1.1-1.2,1.5c-0.5,0.4-1.2,0.6-1.8,0.7
		c-0.7,0-1.4-0.1-1.9-0.6c-0.6-0.5-0.8-1.2-0.7-2c0-0.4,0.2-0.7,0.4-1c0.1-0.2,0.2-0.3,0.4-0.4c0.1-0.1,0.3-0.2,0.5-0.3
		c0.7-0.3,1.5-0.3,2.2,0.2l0.2,0.2l0,0.3c-0.1,0.8-0.6,1.5-1.2,1.9c-0.6,0.5-1.3,0.7-2.1,0.7c-0.4,0-0.8-0.1-1.1-0.3l-0.1-0.1
		c-0.1-0.1-0.1-0.1-0.1-0.1c-0.1,0-0.1-0.1-0.2-0.1c-0.2-0.1-0.3-0.3-0.4-0.4c-0.5-0.6-0.7-1.3-0.8-2.1c0-0.7,0.1-1.5,0.6-2.1
		c0.2-0.3,0.5-0.6,0.9-0.8c0.4-0.2,0.8-0.3,1.3-0.1c0.4,0.2,0.8,0.5,0.9,1.1c0,0.1,0,0.3,0,0.4c0,0.2-0.1,0.3-0.1,0.4
		c-0.1,0.2-0.3,0.4-0.5,0.5c-0.4,0.2-0.9,0.2-1.3,0.1c-0.4-0.1-0.7-0.3-0.9-0.6l-0.1,0l0,0c-0.1-0.2-0.2-0.4-0.3-0.6
		c-0.1-0.2-0.1-0.5-0.1-0.7c0-0.5,0-0.9,0.2-1.4c0.3-0.8,0.9-1.6,1.9-1.9c0.1,0,0.2,0,0.3-0.1c0.1,0,0.2,0,0.4,0
		c0.2,0,0.4,0.1,0.7,0.1c0.4,0.1,0.8,0.4,1.1,0.7c0.3,0.3,0.6,0.7,0.7,1.1c0.1,0.2,0.1,0.4,0.1,0.6c0,0.2,0,0.4,0,0.6
		c0-0.8-0.4-1.6-1-2.1c-0.3-0.2-0.7-0.4-1-0.5c-0.2,0-0.4-0.1-0.6-0.1l-0.3,0c-0.1,0-0.2,0.1-0.3,0.1c-0.7,0.2-1.2,0.9-1.4,1.6
		c-0.1,0.4-0.1,0.7-0.1,1.1c0,0.2,0.1,0.4,0.1,0.5c0.1,0.2,0.2,0.3,0.3,0.5l-0.1-0.1c0.2,0.2,0.5,0.3,0.7,0.4c0.2,0.1,0.4,0,0.6-0.1
		c0.1,0,0.1-0.1,0.2-0.2c0,0,0-0.1,0-0.1c0-0.1,0-0.1,0-0.1c0-0.1-0.2-0.3-0.3-0.3c-0.1-0.1-0.4,0-0.6,0.1c-0.2,0.1-0.4,0.3-0.5,0.5
		c-0.3,0.4-0.4,1-0.4,1.5c0,0.5,0.2,1.1,0.6,1.5c0.1,0.1,0.2,0.2,0.2,0.2c0,0,0.1,0.1,0.2,0.1c0,0,0.1,0.1,0.1,0l0.1,0
		c0.2,0.1,0.5,0.2,0.7,0.2c1,0,2.1-0.8,2.3-1.8l0.2,0.5c-0.3-0.3-0.9-0.3-1.3-0.1c-0.1,0.1-0.2,0.1-0.3,0.2
		c-0.1,0.1-0.2,0.1-0.2,0.2c-0.1,0.2-0.2,0.4-0.3,0.7c-0.1,0.5,0.1,1,0.4,1.3c0.3,0.3,0.9,0.5,1.4,0.5c0.6,0,1.1-0.1,1.6-0.5
		c0.5-0.3,0.9-0.7,1.1-1.2c0.3-0.5,0.3-1.1,0.2-1.7C288.8,294.4,288.4,293.8,287.8,293.6z"/>
</g>
<g>
	<path d="M261.1,260.5c-0.6-0.1-1.2,0.1-1.7,0.4c-0.5,0.4-0.8,0.9-0.9,1.4c-0.1,0.6,0,1.1,0.2,1.7c0.2,0.5,0.5,1,1,1.3
		c0.4,0.3,1,0.5,1.5,0.5c0.5-0.1,0.9-0.4,1.1-0.8c0.1-0.2,0.2-0.5,0.2-0.7c0-0.1,0-0.2,0-0.3c0-0.2-0.1-0.2-0.1-0.3
		c-0.2-0.4-0.7-0.7-1.1-0.7l0.4-0.3c-0.5,0.9-0.1,2.2,0.8,2.8c0.2,0.2,0.4,0.3,0.7,0.3l0.1,0c0,0,0.1,0,0.1,0c0.1,0,0.2,0,0.2,0
		c0.1,0,0.2,0,0.3-0.1c0.5-0.1,1-0.4,1.3-0.8c0.4-0.4,0.6-0.9,0.6-1.5c0-0.3,0-0.5-0.1-0.7c-0.1-0.2-0.3-0.4-0.4-0.4
		c-0.2-0.1-0.4,0-0.5,0.1c0,0,0,0-0.1,0.1c0,0,0,0,0,0.1c0,0.1,0,0.2,0,0.3c0.1,0.2,0.2,0.3,0.4,0.4c0.2,0.1,0.5,0.1,0.8,0.1l-0.1,0
		c0.2-0.1,0.3-0.1,0.5-0.2c0.1-0.1,0.3-0.2,0.4-0.3c0.3-0.3,0.5-0.6,0.6-0.9c0.3-0.7,0.3-1.5-0.2-2.1c0-0.1-0.1-0.2-0.2-0.2
		l-0.2-0.2c-0.1-0.1-0.3-0.2-0.5-0.3c-0.4-0.2-0.7-0.2-1.1-0.2c-0.8,0-1.6,0.4-2.1,1.1c0.1-0.2,0.2-0.4,0.4-0.5
		c0.1-0.2,0.3-0.3,0.5-0.4c0.4-0.2,0.8-0.4,1.2-0.4c0.4-0.1,0.9,0,1.3,0.1c0.2,0.1,0.4,0.2,0.6,0.3c0.1,0.1,0.2,0.1,0.3,0.2
		c0.1,0.1,0.1,0.1,0.2,0.2c0.6,0.7,0.6,1.8,0.4,2.6c-0.1,0.4-0.4,0.8-0.7,1.2c-0.2,0.2-0.3,0.3-0.5,0.5c-0.2,0.1-0.4,0.2-0.6,0.3
		l0,0l-0.1,0c-0.3,0-0.7,0-1.1-0.1c-0.4-0.1-0.8-0.4-1-0.8c-0.1-0.2-0.1-0.4-0.1-0.7c0-0.1,0-0.2,0.1-0.4c0-0.1,0.1-0.2,0.2-0.3
		c0.4-0.4,0.9-0.5,1.3-0.3c0.5,0.1,0.8,0.5,1,0.9c0.2,0.4,0.2,0.8,0.2,1.1c0,0.8-0.3,1.5-0.8,2.1c-0.5,0.6-1.1,1-1.9,1.2
		c-0.2,0-0.4,0.1-0.6,0.1c-0.1,0-0.2,0-0.2,0c-0.1,0,0,0-0.2,0l-0.1,0c-0.4-0.1-0.8-0.2-1.1-0.5c-0.6-0.5-1-1.1-1.2-1.8
		c-0.2-0.7-0.1-1.5,0.2-2.2l0.1-0.3l0.3,0c0.8,0,1.5,0.5,1.8,1.2c0.1,0.1,0.2,0.4,0.2,0.5c0,0.2,0.1,0.4,0,0.6c0,0.4-0.1,0.7-0.3,1
		c-0.4,0.6-1,1.1-1.8,1.1c-0.7,0.1-1.4-0.3-1.9-0.7c-0.5-0.4-0.9-1-1.1-1.6c-0.2-0.6-0.2-1.3,0-1.9c0.2-0.6,0.6-1.2,1.1-1.5
		C259.8,260.4,260.5,260.3,261.1,260.5z"/>
</g>
<g>
	<path d="M254.6,260.2c0.6-0.2,1.3-0.1,1.8,0.3c0.5,0.3,0.9,0.9,1.1,1.5c0.2,0.6,0.2,1.3,0,1.9c-0.2,0.6-0.6,1.2-1.1,1.6
		c-0.5,0.4-1.2,0.7-1.9,0.7c-0.7,0-1.4-0.5-1.8-1.1c-0.2-0.3-0.3-0.7-0.3-1c0-0.2,0-0.4,0-0.6c0-0.1,0.1-0.4,0.2-0.5
		c0.4-0.7,1-1.1,1.8-1.2l0.3,0l0.1,0.3c0.4,0.7,0.4,1.5,0.2,2.2c-0.2,0.7-0.6,1.4-1.2,1.8c-0.3,0.2-0.7,0.4-1.1,0.5l-0.1,0
		c-0.1,0-0.1,0-0.2,0c-0.1,0-0.2,0-0.2,0c-0.2,0-0.4,0-0.6-0.1c-0.8-0.2-1.4-0.6-1.9-1.2c-0.5-0.6-0.8-1.3-0.8-2.1
		c0-0.4,0.1-0.8,0.2-1.1c0.2-0.4,0.5-0.7,1-0.9c0.5-0.1,1,0,1.3,0.3c0.1,0.1,0.2,0.2,0.2,0.3c0.1,0.2,0.1,0.3,0.1,0.4
		c0,0.2,0,0.5-0.1,0.7c-0.2,0.4-0.6,0.7-1,0.8c-0.4,0.1-0.8,0.1-1.1,0.1l-0.1,0l0,0c-0.2-0.1-0.4-0.2-0.6-0.3
		c-0.2-0.1-0.4-0.3-0.5-0.5c-0.3-0.4-0.5-0.8-0.7-1.2c-0.3-0.9-0.2-1.9,0.4-2.6c0.1-0.1,0.1-0.2,0.2-0.2c0.1-0.1,0.2-0.2,0.3-0.2
		c0.2-0.1,0.4-0.2,0.6-0.3c0.4-0.1,0.9-0.2,1.3-0.1c0.4,0.1,0.8,0.2,1.2,0.4c0.2,0.1,0.3,0.3,0.5,0.4c0.1,0.2,0.3,0.3,0.4,0.5
		c-0.5-0.7-1.3-1-2.1-1.1c-0.4,0-0.8,0.1-1.1,0.2c-0.2,0.1-0.3,0.2-0.5,0.3l-0.2,0.2c-0.1,0.1-0.1,0.2-0.2,0.2
		c-0.4,0.6-0.4,1.4-0.2,2.1c0.1,0.3,0.3,0.7,0.6,0.9c0.1,0.1,0.3,0.2,0.4,0.3c0.2,0.1,0.3,0.2,0.5,0.2l-0.1,0c0.3,0,0.6,0,0.8-0.1
		c0.2-0.1,0.4-0.2,0.4-0.4c0-0.1,0-0.2,0-0.3c0,0,0-0.1,0-0.1c0-0.1,0-0.1-0.1-0.1c-0.1-0.1-0.3-0.1-0.5-0.1c-0.1,0-0.3,0.2-0.4,0.4
		c-0.1,0.2-0.1,0.5-0.1,0.7c0,0.5,0.2,1,0.6,1.5c0.4,0.4,0.8,0.7,1.3,0.8c0.1,0,0.2,0,0.3,0.1c0.1,0,0.2,0,0.2,0c0,0,0.1,0,0.1,0
		l0.1,0c0.2,0,0.5-0.1,0.7-0.3c0.9-0.6,1.2-1.9,0.8-2.8l0.4,0.3c-0.4,0-0.9,0.3-1.1,0.7c-0.1,0.1-0.1,0.2-0.1,0.3c0,0.1,0,0.2,0,0.3
		c0,0.2,0.1,0.5,0.2,0.7c0.2,0.4,0.6,0.7,1.1,0.8c0.5,0.1,1-0.1,1.5-0.5c0.4-0.3,0.8-0.8,1-1.3c0.2-0.5,0.3-1.1,0.2-1.7
		c-0.1-0.6-0.4-1.1-0.9-1.4C255.8,260.3,255.2,260.1,254.6,260.2z"/>
</g>
<g>
	<path d="M298.3,293.2c0,0-0.3,0.1-0.8,0.4c-0.5,0.2-1.2,0.6-2.1,1.2c-1.8,1.1-4.1,3.1-6.2,6c-1.1,1.5-2.1,3.2-2.9,5.1
		c-0.9,1.9-1.6,4-2.2,6.2c-0.6,2.2-1.1,4.5-1.5,6.9c-0.4,2.4-0.7,4.8-1,7.2c-0.3,2.4-0.4,4.9-0.5,7.3c-0.1,2.4-0.1,4.8,0,7.1
		c0.1,2.3,0.2,4.5,0.4,6.6c0.2,2.1,0.4,4.1,0.7,5.9c0.3,1.8,0.5,3.5,0.8,4.9c0.3,1.5,0.6,2.7,0.8,3.8c0.2,1,0.5,1.9,0.6,2.4
		c0.1,0.6,0.2,0.9,0.2,0.9s-0.1-0.3-0.2-0.9c-0.1-0.6-0.4-1.4-0.6-2.4c-0.2-1-0.6-2.3-0.8-3.8c-0.3-1.5-0.6-3.1-0.9-4.9
		c-0.3-1.8-0.5-3.8-0.8-5.9c-0.2-2.1-0.4-4.3-0.5-6.6c-0.1-2.3-0.1-4.7-0.1-7.1c0.1-2.4,0.2-4.9,0.4-7.3c0.2-2.5,0.5-4.9,0.9-7.3
		c0.4-2.4,0.8-4.7,1.4-7c0.6-2.2,1.3-4.4,2.2-6.3c0.9-1.9,1.9-3.7,3-5.2c2.2-3.1,4.6-5.1,6.4-6.3c0.9-0.6,1.7-1,2.2-1.3
		c0.5-0.2,0.8-0.4,0.8-0.4L298.3,293.2z"/>
</g>
<g>
	<path d="M220.7,255.1c0,0-0.7,0.9-2,2.5c-0.6,0.8-1.5,1.7-2.3,2.9c-0.4,0.6-0.9,1.2-1.3,1.8c-0.5,0.6-1,1.3-1.4,2
		c-0.9,1.5-2,3-3,4.8c-0.5,0.9-1,1.8-1.5,2.7c-0.5,0.9-0.9,1.9-1.4,2.9c-0.2,0.5-0.5,1-0.7,1.5c-0.2,0.5-0.4,1-0.6,1.5
		c-0.4,1-0.9,2.1-1.3,3.1c-0.4,1.1-0.7,2.2-1.1,3.3c-0.4,1.1-0.6,2.2-0.9,3.3l-0.4,1.7c-0.1,0.6-0.2,1.1-0.3,1.7
		c-0.2,1.1-0.5,2.3-0.6,3.4c-0.1,1.1-0.3,2.3-0.4,3.4c-0.1,1.1-0.1,2.2-0.2,3.3c0,0.5-0.1,1.1,0,1.6c0,0.5,0,1.1,0.1,1.6
		c0.1,1,0,2.1,0.1,3.1c0.2,2,0.4,3.9,0.8,5.6c0.2,0.9,0.3,1.7,0.5,2.5c0.2,0.8,0.4,1.5,0.6,2.2c0.4,1.4,0.7,2.6,1.1,3.5
		c0.7,1.9,1.1,3,1.1,3s-0.4-1.1-1.1-3c-0.4-0.9-0.7-2.1-1.1-3.5c-0.2-0.7-0.4-1.4-0.6-2.2c-0.2-0.8-0.3-1.6-0.5-2.5
		c-0.4-1.7-0.6-3.6-0.8-5.6c-0.1-1-0.1-2-0.2-3.1c0-0.5-0.1-1.1-0.1-1.6c0-0.5,0-1.1,0-1.6c0-1.1,0-2.2,0.1-3.3
		c0.1-1.1,0.2-2.3,0.3-3.4c0.1-1.1,0.4-2.3,0.6-3.4c0.1-0.6,0.2-1.1,0.3-1.7l0.4-1.7c0.3-1.1,0.5-2.3,0.9-3.4
		c0.4-1.1,0.7-2.2,1.1-3.3c0.4-1.1,0.8-2.1,1.2-3.2c0.2-0.5,0.4-1,0.6-1.6c0.2-0.5,0.5-1,0.7-1.5c0.5-1,0.9-2,1.4-2.9
		c0.5-0.9,1-1.8,1.5-2.7c0.9-1.8,2-3.3,2.9-4.8c0.5-0.8,0.9-1.4,1.4-2.1c0.5-0.7,0.9-1.3,1.3-1.8c0.8-1.2,1.6-2.1,2.2-2.9
		c1.3-1.6,2-2.5,2-2.5L220.7,255.1z"/>
</g>
<g>
	<path d="M266.3,279.3c0,0,0.3,0.1,0.7,0.4c0.5,0.2,1.1,0.6,1.9,1c1.5,0.8,3.5,2.1,5.5,3.3c2,1.3,3.9,2.6,5.3,3.7
		c0.7,0.5,1.3,1,1.7,1.3c0.4,0.3,0.6,0.5,0.6,0.5s-0.3-0.1-0.7-0.4c-0.5-0.2-1.1-0.6-1.9-1c-1.5-0.8-3.5-2.1-5.5-3.3
		c-2-1.3-3.9-2.6-5.3-3.7c-0.7-0.5-1.3-1-1.7-1.3C266.5,279.5,266.3,279.3,266.3,279.3z"/>
</g>
<g>
	<polygon points="281.1,293.7 272.2,286.1 281.7,292.9 	"/>
</g>
<line fill="none" stroke="#000000" stroke-miterlimit="10" x1="288" y1="297.9" x2="293.6" y2="302.2"/>
<g>
	<path d="M202.3,269.7c0,0-0.3,0.5-0.9,1.3c-0.3,0.4-0.6,0.9-0.9,1.5c-0.3,0.6-0.8,1.3-1.1,2c-0.4,0.8-0.8,1.6-1.2,2.5
		c-0.4,0.9-0.8,1.8-1.2,2.8c-0.3,1-0.7,2-1,3.1c-0.1,0.5-0.3,1.1-0.4,1.6l-0.4,1.7c-0.1,0.6-0.2,1.1-0.3,1.7
		c-0.1,0.6-0.2,1.1-0.2,1.7c-0.1,1.1-0.2,2.2-0.3,3.3c0,1.1,0,2.1,0,3.1c0.1,1,0.1,1.9,0.2,2.7c0.1,0.8,0.2,1.6,0.3,2.3
		c0.1,0.7,0.2,1.3,0.3,1.8c0.2,1,0.3,1.5,0.3,1.5s-0.1-0.6-0.4-1.5c-0.1-0.5-0.3-1.1-0.4-1.8c-0.1-0.3-0.1-0.7-0.2-1.1
		c0-0.4-0.1-0.8-0.2-1.2c-0.1-0.8-0.2-1.8-0.2-2.8c-0.1-1-0.1-2,0-3.1c0-1.1,0.1-2.2,0.2-3.3c0-0.6,0.1-1.1,0.2-1.7
		c0.1-0.6,0.2-1.1,0.3-1.7l0.4-1.7c0.1-0.6,0.3-1.1,0.5-1.6c0.3-1.1,0.7-2.1,1.1-3.1c0.4-1,0.8-2,1.2-2.8c0.4-0.9,0.8-1.7,1.2-2.5
		c0.4-0.8,0.8-1.4,1.2-2c0.4-0.6,0.7-1.1,1-1.5C202,270.1,202.3,269.7,202.3,269.7z"/>
</g>
<g>
	<path d="M195.5,277.3c0,0-0.1,0.2-0.4,0.7c-0.2,0.4-0.5,1.1-0.9,1.8c-0.7,1.5-1.4,3.7-1.8,5.9c-0.4,2.2-0.4,4.5-0.3,6.1
		c0.1,0.8,0.2,1.5,0.3,2c0.1,0.5,0.1,0.8,0.1,0.8s-0.1-0.3-0.2-0.8c-0.1-0.5-0.3-1.2-0.4-2c-0.2-1.7-0.2-4,0.1-6.2
		c0.4-2.2,1.2-4.4,1.9-5.9c0.4-0.8,0.7-1.4,1-1.8C195.3,277.5,195.5,277.3,195.5,277.3z"/>
</g>
<g>
	<path d="M284.9,334.9c0,0-0.1,0.4-0.2,1.1c-0.1,0.7-0.2,1.7-0.3,2.9c-0.2,2.4-0.3,5.6,0.1,8.8c0.1,1.6,0.4,3.2,0.7,4.6
		c0.2,0.7,0.3,1.4,0.5,2.1c0.2,0.7,0.3,1.3,0.5,1.9c0.3,1.2,0.6,2.1,0.9,2.8c0.2,0.7,0.4,1,0.4,1s-0.1-0.4-0.4-1
		c-0.3-0.7-0.6-1.6-0.9-2.7c-0.7-2.3-1.4-5.4-1.7-8.6c-0.3-3.2-0.2-6.4,0.1-8.8c0.1-1.2,0.3-2.2,0.4-2.9
		C284.8,335.3,284.9,334.9,284.9,334.9z"/>
</g>
<g>
	<path d="M287.7,339.9c0,0,0,1,0,2.6c0,1.6,0.2,3.7,0.5,5.7c0.3,2.1,0.7,4.1,1.1,5.6c0.4,1.5,0.7,2.5,0.7,2.5s-0.1-0.2-0.2-0.7
		c-0.1-0.4-0.4-1.1-0.6-1.8c-0.4-1.5-0.9-3.6-1.2-5.6c-0.3-2.1-0.4-4.2-0.4-5.7c0-0.8,0-1.4,0.1-1.9
		C287.7,340.2,287.7,339.9,287.7,339.9z"/>
</g>
<g>
	<path d="M255,326.1c0,0,0.2-0.4,0.5-1c0.4-0.6,0.9-1.4,1.8-2.3c0.9-0.8,2.1-1.7,3.6-2.2c0.8-0.2,1.6-0.4,2.5-0.2
		c0.4,0.1,0.9,0.3,1.2,0.5c0.4,0.3,0.7,0.6,1,0.9c0.5,0.7,0.8,1.5,1,2.4c0,0.2,0,0.4,0,0.7c0,0.2,0,0.4,0,0.6
		c-0.1,0.4-0.2,0.8-0.3,1.2c-0.3,0.8-0.8,1.4-1.6,1.8c-0.4,0.2-0.8,0.2-1.2,0.2c-0.1,0-0.4-0.1-0.5-0.2c-0.2-0.1-0.3-0.2-0.4-0.3
		c-0.5-0.5-0.7-1-0.9-1.5c-0.2-0.5-0.2-0.9-0.2-1.3c0-0.4,0-0.6,0-0.8c0-0.2,0.1-0.3,0.1-0.3s0,0.4,0.1,1.1c0.1,0.6,0.5,1.6,1.3,2.3
		c0.1,0.1,0.2,0.1,0.3,0.2c0.1,0,0.2,0.1,0.4,0.1c0.2,0,0.5,0,0.7-0.2c0.5-0.3,0.9-0.9,1.1-1.5c0.1-0.3,0.2-0.7,0.2-1
		c0-0.1,0-0.3,0-0.5c0-0.1,0-0.3,0-0.5c-0.1-0.7-0.4-1.4-0.8-1.9c-0.2-0.3-0.5-0.5-0.7-0.7c-0.3-0.2-0.6-0.3-0.9-0.4
		c-0.6-0.2-1.4-0.1-2,0.1c-1.4,0.4-2.5,1.1-3.4,1.8c-0.9,0.7-1.6,1.4-2,2C255.2,325.7,255,326.1,255,326.1z"/>
</g>
<g>
	<path d="M472.3,465.2c0,0,0.3,0.5,1,1.4c0.7,0.9,1.6,2.2,2.9,4c2.5,3.5,6,8.8,9.7,16c3.7,7.2,7.7,16.2,10.6,27.1
		c1.4,5.5,2.5,11.4,3.1,17.7c0.5,6.3,0.4,13.1-0.6,20c-0.2,1.7-0.6,3.5-0.9,5.2c-0.4,1.7-0.8,3.5-1.3,5.2c-0.5,1.8-1.1,3.5-1.7,5.2
		c-0.7,1.7-1.3,3.5-2.1,5.2l-0.6,1.3l-0.3,0.7l-0.3,0.6c-0.4,0.8-0.8,1.7-1.3,2.5c-0.5,0.8-1,1.7-1.5,2.5c-0.5,0.8-1,1.6-1.6,2.5
		c-2.2,3.3-4.7,6.4-7.5,9.3c-5.6,5.8-12.4,10.8-20.2,14.4c-1,0.4-2,0.8-2.9,1.3c-1,0.4-2,0.7-3,1.1c-1.1,0.4-2,0.6-3.1,1
		c-1,0.3-2.1,0.6-3.1,0.8c-4.2,1-8.6,1.7-12.9,2.1c-17.6,1.3-35.8-2.5-52.6-9.8c-16.9-7.2-32.6-17.9-45.4-31.7
		c-6.3-6.9-11.9-14.5-16.3-22.7l-1.6-3.1c-0.5-1-1.1-2.1-1.5-3.2l-1.4-3.2c-0.4-1.1-1-2.1-1.3-3.2c-0.7-2.2-1.5-4.4-2.2-6.6
		c-0.3-1.1-0.6-2.2-0.9-3.3c-0.3-1.1-0.6-2.3-0.8-3.4c-3.9-18.1-2.1-37,4.3-53.3c3.2-8.2,7.6-15.8,12.9-22.3
		c5.3-6.6,11.6-12.2,18.3-16.6c0.9-0.5,1.7-1.1,2.5-1.6l0.2-0.1l0.2-0.1l0.3-0.2l0.6-0.3l1.3-0.7c0.9-0.5,1.7-0.9,2.6-1.4
		c0.9-0.5,1.7-0.9,2.6-1.3c1.8-0.8,3.6-1.6,5.4-2.3c1.8-0.7,3.6-1.3,5.4-1.9c7.2-2.3,14.3-3.8,21.3-4.4c0.9-0.1,1.7-0.2,2.6-0.3
		c0.9,0,1.7-0.1,2.6-0.1c1.7-0.1,3.4-0.2,5.1-0.2c1.7,0,3.3,0.1,4.9,0.1c0.8,0,1.6,0,2.4,0.1c0.8,0.1,1.6,0.1,2.4,0.2
		c1.6,0.1,3.1,0.3,4.7,0.4c1.5,0.2,3,0.4,4.5,0.6c3,0.3,5.8,1,8.6,1.5c11,2.2,20.4,5.3,27.9,8.2c1.9,0.7,3.7,1.4,5.3,2.1
		c1.7,0.7,3.2,1.3,4.6,2c2.9,1.3,5.3,2.4,7.2,3.4c3.9,1.9,5.9,3,5.9,3s-2.1-1-6-2.8c-2-0.9-4.4-1.9-7.3-3.1c-1.4-0.6-3-1.2-4.7-1.8
		c-1.7-0.6-3.4-1.4-5.3-2c-7.6-2.7-16.9-5.5-27.9-7.4c-2.8-0.4-5.6-1-8.5-1.2c-1.5-0.2-3-0.3-4.5-0.5c-1.5-0.1-3.1-0.2-4.6-0.3
		c-0.8,0-1.6-0.1-2.4-0.1c-0.8,0-1.6,0-2.4,0c-1.6,0-3.2,0-4.9,0c-1.6,0.1-3.3,0.2-5,0.3c-0.8,0-1.7,0.1-2.5,0.1
		c-0.8,0.1-1.7,0.2-2.5,0.3c-6.8,0.7-13.8,2.3-20.7,4.6c-1.7,0.6-3.5,1.2-5.2,1.9c-1.7,0.8-3.4,1.5-5.1,2.3
		c-0.9,0.4-1.7,0.9-2.5,1.3c-0.8,0.5-1.7,0.9-2.5,1.4l-1.3,0.7l-0.6,0.4l-0.3,0.2l-0.2,0.1c0.1,0-0.1,0-0.1,0.1
		c-0.8,0.5-1.6,1.1-2.4,1.6c-12.9,8.6-23.5,22-29.6,37.8c-6.1,15.8-7.6,33.9-3.8,51.3c0.2,1.1,0.5,2.1,0.8,3.2
		c0.3,1.1,0.6,2.2,0.9,3.3c0.6,2.1,1.4,4.2,2.1,6.3c0.3,1.1,0.8,2.1,1.3,3.1l1.3,3.1c0.4,1,0.9,2,1.5,3l1.5,3
		c4.3,7.9,9.7,15.2,15.8,21.9c12.3,13.3,27.6,23.8,43.9,30.8c2.1,0.8,4,1.8,6.2,2.5l3.2,1.1c0.5,0.2,1.1,0.4,1.5,0.5l1.6,0.5
		c4.2,1.3,8.5,2.4,12.8,3.3c8.6,1.7,17.2,2.4,25.6,1.8c4.2-0.3,8.4-0.9,12.4-1.9c1-0.3,2-0.4,3-0.8c1-0.3,2-0.6,3-0.9
		c1-0.3,1.9-0.7,2.9-1c0.9-0.4,1.9-0.8,2.8-1.2c7.4-3.3,14-7.9,19.4-13.4c2.7-2.8,5.1-5.7,7.3-8.8c0.5-0.8,1-1.6,1.5-2.3
		c0.5-0.8,0.9-1.6,1.4-2.4c0.5-0.8,0.9-1.7,1.3-2.5l0.3-0.6l0.3-0.6l0.6-1.2c0.8-1.6,1.5-3.3,2.1-5c0.6-1.7,1.2-3.4,1.7-5.1
		c0.6-1.7,0.9-3.4,1.4-5.1c0.3-1.7,0.7-3.4,1-5.1c1.1-6.7,1.3-13.3,0.9-19.5c-0.4-6.2-1.3-12.1-2.6-17.5
		c-2.6-10.8-6.3-19.9-9.9-27.1c-3.6-7.2-6.8-12.6-9.2-16.2c-1.2-1.8-2.1-3.2-2.7-4.1C472.6,465.7,472.3,465.2,472.3,465.2z"/>
</g>
<path id="SVGID_x5F_1_x5F_" fill="none" d="M554.8,475.7c-20.8,0.1-37.2,18.1-37.5,38.4c-0.3,21.4,14.3,42.4,34.4,49.4
	c21.5,7.5,50.2,2.4,66.8-13.5c16.9-16.2,19.2-43.4,5.2-62.1c-15.7-21.1-50.9-24.3-59.2,5"/>
<text><textPath  xlink:href="#SVGID_x5F_1_x5F_" startOffset="55.3906%">
<tspan  fill="#D1D3D4" font-family="'FFFTusj-Bold'" font-size="11.2354">Monica M Raffaelli 2015</tspan></textPath>
</text>
<g>
	<path d="M552.2,472.8c0,0-1.4,0.1-4,0.3c-2.6,0.5-6.4,1-10.9,3.1c-1.1,0.5-2.2,1.2-3.4,1.8c-1.2,0.6-2.3,1.5-3.5,2.3
		c-0.6,0.4-1.2,0.9-1.8,1.4c-0.6,0.5-1.2,0.9-1.8,1.5c-1.1,1.1-2.4,2.2-3.4,3.5c-4.4,5.1-8.1,12.1-9.6,20.2
		c-0.8,4.1-0.8,8.4-0.3,12.9c0.2,2.2,0.7,4.4,1.2,6.7c0.3,1.1,0.6,2.2,1,3.3c0.3,1.1,0.8,2.2,1.2,3.3c3.5,8.8,9.4,17.3,17.5,23.7
		c4,3.2,8.6,5.9,13.5,7.8c0.6,0.2,1.3,0.5,1.8,0.7l2,0.6l2,0.6c0.7,0.2,1.3,0.3,1.9,0.4c2.6,0.6,5.3,1,8,1.4
		c5.4,0.6,10.9,0.5,16.4-0.1c5.5-0.6,10.9-1.8,16.1-3.5c10.5-3.5,20.2-9.4,27.2-17.7c0.8-1.1,1.7-2,2.4-3.2c0.7-1.1,1.5-2.2,2.2-3.4
		c0.6-1.2,1.2-2.4,1.9-3.5c0.5-1.2,1-2.4,1.5-3.7c1.9-5,2.9-10.1,3.1-15.3c0.3-5.1-0.2-10.2-1.5-15c-1.2-4.8-3.2-9.3-5.6-13.4
		c-0.6-1-1.3-2-1.9-2.9c-0.3-0.4-0.7-0.9-1.1-1.4c-0.4-0.5-0.7-0.9-1.1-1.4c-1.4-1.7-3.1-3.3-4.8-4.8c-3.4-2.9-7.1-5.1-10.9-6.8
		c-3.8-1.6-7.7-2.7-11.4-3.1c-3.7-0.4-7.4-0.3-10.7,0.3c-3.3,0.6-6.3,1.8-8.8,3.3c-2.5,1.5-4.6,3.2-6.3,5c-3.3,3.6-5.1,7.1-6.1,9.5
		c-0.6,1.2-0.8,2.2-1.1,2.8c-0.2,0.6-0.3,1-0.3,1s0.1-0.3,0.3-1c0.2-0.6,0.4-1.6,0.9-2.9c0.9-2.5,2.5-6.1,5.8-9.9
		c1.7-1.9,3.7-3.7,6.3-5.3c2.6-1.6,5.6-2.9,9-3.6c3.4-0.8,7.2-1,11.1-0.7c3.9,0.4,7.9,1.4,11.9,3c4,1.7,7.9,3.9,11.5,6.9
		c1.8,1.5,3.5,3.1,5.1,4.9c0.4,0.4,0.8,0.9,1.2,1.4c0.4,0.5,0.7,0.9,1.1,1.4c0.7,1,1.4,2,2.1,3c2.6,4.2,4.7,8.9,6.1,13.9
		c0.3,1.3,0.6,2.5,0.9,3.8c0.2,1.3,0.4,2.6,0.6,3.9c0.1,0.7,0.1,1.3,0.2,2l0.1,2c0.1,1.3,0,2.7,0,4c-0.5,10.8-4.2,21.9-11.6,30.8
		l-0.7,0.9l-0.7,0.8l-1.4,1.5l-0.7,0.8l-0.4,0.4l-0.4,0.4l-1.6,1.4c-0.5,0.5-1.1,1-1.6,1.4l-1.7,1.3l-1.7,1.3
		c-0.6,0.4-1.2,0.8-1.8,1.2c-4.8,3.1-10,5.6-15.5,7.4c-5.5,1.8-11.1,3-16.8,3.6c-5.7,0.6-11.4,0.7-17,0c-2.8-0.4-5.6-0.8-8.3-1.5
		c-0.7-0.2-1.4-0.3-2.1-0.5l-2-0.6l-2-0.6c-0.7-0.2-1.3-0.5-2-0.8c-5.2-2-10-4.9-14.2-8.3c-8.5-6.8-14.4-15.8-17.9-25
		c-0.4-1.2-0.9-2.3-1.2-3.5c-0.3-1.2-0.6-2.3-0.9-3.5c-0.5-2.3-0.9-4.7-1.1-7c-0.4-4.6-0.4-9.1,0.6-13.3c0.1-1.1,0.5-2.1,0.7-3.1
		c0.1-0.5,0.3-1,0.4-1.5c0.1-0.5,0.4-1,0.5-1.5c0.4-1,0.7-1.9,1.1-2.8c0.4-0.9,0.9-1.8,1.3-2.7c1.9-3.4,4-6.5,6.4-9
		c1.1-1.3,2.4-2.4,3.6-3.5c0.6-0.6,1.3-1,1.9-1.5c0.6-0.5,1.2-1,1.8-1.4c1.3-0.8,2.5-1.6,3.7-2.2c1.2-0.6,2.4-1.2,3.5-1.7
		c4.6-2,8.5-2.4,11.1-2.8C550.8,472.8,552.2,472.8,552.2,472.8z"/>
</g>
<g>
	<path d="M563.6,467.1l-1.6,0.6c-0.5,0.2-1.1,0.3-1.6,0.5l-1.6,0.3c-0.5,0.1-1.1,0.2-1.7,0.2c-1.1,0.1-2.2,0.2-3.4,0.2
		c-1.1,0-2.2-0.1-3.4-0.2c-1.1-0.1-2.2-0.4-3.3-0.6c-0.6-0.1-1.1-0.3-1.6-0.5c-0.5-0.2-1.1-0.4-1.6-0.6c-1.1-0.4-2.1-0.9-3.1-1.5
		c-0.5-0.3-1-0.6-1.5-0.9c-0.5-0.3-0.9-0.7-1.4-1l-3-2.2l3.9-0.2c1.5-0.1,2.9-0.2,4.4-0.3c1.5-0.1,2.9-0.3,4.4-0.6
		c1.4-0.2,2.9-0.5,4.3-0.8c1.4-0.3,2.9-0.6,4.3-1c1.4-0.4,2.8-0.8,4.2-1.2l2.1-0.7l2.1-0.8c1.4-0.5,2.7-1.1,4.1-1.7l2-0.9l2-1
		l0.9-0.4l0.3,0.8c0.2,0.5,0.4,1,0.5,1.5c0.1,0.5,0.2,1,0.2,1.5c0,0.5,0,1-0.1,1.5c-0.1,0.5-0.2,1-0.3,1.4c-0.3,0.9-0.7,1.8-1.3,2.6
		c-0.3,0.4-0.6,0.7-0.9,1.1c-0.3,0.3-0.7,0.6-1.1,0.9c0.3-0.4,0.6-0.7,0.9-1.1c0.3-0.4,0.5-0.8,0.7-1.2c0.4-0.8,0.7-1.7,0.8-2.5
		c0.1-0.4,0.1-0.9,0.1-1.3c0-0.4-0.1-0.9-0.1-1.3c-0.1-0.4-0.2-0.8-0.3-1.2c-0.1-0.4-0.3-0.8-0.5-1.1l1.2,0.3
		c-1.3,0.8-2.5,1.6-3.9,2.4c-1.3,0.7-2.7,1.4-4.1,2.1c-1.4,0.6-2.8,1.2-4.2,1.7c-1.4,0.5-2.9,1-4.3,1.4c-1.5,0.4-2.9,0.8-4.4,1.1
		c-1.5,0.3-3,0.6-4.5,0.8c-1.5,0.2-3,0.4-4.5,0.5l-2.3,0.2l-2.3,0.1l0.8-2.5l1.2,1c0.4,0.3,0.8,0.6,1.3,0.9c0.9,0.5,1.8,1,2.7,1.5
		c0.5,0.2,0.9,0.5,1.4,0.6c0.5,0.2,1,0.4,1.5,0.6c0.5,0.2,1,0.3,1.5,0.5c0.5,0.1,1,0.3,1.5,0.4c1,0.2,2.1,0.4,3.1,0.6l1.6,0.2
		l1.6,0.1l1.6,0l1.6-0.1l1.6-0.2L563.6,467.1z"/>
</g>
<g>
	<path d="M439.9,410.8c-0.5-0.9-0.9-1.9-1-3c-0.1-1.1-0.1-2.2,0.2-3.3c0.3-1.1,0.7-2.1,1.3-3.1c0.6-0.9,1.3-1.8,2.2-2.6
		c0.8-0.7,1.8-1.4,2.8-1.9c0.5-0.3,1.1-0.4,1.6-0.6c0.6-0.2,1-0.3,1.6-0.4c2.3-0.4,4.5-0.4,6.8,0c2.2,0.4,4.3,1.1,6.4,2
		c2,0.9,4,2.1,5.7,3.4c1.8,1.4,3.4,2.8,4.9,4.4c1.5,1.6,3,3.2,4.3,4.9c2.7,3.4,5.2,6.7,7.7,10.1l7.6,10.1c2.5,3.4,5,6.8,7.5,10.2
		c2.5,3.4,4.9,6.9,7.3,10.3l2.3,3.3l-3.8-1.1c-2.2-0.6-4.3-1.3-6.4-1.9c-2.1-0.6-4.3-1.3-6.4-1.9c-4.3-1.3-8.5-2.7-12.8-4.1
		c4.4,0.8,8.8,1.6,13.2,2.5c2.2,0.4,4.4,0.9,6.6,1.4c2.2,0.5,4.4,0.9,6.6,1.4l-1.5,2.2c-2.6-3.3-5.3-6.6-7.9-9.9
		c-2.6-3.3-5.2-6.6-7.8-10l-7.7-10.1c-2.5-3.4-5-6.8-7.6-10.1c-1.3-1.6-2.6-3.2-3.9-4.8c-1.4-1.5-2.8-2.9-4.3-4.2
		c-1.6-1.3-3.2-2.4-5-3.3c-1.8-0.9-3.6-1.7-5.6-2.1c-1.9-0.5-3.9-0.7-5.8-0.5c-0.4,0-1.1,0.2-1.5,0.2c-0.5,0.1-0.9,0.2-1.4,0.4
		c-0.9,0.3-1.8,0.8-2.6,1.4c-1.6,1.2-2.9,2.8-3.6,4.6c-0.4,0.9-0.5,2-0.5,3C439.4,408.7,439.6,409.7,439.9,410.8z"/>
</g>
<g>
	<path d="M543.5,580.4c0,0,3.2,0.6,8.9,1.5c2.8,0.4,6.3,0.9,10.2,1.4c2,0.2,4.1,0.4,6.3,0.7c2.2,0.2,4.6,0.4,7,0.6
		c2.4,0.2,5,0.4,7.6,0.5c1.3,0.1,2.7,0.1,4,0.2c1.4,0,2.8,0.1,4.2,0.1c2.8,0.1,5.7,0.1,8.7,0.1c3,0,6,0,9-0.2
		c1.5-0.1,3.1-0.1,4.6-0.2c1.6-0.1,3.1-0.2,4.7-0.3c1.6-0.1,3.2-0.2,4.8-0.3c1.6-0.2,3.2-0.3,4.8-0.5c1.6-0.2,3.2-0.3,4.8-0.5
		c1.6-0.2,3.2-0.4,4.8-0.6c3.2-0.4,6.5-1,9.7-1.5c6.5-1.1,12.9-2.4,19.1-3.8c3.1-0.7,6.2-1.6,9.3-2.3c3-0.9,6-1.7,9-2.6
		c5.9-1.8,11.5-3.8,16.6-6.1c5.1-2.3,9.7-5.1,13.5-8.1c1.9-1.5,3.6-3.1,5.2-4.7c1.5-1.6,2.9-3.3,4-4.9c2.3-3.2,3.8-6.4,4.8-9.1
		c1-2.7,1.4-4.9,1.6-6.4c0.1-0.8,0.1-1.3,0.2-1.7c0-0.4,0.1-0.6,0.1-0.6s0,0.2,0,0.6c0,0.4-0.1,1-0.1,1.7c-0.2,1.5-0.6,3.8-1.5,6.5
		c-0.9,2.7-2.4,5.9-4.7,9.2c-2.3,3.3-5.3,6.7-9.2,9.8c-3.9,3.1-8.5,5.8-13.6,8.2c-5.1,2.4-10.7,4.4-16.6,6.2c-2.9,0.9-5.9,1.7-9,2.6
		c-3.1,0.8-6.2,1.6-9.3,2.4c-6.3,1.5-12.7,2.8-19.2,3.9c-3.2,0.5-6.5,1.1-9.7,1.4c-1.6,0.2-3.2,0.4-4.8,0.6
		c-1.6,0.2-3.2,0.3-4.8,0.5c-1.6,0.2-3.2,0.3-4.8,0.5c-1.6,0.1-3.2,0.2-4.8,0.3c-1.6,0.1-3.1,0.2-4.7,0.3c-1.6,0.1-3.1,0.1-4.6,0.2
		c-3.1,0.1-6.1,0.2-9.1,0.2c-3,0.1-5.9,0-8.7-0.1c-1.4,0-2.8-0.1-4.2-0.1c-1.4-0.1-2.7-0.1-4-0.2c-2.6-0.1-5.2-0.3-7.7-0.5
		c-2.4-0.2-4.8-0.4-7-0.6c-2.2-0.3-4.3-0.5-6.3-0.8c-4-0.5-7.4-1.1-10.2-1.5C546.7,581,543.5,580.4,543.5,580.4z"/>
</g>
<g>
	<path d="M622.9,572c0,0,0.5-0.1,1.3-0.2c0.9-0.1,2.2-0.3,3.8-0.7c0.8-0.2,1.7-0.3,2.7-0.5c1-0.2,2-0.5,3.1-0.7
		c1.1-0.3,2.3-0.6,3.5-1c1.2-0.4,2.5-0.8,3.9-1.2c2.7-0.9,5.5-2,8.5-3.3c3-1.3,6-2.9,9.1-4.6c3.1-1.7,6.1-3.7,9.1-5.9
		c3-2.2,5.9-4.6,8.7-7.1c2.8-2.6,5.4-5.2,7.8-8c2.4-2.8,4.6-5.7,6.6-8.6c2-2.9,3.8-5.8,5.3-8.6c1.6-2.8,2.9-5.6,4-8.1
		c0.5-1.3,1.1-2.6,1.5-3.7c0.5-1.2,0.9-2.3,1.3-3.4c0.4-1.1,0.7-2.1,1-3c0.3-0.9,0.5-1.8,0.8-2.6c0.5-1.6,0.7-2.8,1-3.7
		c0.2-0.9,0.3-1.3,0.3-1.3s-0.1,0.5-0.3,1.3c-0.2,0.9-0.4,2.1-0.9,3.7c-0.2,0.8-0.4,1.7-0.7,2.6c-0.3,1-0.6,2-0.9,3.1
		c-0.4,1.1-0.8,2.2-1.2,3.5c-0.5,1.2-1,2.5-1.5,3.8c-1.1,2.6-2.4,5.4-3.9,8.2c-1.5,2.9-3.3,5.8-5.3,8.7c-2,2.9-4.2,5.8-6.6,8.7
		c-2.4,2.8-5.1,5.5-7.8,8.1c-2.8,2.5-5.7,4.9-8.8,7.1c-3,2.1-6.1,4.1-9.2,5.9c-3.1,1.7-6.2,3.3-9.2,4.5c-3,1.3-5.9,2.3-8.5,3.2
		c-1.4,0.4-2.6,0.8-3.9,1.2c-1.2,0.3-2.4,0.6-3.5,0.9c-1.1,0.2-2.2,0.5-3.1,0.7c-1,0.2-1.9,0.3-2.7,0.5c-1.6,0.3-2.9,0.4-3.8,0.6
		C623.4,572,622.9,572,622.9,572z"/>
</g>
<g>
	<path d="M313.6,560.2l-0.8,2.2l-0.6,2.3l-0.5,2.3l-0.4,2.3l-0.2,2.3l-0.1,2.3l0,2.3l0.2,2.3l0.3,2.3l0.4,2.3l0.5,2.3l0.7,2.2
		l0.8,2.2l0.9,2.1l1.1,2.1l1.2,2l1.3,1.9l1.4,1.8l1.5,1.8l1.6,1.7l1.7,1.6l1.8,1.5l1.9,1.4l2,1.3l2,1.1l2.1,1l2.1,0.9l2.2,0.8
		l2.2,0.6l2.3,0.5l2.3,0.4l2.3,0.2l-0.4,0.3c0.3-1.7,0.6-3.3,0.8-5c0.2-1.7,0.2-3.3-0.1-5c-0.2-0.8-0.4-1.6-0.7-2.3
		c-0.4-0.8-0.8-1.4-1.4-2c-1.1-1.2-2.6-2-4.2-2.3c-0.8-0.1-1.6-0.1-2.4,0.1c-0.8,0.2-1.5,0.6-2,1.2c-1.1,1.1-1.6,2.8-1.5,4.5
		c0.1,1.6,0.8,3.2,1.8,4.5c1,1.3,2.3,2.4,3.7,3.3c1.4,0.9,2.9,1.8,4.3,2.6c1.5,0.8,3,1.6,4.5,2.3c1.5,0.7,3.1,1.4,4.6,2
		c0.8,0.3,1.6,0.6,2.4,0.9c0.8,0.3,1.6,0.6,2.4,0.8c3.2,1.1,6.5,2,9.8,2.7c1.7,0.3,3.3,0.6,5,0.9c1.7,0.2,3.4,0.4,5,0.6
		c-1.7-0.1-3.4-0.3-5.1-0.5c-1.7-0.2-3.4-0.5-5-0.8c-1.7-0.3-3.3-0.7-5-1.1c-1.6-0.4-3.3-0.9-4.9-1.4c-0.8-0.3-1.6-0.5-2.4-0.8
		c-0.8-0.3-1.6-0.6-2.4-0.9c-1.6-0.6-3.1-1.3-4.7-2c-1.5-0.7-3-1.5-4.5-2.3c-1.5-0.8-3-1.7-4.4-2.6c-1.4-1-2.8-2-3.9-3.4
		c-1.1-1.4-1.8-3-2-4.8c-0.1-1.7,0.3-3.6,1.6-4.9c0.6-0.6,1.4-1.1,2.3-1.4c0.9-0.2,1.8-0.2,2.7-0.1c1.8,0.3,3.3,1.2,4.6,2.5
		c0.6,0.6,1.2,1.4,1.5,2.1c0.4,0.8,0.6,1.6,0.8,2.5c0.4,1.7,0.4,3.5,0.2,5.2c-0.2,1.7-0.5,3.4-0.8,5l-0.1,0.3l-0.3,0l-2.4-0.3
		l-2.3-0.4l-2.3-0.5l-2.3-0.7l-2.2-0.8l-2.2-0.9l-2.1-1.1l-2.1-1.2l-2-1.3l-1.9-1.4l-1.8-1.5l-1.7-1.6l-1.6-1.7l-1.5-1.8l-1.4-1.9
		l-1.3-2l-1.2-2l-1.1-2.1l-0.9-2.2l-0.8-2.2l-0.7-2.3l-0.5-2.3l-0.4-2.3l-0.3-2.3l-0.1-2.4l0-2.4l0.1-2.3l0.3-2.3l0.4-2.3l0.6-2.3
		l0.7-2.2L313.6,560.2z"/>
</g>
<g>
	<path d="M665,533.5l2.1-1l2-1.2l2-1.3l1.9-1.4l1.8-1.5l1.7-1.6l1.6-1.7l1.5-1.8l1.4-1.9l1.3-1.9l1.2-2l1.1-2.1l1-2.1l0.8-2.2
		l0.7-2.2l0.6-2.3l0.4-2.3l0.3-2.3l0.1-2.3l0-2.3l-0.1-2.3l-0.3-2.3l-0.4-2.3l-0.5-2.3l-0.7-2.2l-0.8-2.2l-0.9-2.1l-1-2.1l-1.2-2
		l-1.3-1.9l-1.4-1.9l-1.5-1.8l0.5,0.1c-1.4,1-2.8,1.9-4,3c-1.3,1.1-2.5,2.3-3.3,3.7c-0.4,0.7-0.8,1.4-1.1,2.2
		c-0.3,0.8-0.4,1.6-0.4,2.4c0,1.6,0.5,3.3,1.4,4.6c0.5,0.7,1.1,1.2,1.7,1.6c0.7,0.4,1.5,0.6,2.3,0.6c1.6,0,3.1-0.9,4.1-2.2
		c1.1-1.2,1.7-2.8,1.8-4.5c0.2-1.6,0-3.3-0.4-5c-0.3-1.6-0.8-3.3-1.3-4.9c-0.5-1.6-1-3.2-1.6-4.8c-0.6-1.6-1.2-3.2-1.9-4.7
		c-0.3-0.8-0.7-1.5-1.1-2.3c-0.4-0.8-0.7-1.5-1.1-2.3c-1.5-3-3.3-5.9-5.2-8.7c-0.9-1.4-1.9-2.8-3-4.1c-1-1.3-2.1-2.6-3.2-3.9
		c1.1,1.3,2.2,2.5,3.3,3.9c1.1,1.3,2.1,2.7,3.1,4.1c1,1.4,1.9,2.8,2.8,4.2c0.9,1.4,1.7,2.9,2.5,4.4c0.4,0.7,0.8,1.5,1.1,2.3
		c0.4,0.8,0.7,1.5,1.1,2.3c0.7,1.5,1.3,3.1,1.9,4.7c0.6,1.6,1.1,3.2,1.6,4.8c0.5,1.6,1,3.3,1.3,4.9c0.4,1.7,0.6,3.4,0.4,5.1
		c-0.2,1.7-0.8,3.4-1.9,4.8c-1.1,1.3-2.7,2.4-4.6,2.4c-0.9,0-1.8-0.2-2.6-0.6c-0.8-0.4-1.4-1.1-2-1.8c-1-1.4-1.5-3.2-1.6-5
		c0-0.9,0.1-1.8,0.4-2.6c0.3-0.9,0.7-1.6,1.2-2.4c0.9-1.5,2.2-2.7,3.5-3.8c1.3-1.1,2.7-2.1,4.1-3l0.3-0.2l0.2,0.2l1.5,1.8l1.4,1.9
		l1.3,2l1.2,2.1l1,2.1l0.9,2.2l0.8,2.2l0.7,2.3l0.5,2.3l0.4,2.3l0.3,2.3l0.1,2.4l0,2.4l-0.1,2.4l-0.3,2.4l-0.4,2.3l-0.6,2.3
		l-0.7,2.3l-0.8,2.2l-1,2.1l-1.1,2.1l-1.2,2l-1.3,1.9l-1.4,1.9l-1.6,1.8l-1.7,1.7l-1.7,1.6l-1.8,1.5l-1.9,1.4l-2,1.3l-2.1,1.1
		L665,533.5z"/>
</g>
<g>
	<path d="M349.8,460.3c0,0-0.3,0.5-0.7,1.5c-0.5,1-1.2,2.5-2.1,4.3c-0.8,1.8-1.9,4-2.9,6.7c-1.1,2.6-2.2,5.6-3.3,8.9
		c-1.1,3.3-2.1,6.9-3,10.8c-0.2,1-0.4,2-0.7,2.9c-0.2,1-0.4,2-0.5,3c-0.4,2-0.6,4.2-0.9,6.3c-0.4,4.3-0.6,8.8-0.4,13.3
		c0.2,4.5,0.8,9.1,1.9,13.6c1,4.5,2.5,8.9,4.4,13.1c0.9,2.1,2,4.1,3.1,6c0.6,1,1.2,1.9,1.7,2.8c0.6,1,1.2,1.8,1.9,2.7
		c2.5,3.5,5.3,6.8,8.2,9.5c1.4,1.4,2.9,2.7,4.3,3.9c1.5,1.2,2.9,2.3,4.3,3.4c2.9,2.1,5.6,3.8,8.1,5.2c1.3,0.7,2.4,1.3,3.5,1.9
		c1.1,0.5,2.1,1,3.1,1.5c0.5,0.2,0.9,0.4,1.3,0.6c0.4,0.2,0.8,0.3,1.2,0.5c0.7,0.3,1.4,0.6,1.9,0.8c1,0.4,1.6,0.7,1.6,0.7
		s-0.6-0.2-1.6-0.6c-0.5-0.2-1.2-0.4-1.9-0.7c-0.4-0.1-0.8-0.3-1.2-0.5c-0.4-0.2-0.9-0.4-1.3-0.6c-0.9-0.4-2-0.9-3.1-1.4
		c-1.1-0.6-2.3-1.2-3.6-1.8c-2.6-1.3-5.4-3-8.3-4.9c-1.5-1-3-2.1-4.5-3.2c-1.5-1.2-3.1-2.4-4.6-3.8c-3.1-2.7-6-5.9-8.8-9.4
		c-0.7-0.9-1.4-1.8-2-2.7c-0.6-0.9-1.3-1.9-1.9-2.9c-1.2-2-2.4-4-3.4-6.1c-2.1-4.2-3.9-8.7-5.1-13.4c-1.2-4.6-2.1-9.4-2.5-14.1
		c-0.4-4.7-0.4-9.4-0.2-13.9c0.2-2.2,0.3-4.5,0.7-6.6c0.1-1.1,0.3-2.1,0.4-3.2c0.2-1,0.4-2.1,0.6-3.1c0.7-4.1,1.7-7.9,2.6-11.3
		c1-3.5,2-6.6,3-9.4c0.9-2.8,2-5.1,2.7-7.1c0.8-1.9,1.5-3.4,1.9-4.4c0.4-1,0.7-1.5,0.7-1.5L349.8,460.3z"/>
</g>
<g>
	<path d="M622.1,506.1c0,0,0.1,0.2,0.2,0.7c0.1,0.2,0.2,0.5,0.3,0.8c0.1,0.3,0.2,0.8,0.3,1.2c0.1,0.5,0.3,1,0.4,1.6
		c0.1,0.6,0.2,1.2,0.3,1.8c0.2,1.3,0.2,2.8,0.2,4.4c-0.1,1.6-0.3,3.3-0.8,5.1c-0.5,1.8-1.1,3.6-1.9,5.4c-0.8,1.8-1.9,3.5-3,5.2
		c-1.2,1.7-2.5,3.3-3.9,4.7c-1.4,1.5-2.9,2.9-4.4,4.2c-1.5,1.3-3.1,2.4-4.7,3.5c-1.6,1.1-3.1,2-4.6,2.9c-1.5,0.9-3,1.6-4.3,2.3
		c-1.4,0.7-2.6,1.2-3.7,1.7c-1.1,0.5-2.1,0.9-2.9,1.2c-1.6,0.6-2.6,1-2.6,1s0.9-0.4,2.5-1.1c0.8-0.4,1.8-0.8,2.8-1.4
		c1.1-0.6,2.3-1.2,3.6-1.9c1.3-0.7,2.7-1.6,4.1-2.5c1.4-0.9,2.9-2,4.4-3.1c1.5-1.2,2.9-2.4,4.3-3.7c1.4-1.3,2.8-2.8,4-4.3
		c1.2-1.5,2.4-3.1,3.4-4.7c1-1.6,1.8-3.3,2.5-5c0.7-1.7,1.1-3.3,1.4-4.9c0.3-1.6,0.4-3.1,0.4-4.5c-0.1-1.4-0.1-2.7-0.4-3.8
		c-0.1-0.6-0.2-1.1-0.3-1.5c-0.1-0.5-0.2-0.9-0.4-1.3c-0.1-0.4-0.2-0.7-0.3-1c-0.1-0.3-0.2-0.6-0.3-0.8c-0.2-0.4-0.3-0.7-0.3-0.7
		L622.1,506.1z"/>
</g>
<path fill="none" stroke="#000000" stroke-miterlimit="10" d="M555.4,411.2c4.3-7.4,3.2-17.1-1.2-24.5c-3.1-5.3-7.8-9.8-13.5-12.1
	c-7.4-3-16.3-2.2-22.9,2.4c-6.6,4.5-10.6,12.6-10.2,20.6c0.7,12.8,12.8,23.4,25.6,24.2C541.8,422.3,551,418.6,555.4,411.2z"/>
<g>
	<path d="M522.8,397.9c0,0,0,0.2,0.1,0.5c0,0.3,0.1,0.7,0.1,1.3c0.1,1,0.2,2.3,0.4,3.6c0.2,1.3,0.4,2.5,0.6,3.5
		c0.1,0.5,0.2,0.9,0.3,1.2c0.1,0.3,0.1,0.5,0.1,0.5s-0.2-0.1-0.4-0.3c-0.3-0.2-0.6-0.5-1-0.9c-0.8-0.9-1.4-2.3-1.6-3.8
		c-0.2-1.5,0-3,0.5-4c0.2-0.5,0.5-0.9,0.6-1.2C522.7,398.1,522.8,397.9,522.8,397.9z"/>
</g>
<g>
	<path d="M533.8,409.6c0,0-0.3-0.1-0.7-0.2c-0.2-0.1-0.5-0.2-0.8-0.3c-0.3-0.1-0.7-0.3-1-0.6c-0.4-0.2-0.7-0.5-1.1-0.8
		c-0.4-0.3-0.7-0.7-1-1.1c-0.3-0.4-0.7-0.8-0.9-1.3c-0.3-0.5-0.5-1-0.8-1.5c-0.2-0.5-0.4-1.1-0.5-1.6c-0.2-0.5-0.2-1.1-0.3-1.6
		c0-0.5-0.1-1,0-1.5c0-0.5,0.1-0.9,0.2-1.3c0.1-0.4,0.2-0.8,0.3-1.1c0.1-0.3,0.2-0.6,0.3-0.8c0.2-0.4,0.4-0.6,0.4-0.6s0,0.3,0,0.7
		c0,0.5,0,1.1,0.1,1.9c0,0.4,0.1,0.8,0.2,1.2c0,0.4,0.2,0.9,0.3,1.3c0.2,0.9,0.5,1.8,0.9,2.7c0.2,0.4,0.4,0.9,0.6,1.3
		c0.2,0.4,0.4,0.8,0.7,1.2c0.3,0.4,0.5,0.8,0.7,1.1c0.3,0.3,0.5,0.7,0.7,1c0.5,0.6,0.9,1.1,1.2,1.4
		C533.6,409.4,533.8,409.6,533.8,409.6z"/>
</g>
<g>
	<path d="M557.4,399.4c1.1-0.8,2.7-0.8,3.9-0.3c1.3,0.5,2.4,1.6,3,2.8c0.6,1.3,0.8,2.7,0.5,4.1c-0.2,1.4-0.9,2.8-2.2,3.6
		c-1.3,0.8-3.1,0.7-4.2-0.4c-0.1-0.1-0.1-0.1-0.2-0.2l-0.2-0.2c-0.1-0.1-0.2-0.3-0.3-0.5c-0.2-0.3-0.3-0.7-0.4-1.1
		c-0.1-0.7-0.1-1.5,0.2-2.3c0.2-0.4,0.4-0.7,0.8-1l0.3-0.2c0.2-0.1,0.2-0.1,0.3-0.1c0.2,0,0.5-0.1,0.7-0.1c0.9,0.1,1.6,0.6,2.1,1.2
		c0.5,0.6,0.8,1.3,1,2c0.1,0.4,0.1,0.8,0.1,1.1c0,0.4-0.1,0.8-0.1,1.1c-0.3,1.5-1.1,2.7-2,3.8c-0.9,1.1-1.9,2.2-3.4,2.7
		c-0.7,0.3-1.6,0.3-2.4,0.1c-0.9-0.3-1.5-0.8-2-1.5c-0.5-0.6-0.8-1.3-1-2.2c-0.2-0.8,0-1.8,0.6-2.5c0.3-0.3,0.8-0.7,1.3-0.7
		c0.5-0.1,1-0.1,1.4,0.1c0.8,0.3,1.5,0.8,2,1.4c0.1,0.2,0.2,0.3,0.3,0.5l0.2,0.3l0.1,0.2c0.2,0.4,0.3,0.8,0.3,1.1
		c0.1,0.8,0.2,1.5,0.1,2.3c-0.2,1.5-0.7,2.9-1.4,4.2c-0.4,0.6-0.9,1.3-1.6,1.8c-0.3,0.3-0.6,0.4-1.1,0.6l-0.2,0.1
		c-0.1,0-0.2,0.1-0.3,0.1c-0.2,0.1-0.4,0.1-0.7,0.1c-1.7,0.1-3.4-0.8-4.2-2.4l0,0l-0.1-0.1l0-0.1l0-0.1l-0.1-0.2
		c-0.1-0.1-0.1-0.4-0.2-0.6c-0.1-0.3-0.1-0.5,0-0.7c0-0.2,0-0.4,0.1-0.7c0.2-0.9,0.6-1.7,1.5-2.2c0.2-0.1,0.5-0.2,0.8-0.3
		c0.3,0,0.7-0.1,1,0.1c0.2,0.1,0.3,0.1,0.4,0.2c0.1,0.1,0.2,0.2,0.3,0.3c0.2,0.2,0.3,0.4,0.4,0.6c0.4,0.9,0.4,1.6,0.4,2.4
		c0,1.5-0.4,3-1.1,4.3c-0.4,0.7-0.8,1.3-1.4,1.8c-0.6,0.5-1.3,1-2.2,1.2c-0.9,0.2-1.9,0.1-2.6-0.4c-0.8-0.5-1.3-1-1.8-1.7
		c-0.5-0.9-0.6-1.7-0.7-2.5c0-0.8,0.1-1.6,0.3-2.4c0.1-0.4,0.3-0.8,0.7-1.2c0.2-0.2,0.6-0.5,1.1-0.5c0.5,0,1,0.2,1.2,0.4
		c0.5,0.4,0.6,0.8,0.8,1.2l0,0.1l0,0c0,0,0-0.1,0,0.1l0,0.1l0.1,0.2c0,0.1,0.1,0.1,0.1,0.3l0.1,0.3c0.1,0.9,0.1,1.7-0.1,2.4
		c-0.2,0.8-0.4,1.5-0.8,2.1c-0.3,0.7-0.7,1.3-1.2,1.9c-0.5,0.6-1,1.1-1.7,1.6c-1.7,1.1-3.6,0.6-4.9-0.4c-1.3-1-2.2-2.8-1.7-4.6
		c0.2-0.8,0.6-1.7,1.4-2.2c0.4-0.3,0.9-0.5,1.4-0.6c0.5,0,1.1,0.1,1.5,0.3c0.9,0.5,1.4,1.4,1.7,2.2c0.3,0.8,0.3,1.6,0.2,2.4
		c-0.1,0.8-0.4,1.6-0.9,2.3c-0.1,0.1-0.1,0.2-0.2,0.3l-0.2,0.2c-0.1,0.1-0.3,0.3-0.5,0.4c-0.3,0.2-0.7,0.4-1.1,0.6
		c-1.5,0.6-3,0.6-4.4,0.6l-0.2,0l-0.2-0.1c-1-0.6-2.2-1.2-3.1-2.3c-0.2-0.2-0.4-0.5-0.6-0.8l-0.1-0.1l-0.1-0.1l-0.1-0.2
		c-0.1-0.2-0.2-0.4-0.2-0.5c-0.3-0.7-0.4-1.3-0.4-2.1c0-0.7,0.1-1.5,0.7-2.2c0.1-0.1,0.1-0.2,0.2-0.2l0.1-0.1l0,0l0,0l0.1-0.1l0,0
		l0.2-0.1c0.1,0,0.2-0.1,0.3-0.2c0.5-0.2,0.9-0.2,1.4-0.1c0.9,0.2,1.5,0.6,2,1.1c0.5,0.5,0.9,1.1,1.1,1.8c0.4,1.4,0.2,2.9-0.5,4.1
		c-0.7,1.2-1.7,2.2-2.9,2.7c-1.2,0.6-2.6,0.8-3.9,0.6c-1.3-0.2-2.6-0.9-3.5-1.9l-0.1-0.1l0,0l-0.1-0.1l0,0l-0.1-0.2
		c-0.1-0.2-0.2-0.4-0.3-0.5c-0.1-0.3-0.2-0.6-0.3-0.9c-0.2-0.6-0.3-1.3-0.3-1.9c0-0.6,0-1.3,0.1-1.9c0.1-0.3,0.2-0.7,0.4-1
		c0.1-0.3,0.6-0.7,0.8-0.9c0.2-0.1,0.4-0.2,0.6-0.3c0.2-0.1,0.5-0.1,0.8,0c0.6,0.1,0.9,0.6,1.1,0.9c0.3,0.7,0.4,1.4,0.4,2
		c0,1.3-0.3,2.6-1.1,3.7c-1,1.2-2.6,1.4-3.8,1c-1.3-0.4-2.4-1.3-3-2.4c-0.6-1.1-0.9-2.5-0.7-3.7c0.2-1.2,0.9-2.6,2.2-3.1l0.4-0.1
		l0.1,0.3l0.2,0.6c0.1,0.2,0.1,0.4,0.1,0.7c0,0.2,0,0.5,0,0.7c0,0.2-0.1,0.4-0.1,0.7c0,0.2-0.2,0.4-0.3,0.6
		c-0.1,0.2-0.2,0.4-0.4,0.6c-0.1,0.2-0.3,0.3-0.4,0.5c-0.1,0.2-0.3,0.3-0.5,0.4c-0.2,0.1-0.4,0.2-0.5,0.4c-0.2,0.1-0.4,0.2-0.6,0.3
		c-0.2,0.1-0.4,0.1-0.6,0.2c-0.2,0.1-0.4,0.1-0.6,0.1c-0.2,0.1-0.4,0-0.6,0.1c-0.2,0-0.4,0-0.6,0c-0.2,0-0.4-0.1-0.6-0.1
		c-0.2-0.1-0.4-0.2-0.6-0.3l0,0l0,0l-0.3-0.5c-0.1-0.2-0.2-0.4-0.2-0.5c-0.1-0.4-0.2-0.7-0.3-1.1c0-0.2,0-0.4,0-0.6
		c0-0.2,0-0.4,0-0.6c0-0.4,0.1-0.7,0.2-1.1c0.1-0.4,0.2-0.7,0.4-1c0.1-0.2,0.2-0.3,0.3-0.5c0.1-0.2,0.2-0.3,0.4-0.4
		c0.1-0.1,0.3-0.3,0.4-0.4c0.1-0.1,0.3-0.2,0.5-0.3c0.3-0.2,0.7-0.2,1.1-0.2c-0.4,0-0.7,0.1-1.1,0.3c-0.2,0.1-0.3,0.2-0.5,0.3
		c-0.1,0.1-0.3,0.2-0.4,0.4c-0.1,0.1-0.2,0.3-0.3,0.4c-0.1,0.1-0.2,0.3-0.3,0.5c-0.2,0.3-0.3,0.7-0.4,1c-0.1,0.3-0.1,0.7-0.2,1.1
		c0,0.2,0,0.4,0,0.5c0,0.2,0,0.4,0.1,0.5c0.1,0.4,0.2,0.7,0.3,1c0.1,0.2,0.1,0.3,0.2,0.5l0.3,0.4l-0.1-0.1c0.2,0.1,0.3,0.2,0.5,0.2
		c0.2,0,0.4,0.1,0.6,0.1c0.2,0,0.4,0,0.6,0c0.2,0,0.4,0,0.6-0.1c0.2,0,0.4-0.1,0.6-0.1c0.2-0.1,0.4-0.1,0.5-0.2
		c0.2-0.1,0.4-0.2,0.5-0.3c0.2-0.1,0.3-0.2,0.5-0.3c0.1-0.1,0.3-0.2,0.4-0.4c0.1-0.1,0.3-0.3,0.4-0.4c0.1-0.2,0.2-0.3,0.3-0.5
		c0.1-0.2,0.2-0.3,0.2-0.5c0-0.2,0.1-0.4,0.1-0.5c0-0.2,0-0.4,0-0.5c0-0.2,0-0.4-0.1-0.5l-0.2-0.5l0.5,0.2c-0.9,0.4-1.5,1.4-1.6,2.5
		c-0.1,1.1,0.1,2.2,0.6,3.1c0.6,0.9,1.4,1.6,2.5,1.9c0.5,0.1,1,0.2,1.5,0c0.3-0.1,0.4-0.1,0.7-0.3c0.2-0.1,0.3-0.2,0.5-0.4
		c0.6-0.8,0.8-2,0.8-3c0-0.5-0.1-1.1-0.3-1.5c-0.1-0.2-0.2-0.3-0.2-0.2c0,0-0.2,0-0.3,0.1c-0.7,0.4-0.7,1.6-0.6,2.7
		c0,0.5,0.1,1.1,0.3,1.6c0.1,0.3,0.2,0.5,0.3,0.7c0.1,0.1,0.1,0.2,0.1,0.3l0.1,0.2l0,0l0,0c0,0-0.1-0.1,0,0l0,0l0.1,0.1
		c0.7,0.8,1.6,1.2,2.6,1.4c1,0.1,2.1-0.1,3-0.5c0.9-0.5,1.7-1.2,2.2-2.1c0.5-0.9,0.6-1.9,0.4-2.8c-0.2-0.8-1.1-1.7-1.8-1.8
		c-0.2,0-0.3,0-0.4,0c0,0,0,0-0.1,0l-0.2,0.1l0,0c-0.1,0.1,0.1-0.1,0.1,0l0,0l0,0l0,0c0,0-0.1,0.1-0.1,0.1c-0.2,0.2-0.3,0.7-0.3,1.1
		c0,0.5,0.1,1,0.3,1.4c0,0.1,0.1,0.2,0.1,0.3l0.1,0.2c0,0,0.1,0.1,0,0.1l0.1,0.1c0.1,0.2,0.3,0.4,0.5,0.6c0.7,0.7,1.6,1.3,2.7,1.9
		l-0.4-0.1c1.3,0,2.6,0,3.7-0.5c0.3-0.1,0.5-0.2,0.7-0.4c0.1-0.1,0.2-0.1,0.3-0.2l0.2-0.2c0,0,0.1-0.1,0.1-0.1
		c0.3-0.3,0.5-0.9,0.5-1.4c0.1-0.5,0-1.1-0.1-1.6c-0.2-0.5-0.5-0.9-0.7-1c-0.2-0.1-0.3-0.1-0.5-0.1c-0.1,0-0.3,0.1-0.4,0.2
		c-0.3,0.2-0.6,0.7-0.7,1.2c-0.2,0.9,0.2,2,1.1,2.6c0.4,0.3,0.9,0.5,1.4,0.6c0.1,0,0.2,0,0.3,0c0,0,0.1,0,0.1,0l0.2,0
		c0.1,0,0.2-0.1,0.3-0.1l0.3-0.2c0.9-0.6,1.7-1.7,2.2-2.7c0.3-0.5,0.5-1.1,0.6-1.7c0.2-0.5,0.2-1.2,0.1-1.6c0-0.1-0.2-0.7-0.2-0.8
		c-0.1-0.2-0.3-0.5-0.3-0.5c0,0,0.1,0.1,0.2,0c0.2,0,0.2-0.1,0.2-0.1c-0.1,0.1-0.2,0.3-0.3,0.5c-0.4,1-0.3,2.4,0.1,3.1
		c0,0,0.1,0.1,0.1,0.2c0,0,0.1,0.1,0.1,0.1l0.3,0.3c0.2,0.2,0.4,0.3,0.6,0.5c0.4,0.2,0.9,0.3,1.3,0.2c0.4-0.1,0.9-0.4,1.3-0.8
		c0.4-0.4,0.8-0.9,1.1-1.4c0.6-1,0.9-2.2,0.9-3.4c0-0.6-0.1-1.2-0.2-1.6c0-0.1-0.1-0.2-0.1-0.2c0,0,0,0,0-0.1c0,0,0,0,0,0
		c0,0,0,0,0,0c0,0-0.1,0-0.2,0.1c-0.3,0.2-0.6,0.6-0.7,1.1c-0.1,0.5-0.1,0.8,0.2,1.4c0.5,0.9,1.5,1.5,2.5,1.4c0.1,0,0.3,0,0.4,0
		c0.1,0,0.1,0,0.2,0l0.2-0.1c0.2-0.1,0.5-0.2,0.7-0.4c0.4-0.3,0.8-0.8,1.1-1.3c0.3-0.5,0.6-1.1,0.8-1.7c0.2-0.6,0.4-1.2,0.4-1.8
		c0.2-1.2,0-2.4-0.6-3.3c-0.3-0.4-0.8-0.8-1.2-0.9c-0.2-0.1-0.5-0.1-0.6-0.1c-0.2,0.1-0.3,0.1-0.5,0.3c-0.6,0.6-0.3,2,0.4,2.9
		c0.3,0.5,0.8,0.9,1.2,1c0.5,0.2,1.1,0.1,1.6,0c1.1-0.4,2.1-1.3,2.9-2.3c0.8-1,1.6-2.1,1.8-3.3c0.1-0.3,0.1-0.6,0.1-0.9
		c0-0.3,0-0.6-0.1-0.9c-0.1-0.6-0.4-1.1-0.7-1.6c-0.4-0.5-0.9-0.8-1.3-0.9c-0.1,0-0.2,0-0.3,0c-0.1,0-0.2,0.1-0.2,0.1l-0.2,0.1
		c-0.2,0.1-0.4,0.3-0.5,0.6c-0.5,1-0.2,2.5,0.6,3.3c0.8,0.9,2.3,1,3.4,0.4c1.1-0.6,1.8-1.8,2-3.1c0.3-1.3,0.1-2.7-0.4-3.9
		c-0.5-1.2-1.5-2.2-2.7-2.8C560.1,398.7,558.6,398.6,557.4,399.4z"/>
</g>
<g>
	<path d="M525.1,429.8c0,0-0.1,0-0.3,0.1c-0.2,0.1-0.5,0.1-0.8,0.3c-0.7,0.3-1.7,0.8-2.8,1.8c-1,1-2,2.4-2.7,4.3
		c-0.3,0.9-0.5,1.9-0.6,3c0,0.5,0,1.1,0,1.6c0.1,0.6,0.2,1.1,0.3,1.7c0.6,2.3,1.9,4.5,3.8,6.5c1.9,1.9,4.4,3.3,7.2,4.2
		c2.8,0.9,5.9,1.1,9.1,0.9l0.6,0l0.6-0.1l1.2-0.1c0.8-0.1,1.5-0.2,2.3-0.4c1.6-0.3,3.1-0.8,4.6-1.3c3-1.1,5.9-2.6,8.4-4.4
		c2.5-1.9,4.8-4.1,6.6-6.5c0.4-0.6,0.9-1.3,1.2-1.8c0.4-0.7,0.8-1.3,1.1-2c0.3-0.6,0.6-1.2,0.9-1.9c0.1-0.3,0.3-0.7,0.4-1
		c0.1-0.3,0.2-0.7,0.3-1c0.9-2.6,1.4-5.2,1.5-7.7c0.2-2.4,0-4.7-0.3-6.7c-0.4-2-0.8-3.7-1.3-5c-0.2-0.7-0.5-1.3-0.7-1.8
		c-0.2-0.5-0.4-1-0.6-1.3c-0.4-0.7-0.6-1.1-0.6-1.1s0.2,0.3,0.7,1c0.2,0.3,0.5,0.7,0.8,1.2c0.3,0.5,0.7,1.1,1,1.7
		c0.7,1.3,1.3,3,1.9,5c0.5,2,0.9,4.4,0.9,7c0,2.6-0.3,5.4-1.1,8.3c-0.1,0.4-0.2,0.7-0.3,1.1c-0.1,0.4-0.3,0.7-0.4,1.1
		c-0.2,0.7-0.6,1.5-0.9,2.2c-0.3,0.8-0.7,1.4-1.1,2.1c-0.4,0.8-0.9,1.4-1.3,2.1c-1.9,2.7-4.2,5.2-7,7.3c-2.8,2-5.9,3.7-9.2,4.9
		c-1.7,0.6-3.3,1-5,1.4c-0.8,0.2-1.7,0.3-2.6,0.4l-1.2,0.1l-0.6,0.1l-0.7,0c-3.4,0.2-6.9-0.2-10.1-1.2c-3.2-1-6-2.9-8.1-5.1
		c-2.1-2.3-3.4-5-3.9-7.6c-0.1-0.7-0.2-1.4-0.2-1.9c0-0.7,0-1.3,0.1-1.9c0.2-1.2,0.5-2.3,1-3.3c0.9-2,2.2-3.4,3.4-4.3
		c1.2-0.9,2.3-1.3,3.1-1.5c0.4-0.1,0.7-0.1,0.9-0.2C525,429.8,525.1,429.8,525.1,429.8z"/>
</g>
<g>
	<path d="M486.4,406.7c0.3,0.5,0.9,0.8,1.4,0.9c0.6,0.1,1.2,0,1.6-0.3c0.5-0.3,0.9-0.7,1.1-1.2c0.3-0.5,0.4-1,0.3-1.6
		c-0.1-0.5-0.3-1.1-0.6-1.4c-0.4-0.3-0.9-0.4-1.4-0.3c-0.2,0.1-0.5,0.2-0.6,0.3c-0.1,0.1-0.2,0.2-0.2,0.2c-0.1,0.1-0.1,0.2-0.2,0.3
		c-0.1,0.4,0,0.9,0.2,1.3l-0.5-0.2c1-0.3,1.7-1.4,1.6-2.5c0-0.3-0.1-0.5-0.2-0.7l0-0.1c0,0,0,0,0-0.1c0-0.1-0.1-0.1-0.1-0.2
		c-0.1-0.1-0.2-0.1-0.3-0.2c-0.4-0.3-1-0.4-1.5-0.4c-0.5,0-1.1,0.2-1.5,0.5c-0.2,0.2-0.4,0.4-0.4,0.6c-0.1,0.2-0.1,0.4,0,0.6
		c0.1,0.2,0.2,0.3,0.4,0.3c0,0,0.1,0,0.1,0c0,0,0,0,0.1,0c0.1,0,0.1-0.1,0.2-0.2c0.1-0.2,0.1-0.4,0-0.6c-0.1-0.2-0.3-0.5-0.4-0.7
		l0.1,0.1c-0.1-0.1-0.3-0.2-0.5-0.2c-0.2,0-0.3-0.1-0.5-0.1c-0.4,0-0.7,0.1-1.1,0.2c-0.7,0.3-1.3,0.8-1.5,1.5c0,0.1,0,0.2,0,0.3
		l0,0.3c0,0.2,0,0.4,0.1,0.6c0.1,0.4,0.3,0.7,0.6,1c0.5,0.6,1.4,0.9,2.2,0.8c-0.2,0-0.4,0.1-0.6,0.1c-0.2,0-0.4,0-0.6-0.1
		c-0.4-0.1-0.8-0.3-1.1-0.6c-0.3-0.3-0.6-0.6-0.8-1c-0.1-0.2-0.1-0.4-0.2-0.6c0-0.1,0-0.2,0-0.4c0-0.1,0-0.2,0-0.3
		c0.2-0.9,0.9-1.7,1.7-2c0.4-0.2,0.9-0.3,1.3-0.3c0.2,0,0.5,0,0.7,0.1c0.2,0.1,0.5,0.1,0.7,0.3l0,0l0,0.1c0.2,0.2,0.5,0.5,0.6,0.9
		c0.2,0.4,0.2,0.9,0,1.3c-0.1,0.2-0.2,0.4-0.4,0.5c-0.1,0.1-0.2,0.1-0.4,0.2c-0.1,0-0.2,0.1-0.4,0c-0.5,0-0.9-0.4-1.2-0.8
		c-0.2-0.5-0.2-0.9,0-1.3c0.2-0.4,0.4-0.7,0.7-1c0.6-0.5,1.3-0.8,2.1-0.8c0.7,0,1.5,0.1,2.1,0.6c0.2,0.1,0.3,0.2,0.5,0.4
		c0.1,0.1,0.1,0.1,0.2,0.2c0,0,0,0,0.1,0.1l0.1,0.1c0.2,0.3,0.3,0.7,0.4,1.1c0.1,0.8-0.1,1.5-0.5,2.2c-0.4,0.6-1,1.1-1.8,1.3
		l-0.3,0.1l-0.2-0.2c-0.5-0.6-0.6-1.4-0.4-2.2c0.1-0.2,0.2-0.4,0.3-0.5c0.1-0.2,0.3-0.3,0.4-0.4c0.3-0.2,0.6-0.4,1-0.5
		c0.7-0.2,1.5,0,2,0.6c0.5,0.5,0.7,1.2,0.8,1.9c0,0.7-0.1,1.4-0.5,1.9c-0.3,0.6-0.8,1-1.4,1.3c-0.6,0.3-1.3,0.4-1.9,0.2
		C487.2,407.7,486.7,407.3,486.4,406.7z"/>
</g>
<g>
	<path d="M496.8,414.3c-0.6-0.2-1.1-0.7-1.3-1.3c-0.2-0.6-0.2-1.3,0-1.9c0.2-0.6,0.7-1.1,1.2-1.5c0.5-0.4,1.2-0.6,1.8-0.7
		c0.7,0,1.4,0.1,1.9,0.6c0.6,0.5,0.8,1.2,0.7,2c0,0.4-0.2,0.7-0.4,1c-0.1,0.2-0.2,0.3-0.4,0.4c-0.1,0.1-0.3,0.2-0.5,0.3
		c-0.7,0.3-1.5,0.3-2.2-0.2l-0.2-0.2l0-0.3c0.1-0.8,0.6-1.5,1.2-1.9c0.6-0.5,1.3-0.7,2.1-0.7c0.4,0,0.8,0.1,1.1,0.3l0.1,0.1
		c0.1,0.1,0.1,0.1,0.1,0.1c0.1,0,0.1,0.1,0.2,0.1c0.2,0.1,0.3,0.3,0.4,0.4c0.5,0.6,0.7,1.3,0.8,2.1c0,0.7-0.1,1.5-0.6,2.1
		c-0.2,0.3-0.5,0.6-0.9,0.8c-0.4,0.2-0.8,0.3-1.3,0.1c-0.4-0.2-0.8-0.5-0.9-1.1c0-0.1,0-0.3,0-0.4c0-0.2,0.1-0.3,0.1-0.4
		c0.1-0.2,0.3-0.4,0.5-0.5c0.4-0.2,0.9-0.2,1.3-0.1c0.4,0.1,0.7,0.3,0.9,0.6l0.1,0l0,0c0.1,0.2,0.2,0.4,0.3,0.6
		c0.1,0.2,0.1,0.5,0.1,0.7c0,0.5,0,0.9-0.2,1.4c-0.3,0.8-0.9,1.6-1.9,1.9c-0.1,0-0.2,0-0.3,0.1c-0.1,0-0.2,0-0.4,0
		c-0.2,0-0.4-0.1-0.7-0.1c-0.4-0.1-0.8-0.4-1.1-0.7c-0.3-0.3-0.6-0.7-0.7-1.1c-0.1-0.2-0.1-0.4-0.1-0.6c0-0.2,0-0.4,0-0.6
		c0,0.8,0.4,1.6,1,2.1c0.3,0.2,0.7,0.4,1,0.5c0.2,0,0.4,0.1,0.6,0.1l0.3,0c0.1,0,0.2-0.1,0.3-0.1c0.7-0.2,1.2-0.9,1.4-1.6
		c0.1-0.4,0.1-0.7,0.1-1.1c0-0.2-0.1-0.4-0.1-0.5c-0.1-0.2-0.2-0.3-0.3-0.5l0.1,0.1c-0.2-0.2-0.5-0.3-0.7-0.4
		c-0.2-0.1-0.4,0-0.6,0.1c-0.1,0-0.1,0.1-0.2,0.2c0,0,0,0.1,0,0.1c0,0.1,0,0.1,0,0.1c0,0.1,0.2,0.3,0.3,0.3c0.1,0.1,0.4,0,0.6-0.1
		c0.2-0.1,0.4-0.3,0.5-0.5c0.3-0.4,0.4-1,0.4-1.5c0-0.5-0.2-1.1-0.6-1.5c-0.1-0.1-0.2-0.2-0.2-0.2c0,0-0.1-0.1-0.2-0.1
		c0,0-0.1-0.1-0.1,0l-0.1,0c-0.2-0.1-0.5-0.2-0.7-0.2c-1,0-2.1,0.8-2.3,1.8l-0.2-0.5c0.3,0.3,0.9,0.3,1.3,0.1
		c0.1-0.1,0.2-0.1,0.3-0.2c0.1-0.1,0.2-0.1,0.2-0.2c0.1-0.2,0.2-0.4,0.3-0.7c0.1-0.5-0.1-1-0.4-1.3c-0.3-0.3-0.9-0.5-1.4-0.5
		c-0.6,0-1.1,0.1-1.6,0.5c-0.5,0.3-0.9,0.7-1.1,1.2c-0.3,0.5-0.3,1.1-0.2,1.7C495.9,413.5,496.3,414.1,496.8,414.3z"/>
</g>
<g>
	<path d="M523.6,447.3c0.6,0.1,1.2-0.1,1.7-0.4c0.5-0.4,0.8-0.9,0.9-1.4c0.1-0.6,0-1.1-0.2-1.7c-0.2-0.5-0.5-1-1-1.3
		c-0.4-0.3-1-0.5-1.5-0.5c-0.5,0.1-0.9,0.4-1.1,0.8c-0.1,0.2-0.2,0.5-0.2,0.7c0,0.1,0,0.2,0,0.3c0,0.2,0.1,0.2,0.1,0.3
		c0.2,0.4,0.7,0.7,1.1,0.7l-0.4,0.3c0.5-0.9,0.1-2.2-0.8-2.8c-0.2-0.2-0.4-0.3-0.7-0.3l-0.1,0c0,0-0.1,0-0.1,0c-0.1,0-0.2,0-0.2,0
		c-0.1,0-0.2,0-0.3,0.1c-0.5,0.1-1,0.4-1.3,0.8c-0.4,0.4-0.6,0.9-0.6,1.5c0,0.3,0,0.5,0.1,0.7c0.1,0.2,0.3,0.4,0.4,0.4
		c0.2,0.1,0.4,0,0.5-0.1c0,0,0,0,0.1-0.1c0,0,0,0,0-0.1c0-0.1,0-0.2,0-0.3c-0.1-0.2-0.2-0.3-0.4-0.4c-0.2-0.1-0.5-0.1-0.8-0.1l0.1,0
		c-0.2,0.1-0.3,0.1-0.5,0.2c-0.1,0.1-0.3,0.2-0.4,0.3c-0.3,0.3-0.5,0.6-0.6,0.9c-0.3,0.7-0.3,1.5,0.2,2.1c0,0.1,0.1,0.2,0.2,0.2
		l0.2,0.2c0.1,0.1,0.3,0.2,0.5,0.3c0.4,0.2,0.7,0.2,1.1,0.2c0.8,0,1.6-0.4,2.1-1.1c-0.1,0.2-0.2,0.4-0.4,0.5
		c-0.1,0.2-0.3,0.3-0.5,0.4c-0.4,0.2-0.8,0.4-1.2,0.4c-0.4,0.1-0.9,0-1.3-0.1c-0.2-0.1-0.4-0.2-0.6-0.3c-0.1-0.1-0.2-0.1-0.3-0.2
		c-0.1-0.1-0.1-0.1-0.2-0.2c-0.6-0.7-0.6-1.8-0.4-2.6c0.1-0.4,0.4-0.8,0.7-1.2c0.2-0.2,0.3-0.3,0.5-0.5c0.2-0.1,0.4-0.2,0.6-0.3l0,0
		l0.1,0c0.3,0,0.7,0,1.1,0.1c0.4,0.1,0.8,0.4,1,0.8c0.1,0.2,0.1,0.4,0.1,0.7c0,0.1,0,0.2-0.1,0.4c0,0.1-0.1,0.2-0.2,0.3
		c-0.4,0.4-0.9,0.5-1.3,0.3c-0.5-0.1-0.8-0.5-1-0.9c-0.2-0.4-0.2-0.8-0.2-1.1c0-0.8,0.3-1.5,0.8-2.1c0.5-0.6,1.1-1,1.9-1.2
		c0.2,0,0.4-0.1,0.6-0.1c0.1,0,0.2,0,0.2,0c0.1,0,0,0,0.2,0l0.1,0c0.4,0.1,0.8,0.2,1.1,0.5c0.6,0.5,1,1.1,1.2,1.8
		c0.2,0.7,0.1,1.5-0.2,2.2l-0.1,0.3l-0.3,0c-0.8,0-1.5-0.5-1.8-1.2c-0.1-0.1-0.2-0.4-0.2-0.5c0-0.2-0.1-0.4,0-0.6
		c0-0.4,0.1-0.7,0.3-1c0.4-0.6,1-1.1,1.8-1.1c0.7-0.1,1.4,0.3,1.9,0.7c0.5,0.4,0.9,1,1.1,1.6c0.2,0.6,0.2,1.3,0,1.9
		c-0.2,0.6-0.6,1.2-1.1,1.5C524.8,447.4,524.2,447.6,523.6,447.3z"/>
</g>
<g>
	<path d="M530.1,447.6c-0.6,0.2-1.3,0.1-1.8-0.3c-0.5-0.3-0.9-0.9-1.1-1.5c-0.2-0.6-0.2-1.3,0-1.9c0.2-0.6,0.6-1.2,1.1-1.6
		c0.5-0.4,1.2-0.7,1.9-0.7c0.7,0,1.4,0.5,1.8,1.1c0.2,0.3,0.3,0.7,0.3,1c0,0.2,0,0.4,0,0.6c0,0.1-0.1,0.4-0.2,0.5
		c-0.4,0.7-1,1.1-1.8,1.2l-0.3,0l-0.1-0.3c-0.4-0.7-0.4-1.5-0.2-2.2c0.2-0.7,0.6-1.4,1.2-1.8c0.3-0.2,0.7-0.4,1.1-0.5l0.1,0
		c0.1,0,0.1,0,0.2,0c0.1,0,0.2,0,0.2,0c0.2,0,0.4,0,0.6,0.1c0.8,0.2,1.4,0.6,1.9,1.2c0.5,0.6,0.8,1.3,0.8,2.1c0,0.4-0.1,0.8-0.2,1.1
		c-0.2,0.4-0.5,0.7-1,0.9c-0.5,0.1-1,0-1.3-0.3c-0.1-0.1-0.2-0.2-0.2-0.3c-0.1-0.2-0.1-0.3-0.1-0.4c0-0.2,0-0.5,0.1-0.7
		c0.2-0.4,0.6-0.7,1-0.8c0.4-0.1,0.8-0.1,1.1-0.1l0.1,0l0,0c0.2,0.1,0.4,0.2,0.6,0.3c0.2,0.1,0.4,0.3,0.5,0.5
		c0.3,0.4,0.5,0.8,0.7,1.2c0.3,0.9,0.2,1.9-0.4,2.6c-0.1,0.1-0.1,0.2-0.2,0.2c-0.1,0.1-0.2,0.2-0.3,0.2c-0.2,0.1-0.4,0.2-0.6,0.3
		c-0.4,0.1-0.9,0.2-1.3,0.1c-0.4-0.1-0.8-0.2-1.2-0.4c-0.2-0.1-0.3-0.3-0.5-0.4c-0.1-0.2-0.3-0.3-0.4-0.5c0.5,0.7,1.3,1,2.1,1.1
		c0.4,0,0.8-0.1,1.1-0.2c0.2-0.1,0.3-0.2,0.5-0.3l0.2-0.2c0.1-0.1,0.1-0.2,0.2-0.2c0.4-0.6,0.4-1.4,0.2-2.1
		c-0.1-0.3-0.3-0.7-0.6-0.9c-0.1-0.1-0.3-0.2-0.4-0.3c-0.2-0.1-0.3-0.2-0.5-0.2l0.1,0c-0.3,0-0.6,0-0.8,0.1
		c-0.2,0.1-0.4,0.2-0.4,0.4c0,0.1,0,0.2,0,0.3c0,0,0,0.1,0,0.1c0,0.1,0,0.1,0.1,0.1c0.1,0.1,0.3,0.1,0.5,0.1c0.1,0,0.3-0.2,0.4-0.4
		c0.1-0.2,0.1-0.5,0.1-0.7c0-0.5-0.2-1-0.6-1.5c-0.4-0.4-0.8-0.7-1.3-0.8c-0.1,0-0.2,0-0.3-0.1c-0.1,0-0.2,0-0.2,0c0,0-0.1,0-0.1,0
		l-0.1,0c-0.2,0-0.5,0.1-0.7,0.3c-0.9,0.6-1.2,1.9-0.8,2.8l-0.4-0.2c0.4,0,0.9-0.3,1.1-0.7c0.1-0.1,0.1-0.2,0.1-0.3
		c0-0.1,0-0.2,0-0.3c0-0.2-0.1-0.5-0.2-0.7c-0.2-0.4-0.6-0.7-1.1-0.8c-0.5-0.1-1,0.1-1.5,0.5c-0.4,0.3-0.8,0.8-1,1.3
		c-0.2,0.5-0.3,1.1-0.2,1.7c0.1,0.6,0.4,1.1,0.9,1.4C528.9,447.6,529.5,447.8,530.1,447.6z"/>
</g>
<g>
	<path d="M486.3,414.7c0,0,0.3-0.1,0.8-0.4c0.5-0.2,1.2-0.6,2.1-1.2c1.8-1.1,4.1-3.1,6.2-6c1.1-1.5,2.1-3.2,2.9-5.1
		c0.9-1.9,1.6-4,2.2-6.2c0.6-2.2,1.1-4.5,1.5-6.9c0.4-2.4,0.7-4.8,1-7.2c0.3-2.4,0.4-4.9,0.5-7.3c0.1-2.4,0.1-4.8,0-7.1
		c-0.1-2.3-0.2-4.5-0.4-6.6c-0.2-2.1-0.4-4.1-0.7-5.9c-0.3-1.8-0.5-3.5-0.8-4.9c-0.3-1.5-0.6-2.7-0.8-3.8c-0.2-1-0.5-1.9-0.6-2.4
		c-0.1-0.6-0.2-0.9-0.2-0.9s0.1,0.3,0.2,0.9c0.1,0.6,0.4,1.4,0.6,2.4c0.2,1,0.6,2.3,0.8,3.8c0.3,1.5,0.6,3.1,0.9,4.9
		c0.3,1.8,0.6,3.8,0.8,5.9c0.2,2.1,0.4,4.3,0.5,6.6c0.1,2.3,0.1,4.7,0.1,7.1c-0.1,2.4-0.2,4.9-0.4,7.3c-0.2,2.5-0.5,4.9-0.9,7.3
		c-0.4,2.4-0.8,4.7-1.4,7c-0.6,2.2-1.3,4.4-2.2,6.3c-0.9,1.9-1.9,3.7-2.9,5.2c-2.2,3.1-4.6,5.1-6.4,6.3c-0.9,0.6-1.7,1-2.2,1.3
		c-0.5,0.2-0.8,0.4-0.8,0.4L486.3,414.7z"/>
</g>
<g>
	<path d="M564,452.8c0,0,0.7-0.9,2-2.5c0.6-0.8,1.5-1.7,2.3-2.9c0.4-0.6,0.9-1.2,1.3-1.8c0.5-0.6,1-1.3,1.4-2c0.9-1.5,2-3,3-4.8
		c0.5-0.9,1-1.8,1.5-2.7c0.5-0.9,0.9-1.9,1.4-2.9c0.2-0.5,0.5-1,0.7-1.5c0.2-0.5,0.4-1,0.6-1.5c0.4-1,0.9-2.1,1.3-3.1
		c0.4-1.1,0.7-2.2,1.1-3.3c0.4-1.1,0.6-2.2,0.9-3.3l0.4-1.7c0.1-0.6,0.2-1.1,0.3-1.7c0.2-1.1,0.5-2.3,0.6-3.4
		c0.1-1.1,0.3-2.3,0.4-3.4c0.1-1.1,0.1-2.2,0.2-3.3c0-0.5,0.1-1.1,0-1.6c0-0.5,0-1.1-0.1-1.6c-0.1-1,0-2.1-0.2-3.1
		c-0.2-2-0.4-3.9-0.8-5.6c-0.2-0.9-0.3-1.7-0.5-2.5c-0.2-0.8-0.4-1.5-0.6-2.2c-0.4-1.4-0.7-2.6-1.1-3.5c-0.7-1.9-1.1-3-1.1-3
		s0.4,1.1,1.1,3c0.4,0.9,0.7,2.1,1.1,3.5c0.2,0.7,0.4,1.4,0.6,2.2c0.2,0.8,0.3,1.6,0.5,2.5c0.4,1.7,0.6,3.6,0.8,5.6
		c0.1,1,0.1,2,0.2,3.1c0,0.5,0.1,1.1,0.1,1.6c0,0.5,0,1.1,0,1.6c0,1.1,0,2.2-0.1,3.3c-0.1,1.1-0.2,2.3-0.3,3.4
		c-0.1,1.1-0.4,2.3-0.5,3.4c-0.1,0.6-0.2,1.1-0.3,1.7l-0.4,1.7c-0.3,1.1-0.5,2.3-0.9,3.4c-0.4,1.1-0.7,2.2-1.1,3.3
		c-0.4,1.1-0.8,2.1-1.2,3.2c-0.2,0.5-0.4,1-0.6,1.6c-0.2,0.5-0.5,1-0.7,1.5c-0.5,1-0.9,2-1.4,2.9c-0.5,0.9-1,1.8-1.5,2.7
		c-0.9,1.8-2,3.3-2.9,4.8c-0.5,0.8-0.9,1.4-1.4,2.1c-0.5,0.7-0.9,1.3-1.3,1.9c-0.8,1.2-1.6,2.1-2.2,2.9c-1.3,1.6-2,2.5-2,2.5
		L564,452.8z"/>
</g>
<g>
	<path d="M518.4,428.6c0,0-0.3-0.1-0.7-0.4c-0.5-0.2-1.1-0.6-1.9-1c-1.5-0.8-3.5-2.1-5.5-3.3c-2-1.3-3.9-2.6-5.3-3.7
		c-0.7-0.5-1.3-1-1.7-1.3c-0.4-0.3-0.6-0.5-0.6-0.5s0.3,0.1,0.7,0.4c0.5,0.2,1.1,0.6,1.9,1c1.5,0.8,3.5,2.1,5.5,3.3
		c2,1.3,3.9,2.6,5.3,3.7c0.7,0.5,1.3,1,1.7,1.3C518.2,428.4,518.4,428.6,518.4,428.6z"/>
</g>
<g>
	<polygon points="503.6,414.1 512.5,421.7 503,414.9 	"/>
</g>
<line fill="none" stroke="#000000" stroke-miterlimit="10" x1="496.6" y1="410" x2="491.1" y2="405.7"/>
<g>
	<path d="M582.4,438.2c0,0,0.3-0.5,0.9-1.3c0.3-0.4,0.6-0.9,0.9-1.5c0.3-0.6,0.8-1.3,1.1-2c0.4-0.8,0.8-1.6,1.2-2.5
		c0.4-0.9,0.8-1.8,1.2-2.8c0.3-1,0.7-2,1-3.1c0.1-0.5,0.3-1.1,0.4-1.6l0.4-1.7c0.1-0.6,0.2-1.1,0.3-1.7c0.1-0.6,0.2-1.1,0.2-1.7
		c0.1-1.1,0.2-2.2,0.3-3.3c0-1.1,0-2.1,0-3.1c-0.1-1-0.1-1.9-0.2-2.7c-0.1-0.8-0.2-1.6-0.3-2.3c-0.1-0.7-0.2-1.3-0.3-1.8
		c-0.2-1-0.3-1.5-0.3-1.5s0.1,0.6,0.4,1.5c0.1,0.5,0.3,1.1,0.4,1.8c0.1,0.3,0.1,0.7,0.2,1.1c0,0.4,0.1,0.8,0.2,1.2
		c0.1,0.8,0.2,1.8,0.2,2.8c0.1,1,0.1,2,0,3.1c0,1.1-0.1,2.2-0.2,3.3c0,0.6-0.1,1.1-0.2,1.7c-0.1,0.6-0.2,1.1-0.3,1.7l-0.4,1.7
		c-0.1,0.6-0.3,1.1-0.5,1.6c-0.3,1.1-0.7,2.1-1.1,3.1c-0.4,1-0.8,2-1.2,2.8c-0.4,0.9-0.8,1.7-1.2,2.5c-0.4,0.8-0.8,1.4-1.2,2
		c-0.4,0.6-0.7,1.1-1,1.5C582.7,437.7,582.4,438.2,582.4,438.2z"/>
</g>
<g>
	<path d="M589.2,430.6c0,0,0.1-0.2,0.4-0.7c0.2-0.4,0.5-1.1,0.9-1.8c0.7-1.5,1.4-3.7,1.8-5.9c0.4-2.2,0.4-4.5,0.3-6.1
		c-0.1-0.8-0.2-1.5-0.3-2c-0.1-0.5-0.1-0.8-0.1-0.8s0.1,0.3,0.2,0.8c0.1,0.5,0.3,1.2,0.4,2c0.2,1.7,0.2,4-0.1,6.2
		c-0.4,2.2-1.2,4.4-1.9,5.9c-0.4,0.8-0.7,1.4-1,1.8C589.4,430.3,589.2,430.6,589.2,430.6z"/>
</g>
<g>
	<path d="M499.7,373c0,0,0.1-0.4,0.2-1.1c0.1-0.7,0.2-1.7,0.3-2.9c0.2-2.4,0.3-5.6-0.1-8.8c-0.1-1.6-0.4-3.2-0.7-4.6
		c-0.2-0.7-0.3-1.4-0.5-2.1c-0.2-0.7-0.3-1.3-0.5-1.9c-0.3-1.2-0.6-2.1-0.9-2.8c-0.2-0.7-0.4-1-0.4-1s0.1,0.4,0.4,1
		c0.3,0.7,0.6,1.6,0.9,2.7c0.7,2.3,1.4,5.4,1.7,8.6c0.3,3.2,0.2,6.4,0,8.8c-0.1,1.2-0.3,2.2-0.4,2.9
		C499.8,372.6,499.7,373,499.7,373z"/>
</g>
<g>
	<path d="M496.9,367.9c0,0,0-1,0-2.6c0-1.6-0.2-3.7-0.5-5.7c-0.3-2.1-0.7-4.1-1.1-5.6c-0.4-1.5-0.7-2.5-0.7-2.5s0.1,0.2,0.2,0.7
		c0.1,0.4,0.4,1.1,0.6,1.8c0.4,1.5,0.9,3.6,1.2,5.6c0.3,2.1,0.4,4.2,0.4,5.7c0,0.8,0,1.4-0.1,1.9C497,367.7,496.9,367.9,496.9,367.9
		z"/>
</g>
<g>
	<path d="M529.7,381.8c0,0-0.2,0.4-0.5,1c-0.4,0.6-0.9,1.4-1.8,2.3c-0.9,0.8-2.1,1.7-3.6,2.2c-0.8,0.2-1.6,0.4-2.5,0.2
		c-0.4-0.1-0.9-0.3-1.2-0.5c-0.4-0.3-0.7-0.6-1-0.9c-0.5-0.7-0.9-1.5-1-2.4c0-0.2,0-0.4,0-0.7c0-0.2,0-0.4,0-0.6
		c0.1-0.4,0.2-0.8,0.3-1.2c0.3-0.8,0.8-1.4,1.6-1.8c0.4-0.2,0.8-0.3,1.2-0.2c0.1,0,0.4,0.1,0.5,0.2c0.2,0.1,0.3,0.2,0.4,0.3
		c0.5,0.5,0.7,1,0.9,1.5c0.2,0.5,0.2,0.9,0.2,1.3c0,0.4,0,0.6,0,0.8c0,0.2-0.1,0.3-0.1,0.3s0-0.4-0.1-1.1c-0.1-0.6-0.5-1.6-1.3-2.3
		c-0.1-0.1-0.2-0.1-0.3-0.2c-0.1,0-0.2-0.1-0.4-0.1c-0.2,0-0.5,0-0.7,0.2c-0.5,0.3-0.8,0.9-1.1,1.5c-0.1,0.3-0.2,0.7-0.2,1
		c0,0.1,0,0.3,0,0.5c0,0.1,0,0.3,0,0.5c0.1,0.7,0.4,1.4,0.8,1.9c0.2,0.3,0.5,0.5,0.7,0.7c0.3,0.2,0.6,0.3,0.9,0.4
		c0.6,0.2,1.4,0.1,2-0.1c1.4-0.4,2.5-1.1,3.4-1.8c0.9-0.7,1.6-1.4,2-2C529.4,382.1,529.7,381.8,529.7,381.8z"/>
</g>
</svg>
