<?xml version="1.0" encoding="utf-8"?>
<!-- Generator: Adobe Illustrator 18.1.1, SVG Export Plug-In . SVG Version: 6.00 Build 0)  -->
<svg version="1.1" id="Layer_1" xmlns="http://www.w3.org/2000/svg" xmlns:xlink="http://www.w3.org/1999/xlink" x="0px" y="0px"
	 viewBox="0 0 792 1224" enable-background="new 0 0 792 1224" xml:space="preserve">
<rect fill="#FFFFFF" stroke="#FFFFFF" stroke-miterlimit="10" width="786.1" height="1218.1"/>
<path fill="#B5E2D0" stroke="#16AB97" stroke-width="6.75" stroke-miterlimit="10" d="M446.9,1099c-5.6,2.5-10.4,6.9-13.3,12.3
	c0.3,0.7,0.6,1.3,1,2c-0.5-6.3-6.9-11.4-13.1-10.6c0.1,6.1,3.8,12,9.2,14.7c-8.5-2.1-18,1.3-23.3,8.1c8.4,4.6,20,2.3,25.9-5.3
	c-4.2,7.1-3.4,16.7,1.9,23c5.3-5.5,6.9-14.4,3.7-21.4c3.9,5,10.8,7.5,17,6.3c-2.2-6.7-8.4-11.8-15.3-12.7
	C446,1112.4,448.8,1105.1,446.9,1099z"/>
<path fill="#C49A6C" stroke="#754C29" stroke-width="6.75" stroke-miterlimit="10" d="M394.1,1128.9c-7.9,1.8-15.1,6.2-20.3,12.3
	c0.2,0.9,0.5,1.9,0.7,2.8c0.9-8.2-5.9-16.4-14-17c-1.5,7.8,1.7,16.3,7.9,21.3c-10.3-4.9-23.4-3.1-32,4.3c9.6,8.1,25,8.1,34.6,0.1
	c-7.2,8-8.7,20.6-3.6,30c8.3-5.7,12.6-16.7,10.3-26.5c3.7,7.4,11.8,12.5,20.1,12.6c-1.1-9.1-7.7-17.3-16.3-20.3
	C389.4,1145.8,395,1137.2,394.1,1128.9z"/>
<path fill="#C49A6C" stroke="#754C29" stroke-width="6.75" stroke-miterlimit="10" d="M385.1,1177.9c1.4-7.9,0.1-16.3-3.6-23.5
	c-1-0.1-1.9-0.3-2.9-0.4c7.2,4,17.4,0.9,21.1-6.5c-6.7-4.3-15.7-4.7-22.7-0.8c8.4-7.7,11.8-20.4,8.3-31.2
	c-11.1,5.7-17.1,20-13.3,31.9c-4.6-9.7-15.7-15.9-26.4-14.8c2.1,9.8,10.6,18,20.5,19.7c-8.3,0.6-16.1,6.1-19.3,13.8
	c8.8,2.5,18.9-0.5,25-7.3C371.2,1167.2,377.1,1175.6,385.1,1177.9z"/>
<path fill="#FFCC99" stroke="#F7941E" stroke-width="4.5" stroke-miterlimit="10" d="M446.9,42.4c-5.6,2.5-10.4,6.9-13.3,12.3
	c0.3,0.7,0.6,1.3,1,2c-0.5-6.3-6.9-11.4-13.1-10.6c0.1,6.1,3.8,11.9,9.2,14.7c-8.5-2.1-18,1.3-23.3,8.1c8.4,4.6,20,2.3,25.9-5.3
	c-4.2,7.1-3.4,16.7,1.9,23c5.3-5.5,6.9-14.4,3.7-21.4c3.9,5,10.8,7.5,17,6.3c-2.2-6.7-8.4-11.8-15.3-12.7
	C446,55.8,448.8,48.5,446.9,42.4z"/>
<path fill="#B5E2D0" stroke="#16AB97" stroke-width="6.75" stroke-miterlimit="10" d="M394.1,72.3c-7.9,1.8-15.1,6.2-20.3,12.3
	c0.2,0.9,0.5,1.9,0.7,2.8c0.9-8.2-5.9-16.4-14-17c-1.5,7.8,1.7,16.3,7.9,21.3c-10.3-4.9-23.4-3.1-32,4.3c9.6,8.1,25,8.1,34.6,0.1
	c-7.2,8-8.7,20.6-3.6,30c8.3-5.7,12.6-16.7,10.3-26.5c3.7,7.4,11.8,12.5,20.1,12.6c-1.1-9.1-7.7-17.3-16.3-20.3
	C389.4,89.2,395,80.6,394.1,72.3z"/>
<path fill="#B5E2D0" stroke="#16AB97" stroke-width="6.75" stroke-miterlimit="10" d="M385.1,121.4c1.4-7.9,0.1-16.3-3.6-23.5
	c-1-0.1-1.9-0.3-2.9-0.4c7.2,4,17.4,0.9,21.1-6.5c-6.7-4.3-15.7-4.7-22.7-0.8c8.4-7.7,11.8-20.4,8.3-31.2
	c-11.1,5.7-17.1,20-13.3,31.9c-4.6-9.7-15.7-15.9-26.4-14.8c2.1,9.8,10.6,18,20.5,19.7c-8.3,0.6-16.1,6.1-19.3,13.8
	c8.8,2.5,18.9-0.5,25-7.3C371.2,110.6,377.1,119,385.1,121.4z"/>
<g>
	<path fill="#16AB97" d="M237.8,448.9c-5.4-1.5-10.8-3.1-16.2-4.9c-5.3-1.8-10.7-3.8-15.9-6.2c-5.2-2.4-10.2-5.3-15-8.7
		c-1.2-0.9-2.3-1.8-3.5-2.7c-0.5-0.5-1.1-1-1.6-1.5l-0.8-0.8l-0.2-0.2l-0.2-0.2l-0.1-0.1l-0.3-0.4c-0.9-1.1-1.9-2-2.8-3.3l-1.4-1.8
		c-0.5-0.6-0.9-1.2-1.3-1.8c-3.4-4.9-6.1-10.2-7.8-16c-1.7-5.7-2.5-11.8-2-17.9c0-0.4,0-0.8,0.1-1.1l0.2-1.1l0.4-2.3
		c0.2-0.8,0.4-1.5,0.6-2.2c0.2-0.7,0.4-1.5,0.7-2.2l0.8-2.2c0.1-0.4,0.3-0.7,0.4-1.1l0.5-1l1.1-2.1l0.1-0.3l0-0.1
		c0,0.1,0.1-0.2,0.1-0.2l0.1-0.1l0.3-0.4l0.6-0.9c3.5-5.2,8.2-9.3,13.5-12.3c5.2-3,11-5,16.9-5.9c1.5-0.3,2.9-0.4,4.5-0.6l2.1-0.1
		l2.3-0.1c3,0,5.9,0.2,8.8,0.5c5.8,0.7,11.5,2.1,17,3.8c5.5,1.7,10.8,3.8,16,6.1c5.3,2.3,10.4,4.8,15.4,7.5c5,2.7,9.9,5.7,14.6,8.9
		c9.5,6.4,18.4,13.6,26.5,21.6l-3.5-0.8l8.1-2.8c2.7-0.8,5.5-1.7,8.2-2.5c2.8-0.7,5.5-1.5,8.3-2.2c2.8-0.7,5.6-1.3,8.4-2l8.4-1.7
		l8.5-1.4l8.5-1.2l8.5-0.9l8.6-0.6c2.9-0.1,5.7-0.2,8.6-0.3c2.9,0,5.7,0.1,8.6,0.1c1.4,0,2.9,0.1,4.3,0.2c1.4,0,2.9,0.1,4.3,0.2
		c1.4,0.1,2.9,0.4,4.3,0.6l4.3,0.7c2.8,0.5,5.6,1.1,8.5,1.7c2.8,0.7,5.6,1.4,8.3,2.2c2.7,0.9,5.5,1.8,8.2,2.7l0.9,0.3l0.1,0.8
		c0.6,3.5,1.2,6.9,1.7,10.4l1.7,10.4l-3.2-10c-1.1-3.3-2.1-6.7-3.1-10.1l1,1.1c-2.8-0.5-5.5-1.1-8.2-1.6c-2.8-0.4-5.5-0.8-8.3-1.1
		c-2.8-0.2-5.5-0.5-8.3-0.7l-8.3-0.3c-2.8-0.1-5.5-0.4-8.3-0.5c-2.8,0-5.6-0.1-8.3-0.1c-2.8,0.1-5.6,0.1-8.3,0.2l-8.3,0.6l-8.3,0.8
		l-8.3,1.1l-8.2,1.4l-8.2,1.7c-2.7,0.6-5.4,1.3-8.1,1.9c-2.7,0.7-5.4,1.5-8.1,2.2c-2.7,0.8-5.3,1.6-8,2.4l-7.9,2.7l-2,0.7l-1.5-1.5
		c-7.9-7.7-16.5-14.6-25.6-20.8c-4.6-3.1-9.3-5.9-14.1-8.6c-4.8-2.6-9.8-5.1-14.8-7.3c-5-2.2-10.2-4.2-15.4-5.8
		c-5.2-1.6-10.5-2.9-15.8-3.5c-2.6-0.3-5.3-0.5-7.9-0.5l-1.9,0l-2.1,0.1c-1.2,0.1-2.6,0.2-3.8,0.5c-2.6,0.4-5.1,1.1-7.6,1.9
		c-2.5,0.9-4.8,1.9-7.1,3.2c-4.5,2.5-8.4,6.1-11.2,10.1l-0.6,0.9l-0.3,0.4l-0.1,0.1c0,0,0.1-0.2,0-0.1l0,0.1l-0.1,0.2l-0.9,1.7
		l-0.4,0.8c-0.1,0.3-0.2,0.6-0.3,0.9l-0.7,1.8c-0.3,0.6-0.4,1.2-0.5,1.8c-0.2,0.6-0.4,1.2-0.5,1.8l-0.3,1.9l-0.2,0.9
		c0,0.3,0,0.6-0.1,1c-0.5,5.1,0.2,10.3,1.7,15.3c1.5,5,3.9,9.8,6.9,14.1c0.4,0.5,0.7,1.1,1.1,1.6l1.2,1.5c0.7,1,1.8,2,2.7,3l0.4,0.4
		l0.1,0.1l0,0c-0.2-0.2,0,0,0,0l0.2,0.2l0.7,0.7c0.5,0.5,1,0.9,1.4,1.4c1,0.9,1.9,1.8,2.9,2.8c4,3.6,8.4,6.8,13.1,9.8
		c4.7,2.9,9.6,5.5,14.6,8C227.6,444.2,232.7,446.5,237.8,448.9z"/>
</g>
<path fill="#B5E2D0" stroke="#16AB97" stroke-width="6.75" stroke-miterlimit="10" d="M383.2,445.5c47.1-2,96.2,7,134.1,35
	c37.9,28,61.7,77.7,50.3,123.4c-7.5,30.2-29.4,55.7-55.9,72s-57.6,24.2-88.6,27.5C362.9,710,295,696.9,257.7,649
	c-38.4-49.2-29.8-128.5,18.3-168.3C305.5,456.3,345,447.1,383.2,445.5z"/>
<g>
	<path fill="#16AB97" d="M453.2,381.3c0,0,0.4-0.7,1-2.2c0.7-1.4,1.7-3.5,3-6c1.3-2.6,3-5.7,5.1-9.2c0.5-0.9,1.1-1.8,1.7-2.7
		c0.6-0.9,1.2-1.9,1.9-2.8c0.6-1,1.5-1.8,2.3-2.7c0.8-0.9,1.7-1.8,2.6-2.7c1.8-1.8,3.7-3.6,5.9-5.4c1.1-0.9,2.2-1.7,3.3-2.6
		c0.6-0.4,1.2-0.8,1.8-1.2l0.9-0.6l0.2-0.2l0.3-0.2l0.4-0.3c0.6-0.4,1.2-0.7,1.8-1.1c0.7-0.4,1.4-0.7,2.1-1.1c0.7-0.4,1.4-0.7,2.1-1
		c0.7-0.3,1.4-0.7,2.1-0.9c2.9-1.2,6-2.1,9.2-2.8c6.4-1.3,13.5-1.5,20.3,0.5c3.4,1,6.8,2.4,9.7,4.5l0.6,0.4l0.6,0.5l1,0.8
		c0.6,0.5,1.2,0.9,1.9,1.7l2,2.1c0.6,0.7,1.1,1.4,1.7,2.1l0.8,1.1l0.7,1.2c0.5,0.8,1,1.5,1.4,2.3c0.8,1.6,1.6,3.2,2.1,4.9
		c0.7,1.7,1.1,3.4,1.5,5.1c0.2,0.9,0.3,1.7,0.5,2.6c0.1,0.9,0.3,1.7,0.4,2.6c0.1,0.9,0.1,1.7,0.2,2.6c0.1,0.9,0,1.7,0,2.6
		c0.1,1.7-0.1,3.4-0.2,5.1c-0.4,3.3-0.9,6.6-1.9,9.8c-0.9,3.2-2.2,6.1-3.5,9c-0.4,0.7-0.7,1.4-1.1,2c-0.4,0.6-0.7,1.3-1.1,1.9
		c-0.8,1.3-1.6,2.7-2.5,3.8c-3.4,4.8-7.1,9-10.7,12.5c-0.9,0.9-1.8,1.7-2.7,2.6c-0.8,0.9-1.7,1.6-2.7,2.3c-1.9,1.3-3.7,2.5-5.5,3.6
		c-3.4,2.2-6.5,3.9-9.1,5.3c-2.5,1.4-4.6,2.4-5.9,3.2c-1.4,0.7-2.1,1.1-2.1,1.1s2.4-2.3,6.5-6.3c2.1-2,4.6-4.4,7.4-7.2
		c1.4-1.4,2.8-2.9,4.3-4.6c0.7-0.8,1.5-1.6,2.4-2.3c0.9-0.8,1.7-1.6,2.6-2.4c3.4-3.3,6.8-7.1,9.9-11.5c0.8-1.1,1.5-2.2,2.2-3.3
		c0.4-0.5,0.7-1.2,1.1-1.8c0.3-0.6,0.7-1.2,1-1.8c1.2-2.5,2.3-5,3.1-7.8c0.8-2.7,1.3-5.6,1.7-8.5c0.1-1.5,0.3-2.9,0.2-4.4
		c0-0.7,0-1.5,0-2.2l-0.2-2.2c0-0.7-0.2-1.5-0.3-2.2c-0.1-0.7-0.2-1.5-0.4-2.2c-0.4-1.4-0.7-2.9-1.3-4.3c-0.4-1.4-1.1-2.7-1.7-4.1
		c-0.3-0.6-0.8-1.3-1.1-1.9l-0.6-0.9l-0.7-0.9c-0.4-0.6-0.9-1.2-1.3-1.7l-1.4-1.5c-0.4-0.5-1.1-1-1.7-1.5l-1-0.8l-0.2-0.2l-0.1-0.1
		l-0.1,0c0.1,0-0.2-0.2,0.1,0.1l-0.5-0.3c-2.4-1.7-5-2.8-7.8-3.6c-5.6-1.6-11.5-1.5-17.1-0.4c-2.8,0.6-5.5,1.4-8,2.5
		c-0.6,0.2-1.3,0.6-1.9,0.8c-0.6,0.3-1.2,0.6-1.8,0.9c-0.6,0.3-1.2,0.6-1.7,0.9c-0.6,0.4-1.2,0.7-1.8,1.1l-0.4,0.3l-0.1,0.1l-0.1,0
		c0.2-0.1,0,0,0,0l-0.2,0.1l-0.8,0.6c-0.5,0.4-1.1,0.7-1.6,1.1c-1,0.8-2.1,1.5-3,2.4c-2,1.6-3.7,3.3-5.4,4.9
		c-0.8,0.9-1.6,1.7-2.4,2.5c-0.7,0.9-1.4,1.7-2.2,2.5c-0.8,0.7-1.6,1.5-2.3,2.2c-0.8,0.7-1.5,1.4-2.2,2.1c-2.8,2.8-5.1,5.4-7.1,7.5
		c-2,2.1-3.5,3.8-4.5,4.9C453.8,380.7,453.2,381.3,453.2,381.3z"/>
</g>
<g>
	<path fill="#16AB97" d="M514,702.4l6.5,1.4l6.4,1.2l6.5,1l6.5,0.8l6.5,0.6c1.1,0.1,2.2,0.1,3.2,0.2c1.1,0.1,2.1,0.3,3.2,0.5
		c2.1,0.3,4.3,0.5,6.4,0.7l6.4,0.4l6.4,0.2l6.5-0.1l6.4-0.3l6.4-0.6l6.4-0.8l6.4-1l6.3-1.3l6.3-1.5l1-0.3l1,0.3
		c3.8,1.4,7.7,2.6,11.6,3.7c3.9,1.1,7.8,1.9,11.7,2.4c1.9,0.2,3.9,0.4,5.8,0.4c1.9,0,3.8-0.1,5.6-0.4c0.5-0.1,0.9-0.2,1.3-0.3
		c0.4-0.1,0.9-0.2,1.3-0.3c0.9-0.2,1.7-0.5,2.5-0.9c0.8-0.3,1.6-0.8,2.3-1.2c0.4-0.2,0.7-0.5,1.1-0.7l1-0.8l-0.5,4.5l-16.6-22.6
		l5.1,0.4l-1.3,1.2l-1.3,1.1l-1.4,1l-1.5,0.9l-1.5,0.8l-1.5,0.7l-1.6,0.6l-1.6,0.5l-1.6,0.4l-1.7,0.3l-1.7,0.2l-1.7,0.1l-1.7,0
		l-1.7-0.1l-1.7-0.2l-1.7-0.3l-8.3-1.5l7.2-4.7l21.6-14.1l-1.3,4l-0.5-1.2l-0.6-1.2l-0.7-1.1l-0.8-1.1l-0.9-1l-1-0.9l-1-0.9
		l-1.1-0.8c-0.4-0.2-0.8-0.5-1.2-0.7c-0.4-0.2-0.8-0.5-1.2-0.7l-1.2-0.7l-1.2-0.6l-1.3-0.5l-1.3-0.4l-1.4-0.3l-0.7-0.1l-0.3,0
		l-0.2,0l-0.1,0l0,0l0,0l0,0c0,0-0.1,0,0.1,0l-1.6,0l-1.3,0.1l-1.4,0.2l-1.4,0.3l-1.4,0.4l-1.4,0.6l-1.3,0.7l-1.3,0.8l-1.2,0.9
		l-1.2,1l-1.1,1.1l-1.1,1.1l-1,1.2l-0.9,1.3l-0.8,1.4l-0.7,1.5l0.3-1.6l0.5-1.6l0.6-1.5l0.7-1.5l0.9-1.4l1-1.4l1.1-1.3l1.2-1.2
		l1.3-1.1l1.4-1l1.5-0.9l1.5-0.8l1.6-0.7l1.7-0.6l1.8-0.5l1.6-0.3l1.9-0.1l1.8,0l1.8,0.2l1.8,0.3l1.8,0.5l1.8,0.6
		c0.6,0.2,1.1,0.5,1.7,0.8c0.5,0.3,1.1,0.6,1.6,1l1.5,1.1l1.4,1.2l1.3,1.3l1.2,1.4l1.1,1.5l1,1.6l0.9,1.7l0.7,1.7l1,2.5l-2.3,1.5
		l-21.6,14.1l-1.2-6.1l1.3,0.2l1.3,0.1l1.3,0.1l1.3,0l1.3-0.1l1.3-0.2l1.3-0.3l1.3-0.3l1.2-0.4l1.2-0.5l1.2-0.6l1.1-0.6l1.1-0.7
		l1-0.8l1-0.8l0.9-0.9l2.9-2.7l2.2,3.1l16.6,22.6l1.9,2.6l-2.4,1.9c-0.5,0.4-0.9,0.8-1.4,1.1c-0.5,0.3-1,0.7-1.5,1
		c-1,0.6-2.1,1.2-3.2,1.7c-1.1,0.5-2.2,0.9-3.3,1.2c-0.6,0.2-1.1,0.3-1.7,0.4c-0.6,0.1-1.1,0.2-1.7,0.3c-2.3,0.4-4.5,0.5-6.8,0.5
		c-2.2,0-4.4-0.2-6.6-0.4c-4.3-0.5-8.5-1.5-12.6-2.6c-4.1-1.1-8.1-2.5-12-3.9l2,0.1l-6.5,1.6l-6.6,1.3l-6.6,1.1l-6.7,0.8l-6.7,0.6
		l-6.7,0.3l-6.7,0.1l-6.7-0.2l-6.7-0.4c-2.2-0.2-4.4-0.5-6.7-0.6c-1.1-0.1-2.2-0.2-3.3-0.4c-1.1-0.2-2.2-0.5-3.3-0.7l-6.5-1.7
		l-6.4-2l-6.3-2.3c-2.1-0.8-4.1-1.7-6.2-2.5L514,702.4z"/>
</g>
<g>
	<path fill="#16AB97" d="M275.8,701.5l-5.5,3.6c-1.9,1.1-3.8,2.2-5.8,3.4l-5.9,3.1l-6.1,2.8l-6.2,2.6c-1,0.4-2.1,0.8-3.2,1.2
		c-1.1,0.4-2.1,0.6-3.2,0.9c-2.2,0.5-4.4,1-6.5,1.5l-6.6,1.3l-6.6,1.1l-6.7,0.8l-6.7,0.6l-6.7,0.3l-6.7,0.1l-6.7-0.2l-6.7-0.4
		l-6.7-0.7l2-0.4c-3.7,1.9-7.5,3.8-11.4,5.5c-3.9,1.7-7.9,3.2-12.1,4.3c-2.1,0.6-4.3,1-6.5,1.3c-2.2,0.3-4.5,0.5-6.8,0.4
		c-0.6,0-1.1,0-1.7-0.1c-0.6,0-1.2-0.1-1.7-0.2c-1.2-0.2-2.3-0.4-3.5-0.7c-1.1-0.3-2.3-0.7-3.4-1.2c-0.6-0.2-1.1-0.5-1.6-0.8
		c-0.5-0.3-1-0.6-1.6-0.9l-2.6-1.6l1.5-2.8l13.3-24.7l1.8-3.3l3.2,2.2l1,0.7l1.1,0.7l1.1,0.6l1.2,0.5l1.2,0.5l1.2,0.4l1.3,0.3
		l1.3,0.2l1.3,0.2l1.3,0.1l1.3,0l1.3-0.1l1.3-0.2l1.3-0.2l1.2-0.3l1.2-0.4l-0.3,6.2l-23.3-11l-2.5-1.2l0.7-2.6l0.5-1.8l0.6-1.8
		l0.8-1.7l0.9-1.6l1-1.6l1.1-1.5l1.2-1.4l1.3-1.3c0.5-0.4,0.9-0.8,1.4-1.2c0.5-0.4,1-0.7,1.6-1l1.7-0.8l1.7-0.7l1.8-0.6l1.8-0.4
		l1.8-0.3l1.9-0.1l1.6,0.1l1.9,0.2l1.8,0.3l1.7,0.5l1.6,0.6l1.6,0.7l1.5,0.8l1.4,0.9l1.3,1l1.3,1.1l1.1,1.2l1,1.3l0.9,1.4l0.8,1.4
		l0.7,1.5l0.5,1.5l-0.9-1.4l-1-1.3l-1-1.2l-1.1-1.1l-1.2-1l-1.3-0.9l-1.3-0.8l-1.4-0.7l-1.4-0.6l-1.4-0.5l-1.4-0.4l-1.4-0.2
		l-1.4-0.1l-1.4,0l-1.3,0.1l-1.6,0.2c0.2,0,0.1,0,0.1,0l0,0l0,0l0,0l-0.1,0l-0.2,0l-0.3,0.1l-0.7,0.2l-1.3,0.4l-1.3,0.5l-1.2,0.6
		l-1.2,0.7l-1.1,0.8c-0.3,0.3-0.7,0.6-1,0.9c-0.3,0.3-0.7,0.6-1,0.9l-1,0.9l-0.9,1l-0.8,1.1l-0.7,1.1l-0.6,1.2l-0.5,1.2l-0.4,1.2
		l-0.3,1.3l-1.9-3.8l23.3,11l7.7,3.6l-8,2.6l-1.6,0.5l-1.7,0.4l-1.7,0.3l-1.7,0.2l-1.7,0.1l-1.7,0l-1.7-0.1l-1.7-0.2l-1.7-0.3
		l-1.7-0.4l-1.6-0.5l-1.6-0.6l-1.6-0.7l-1.5-0.8l-1.5-0.9l-1.4-1l5-1.1l-13.3,24.7l-1.1-4.4l1.1,0.7c0.4,0.2,0.8,0.4,1.1,0.6
		c0.8,0.3,1.6,0.7,2.4,0.9c0.8,0.2,1.7,0.4,2.6,0.6c0.4,0.1,0.9,0.1,1.3,0.2c0.4,0.1,0.9,0.1,1.4,0.1c1.8,0.1,3.7-0.1,5.6-0.3
		c1.9-0.3,3.8-0.7,5.7-1.2c3.8-1,7.5-2.4,11.2-4c3.7-1.6,7.3-3.4,10.9-5.3l0.9-0.5l1.1,0.1l6.4,0.7l6.4,0.4l6.4,0.2l6.4-0.1l6.4-0.3
		l6.4-0.6l6.4-0.8l6.4-1.1l6.3-1.3c2.1-0.5,4.2-1,6.3-1.6c1-0.3,2-0.7,3.1-0.9c1-0.2,2.1-0.4,3.2-0.6l6.3-1.5l6.3-1.7l6.3-1.9
		l6.2-2.1L275.8,701.5z"/>
</g>
<path fill="#B5E2D0" stroke="#16AB97" stroke-width="6.75" stroke-miterlimit="10" d="M290.4,762.6c2.2,4.1,4.4,8.2,6.7,12.3
	c3.9,7.2,8.2,14.7,16.3,15.5c8.1,0.8,21.3-8.1,26.9-20.9c5.1-11.8,1.4-20.7-4.7-24c-6.1-3.3-14.2-3.1-19.8-7.2
	c-3.2-2.3-5.5-6-9.3-7.4c-3.8-1.4-9.8,0.3-14.4,6.3c-3.6,4.7-5.3,10.6-5.1,15C287.2,756.6,288.8,759.7,290.4,762.6z"/>
<path fill="#B5E2D0" stroke="#16AB97" stroke-width="6.75" stroke-miterlimit="10" d="M496.4,738c-4.3,0.6-8.7,1.2-13,1.7
	c-7.6,1-15.6,2.3-18.2,9.4c-2.6,7.1,2.5,22.3,13,31.9c9.7,8.8,18.8,8.6,23.3,4.2s6.2-11.9,11.3-15.5c2.9-2.1,6.8-2.9,9-5.8
	c2.2-2.9,2-9-2.4-15.3c-3.5-4.9-8.6-8.6-12.6-9.9C502.8,737.2,499.6,737.6,496.4,738z"/>
<path fill="none" stroke="#16AB97" stroke-width="6.75" stroke-miterlimit="10" d="M405.3,793.4c4.5-1.8,9-3.7,13.5-5.5
	c7.9-3.2,16.2-6.8,17.6-15.2c1.5-8.4-6.8-23.1-19.9-30.4c-12-6.7-21.7-3.9-25.7,2.1s-4.4,14.4-9.1,19.8c-2.7,3.1-6.8,5-8.5,8.8
	s-0.4,10.2,5.5,15.7c4.6,4.3,10.8,6.7,15.4,7.1S402.1,794.7,405.3,793.4z"/>
<g>
	<path fill="#16AB97" d="M429.7,555.4c-0.2-1-0.3-1.9-0.5-2.9c-0.2-1-0.3-1.9-0.5-2.9c-0.3-1.9-0.6-3.8-0.8-5.8l-0.7-5.8
		c-0.1-1-0.3-1.9-0.3-2.9c0-1,0.2-1.9,0.2-2.9l0-1.1l0.7-0.9c2.2-2.8,5.5-4.8,8.8-5.5c3.3-0.8,6.7-0.6,9.8,0.3
		c3.1,0.8,6.1,2.4,8.6,4.6c0.7,0.7,1,0.9,1.6,1.6l0.8,0.9l0.7,0.9c1,1.2,1.8,2.6,2.5,3.9c1.5,2.7,2.5,5.5,3.3,8.4
		c0.8,2.8,1.3,5.7,1.8,8.5l0.1,0.6l0.1,0.5l0.1,1l0.2,2.1c0.2,1.3,0.3,2.8,0.4,4.2c0.1,1.4,0.2,2.9,0.2,4.3c0,1.4,0.1,2.8,0.1,4.3
		l-0.1,4.3c-0.1,1.4-0.2,2.8-0.3,4.3c-0.1,1.4-0.3,2.8-0.4,4.2l-0.2,2.1c-0.1,0.7-0.2,1.4-0.3,2.1c-0.2,1.4-0.4,2.8-0.7,4.2
		l-0.8,4.2c-0.7,2.8-1.3,5.5-2.2,8.2l-0.6,2l-0.7,2c-0.5,1.3-0.9,2.7-1.4,4c-0.5,1.3-1.1,2.6-1.5,4c-0.3,0.7-0.7,1.3-1.1,1.9
		l-1.2,1.8c-0.8,1.2-1.6,2.3-2.5,3.5l-1.3,1.7l-1.3,1.7c-1.7,2.2-3.7,4.3-5.6,6.3c1-2.7,2-5.2,2.9-7.8l0.7-1.9l0.6-2
		c0.4-1.3,0.9-2.6,1.2-3.9l0.5-2c0.2-0.7,0.3-1.3,0.6-1.9c0.6-1.2,1.1-2.5,1.6-3.7c0.5-1.2,0.9-2.5,1.3-3.8l0.7-1.9l0.6-1.9
		c0.8-2.6,1.4-5.2,2.1-7.8l0.8-3.9c0.3-1.3,0.4-2.6,0.7-4c0.1-0.7,0.2-1.3,0.3-2l0.2-2c0.1-1.3,0.3-2.7,0.4-4l0.3-4l0.1-4
		c0-1.3,0-2.7-0.1-4c0-1.3-0.1-2.7-0.2-4c-0.1-1.3-0.1-2.6-0.3-4l-0.5-4c-0.8-5.2-2-10.4-4.3-14.6c-0.6-1.1-1.2-2.1-2-3l-0.5-0.7
		l-0.5-0.6c-0.3-0.3-1-1-1.3-1.3c-1.6-1.4-3.7-2.5-5.9-3.1c-2.2-0.6-4.5-0.7-6.5-0.2c-2.1,0.4-3.8,1.6-5,3l0.7-2c0,1,0,1.9,0,2.9
		c-0.1,1-0.3,1.9-0.5,2.9l-1.1,5.7c-0.4,1.9-0.8,3.8-1.2,5.7c-0.2,1-0.4,1.9-0.6,2.9C430.1,553.5,429.9,554.4,429.7,555.4z"/>
</g>
<g>
	<path fill="#16AB97" d="M391.5,612.4c0.4,1,0.9,2,1.3,3c0.4,1,0.9,2,1.2,3.1c0.8,2,1.6,4.1,2.4,6.1l2.3,6.1c0.4,1,0.8,2,1.1,3.1
		c0.2,1.1,0.4,2.1,0.6,3.2l0.2,1.1l-0.4,1c-1.6,3.6-4.6,6.6-7.9,8.3c-3.4,1.7-7,2.4-10.6,2.4c-3.6,0-7.2-0.9-10.5-2.6
		c-0.9-0.5-1.3-0.7-2.2-1.3l-1.2-0.8l-1-0.8c-1.4-1.1-2.7-2.3-3.8-3.5c-2.3-2.5-4.3-5.3-5.9-8.2c-1.7-2.9-3-5.8-4.3-8.8l-0.3-0.6
		l-0.2-0.5l-0.4-1.1l-0.8-2.2c-0.6-1.4-1.1-3-1.6-4.5l-0.8-2.3c-0.2-0.8-0.4-1.5-0.7-2.3c-0.4-1.5-0.9-3.1-1.2-4.6l-1.1-4.7
		c-0.3-1.6-0.6-3.1-0.9-4.7c-0.3-1.6-0.5-3.2-0.7-4.7l-0.3-2.4c-0.1-0.8-0.2-1.6-0.2-2.4c-0.1-1.6-0.3-3.2-0.4-4.8l-0.2-4.8
		c0-3.2-0.1-6.4,0.1-9.6l0.1-2.4l0.2-2.4c0.2-1.6,0.2-3.2,0.5-4.8c0.2-1.6,0.4-3.2,0.5-4.8c0.1-0.8,0.4-1.6,0.6-2.3l0.7-2.3
		c0.5-1.5,1.1-3,1.6-4.5l0.9-2.2l1-2.2l1-2.2c0.3-0.7,0.6-1.4,1-2.2c0.7-1.4,1.5-2.8,2.2-4.2c-0.4,3.2-0.9,6.2-1.2,9.4l-0.3,2.3
		l-0.2,2.3c-0.1,1.5-0.3,3.1-0.3,4.6l-0.1,2.3c0,0.8,0,1.5-0.2,2.3c-0.3,1.5-0.5,3-0.7,4.5c-0.2,1.5-0.3,3-0.4,4.5l-0.2,2.3
		l-0.1,2.3c-0.2,3-0.1,6.1-0.1,9.1l0.2,4.6c0.1,1.5,0.3,3,0.4,4.5c0.1,0.8,0.1,1.5,0.2,2.3l0.3,2.3c0.2,1.5,0.4,3,0.7,4.5
		c0.3,1.5,0.5,3,0.8,4.5l1,4.4c0.3,1.5,0.8,2.9,1.2,4.4c0.2,0.7,0.4,1.5,0.6,2.2l0.7,2.1c0.5,1.4,0.9,2.8,1.5,4.3l1.6,4.3
		c2.3,5.6,5.1,10.9,8.9,15c0.9,1,2,2,3,2.8l0.8,0.6l0.8,0.5c0.4,0.3,1.4,0.8,1.8,1.1c2.3,1.1,4.9,1.8,7.5,1.8c2.6,0,5.3-0.5,7.4-1.6
		c2.2-1.1,3.9-2.9,4.8-4.9l-0.2,2.1c-0.2-1.1-0.6-2.1-0.8-3.2c-0.2-1.1-0.2-2.2-0.3-3.3l-0.5-6.5c-0.2-2.2-0.3-4.4-0.4-6.6
		c-0.1-1.1-0.1-2.2-0.2-3.3C391.6,614.6,391.5,613.5,391.5,612.4z"/>
</g>
<path fill="#B5E2D0" stroke="#16AB97" stroke-width="6.75" stroke-miterlimit="10" d="M279.1,386c7.5,3.4,16.2,4.2,24.2,2.4
	c0.4-0.9,0.8-1.8,1.2-2.7c-5.8,6.1-5.3,17,1.1,22.6c6-5.5,8.6-14.4,6.6-22.3c5.5,10.3,17.3,16.9,28.9,16.1
	c-2.9-12.5-15.5-22-28.3-21.3c10.8-2.1,19.8-11.5,21.4-22.4c-10.3-0.4-20.6,6-24.7,15.4c1.5-8.4-2-17.5-8.8-22.7
	c-4.7,8.1-4.4,18.9,0.9,26.7C293.4,374.9,283.5,378.6,279.1,386z"/>
<path fill="#B5E2D0" stroke="#16AB97" stroke-width="6.75" stroke-miterlimit="10" d="M471.5,373.2c-7.5-3.4-16.2-4.2-24.2-2.3
	c-0.4,0.9-0.8,1.8-1.1,2.8c5.8-6.1,5.2-17.1-1.1-22.6c-6,5.5-8.6,14.4-6.5,22.3c-5.5-10.3-17.3-16.9-28.9-16.1
	c2.9,12.5,15.6,22,28.4,21.3c-10.8,2.1-19.8,11.6-21.4,22.4c10.3,0.4,20.5-6,24.7-15.4c-1.5,8.4,2.1,17.5,8.9,22.7
	c4.7-8.1,4.3-18.9-1-26.7C457.3,384.3,467.1,380.6,471.5,373.2z"/>
<g>
	<path fill="#16AB97" d="M327.4,426.6c0,0,0.8,0.2,2.1,0.6c0.3,0.1,0.7,0.2,1.1,0.4c0.4,0.1,0.8,0.2,1.3,0.4
		c0.9,0.3,1.8,0.6,2.9,0.9c0.5,0.2,1.1,0.3,1.6,0.5c0.6,0.1,1.2,0.3,1.8,0.5c1.2,0.4,2.5,0.6,3.8,0.9c1.3,0.2,2.6,0.5,4,0.7
		c0.7,0.1,1.4,0.2,2.1,0.3c0.7,0.1,1.4,0.1,2.1,0.2c0.7,0.1,1.4,0.1,2.1,0.1c0.7,0,1.4,0,2.1,0c0.7,0,1.4,0,2,0c0.7,0,1.3-0.1,2-0.1
		c0.7,0,1.3-0.2,1.9-0.2c0.3,0,0.6-0.1,1-0.1c0.3,0,0.6-0.1,0.9-0.1c0.6-0.1,1.2-0.2,1.8-0.2c0.6-0.1,1.1-0.2,1.7-0.3
		c1.1-0.2,2.1-0.4,3-0.6c0.5-0.1,0.9-0.2,1.3-0.3c0.4-0.1,0.8-0.2,1.1-0.3c1.3-0.3,2.1-0.4,2.1-0.4s-0.5,0.6-1.5,1.6
		c-0.2,0.3-0.5,0.5-0.8,0.8c-0.3,0.3-0.7,0.6-1.1,0.9c-0.4,0.3-0.8,0.6-1.2,1c-0.4,0.3-1,0.6-1.5,0.9c-0.5,0.3-1.1,0.6-1.7,1
		c-0.6,0.3-1.2,0.6-1.9,0.8c-0.3,0.1-0.7,0.3-1,0.4c-0.3,0.1-0.7,0.2-1,0.3c-0.7,0.2-1.4,0.5-2.2,0.7c-1.5,0.3-3.1,0.7-4.7,0.8
		c-1.6,0.2-3.3,0.1-4.9,0.1c-0.8-0.1-1.6-0.2-2.5-0.3c-0.8-0.1-1.6-0.3-2.4-0.5c-0.4-0.1-0.8-0.2-1.2-0.3c-0.4-0.1-0.8-0.2-1.1-0.4
		c-0.8-0.3-1.5-0.5-2.2-0.8c-1.4-0.6-2.8-1.2-4-1.9c-0.6-0.4-1.2-0.7-1.7-1.1c-0.5-0.4-1-0.8-1.5-1.1c-1-0.7-1.8-1.5-2.5-2.2
		c-0.4-0.3-0.7-0.7-1-1c-0.3-0.3-0.5-0.6-0.7-0.9C327.9,427.3,327.4,426.6,327.4,426.6z"/>
</g>
<g>
	<path fill="#16AB97" d="M439.4,424c0,0-0.4,0.7-1.3,1.8c-0.2,0.3-0.4,0.6-0.7,0.9c-0.3,0.3-0.6,0.6-0.9,1c-0.7,0.7-1.5,1.5-2.4,2.3
		c-0.5,0.4-1,0.8-1.5,1.2c-0.5,0.4-1.1,0.7-1.7,1.1c-1.2,0.8-2.5,1.4-3.9,2.1c-0.7,0.3-1.4,0.6-2.2,0.8c-0.4,0.1-0.8,0.3-1.1,0.4
		c-0.4,0.1-0.8,0.2-1.2,0.3c-0.8,0.2-1.6,0.4-2.4,0.5c-0.8,0.1-1.6,0.2-2.5,0.4c-1.7,0.1-3.3,0.2-4.9,0.1c-1.6,0-3.2-0.4-4.7-0.6
		c-0.8-0.2-1.5-0.4-2.2-0.6c-0.4-0.1-0.7-0.2-1-0.3c-0.3-0.1-0.7-0.3-1-0.4c-0.6-0.3-1.3-0.5-1.9-0.8c-0.6-0.3-1.1-0.6-1.7-0.9
		c-0.5-0.3-1-0.6-1.5-0.9c-0.5-0.3-0.9-0.6-1.3-0.9c-0.4-0.3-0.8-0.6-1.1-0.8c-0.3-0.3-0.6-0.5-0.9-0.8c-1-1-1.5-1.6-1.5-1.6
		s0.8,0.1,2.2,0.4c0.3,0.1,0.7,0.1,1.1,0.2c0.4,0.1,0.8,0.1,1.3,0.2c0.9,0.2,1.9,0.4,3,0.5c0.5,0.1,1.1,0.2,1.7,0.3
		c0.6,0.1,1.2,0.1,1.8,0.2c0.3,0,0.6,0.1,0.9,0.1c0.3,0,0.6,0,1,0.1c0.6,0,1.3,0.1,1.9,0.1c0.7,0,1.3,0,2,0c0.7,0,1.4,0,2,0
		c0.7,0,1.4,0,2.1-0.1c0.7-0.1,1.4-0.1,2.1-0.2c0.7-0.1,1.4-0.2,2.1-0.2c0.7-0.1,1.4-0.2,2-0.3c1.4-0.2,2.7-0.6,4-0.8
		c1.3-0.4,2.6-0.6,3.7-1c0.6-0.2,1.2-0.3,1.8-0.5c0.6-0.2,1.1-0.4,1.6-0.6c1.1-0.3,2-0.7,2.9-1c0.4-0.2,0.9-0.3,1.2-0.4
		c0.4-0.2,0.7-0.3,1.1-0.4C438.6,424.2,439.4,424,439.4,424z"/>
</g>
<g>
	<path fill="#16AB97" d="M460.6,839.8l-5.5-3c-1.8-1-3.7-1.9-5.5-2.8l-2.8-1.3l-2.8-1.2l-2.8-1.1c-0.9-0.3-1.8-0.8-2.6-1.3
		c-0.9-0.4-1.8-0.8-2.6-1.2c-0.9-0.4-1.8-0.7-2.7-1c-0.9-0.3-1.8-0.5-2.7-0.8c-0.9-0.2-1.8-0.3-2.7-0.5c-0.9-0.1-1.8-0.1-2.7-0.2
		l-2.7,0.1l-2.6,0.4l-2.5,0.8l2-4.2l8.4,26.7l-4.7-2l1.6-0.7l1.6-0.6l1.6-0.5l1.7-0.4l1.7-0.3l1.7-0.2l1.7-0.1l1.7,0l1.7,0.1
		l1.7,0.2l1.7,0.3l1.7,0.4l1.6,0.5l1.6,0.6l1.6,0.7l1.5,0.8l7.7,4.1l-8.5,2.2c-3.2,0.8-6.2,1.4-9.2,2.1c-3,0.7-5.9,1.4-8.4,2.5
		c-1.3,0.5-2.4,1.1-3.2,1.8c-0.4,0.3-0.6,0.6-0.8,0.9c-0.1,0.3-0.2,0.4-0.2,0.7c-0.1,0.5,0.2,1.4,0.8,2.4c0.6,1,1.5,2.1,2.4,3.1
		c0.2,0.3,0.5,0.5,0.7,0.8l0.4,0.4l0.2,0.2l0.1,0.1l0,0c-0.1-0.1,0.2,0.1-0.1-0.1l0,0l0,0c0.6,0.5,1.2,1,1.8,1.5
		c0.5,0.3,1,0.6,1.5,0.9c0.6,0.3,1.1,0.6,1.7,0.9c0.6,0.2,1.2,0.5,1.8,0.6c0.6,0.1,1.3,0.3,1.9,0.4c1.3,0.2,2.5,0.7,3.9,0.8l1,0.1
		l1,0c0.7,0,1.4-0.1,2.1-0.1c1.4-0.2,2.8-0.5,4.2-1c0.7-0.2,1.3-0.6,2-0.8c0.7-0.3,1.3-0.7,2-1.1c0.6-0.4,1.2-0.9,1.9-1.3l1.8-1.5
		c-0.4,0.7-0.7,1.4-1.1,2.1c-0.5,0.6-0.9,1.3-1.4,2c-0.5,0.6-1.1,1.2-1.7,1.8c-0.6,0.5-1.2,1.1-1.9,1.6c-1.4,1-2.8,1.9-4.4,2.6
		c-0.8,0.3-1.6,0.7-2.5,0.9l-1.3,0.4l-1.3,0.3c-0.4,0.1-0.9,0.2-1.3,0.2l-1.3,0.1c-0.9,0.1-1.8,0.1-2.7-0.1
		c-1.8-0.4-3.5-0.9-5.2-1.6c-0.8-0.3-1.6-0.8-2.4-1.2c-0.8-0.5-1.6-1.1-2.4-1.6c-0.6-0.5-1.2-1-1.8-1.5l-0.2-0.2l-0.1-0.1l-0.1-0.1
		l-0.2-0.2l-0.5-0.4c-0.3-0.3-0.6-0.6-0.9-0.9c-1.2-1.3-2.3-2.6-3.3-4.2l-0.7-1.3c-0.2-0.5-0.4-1-0.6-1.5c-0.1-0.6-0.3-1.1-0.4-1.7
		c-0.1-0.6-0.2-1.2-0.1-1.9c0-1.3,0.5-2.6,1.2-3.7c0.3-0.5,0.7-1,1.1-1.4c0.4-0.4,0.8-0.8,1.2-1.2c1.6-1.4,3.3-2.2,4.9-2.8
		c3.2-1.3,6.4-2.1,9.5-2.8c3.1-0.7,6.2-1.3,9-2.1l-0.8,6.2l-1.1-0.6l-1.2-0.5l-1.2-0.5l-1.2-0.4l-1.3-0.3l-1.3-0.2l-1.3-0.2
		l-1.3-0.1l-1.3,0l-1.3,0.1l-1.3,0.1l-1.3,0.2l-1.3,0.3l-1.2,0.4l-1.2,0.4l-1.2,0.5l-3.5,1.5l-1.1-3.6l-8.4-26.7l-1-3.3l3.1-0.9
		l3.4-1c1.2-0.2,2.3-0.4,3.5-0.6c1.2,0,2.3-0.1,3.5-0.1c1.2,0.1,2.3,0.1,3.5,0.3c1.1,0.2,2.3,0.4,3.4,0.6c1.1,0.3,2.2,0.6,3.3,0.9
		c1,0.4,2.1,0.7,3.1,1.1l3,1.3c1,0.4,2,0.9,2.9,1.5l2.6,2l2.5,2.1l2.4,2.1c1.5,1.5,3,3,4.5,4.5c0.7,0.8,1.4,1.6,2.1,2.3
		C459.2,838.2,459.9,839,460.6,839.8z"/>
</g>
<g>
	<path fill="#16AB97" d="M508.6,876.2c0,0,0.6,0.3,1.8,0.9c0.6,0.4,1.3,0.6,2.1,0.9c0.8,0.4,1.8,0.6,2.9,0.9c2.2,0.5,5,0.9,8.1,0.7
		c0.8-0.1,1.6-0.2,2.4-0.3c0.8-0.2,1.6-0.3,2.4-0.5c0.8-0.3,1.7-0.5,2.5-0.8c0.4-0.2,0.8-0.3,1.2-0.5c0.4-0.2,0.8-0.3,1.2-0.5
		c0.8-0.4,1.6-0.8,2.4-1.3c0.4-0.3,0.8-0.5,1.2-0.8c0.4-0.3,0.7-0.6,1.1-0.9l0.5-0.4l0.5-0.5c0.3-0.3,0.7-0.6,1-1
		c0.3-0.3,0.6-0.7,0.9-1.1c0.3-0.4,0.6-0.7,0.9-1.1c0.3-0.4,0.5-0.8,0.8-1.2l0.1-0.1c-0.3,0.5-0.1,0.1-0.1,0.2l0-0.1l0.1-0.1
		l0.2-0.4l0.4-0.8l0.4-0.8c0.1-0.2,0.1-0.3,0.1-0.4l0.1-0.3c0.1-0.4,0.2-0.8,0.4-1.2c0.4-1.9,0.9-3.9,0.8-6c0.1-0.5-0.1-1-0.1-1.6
		c0-0.5,0-1-0.2-1.6c-0.1-0.5-0.2-1-0.3-1.6l-0.4-1.6c-0.1-0.5-0.3-1-0.5-1.5c-0.2-0.5-0.3-1-0.6-1.5l-0.7-1.5l-0.8-1.4
		c-0.2-0.5-0.6-0.9-0.9-1.3c-0.3-0.4-0.6-0.9-1-1.3l-1-1.2l-1.2-1c-0.4-0.4-0.8-0.6-1.2-0.9l-0.6-0.5c-0.2-0.1-0.4-0.2-0.7-0.4
		l-1.1-0.6l-1.9-0.8c-0.4-0.2-0.5-0.2-0.8-0.3l-0.7-0.2c-0.2-0.1-0.4-0.2-0.7-0.2l-0.8-0.2c-1-0.3-2.2-0.4-3.2-0.5
		c-2.2-0.2-4.5-0.1-6.9,0.2l-1.7,0.3c-0.6,0.1-1.2,0.3-1.8,0.4c-1.2,0.2-2.3,0.5-3.5,0.8c-2.3,0.7-4.6,1.5-6.9,2.4
		c-2.2,0.9-4.4,2-6.6,3l-0.8,0.4l-0.8,0.4c-0.6,0.3-1.1,0.6-1.6,0.8c-1,0.5-2.1,1.1-3.1,1.6c-2,1.1-4,2.2-5.9,3.3
		c-1.9,1.1-3.7,2.2-5.5,3.2c-3.5,2.2-6.6,4.2-9.4,6c-2.7,1.9-5.2,3.5-7.1,5c-3.9,2.9-6.2,4.5-6.2,4.5l-0.5-0.5c0,0,0.5-0.5,1.4-1.4
		c0.9-0.9,2.3-2.3,4-4c3.5-3.3,8.7-8,15.4-13c3.3-2.5,7.1-5,11.1-7.6c4.1-2.5,8.4-5.1,13.2-7.3c2.4-1.1,4.9-2.1,7.4-2.9
		c2.6-0.8,5.2-1.5,8-1.9c2.7-0.4,5.5-0.6,8.3-0.4c2.8,0.2,5.6,0.8,8.3,1.8l1.9,0.8c0.7,0.3,1.3,0.7,1.9,1c0.3,0.2,0.6,0.3,0.9,0.5
		l0.9,0.6c0.6,0.4,1.2,0.8,1.7,1.3l1.5,1.5l1.4,1.6c0.5,0.5,0.8,1.1,1.2,1.7c0.4,0.6,0.8,1.1,1.1,1.8c2.8,4.8,4.1,10.4,3.8,15.7
		c-0.1,2.7-0.7,5.2-1.5,7.6c-0.5,1.2-1,2.4-1.6,3.4c-0.3,0.5-0.6,1-1,1.6c-0.4,0.5-0.7,1-1.1,1.5c-0.3,0.5-0.8,0.9-1.2,1.4
		c-0.4,0.4-0.8,0.9-1.3,1.3c-0.5,0.4-0.9,0.7-1.4,1.1c-0.2,0.2-0.4,0.4-0.7,0.5l-0.7,0.5c-0.5,0.3-1,0.6-1.4,0.9
		c-0.5,0.3-1,0.5-1.5,0.8c-1,0.5-2,0.9-3,1.3c-4,1.5-7.9,1.9-11.3,1.7c-3.4-0.2-6.3-1-8.6-1.9c-1.1-0.5-2.1-0.9-2.9-1.5
		c-0.8-0.5-1.5-0.9-2-1.3c-1-0.8-1.6-1.2-1.6-1.2L508.6,876.2z"/>
</g>
<path fill="none" stroke="#16AB97" stroke-width="6.75" stroke-miterlimit="10" d="M407.2,741c-0.1,10.1-0.1,20.1-0.2,30.2
	c-8,5.9-16.3,11.5-24.3,17.4"/>
<path fill="none" stroke="#16AB97" stroke-width="6.75" stroke-miterlimit="10" d="M407.7,771.1c7.8,2.9,15.7,5.7,23.5,8.6"/>
<g>
	<path fill="#16AB97" d="M352.6,840c0.6-0.8,1.3-1.7,1.9-2.5c0.7-0.8,1.3-1.7,2-2.4c1.4-1.6,2.8-3.2,4.2-4.7l2.3-2.3l2.4-2.2
		l2.5-2.1c0.9-0.7,1.8-1.2,2.8-1.7l3-1.5c1-0.5,2-0.9,3.1-1.3c1-0.4,2.1-0.7,3.2-1.1c1.1-0.3,2.2-0.5,3.3-0.8
		c1.1-0.2,2.3-0.3,3.4-0.5c1.2-0.1,2.3-0.1,3.5-0.1c1.2,0.1,2.4,0.2,3.5,0.4l3.4,0.8l3.1,0.7l-0.8,3.3l-6.9,27.2l-0.9,3.6l-3.6-1.3
		l-1.2-0.4l-1.2-0.4l-1.3-0.3l-1.3-0.2l-1.3-0.1l-1.3-0.1l-1.3,0l-1.3,0.1l-1.3,0.2l-1.3,0.2l-1.3,0.3l-1.2,0.4l-1.2,0.5l-1.2,0.5
		l-1.2,0.6l-1.1,0.7l-1.2-6.1c2.9,0.6,6,1,9.1,1.5c3.1,0.6,6.3,1.2,9.6,2.3c1.6,0.6,3.4,1.3,5.1,2.6c0.4,0.3,0.8,0.7,1.3,1.1
		c0.4,0.4,0.8,0.9,1.2,1.4c0.7,1.1,1.2,2.3,1.4,3.6c0.1,0.7,0.1,1.3,0,1.9c-0.1,0.6-0.2,1.1-0.3,1.7c-0.2,0.5-0.3,1-0.5,1.5
		l-0.6,1.3c-0.9,1.7-2,3.1-3.1,4.4c-0.3,0.3-0.6,0.6-0.8,1l-0.4,0.5l-0.2,0.2l-0.1,0.1l-0.1,0.1l-0.2,0.2c-0.6,0.5-1.1,1.1-1.7,1.6
		c-0.8,0.6-1.6,1.2-2.3,1.7c-0.8,0.5-1.6,1-2.4,1.3c-1.6,0.8-3.4,1.4-5.1,1.9c-0.9,0.2-1.8,0.3-2.7,0.2l-1.4,0
		c-0.4,0-0.9-0.1-1.3-0.1l-1.3-0.2l-1.3-0.3c-0.9-0.2-1.7-0.5-2.5-0.8c-1.6-0.6-3.2-1.4-4.6-2.3c-0.7-0.4-1.3-1-2-1.5
		c-0.6-0.5-1.2-1.1-1.8-1.7c-0.5-0.6-1-1.3-1.5-1.9c-0.4-0.7-0.9-1.4-1.3-2l1.9,1.4c0.7,0.4,1.3,0.8,2,1.2c0.7,0.3,1.3,0.7,2,1
		c0.7,0.2,1.4,0.6,2.1,0.7c1.4,0.4,2.8,0.6,4.2,0.7c0.7,0,1.4,0.1,2.1,0l1-0.1l1-0.2c1.3-0.1,2.6-0.7,3.8-1c0.6-0.1,1.3-0.3,1.9-0.5
		c0.6-0.2,1.2-0.5,1.8-0.8c0.6-0.3,1.1-0.6,1.7-1c0.5-0.3,0.9-0.7,1.4-1c0.5-0.5,1.1-1.1,1.7-1.6l0,0l0,0c-0.3,0.3-0.1,0.1-0.1,0.1
		l0,0l0.1-0.1l0.2-0.2l0.4-0.4c0.2-0.3,0.5-0.5,0.7-0.8c0.9-1.1,1.7-2.2,2.3-3.2c0.6-1,0.8-2,0.7-2.5c0-0.3-0.1-0.4-0.3-0.7
		c-0.2-0.2-0.4-0.5-0.9-0.8c-0.8-0.6-2-1.2-3.3-1.6c-2.6-0.9-5.5-1.5-8.5-2c-3-0.5-6.1-0.9-9.3-1.6l-8.6-1.7l7.4-4.5l1.5-0.9
		l1.5-0.8l1.6-0.7l1.6-0.6l1.6-0.5l1.7-0.4l1.7-0.3l1.7-0.2l1.7-0.1l1.7,0l1.7,0.1l1.7,0.2l1.7,0.3l1.7,0.4l1.6,0.5l1.6,0.6
		l-4.5,2.3l6.9-27.2l2.3,4.1l-2.6-0.6l-2.6-0.3l-2.7,0.1c-0.9,0.1-1.8,0.2-2.7,0.4c-0.9,0.2-1.8,0.4-2.7,0.7
		c-0.9,0.3-1.8,0.6-2.7,0.9c-0.9,0.4-1.8,0.7-2.6,1.1c-0.9,0.4-1.7,0.9-2.6,1.3c-0.8,0.5-1.6,1.1-2.5,1.4l-2.7,1.2l-2.7,1.4
		l-2.7,1.5c-1.8,1-3.6,2-5.4,3.1L352.6,840z"/>
</g>
<g>
	<path fill="#16AB97" d="M307.1,879.5c0,0-0.4,0.5-1.3,1.5c-0.4,0.5-1,1.1-1.8,1.7c-0.7,0.7-1.7,1.3-2.8,2.1
		c-2.2,1.3-5.1,2.8-8.7,3.5c-0.9,0.1-1.9,0.3-2.8,0.5c-1,0.1-2,0.2-3.1,0.2c-1,0-2.1-0.1-3.2-0.2c-0.6-0.1-1.1-0.2-1.7-0.2
		c-0.6-0.1-1.1-0.2-1.7-0.3c-4.6-1-9.6-3.2-13.6-7.3c-0.5-0.5-1-1.1-1.5-1.6l-0.2-0.2l-0.3-0.4l-0.3-0.4l-0.5-0.7l-0.6-0.7
		c-0.1-0.1-0.2-0.3-0.3-0.5l-0.3-0.5c-0.4-0.7-0.8-1.4-1.2-2.2c-0.6-1.4-1.3-2.8-1.6-4.3c-0.2-0.7-0.4-1.5-0.6-2.2
		c-0.1-0.8-0.3-1.5-0.4-2.3c-0.2-0.8-0.1-1.6-0.2-2.3c0-0.8-0.1-1.6-0.1-2.4c0-0.8,0.1-1.6,0.1-2.4c0.1-0.8,0.2-1.6,0.3-2.4
		c0.5-3.2,1.4-6.3,2.9-9.3c0.3-0.8,0.8-1.5,1.2-2.2c0.4-0.7,0.8-1.5,1.4-2.1c0.5-0.7,1-1.4,1.5-2l1.8-1.9c0.6-0.7,1.3-1.2,1.9-1.8
		l1-0.8c0.3-0.3,0.7-0.5,1.1-0.8l1.1-0.7l0.6-0.4l0.3-0.2l0.5-0.3l1.8-0.9c0.3-0.1,0.8-0.3,1.2-0.5l1.3-0.5c0.4-0.2,0.9-0.3,1.3-0.5
		l1.2-0.3c1.6-0.5,3.3-0.7,4.9-1c3.3-0.4,6.5-0.3,9.6,0c6.2,0.6,11.8,2.6,16.9,4.7c2.5,1.1,5,2.2,7.3,3.6l0.9,0.5l0.8,0.5
		c0.5,0.3,1.1,0.6,1.6,0.9c1.1,0.7,2.2,1.3,3.2,2c2.1,1.3,4.1,2.6,5.9,3.9c1.9,1.3,3.6,2.7,5.3,4c3.4,2.6,6.3,5.2,8.8,7.5
		c2.5,2.3,4.6,4.5,6.3,6.3c0.8,0.9,1.6,1.7,2.2,2.5c0.6,0.7,1.1,1.3,1.6,1.9c0.8,1,1.3,1.6,1.3,1.6l-0.5,0.5c0,0-0.5-0.5-1.5-1.3
		c-1-0.9-2.4-2.1-4.3-3.6c-3.7-3.1-9.2-7.3-16.1-11.8c-3.5-2.3-7.3-4.6-11.5-6.8c-4.2-2.3-8.6-4.5-13.4-6.4
		c-2.4-0.9-4.9-1.7-7.4-2.4c-2.6-0.6-5.2-1.2-7.9-1.4c-2.7-0.2-5.4-0.2-8.1,0.1c-2.7,0.4-5.3,1.1-7.7,2.2l-1.9,0.9
		c-0.5,0.3-1.1,0.7-1.7,1.1c-0.3,0.2-0.6,0.3-0.8,0.6l-0.8,0.6c-0.5,0.4-1.1,0.8-1.5,1.3l-1.4,1.5l-1.2,1.6
		c-0.4,0.5-0.7,1.1-1.1,1.7c-0.3,0.6-0.7,1.1-1,1.7c-2.4,4.7-3.4,10.1-2.9,15.2c0.2,2.5,0.9,5,1.8,7.2c0.6,1.1,1,2.2,1.7,3.2
		c0.3,0.5,0.7,1.1,1,1.5c0.4,0.4,0.8,0.9,1.1,1.3c0.4,0.5,0.8,0.8,1.2,1.2c0.4,0.4,0.8,0.8,1.3,1.1c0.5,0.3,0.9,0.7,1.4,1
		c0.2,0.2,0.4,0.3,0.7,0.5l0.7,0.4c0.5,0.3,0.9,0.5,1.4,0.8c0.5,0.2,1,0.4,1.5,0.7c0.9,0.5,2,0.8,2.9,1.1c3.9,1.2,7.7,1.4,11,1.1
		c3.3-0.3,6.1-1.2,8.3-2.2c1.1-0.5,2-1,2.8-1.5c0.8-0.5,1.4-0.9,1.9-1.4c1-0.8,1.5-1.3,1.5-1.3L307.1,879.5z"/>
</g>
<path id="SVGID_x5F_1_x5F_" fill="none" d="M454.5,727.5c32.2-8.2,68.8,10.8,81.2,42c12.3,31.2-1.2,70.7-30,87.4
	c-20.9,12.1-46.1,12.4-70.2,12.4c-30.8,0-61.6,0-92.4,0c-18.3,0-36.8,0-54.5-4.7c-17.7-4.6-34.8-14.5-44.4-30.2
	c-12.9-21-10.1-49.3,2.1-70.8c16.2-28.3,48.2-46.5,80.4-45.8"/>
<text opacity="0.33"><textPath  xlink:href="#SVGID_x5F_1_x5F_" startOffset="69.7266%">
<tspan  fill="#41AC98" font-family="'FFFTusj-Bold'" font-size="10.5234">Monica M Raffaelli 2015</tspan></textPath>
</text>
<g>
	<path fill="#16AB97" d="M472,719c0,0,0.7-0.2,2-0.6c0.7-0.2,1.5-0.4,2.5-0.6c1-0.2,2.2-0.5,3.5-0.7c5.3-0.9,13.4-1.8,23.5-0.3
		c5.1,0.7,10.6,2,16.5,4.1c1.5,0.5,2.9,1.1,4.4,1.7c1.5,0.7,3,1.3,4.5,2.1c3,1.5,6,3.2,9.1,5.2c6,4,12,8.9,17.4,15.1
		c2.7,3.1,5.2,6.5,7.3,10.3c2.1,3.8,4,7.7,5.6,12c3.1,8.4,4.8,17.8,4.9,27.5c0,9.7-1.6,19.7-4.9,29.3c-3.3,9.7-8.4,19.1-15.3,27.4
		c-3.4,4.2-7.3,8.1-11.6,11.5c-1.1,0.8-2.2,1.7-3.3,2.5c-1.2,0.8-2.3,1.6-3.5,2.3l-1.8,1.1l-0.4,0.3l-0.3,0.2l-0.2,0.1l-0.9,0.5
		c-1.2,0.6-2.3,1.3-3.6,1.9c-5.2,2.5-10.4,4.5-15.8,6.1c-5.4,1.6-11,2.7-16.6,3.6c-11.2,1.7-22.6,2.1-34,2.3
		c-22.6,0-45.6,0-68.6,0.1c-11.5,0-23,0-34.4,0c-11.4,0-22.8,0.1-34.3-0.2c-11.4-0.3-22.8-1.2-34-3.5c-1.4-0.3-2.8-0.6-4.2-0.9
		c-1.4-0.4-2.7-0.6-4.2-1c-1.3-0.4-2.6-0.7-4-1.2c-1.4-0.5-2.8-0.8-4.1-1.3c-5.3-1.9-10.5-4.2-15.4-6.9
		c-9.8-5.4-18.5-12.6-25.1-21.3l-1.2-1.6l-1.1-1.7l-1.1-1.7l-1-1.8c-0.6-1.1-1.3-2.2-1.8-3.4c-0.6-1.3-1.1-2.5-1.7-3.8l-0.4-0.9
		L224,832l-0.7-1.9c-0.4-1.2-0.9-2.5-1.2-3.8c-0.3-1.3-0.7-2.5-1-3.8c-0.2-1.3-0.5-2.6-0.7-3.8c-0.1-0.6-0.3-1.3-0.3-1.9l-0.2-1.9
		c-0.1-1.3-0.3-2.5-0.4-3.8c-0.1-2.5-0.3-5.1-0.2-7.6c0-5,0.6-9.9,1.4-14.6c1.8-9.5,4.8-18.4,8.9-26.3c0.5-1,1-2,1.6-2.9l0.4-0.7
		l0.1-0.2c0.1-0.1,0,0,0.2-0.3l0.2-0.3l0.8-1.3c0.6-0.9,1.1-1.8,1.7-2.7l0.8-1.3c0.3-0.4,0.6-0.9,0.9-1.3c1.2-1.8,2.5-3.6,3.7-5.2
		c1.4-1.6,2.7-3.1,4-4.7c5.6-5.9,11.5-10.8,17.4-14.9c1.5-1,3-2,4.4-2.9c1.5-0.9,3-1.7,4.4-2.6c0.7-0.4,1.4-0.8,2.2-1.2
		c0.7-0.4,1.5-0.7,2.2-1.1c1.4-0.7,2.9-1.4,4.3-2.1c5.7-2.4,11-4.3,16-5.6c1.2-0.3,2.4-0.6,3.6-0.9c1.2-0.3,2.3-0.5,3.4-0.7
		c1.1-0.2,2.2-0.4,3.2-0.6c1-0.2,2.1-0.3,3-0.4c1-0.1,1.9-0.2,2.8-0.3c0.9-0.1,1.8-0.2,2.6-0.2c1.7-0.1,3.2-0.1,4.5-0.2
		c1.3-0.1,2.5,0,3.6,0c1,0,1.9,0.1,2.6,0.1c1.4,0,2.1,0.1,2.1,0.1s-0.7,0-2.1,0.1c-0.7,0-1.6,0.1-2.6,0.1c-1,0.1-2.2,0.1-3.5,0.3
		c-5.3,0.5-13.1,1.9-22.5,5.1c-4.7,1.6-9.7,3.8-15,6.5c-5.2,2.9-10.7,6.2-16,10.5c-5.3,4.3-10.6,9.3-15.5,15.2
		c-1.2,1.5-2.4,3-3.6,4.5c-0.6,0.7-1.1,1.5-1.7,2.3c-0.6,0.8-1.2,1.6-1.7,2.3c-0.3,0.4-0.6,0.8-0.9,1.2l-0.8,1.3
		c-0.6,0.9-1.1,1.8-1.7,2.7l-0.8,1.3l-0.2,0.3c0.1-0.1,0,0.1,0,0.1l-0.1,0.2L237,763c-0.5,0.9-1,1.8-1.5,2.7
		c-3.8,7.4-6.6,15.7-8.3,24.4c-0.7,4.4-1.3,8.9-1.3,13.5c-0.1,2.3,0.1,4.6,0.2,6.9c0.1,1.2,0.3,2.3,0.4,3.5l0.2,1.7
		c0.1,0.6,0.2,1.2,0.3,1.7c0.2,1.2,0.4,2.3,0.7,3.5c0.3,1.1,0.6,2.3,0.9,3.4c0.3,1.2,0.7,2.3,1.1,3.4l0.6,1.7l0.3,0.8l0.4,0.8
		c0.5,1.1,1,2.1,1.4,3.2c0.5,1.1,1.2,2.2,1.8,3.3l0.9,1.6l1,1.5l1,1.5l1.1,1.5c5.9,7.9,13.9,14.4,22.9,19.5
		c4.5,2.5,9.3,4.6,14.3,6.4c1.2,0.5,2.5,0.8,3.7,1.2c1.2,0.4,2.6,0.8,3.9,1.1c1.2,0.3,2.6,0.6,3.9,1c1.3,0.3,2.6,0.6,4,0.9
		c10.6,2.1,21.7,3,32.8,3.3c11.2,0.3,22.6,0.2,34.1,0.2c11.4,0,22.9,0,34.4,0c23,0,45.9,0,68.5-0.1c11.2-0.2,22.3-0.6,33-2.2
		c5.4-0.8,10.6-1.9,15.7-3.4c5.1-1.5,10-3.4,14.5-5.6c1.2-0.6,2.4-1.3,3.5-1.9l0.9-0.5l0.2-0.1c0.1,0,0,0,0.1-0.1l0.4-0.3l1.6-1
		c1.1-0.6,2.1-1.4,3.2-2.1c1-0.7,2-1.5,3-2.3c3.9-3.2,7.5-6.7,10.6-10.6c6.3-7.7,11-16.4,14.1-25.4c3.1-9,4.6-18.2,4.6-27.1
		c0-8.9-1.6-17.5-4.4-25.2c-1.4-3.8-3.2-7.5-5.2-10.9c-2-3.4-4.3-6.5-6.6-9.5c-4.5-6-9.8-11-15.2-15.1
		c-10.9-8.2-22.3-12.7-31.9-14.8c-9.7-2.1-17.6-2-23-1.6c-1.3,0.1-2.5,0.3-3.5,0.4c-1,0.1-1.9,0.3-2.6,0.4
		C472.7,718.9,472,719,472,719z"/>
</g>
</svg>
