<?xml version="1.0" encoding="utf-8"?>
<!-- Generator: Adobe Illustrator 18.1.1, SVG Export Plug-In . SVG Version: 6.00 Build 0)  -->
<svg version="1.1" id="Layer_1" xmlns="http://www.w3.org/2000/svg" xmlns:xlink="http://www.w3.org/1999/xlink" x="0px" y="0px"
	 viewBox="0 0 792 1224" enable-background="new 0 0 792 1224" xml:space="preserve">
<rect fill="#FFFFFF" stroke="#FFFFFF" stroke-miterlimit="10" width="786.1" height="1218.1"/>
<path fill="#C49A6C" stroke="#754C29" stroke-width="6.75" stroke-miterlimit="10" d="M446.9,1099c-5.6,2.5-10.4,6.9-13.3,12.3
	c0.3,0.7,0.6,1.3,1,2c-0.5-6.3-6.9-11.4-13.1-10.6c0.1,6.1,3.8,12,9.2,14.7c-8.5-2.1-18,1.3-23.3,8.1c8.4,4.6,20,2.3,25.9-5.3
	c-4.2,7.1-3.4,16.7,1.9,23c5.3-5.5,6.9-14.4,3.7-21.4c3.9,5,10.8,7.5,17,6.3c-2.2-6.7-8.4-11.8-15.3-12.7
	C446,1112.4,448.8,1105.1,446.9,1099z"/>
<path fill="#FFCC99" stroke="#F7941E" stroke-width="4.5" stroke-miterlimit="10" d="M394.1,1128.9c-7.9,1.8-15.1,6.2-20.3,12.3
	c0.2,0.9,0.5,1.9,0.7,2.8c0.9-8.2-5.9-16.4-14-17c-1.5,7.8,1.7,16.3,7.9,21.3c-10.3-4.9-23.4-3.1-32,4.3c9.6,8.1,25,8.1,34.6,0.1
	c-7.2,8-8.7,20.6-3.6,30c8.3-5.7,12.6-16.7,10.3-26.5c3.7,7.4,11.8,12.5,20.1,12.6c-1.1-9.1-7.7-17.3-16.3-20.3
	C389.4,1145.8,395,1137.2,394.1,1128.9z"/>
<path fill="#FFCC99" stroke="#F7941E" stroke-width="4.5" stroke-miterlimit="10" d="M385.1,1177.9c1.4-7.9,0.1-16.3-3.6-23.5
	c-1-0.1-1.9-0.3-2.9-0.4c7.2,4,17.4,0.9,21.1-6.5c-6.7-4.3-15.7-4.7-22.7-0.8c8.4-7.7,11.8-20.4,8.3-31.2
	c-11.1,5.7-17.1,20-13.3,31.9c-4.6-9.7-15.7-15.9-26.4-14.8c2.1,9.8,10.6,18,20.5,19.7c-8.3,0.6-16.1,6.1-19.3,13.8
	c8.8,2.5,18.9-0.5,25-7.3C371.2,1167.2,377.1,1175.6,385.1,1177.9z"/>
<path fill="#B5E2D0" stroke="#16AB97" stroke-width="6.75" stroke-miterlimit="10" d="M446.9,42.4c-5.6,2.5-10.4,6.9-13.3,12.3
	c0.3,0.7,0.6,1.3,1,2c-0.5-6.3-6.9-11.4-13.1-10.6c0.1,6.1,3.8,11.9,9.2,14.7c-8.5-2.1-18,1.3-23.3,8.1c8.4,4.6,20,2.3,25.9-5.3
	c-4.2,7.1-3.4,16.7,1.9,23c5.3-5.5,6.9-14.4,3.7-21.4c3.9,5,10.8,7.5,17,6.3c-2.2-6.7-8.4-11.8-15.3-12.7
	C446,55.8,448.8,48.5,446.9,42.4z"/>
<path fill="#C49A6C" stroke="#754C29" stroke-width="6.75" stroke-miterlimit="10" d="M394.1,72.3c-7.9,1.8-15.1,6.2-20.3,12.3
	c0.2,0.9,0.5,1.9,0.7,2.8c0.9-8.2-5.9-16.4-14-17c-1.5,7.8,1.7,16.3,7.9,21.3c-10.3-4.9-23.4-3.1-32,4.3c9.6,8.1,25,8.1,34.6,0.1
	c-7.2,8-8.7,20.6-3.6,30c8.3-5.7,12.6-16.7,10.3-26.5c3.7,7.4,11.8,12.5,20.1,12.6c-1.1-9.1-7.7-17.3-16.3-20.3
	C389.4,89.2,395,80.6,394.1,72.3z"/>
<path fill="#C49A6C" stroke="#754C29" stroke-width="6.75" stroke-miterlimit="10" d="M385.1,121.4c1.4-7.9,0.1-16.3-3.6-23.5
	c-1-0.1-1.9-0.3-2.9-0.4c7.2,4,17.4,0.9,21.1-6.5c-6.7-4.3-15.7-4.7-22.7-0.8c8.4-7.7,11.8-20.4,8.3-31.2
	c-11.1,5.7-17.1,20-13.3,31.9c-4.6-9.7-15.7-15.9-26.4-14.8c2.1,9.8,10.6,18,20.5,19.7c-8.3,0.6-16.1,6.1-19.3,13.8
	c8.8,2.5,18.9-0.5,25-7.3C371.2,110.6,377.1,119,385.1,121.4z"/>
<path fill="#C49A6C" stroke="#754C29" stroke-width="6.75" stroke-miterlimit="10" d="M387.6,491.8c47-2.7,96.3,5.6,134.6,33
	c38.3,27.5,62.9,76.8,52.2,122.6c-7.1,30.4-28.5,56.1-54.9,72.8c-26.3,16.7-57.2,25-88.1,28.9c-60.2,7.5-128.2-4.7-166.3-52
	c-39.2-48.6-31.7-128.1,15.8-168.6C310,503.7,349.3,494,387.6,491.8z"/>
<g>
	<path fill="#754C29" d="M456.6,426.5c0,0,0.3-0.8,1-2.2c0.7-1.4,1.6-3.5,2.9-6.1c1.3-2.6,2.9-5.7,5-9.2c0.5-0.9,1.1-1.8,1.6-2.7
		c0.6-0.9,1.2-1.9,1.8-2.8c0.6-1,1.4-1.9,2.3-2.7c0.8-0.9,1.7-1.8,2.6-2.7c1.8-1.8,3.7-3.7,5.8-5.5c1-0.9,2.2-1.8,3.3-2.7
		c0.6-0.4,1.2-0.8,1.8-1.3l0.9-0.6l0.2-0.2l0.3-0.2l0.4-0.3c0.6-0.4,1.2-0.7,1.8-1.1c0.7-0.4,1.4-0.8,2.1-1.1
		c0.7-0.4,1.4-0.7,2.1-1.1c0.7-0.3,1.4-0.7,2.1-1c2.9-1.2,6-2.2,9.2-3c6.4-1.4,13.5-1.7,20.3,0.2c3.4,0.9,6.8,2.3,9.8,4.4l0.6,0.4
		l0.6,0.5l1,0.8c0.6,0.5,1.3,0.9,2,1.7l2,2c0.6,0.7,1.2,1.4,1.7,2.1l0.8,1.1l0.7,1.1c0.5,0.8,1,1.5,1.4,2.3c0.8,1.6,1.6,3.2,2.2,4.9
		c0.7,1.7,1.1,3.4,1.6,5.1c0.2,0.8,0.3,1.7,0.5,2.6c0.2,0.9,0.3,1.7,0.4,2.6c0.1,0.9,0.2,1.7,0.3,2.6c0.1,0.9,0.1,1.7,0.1,2.6
		c0.1,1.7-0.1,3.4-0.2,5.1c-0.3,3.4-0.8,6.6-1.8,9.8c-0.8,3.2-2.1,6.2-3.4,9c-0.4,0.7-0.7,1.4-1.1,2c-0.4,0.6-0.7,1.3-1.1,1.9
		c-0.8,1.3-1.6,2.7-2.4,3.9c-3.3,4.9-7,9.1-10.5,12.7c-0.9,0.9-1.8,1.7-2.6,2.6c-0.8,0.9-1.7,1.7-2.7,2.3c-1.9,1.3-3.7,2.5-5.4,3.6
		c-3.4,2.2-6.5,4-9,5.4c-2.5,1.4-4.5,2.5-5.9,3.2c-1.4,0.7-2.1,1.1-2.1,1.1s2.3-2.3,6.4-6.4c2.1-2,4.5-4.5,7.2-7.3
		c1.4-1.4,2.8-3,4.2-4.6c0.7-0.9,1.5-1.6,2.4-2.3c0.8-0.8,1.7-1.6,2.5-2.4c3.3-3.4,6.7-7.2,9.7-11.7c0.8-1.1,1.4-2.2,2.1-3.4
		c0.4-0.5,0.7-1.2,1-1.9c0.3-0.6,0.7-1.2,1-1.9c1.1-2.5,2.2-5.1,2.9-7.8c0.8-2.7,1.2-5.6,1.5-8.6c0.1-1.5,0.2-2.9,0.1-4.4
		c0-0.7,0-1.5-0.1-2.2l-0.2-2.2c0-0.7-0.2-1.5-0.3-2.2c-0.2-0.7-0.2-1.5-0.4-2.2c-0.4-1.4-0.7-2.9-1.3-4.2c-0.5-1.4-1.2-2.7-1.8-4
		c-0.4-0.6-0.8-1.2-1.2-1.9l-0.6-0.9l-0.7-0.9c-0.5-0.6-0.9-1.2-1.4-1.7l-1.4-1.4c-0.4-0.5-1.2-1-1.8-1.5l-1-0.8l-0.2-0.2l-0.1-0.1
		l-0.1,0c0.1,0-0.2-0.2,0.1,0.1l-0.5-0.3c-2.4-1.6-5.1-2.7-7.9-3.5c-5.6-1.6-11.6-1.3-17.1-0.1c-2.8,0.6-5.5,1.5-8,2.6
		c-0.6,0.3-1.2,0.6-1.9,0.9c-0.6,0.3-1.2,0.6-1.8,0.9c-0.6,0.3-1.1,0.6-1.7,0.9c-0.6,0.4-1.2,0.8-1.8,1.1l-0.4,0.3l-0.1,0.1l-0.1,0
		c0.2-0.1,0,0,0,0l-0.2,0.1l-0.8,0.6c-0.5,0.4-1.1,0.7-1.6,1.1c-1,0.8-2,1.6-3,2.4c-1.9,1.6-3.7,3.3-5.3,5c-0.8,0.9-1.6,1.7-2.3,2.6
		c-0.7,0.9-1.4,1.7-2.2,2.5c-0.8,0.7-1.6,1.5-2.3,2.2c-0.7,0.7-1.5,1.5-2.1,2.2c-2.7,2.9-5.1,5.4-7,7.6c-1.9,2.1-3.4,3.8-4.5,5
		C457.2,425.9,456.6,426.5,456.6,426.5z"/>
</g>
<g>
	<path fill="#754C29" d="M277.6,752.7l-6.3,2.1l-6.2,2.2l-6.1,2.5l-6,2.6l-5.8,2.8c-1,0.5-1.9,1-2.9,1.5c-1,0.5-2,0.8-3,1.2
		c-2,0.9-3.9,1.8-5.9,2.7l-5.7,2.9l-5.6,3.2l-5.5,3.4l-5.4,3.6l-5.2,3.8l-5.1,4l-4.9,4.2l-4.8,4.3l-4.6,4.5l-0.8,0.8l-1,0.2
		c-4,0.8-8,1.7-11.8,2.7c-3.9,1.1-7.7,2.3-11.2,3.9c-1.8,0.8-3.5,1.7-5.2,2.6c-1.6,1-3.2,2-4.6,3.2c-0.3,0.3-0.7,0.6-1,0.9
		c-0.3,0.3-0.7,0.6-0.9,1c-0.6,0.6-1.2,1.3-1.7,2.1c-0.5,0.7-1,1.5-1.3,2.2c-0.2,0.4-0.4,0.8-0.5,1.2l-0.4,1.2l-1.9-4.1l25.8,11
		l-4.6,2.3l0.5-1.7l0.6-1.6l0.7-1.6l0.8-1.5l0.9-1.5l1-1.4l1-1.4l1.1-1.3l1.2-1.2l1.3-1.1l1.3-1.1l1.4-1l1.5-0.9l1.5-0.8l1.6-0.7
		l1.6-0.6l7.9-3l-3.8,7.7l-11.3,23.1l-0.9-4.1l1.1,0.8l1.1,0.7l1.2,0.6l1.2,0.5l1.3,0.4l1.3,0.3l1.3,0.2l1.3,0.1c0.5,0,0.9,0,1.3,0
		c0.4,0,0.9,0,1.4,0l1.4,0l1.4-0.1l1.3-0.3l1.3-0.4l1.3-0.5l0.6-0.3l0.3-0.1l0.2-0.1l0.1,0l0,0l0,0l0,0c0,0,0.1-0.1-0.1,0.1l1.4-0.8
		l1.1-0.7l1.1-0.9l1-1l1-1.1l0.9-1.2l0.8-1.3l0.7-1.3l0.6-1.4l0.5-1.4l0.4-1.5l0.3-1.5l0.2-1.5l0.1-1.6l-0.1-1.6l-0.2-1.6l0.5,1.5
		l0.4,1.6l0.3,1.6l0.1,1.7l0,1.7l-0.1,1.7l-0.3,1.7l-0.4,1.7l-0.5,1.6l-0.6,1.6l-0.8,1.6l-0.9,1.5l-1,1.4l-1.2,1.4l-1.4,1.3l-1.2,1
		l-1.6,1.1l-1.6,0.9l-1.7,0.8l-1.7,0.7l-1.8,0.5l-1.8,0.4c-0.6,0.1-1.2,0.2-1.8,0.2c-0.6,0-1.2,0-1.9,0l-1.8-0.2l-1.8-0.3l-1.8-0.4
		l-1.8-0.6l-1.7-0.7l-1.7-0.9l-1.6-1l-1.5-1.1l-2.1-1.6l1.2-2.5l11.3-23.1l4.1,4.7l-1.2,0.5l-1.2,0.5l-1.1,0.6l-1.1,0.7l-1.1,0.8
		l-1,0.8l-1,0.9l-0.9,0.9l-0.9,1l-0.8,1l-0.7,1.1l-0.7,1.1l-0.6,1.2l-0.5,1.2l-0.4,1.2l-0.4,1.2l-1.1,3.8l-3.5-1.5l-25.8-11
		l-2.9-1.2l1-2.9c0.2-0.6,0.4-1.1,0.6-1.7c0.3-0.6,0.5-1.1,0.8-1.6c0.6-1.1,1.2-2.1,1.9-3.1c0.7-1,1.4-1.9,2.2-2.7
		c0.4-0.4,0.8-0.8,1.2-1.2c0.4-0.4,0.8-0.8,1.3-1.2c1.7-1.5,3.6-2.8,5.5-3.9c1.9-1.1,3.9-2.1,5.9-3c4-1.8,8.1-3.1,12.2-4.2
		c4.1-1.1,8.2-2,12.3-2.8l-1.8,1l4.8-4.7l5-4.5l5.1-4.3l5.3-4.1l5.4-3.9l5.6-3.7l5.7-3.5l5.8-3.3l6-3.1c2-1,4.1-1.9,6.1-2.9
		c1-0.5,2-0.9,3.1-1.3c1-0.4,2.1-0.7,3.2-1.1l6.5-1.8l6.5-1.6l6.6-1.3c2.2-0.3,4.4-0.7,6.6-1L277.6,752.7z"/>
</g>
<g>
	<path fill="#754C29" d="M435.6,600.9c-0.2-1-0.4-1.9-0.5-2.9c-0.2-1-0.4-1.9-0.5-2.9c-0.3-1.9-0.6-3.8-0.9-5.8l-0.8-5.8
		c-0.1-1-0.3-1.9-0.4-2.9c0-1,0.1-1.9,0.1-2.9l0-1.1l0.7-0.9c2.2-2.9,5.4-4.9,8.7-5.6c3.3-0.8,6.7-0.7,9.8,0.1
		c3.2,0.8,6.1,2.3,8.7,4.5c0.7,0.7,1,0.9,1.7,1.6l0.9,0.9l0.8,0.9c1,1.2,1.8,2.5,2.6,3.9c1.5,2.7,2.6,5.5,3.5,8.3
		c0.8,2.8,1.4,5.7,1.9,8.5l0.1,0.6l0.1,0.5l0.1,1l0.3,2.1c0.2,1.3,0.3,2.8,0.4,4.2c0.1,1.4,0.2,2.9,0.3,4.3c0,1.4,0.1,2.8,0.1,4.3
		l0,4.3c0,1.4-0.1,2.8-0.2,4.3c0,1.4-0.2,2.8-0.4,4.2l-0.2,2.1c-0.1,0.7-0.2,1.4-0.3,2.1c-0.2,1.4-0.4,2.8-0.6,4.2l-0.8,4.2
		c-0.6,2.8-1.2,5.5-2.1,8.3l-0.6,2.1l-0.7,2c-0.5,1.3-0.8,2.7-1.4,4c-0.5,1.3-1,2.6-1.4,4c-0.2,0.7-0.6,1.3-1,1.9l-1.1,1.8
		c-0.7,1.2-1.6,2.4-2.4,3.5l-1.2,1.7l-1.3,1.7c-1.7,2.3-3.6,4.4-5.5,6.4c0.9-2.7,2-5.2,2.8-7.9l0.7-2l0.6-2c0.4-1.3,0.8-2.6,1.1-3.9
		l0.5-2c0.2-0.7,0.3-1.3,0.6-1.9c0.6-1.2,1-2.5,1.5-3.7c0.5-1.2,0.9-2.5,1.3-3.8l0.6-1.9l0.5-1.9c0.8-2.6,1.3-5.2,1.9-7.8l0.7-4
		c0.3-1.3,0.4-2.6,0.6-4c0.1-0.7,0.2-1.3,0.3-2l0.2-2c0.1-1.3,0.3-2.7,0.3-4l0.2-4l0-4c0-1.3-0.1-2.7-0.1-4c0-1.3-0.1-2.7-0.3-4
		c-0.1-1.3-0.2-2.6-0.4-4l-0.5-4c-0.8-5.2-2.1-10.3-4.5-14.6c-0.6-1.1-1.3-2.1-2-3l-0.6-0.7l-0.5-0.6c-0.3-0.3-1-1-1.3-1.3
		c-1.7-1.4-3.7-2.5-5.9-3c-2.2-0.5-4.5-0.6-6.6-0.1c-2.1,0.5-3.7,1.6-4.9,3.1l0.7-2c0,1,0.1,1.9,0,2.9c-0.1,1-0.3,1.9-0.4,2.9
		l-1,5.7c-0.3,1.9-0.7,3.8-1.1,5.7c-0.2,1-0.4,1.9-0.6,2.9C436.1,599,435.8,600,435.6,600.9z"/>
</g>
<g>
	<path fill="#754C29" d="M398.3,658.6c0.5,1,0.9,2,1.3,3c0.4,1,0.9,2,1.3,3c0.8,2,1.7,4.1,2.5,6.1l2.4,6.1c0.4,1,0.8,2,1.1,3.1
		c0.3,1.1,0.4,2.1,0.7,3.2l0.3,1.1l-0.4,1c-1.5,3.6-4.5,6.7-7.8,8.4c-3.3,1.8-7,2.5-10.6,2.5c-3.6,0-7.2-0.8-10.6-2.4
		c-0.9-0.5-1.4-0.7-2.2-1.3l-1.2-0.8l-1.1-0.8c-1.4-1.1-2.7-2.2-3.9-3.5c-2.4-2.5-4.3-5.2-6-8.1c-1.7-2.8-3.1-5.8-4.4-8.8l-0.3-0.6
		l-0.2-0.5l-0.4-1.1l-0.9-2.2c-0.6-1.4-1.1-3-1.6-4.5l-0.8-2.3c-0.3-0.8-0.5-1.5-0.7-2.3c-0.4-1.5-0.9-3.1-1.3-4.6l-1.1-4.7
		c-0.3-1.6-0.6-3.1-0.9-4.7c-0.3-1.6-0.5-3.2-0.8-4.7l-0.4-2.4c-0.1-0.8-0.2-1.6-0.3-2.4c-0.2-1.6-0.4-3.2-0.5-4.8l-0.3-4.8
		c-0.1-3.2-0.2-6.4,0-9.6l0.1-2.4l0.2-2.4c0.1-1.6,0.2-3.2,0.4-4.8c0.2-1.6,0.4-3.2,0.5-4.8c0.1-0.8,0.3-1.6,0.6-2.3l0.7-2.3
		c0.4-1.5,1-3,1.6-4.6l0.8-2.3l0.9-2.2l0.9-2.2c0.3-0.7,0.6-1.5,1-2.2c0.7-1.4,1.4-2.8,2.2-4.2c-0.4,3.2-0.8,6.3-1.1,9.4l-0.2,2.3
		l-0.1,2.3c-0.1,1.5-0.2,3.1-0.2,4.6l0,2.3c0,0.8,0,1.5-0.2,2.3c-0.3,1.5-0.4,3-0.6,4.5c-0.2,1.5-0.2,3-0.4,4.5l-0.2,2.3l-0.1,2.3
		c-0.1,3,0,6.1,0,9.1l0.3,4.6c0.1,1.5,0.3,3,0.4,4.5c0.1,0.8,0.2,1.5,0.3,2.3l0.3,2.3c0.2,1.5,0.4,3,0.7,4.5c0.3,1.5,0.6,3,0.9,4.5
		l1.1,4.4c0.4,1.5,0.8,2.9,1.3,4.4c0.2,0.7,0.4,1.5,0.7,2.2l0.7,2.1c0.5,1.4,0.9,2.8,1.5,4.3l1.7,4.3c2.4,5.5,5.2,10.8,9.1,14.9
		c1,1,2,2,3.1,2.8l0.8,0.6l0.8,0.5c0.4,0.3,1.4,0.8,1.8,1.1c2.3,1.1,4.9,1.7,7.5,1.7c2.6,0,5.3-0.6,7.4-1.8c2.2-1.1,3.8-2.9,4.8-5
		l-0.2,2.1c-0.2-1.1-0.6-2.1-0.8-3.1c-0.2-1.1-0.3-2.2-0.4-3.3l-0.6-6.5c-0.2-2.2-0.3-4.4-0.5-6.6c-0.1-1.1-0.1-2.2-0.2-3.3
		C398.4,660.8,398.3,659.7,398.3,658.6z"/>
</g>
<g>
	<path fill="#754C29" d="M364.2,368.4c0,0.7,0.1,1.5,0.1,2.2c-0.1,0.7-0.1,1.5-0.2,2.2c-0.1,0.7-0.2,1.5-0.4,2.2
		c-0.2,0.7-0.4,1.5-0.7,2.2c-0.5,1.4-1.1,2.8-1.9,4.1c-0.8,1.3-1.6,2.6-2.6,3.7c-2,2.3-4.3,4.4-7,6c-1.3,0.8-2.7,1.5-4.2,2
		c-1.5,0.6-2.9,1-4.6,1.3c-0.7,0.1-1.4,0.3-2.2,0.3c-0.8,0-1.6,0.1-2.4,0.1c-0.8,0-1.6,0-2.4-0.1l-2.4-0.3l-2.3-0.4l-2.3-0.6
		l-2.2-0.8c-0.7-0.3-1.4-0.6-2.2-1c-0.7-0.4-1.4-0.8-2.1-1.1c-0.7-0.4-1.3-0.9-2-1.3c-0.7-0.5-1.3-1-1.9-1.5
		c-0.6-0.5-1.2-1.1-1.8-1.7c-0.6-0.6-1.1-1.2-1.6-1.8c-0.5-0.6-1-1.3-1.5-2c-0.4-0.7-0.8-1.4-1.3-2.1c-0.4-0.7-0.7-1.5-1-2.3
		l3.6,1.3c-7.7,5-15.9,9.4-25,12.1c-2.3,0.6-4.6,1.2-7,1.5c-0.6,0.1-1.2,0.2-1.8,0.2l-0.9,0.1l-0.4,0l-0.3,0l-0.2,0l-1.7,0.1
		c-0.5,0-1.2,0-1.8,0c-1.3,0-2.4-0.1-3.7-0.2c-1.2-0.1-2.4-0.2-3.6-0.5c-2.4-0.4-4.8-0.9-7.1-1.7c-2.3-0.7-4.6-1.7-6.8-2.9
		c-2.2-1.1-4.3-2.6-6.2-4.2c-0.5-0.4-1-0.8-1.4-1.3l-1.3-1.4c-0.4-0.5-0.8-1-1.2-1.5l-0.6-0.7l-0.6-0.9l-0.5-0.7
		c-0.2-0.2-0.3-0.4-0.5-0.8l-1-1.9c-0.5-1.2-1-2.4-1.4-3.7c-0.4-1.2-0.6-2.5-0.8-3.8c-0.1-1.3-0.3-2.6-0.2-3.9
		c0.1-2.6,0.4-5.2,1.3-7.7c0.9-2.5,2.1-4.8,3.8-6.9c1.7-2.1,3.8-3.8,6.1-5.2l3.9,5.5c-1.5,1.3-3.2,2.4-4.9,3.3
		c-1.8,0.9-3.6,1.6-5.5,2.1c-3.8,1-7.6,1.3-11.4,0.9c-3.8-0.3-7.5-1.2-11-2.6c-1.7-0.7-3.4-1.5-5.1-2.5c-1.6-1-3.2-2-4.7-3.2
		c-1.5-1.2-2.9-2.5-4.1-4c-1.3-1.5-2.4-3.1-3.4-4.8c-0.5-0.9-0.9-1.7-1.3-2.7l-0.1-0.3l-0.1-0.2l0-0.1l0,0l-0.1-0.2l-0.2-0.6
		l-0.4-1.2l-0.4-1.2l-0.3-1.5l-0.3-1.5l-0.1-0.7c0-0.2,0-0.5-0.1-0.7l-0.2-2.9l0.1-2.9l0-0.7l0.1-0.7l0.2-1.4l0.2-1.4l0.3-1.4
		c0.2-0.9,0.4-1.9,0.7-2.7l0.9-2.7c0.7-1.7,1.5-3.5,2.4-5.1c0.8-1.7,1.9-3.2,3-4.7c1.1-1.5,2.2-3,3.5-4.3c0.6-0.7,1.2-1.4,1.9-2
		c0.7-0.6,1.3-1.3,2-1.9c1.4-1.2,2.9-2.4,4.4-3.3c0.8-0.5,1.5-1.1,2.3-1.5l1.2-0.7l0.6-0.3l0.3-0.2l0.2-0.1l0.1,0l0.2-0.1
		c1.6-0.7,3-1.5,4.9-2.2c1.8-0.8,3.5-1.3,5.2-1.8c1.8-0.5,3.5-1,5.3-1.3c3.5-0.8,7.1-1.2,10.7-1.4c3.6-0.2,7.2-0.1,10.7,0.1
		c3.6,0.2,7.1,0.8,10.6,1.4c3.5,0.7,6.9,1.5,10.4,2.5l-3.9,4.8c-1.6-3-2.8-6.3-3.7-9.6c-0.8-3.3-1.1-6.7-1.1-10.1
		c0-3.4,0.5-6.8,1.3-10.1c0.4-1.7,1-3.3,1.5-4.9c0.7-1.6,1.3-3.1,2.2-4.6c1.6-3,3.5-5.8,5.9-8.3l0.4-0.5l0.2-0.2l0.1-0.1l0.1-0.1
		l0.1-0.2l0.8-0.8l0.8-0.8c0.3-0.3,0.6-0.5,0.9-0.8l2-1.7c0.7-0.5,1.4-1,2.1-1.5c2.8-1.9,5.8-3.5,8.9-4.7l1.2-0.5l1.2-0.4
		c0.8-0.3,1.6-0.6,2.4-0.8c1.6-0.4,3.2-0.9,4.9-1.2c1.6-0.4,3.3-0.5,5-0.8c1.7-0.1,3.3-0.3,5-0.2c3.3-0.1,6.7,0.3,10,1
		c0.8,0.2,1.7,0.3,2.5,0.5l2.4,0.7l0.7,0.2l0.6,0.2l1.1,0.4c0.8,0.3,1.7,0.7,2.4,1c3.1,1.4,6,3.3,8.6,5.5c2.6,2.2,5,4.7,7,7.5
		c2,2.8,3.7,5.9,4.8,9.2c1.1,3.3,1.7,6.9,1.4,10.5c-0.1,1.8-0.4,3.6-1,5.4c-0.5,1.7-1.3,3.4-2.1,5l-6.4,11.6l0.1-13.1
		c0-1.3,0-2.5,0.1-3.8c0.2-1.2,0.3-2.5,0.6-3.7c0.3-1.2,0.6-2.4,1-3.6c0.5-1.2,0.9-2.3,1.4-3.5c0.6-1.1,1.1-2.2,1.8-3.3l1-1.5
		c0.3-0.5,0.7-1,1.1-1.5l1.2-1.4c0.4-0.5,0.8-1,1.2-1.4c0.9-0.9,1.7-1.8,2.6-2.6c0.9-0.8,1.8-1.6,2.8-2.3c1-0.7,2-1.5,3-2.1
		c1.1-0.6,2.1-1.3,3.2-1.8c1.1-0.5,2.2-1.1,3.3-1.5c1.2-0.4,2.3-0.8,3.5-1.2c1.2-0.3,2.4-0.6,3.6-0.8c1.2-0.2,2.4-0.3,3.7-0.5
		l3.7-0.1l0.1,0l0,0l0.2,0l0.1,0l0.2,0l0.4,0l0.8,0.1l1.7,0.1c1.2,0.2,2.5,0.4,3.8,0.7c1.2,0.3,2.4,0.7,3.6,1
		c1.2,0.4,2.3,0.9,3.4,1.4c1.1,0.5,2.2,1.1,3.3,1.7c1.1,0.6,2.1,1.3,3.1,2c2,1.4,3.9,3,5.6,4.7c1.7,1.7,3.3,3.6,4.6,5.7
		c0.4,0.5,0.7,1,1,1.6l0.9,1.6c0.3,0.5,0.6,1.1,0.8,1.7l0.7,1.7c0.5,1.1,0.8,2.4,1.2,3.5c0.3,1.2,0.5,2.5,0.8,3.7
		c0.2,1.2,0.2,2.5,0.3,3.8c0,1.3-0.1,2.5-0.2,3.8l-6.1-2.3l1.2-1.6l0.6-0.8l0.7-0.7l1.3-1.4l1.4-1.3c0.5-0.5,1-0.9,1.5-1.2l1.5-1.2
		l1.6-1l0.8-0.5l0.8-0.5l1.7-0.9l1.7-0.8c1.2-0.6,2.4-0.9,3.6-1.4c2.4-0.7,4.9-1.4,7.4-1.6c2.5-0.4,5.1-0.4,7.6-0.2
		c1.3,0.2,2.6,0.2,3.8,0.5l1.9,0.4l1.9,0.5l0.9,0.3l0.1,0l0.1,0l0.1,0l0.2,0.1l0.4,0.1c0.6,0.2,1.3,0.5,1.9,0.8
		c1.2,0.5,2.3,1.1,3.4,1.8c2.2,1.3,4.2,2.7,6.2,4.3c1.9,1.6,3.8,3.3,5.4,5.2c1.7,1.9,3.2,4,4.4,6.4c1.2,2.4,2.2,5.2,2.1,8.2
		c0,1.5-0.2,3.1-0.8,4.6l-0.1,0.3c-0.1,0.1,0.1-0.3-0.1,0.3l0,0l0,0l0,0.1l-0.2,0.4l-0.4,0.8c-0.1,0.2-0.4,0.6-0.6,1
		c-0.2,0.4-0.5,0.7-0.8,1.1c-2.1,2.5-4.5,3.9-7,5c-2.4,1.1-4.9,1.7-7.3,2.3c-2.4,0.5-4.7,0.9-7,1.3c-2.3,0.4-4.5,0.8-6.5,1.4
		l-1.5-6.7c2.6-0.5,5.2-0.6,7.8-0.4c2.6,0.2,5.2,0.8,7.6,1.7c4.9,1.7,9.3,4.4,13,7.8c3.7,3.5,6.7,7.7,8.4,12.6
		c1.7,4.8,2,10.3,0.4,15.2l-0.3,0.8l-0.4,0.9l-0.4,0.9l-0.4,0.9c-0.3,0.6-0.6,1.1-0.9,1.7c-0.3,0.6-0.7,1.1-1,1.6
		c-1.5,2-3.2,3.8-5.1,5.4c-3.8,3.1-8.3,5.2-12.9,6.5c-4.6,1.2-9.5,1.6-14.2,0.9c-4.7-0.7-9.3-2.4-13-5.4c3.9,2.6,8.5,4,13.1,4.3
		c4.6,0.3,9.2-0.4,13.5-1.8c4.3-1.5,8.3-3.7,11.6-6.8c1.6-1.5,3.1-3.2,4.2-5.1c0.3-0.5,0.6-0.9,0.8-1.4c0.3-0.5,0.5-1,0.7-1.5
		l0.3-0.7l0.2-0.7l0.2-0.7l0.2-0.9c0.5-2.1,0.6-4.2,0.4-6.3c-0.2-2.1-0.7-4.2-1.6-6.1c-1.6-3.9-4.4-7.4-7.7-10.1
		c-3.3-2.7-7.2-4.8-11.2-5.9c-2-0.6-4.1-0.9-6.2-1c-2.1-0.1-4.1,0-6.1,0.3l-1.5-6.7c2.5-0.7,4.9-1,7.2-1.4c2.3-0.4,4.6-0.8,6.7-1.3
		c2.2-0.5,4.2-1.1,6.1-1.9c1.8-0.8,3.4-1.8,4.4-3c0.1-0.1,0.2-0.2,0.3-0.3c0.1-0.1,0.2-0.1,0.3-0.5l0.4-0.8l0.2-0.4l0-0.1l0,0l0,0
		c-0.2,0.6-0.1,0.1-0.1,0.3l0-0.1c0.3-0.7,0.4-1.5,0.4-2.3c0-1.6-0.5-3.4-1.4-5.2c-0.9-1.7-2.1-3.5-3.5-5c-1.4-1.6-3-3.1-4.6-4.5
		c-1.7-1.4-3.5-2.6-5.3-3.7c-0.9-0.5-1.9-1-2.8-1.4c-0.5-0.2-0.8-0.4-1.4-0.6l-0.4-0.1l-0.2-0.1l-0.1,0c0,0-0.1,0,0,0l0,0l0,0
		l-0.8-0.2l-1.5-0.4l-1.5-0.3c-1-0.2-2.1-0.3-3.1-0.4c-2.1-0.1-4.2-0.1-6.3,0.2c-2.1,0.2-4.2,0.8-6.2,1.4c-1,0.4-2,0.7-3,1.1
		l-1.4,0.6l-1.4,0.8l-0.7,0.4l-0.7,0.4l-1.3,0.9l-1.2,1c-0.4,0.3-0.8,0.6-1.2,1l-1.2,1l-1,1.1l-0.5,0.6l-0.5,0.6l-0.9,1.2l-6.7,8.7
		l0.5-11l0.1-2.9c-0.1-1-0.1-1.9-0.2-2.9c-0.2-1-0.3-1.9-0.6-2.9c-0.3-0.9-0.5-1.9-0.9-2.8L419,260c-0.2-0.5-0.4-0.9-0.7-1.3
		l-0.7-1.3c-0.2-0.4-0.5-0.9-0.8-1.3c-1.1-1.7-2.4-3.2-3.8-4.7c-1.4-1.4-3-2.8-4.6-3.9c-0.9-0.5-1.7-1.2-2.6-1.6
		c-0.9-0.5-1.8-1-2.7-1.4c-0.9-0.4-1.9-0.8-2.8-1.1c-1-0.3-1.9-0.6-2.9-0.8c-0.9-0.2-1.8-0.4-2.8-0.5l-3.1-0.3l-3,0.1l-3,0.4
		c-1,0.2-2,0.5-2.9,0.7c-1,0.3-1.9,0.7-2.9,1c-0.9,0.4-1.8,0.8-2.8,1.2c-0.9,0.4-1.8,1-2.7,1.5c-0.9,0.5-1.7,1.2-2.5,1.7
		c-0.8,0.6-1.6,1.3-2.3,1.9c-0.8,0.6-1.4,1.4-2.2,2.1c-0.4,0.3-0.7,0.7-1,1.1l-0.9,1.2c-0.3,0.4-0.6,0.8-0.9,1.2l-0.8,1.3
		c-0.6,0.8-0.9,1.8-1.4,2.6c-0.5,0.9-0.7,1.8-1.1,2.7c-0.3,0.9-0.5,1.9-0.8,2.8c-0.2,1-0.3,1.9-0.4,2.9l0,2.9l-6.3-1.5
		c0.6-1.2,1.2-2.4,1.5-3.6c0.4-1.3,0.6-2.6,0.7-3.9c0.2-2.6-0.2-5.3-1.1-8c-0.9-2.6-2.2-5.1-3.8-7.4c-1.6-2.3-3.6-4.4-5.8-6.2
		c-2.2-1.8-4.6-3.4-7.2-4.6c-0.7-0.3-1.3-0.5-1.9-0.8l-1.1-0.4l-0.6-0.2c0,0,0.1,0,0,0l0,0l-0.1,0l-0.1,0l-0.3-0.1l-2.1-0.6
		c-0.7-0.2-1.4-0.3-2.1-0.5c-2.8-0.6-5.7-0.9-8.7-0.8c-1.5,0-2.9,0.1-4.4,0.2c-1.4,0.2-2.9,0.3-4.3,0.7c-1.4,0.2-2.8,0.7-4.2,1
		c-0.7,0.2-1.4,0.5-2.1,0.7l-1,0.4l-1,0.4c-2.7,1.1-5.3,2.5-7.6,4.1c-0.6,0.4-1.2,0.8-1.7,1.2l-1.6,1.3c-0.3,0.2-0.5,0.5-0.8,0.7
		l-0.8,0.8l-0.8,0.8l0,0c0.2-0.2,0,0,0.1-0.1l0,0.1l-0.1,0.1l-0.2,0.2l-0.4,0.4c-1.9,2.1-3.6,4.5-4.9,7c-0.7,1.2-1.2,2.6-1.8,3.9
		c-0.5,1.4-1,2.7-1.3,4.1c-0.7,2.8-1.1,5.6-1.1,8.5c0,2.9,0.3,5.7,0.9,8.5c0.7,2.8,1.7,5.4,3,7.9l3.7,7.1l-7.7-2.2
		c-3.2-0.9-6.4-1.7-9.7-2.4c-3.3-0.6-6.5-1.1-9.8-1.3c-3.3-0.2-6.6-0.3-9.9-0.1c-3.3,0.2-6.5,0.6-9.7,1.3c-1.6,0.3-3.2,0.8-4.7,1.2
		c-1.5,0.5-3.1,1-4.5,1.6c-1.4,0.5-3,1.3-4.6,2l-2,1.1c-0.7,0.4-1.4,0.8-2,1.3c-1.3,0.8-2.6,1.9-3.8,2.9c-0.6,0.5-1.2,1.1-1.7,1.6
		c-0.6,0.5-1.1,1.1-1.7,1.7c-1.1,1.1-2.1,2.4-3,3.7c-0.9,1.3-1.8,2.6-2.5,4c-0.8,1.4-1.4,2.8-2,4.2l-0.7,2.2
		c-0.3,0.7-0.4,1.5-0.6,2.2l-0.3,1.1l-0.1,1.1l-0.2,1.1l-0.1,0.6l0,0.6l-0.1,2.3l0.2,2.3l0,0.6l0.1,0.5l0.2,1l0.2,1l0.4,1.2l0.4,1.2
		l0.2,0.6c0.1,0.2-0.1-0.2-0.1-0.2l0,0l0,0.1l0.1,0.1l0.1,0.3c0.3,0.7,0.6,1.3,1,2c0.7,1.3,1.6,2.5,2.6,3.6c1,1.1,2.1,2.2,3.3,3.2
		c1.2,1,2.5,1.8,3.8,2.6c1.3,0.8,2.8,1.4,4.2,2c2.9,1.1,6,1.9,9,2.2c3.1,0.3,6.2,0,9.1-0.7c1.4-0.4,2.8-0.9,4.1-1.6
		c1.3-0.7,2.5-1.5,3.6-2.4l3.9,5.5c-1.6,1-3,2.1-4.2,3.6c-1.2,1.4-2,3.1-2.6,4.9c-0.7,1.8-0.9,3.7-1,5.6c-0.1,1,0.1,1.9,0.1,2.9
		c0.2,0.9,0.3,1.9,0.6,2.8c0.2,0.9,0.6,1.8,1,2.7c0.2,0.4,0.4,0.8,0.6,1.1c0.1,0.2,0.2,0.4,0.4,0.7l0.5,0.7l0.2,0.4l0.1,0.2l0.1,0.1
		l0,0l0,0c-0.2-0.3,0-0.1-0.1-0.1l0.5,0.6c0.3,0.4,0.6,0.8,0.9,1.1l1,1.1c0.4,0.3,0.7,0.7,1.1,1c1.5,1.3,3.2,2.4,5,3.4
		c1.8,0.9,3.7,1.8,5.7,2.4c2,0.6,4,1.1,6,1.4c1,0.2,2.1,0.2,3.1,0.4c1,0,2.1,0.1,3.1,0.1c0.5,0,1,0,1.5,0l1.7-0.1l0.2,0l0.1,0l0,0
		c0,0-0.2,0-0.1,0l0.1,0l0.4,0l0.8-0.1c0.5,0,1-0.1,1.6-0.2c2.1-0.2,4.2-0.6,6.3-1.1c8.3-1.9,16.4-5.6,24.1-9.9l2.6-1.5l1.1,2.7
		l0.7,1.8c0.3,0.6,0.6,1.2,0.9,1.8c0.4,0.6,0.7,1.1,1.1,1.7c0.4,0.5,0.8,1.1,1.3,1.6c0.5,0.5,0.9,1,1.4,1.5c0.5,0.5,1,0.9,1.5,1.4
		c0.6,0.4,1.1,0.9,1.7,1.2c0.6,0.4,1.2,0.8,1.8,1.1c0.6,0.3,1.2,0.7,1.8,1l1.9,0.8l2,0.7l2,0.5l2.1,0.4c0.7,0.1,1.4,0.1,2.1,0.2
		c0.7,0,1.4,0,2.1,0c0.7,0,1.5-0.1,2.2-0.2c0.6,0,1.4-0.2,2.1-0.3c0.7-0.1,1.4-0.4,2.1-0.5c1.4-0.4,2.7-1,4-1.6c2.6-1.3,4.9-3,7-5.1
		c2-2.1,3.7-4.5,4.9-7.2c0.3-0.7,0.5-1.4,0.8-2.1c0.2-0.7,0.4-1.4,0.6-2.1c0.2-0.7,0.2-1.5,0.4-2.2
		C364.2,369.9,364.2,369.2,364.2,368.4z"/>
</g>
<g>
	<path fill="#754C29" d="M284.2,757.7c0,0-0.6,0.6-1.6,1.6c-1.1,1-2.6,2.6-4.7,4.5c-2,1.9-4.5,4.2-7.4,6.8c-1.4,1.3-3,2.7-4.6,4.2
		c-0.8,0.7-1.7,1.4-2.7,2c-1,0.6-1.9,1.3-2.9,2c-3.9,2.7-8,5.7-12.1,9c-4.1,3.3-8.2,7.1-11.5,11.4c-1.7,2.2-3.2,4.5-4.4,7.1
		c-0.4,0.7-0.6,1.3-0.9,1.9c-0.3,0.6-0.5,1.2-0.8,1.9c-0.5,1.3-0.9,2.7-1.3,4.1c-1.4,5.7-1.9,11.7-1.9,17.9c0,6.2,0.5,12.4,0.9,18.6
		c0.4,6.2,0.8,12.3,1.1,18.2c0.7,11.8,1.4,22.9,2,32.3c0.1,1.2,0.1,2.3,0.2,3.5c0.1,1.1,0.2,2.2,0.1,3.3c-0.1,2.2-0.2,4.2-0.4,6.2
		c-0.2,3.9-0.5,7.3-0.7,10c-0.2,2.8-0.4,5-0.5,6.5c-0.1,1.5-0.2,2.3-0.2,2.3s-0.2-0.8-0.5-2.2c-0.3-1.5-0.8-3.6-1.3-6.3
		c-0.5-2.7-1.2-6.1-1.9-9.9c-0.4-1.9-0.7-3.9-1.1-6.1c-0.2-1.1-0.3-2.2-0.3-3.3c0-1.1-0.1-2.3-0.2-3.5c-0.6-9.5-1.3-20.5-2-32.3
		c-0.4-5.9-0.8-12-1.1-18.2c-0.4-6.2-0.9-12.6-0.9-19c0-6.5,0.5-13.1,2.1-19.5c0.4-1.6,0.9-3.2,1.5-4.7c0.3-0.8,0.6-1.6,0.9-2.4
		c0.3-0.8,0.7-1.6,1-2.2c1.4-2.9,3.2-5.7,5.1-8.2c3.9-5,8.3-9.1,12.6-12.6c4.3-3.5,8.6-6.5,12.5-9.2c1-0.7,1.9-1.3,2.8-2
		c0.9-0.7,1.8-1.4,2.7-1.9c1.9-1,3.7-2,5.4-2.9c3.4-1.9,6.4-3.4,8.9-4.7c2.5-1.3,4.5-2.3,5.8-2.9C283.4,758,284.2,757.7,284.2,757.7
		z"/>
</g>
<g>
	<path fill="#754C29" d="M529,760.1c0,0,0.7,0.4,1.9,1.1c1.2,0.7,3.1,1.7,5.4,3.1c2.3,1.4,5.1,3,8.3,5c1.6,1,3.3,2,5.1,3.1
		c0.9,0.5,1.7,1.2,2.5,2c0.8,0.7,1.7,1.4,2.6,2.1c3.6,2.9,7.5,6,11.4,9.8c3.9,3.7,7.8,8.1,10.9,13.4c0.4,0.7,0.8,1.3,1.1,2l0.5,1
		l0.3,0.5l0.1,0.1l0.1,0.2l0.1,0.2c0.3,0.7,0.6,1.3,0.9,2c0.3,0.7,0.6,1.5,0.9,2.3c1.1,3,1.8,6,2.4,9.1c1.1,6.2,1.3,12.5,1.2,18.7
		c-0.1,6.2-0.5,12.3-0.8,18.2c-0.3,6-0.7,11.8-1,17.5c-0.6,11.4-1.2,22-1.7,31.1c-0.1,1.1-0.1,2.3-0.2,3.3c0,1.1,0,2.2-0.3,3.2
		c-0.4,2.1-0.7,4-1.1,5.8c-0.7,3.7-1.3,6.9-1.8,9.5c-0.5,2.6-1,4.7-1.3,6.1c-0.3,1.4-0.5,2.2-0.5,2.2s-0.1-0.8-0.2-2.2
		c-0.1-1.4-0.4-3.5-0.6-6.2c-0.2-2.7-0.5-5.9-0.8-9.6c-0.1-1.9-0.3-3.8-0.4-5.9c-0.1-1-0.1-2.1,0.1-3.2c0.1-1.1,0.1-2.2,0.2-3.3
		c0.5-9.1,1.1-19.7,1.7-31.1c0.3-5.7,0.6-11.6,1-17.5c0.3-6,0.7-12,0.8-18c0.1-5.9-0.1-11.8-1.1-17.4c-0.5-2.8-1.2-5.5-2.1-8
		c-0.2-0.6-0.5-1.2-0.7-1.8c-0.3-0.7-0.6-1.3-0.9-2l-0.1-0.2l0-0.1c0,0,0.1,0.1,0,0L573,806l-0.2-0.4l-0.5-0.9
		c-0.3-0.6-0.7-1.2-1-1.7c-2.7-4.5-6.2-8.5-9.8-11.9c-3.7-3.5-7.4-6.5-11-9.4c-0.9-0.7-1.7-1.4-2.6-2.1c-0.9-0.6-1.7-1.3-2.5-2
		c-1.5-1.5-2.8-2.9-4.1-4.3c-2.6-2.7-4.8-5-6.7-7c-1.8-1.9-3.3-3.5-4.2-4.6C529.5,760.6,529,760.1,529,760.1z"/>
</g>
<g>
	<path fill="#754C29" d="M303.8,760.3l-4.7,4.6l-4.7,4.6l-9.4,9.1l-9.5,9l-4.7,4.5c-0.8,0.7-1.6,1.5-2.4,2.2c-0.8,0.7-1.7,1.4-2.5,2
		l-1.9-6c5.7,0.4,11.4,0.8,17.2,1.2l17.2,1l17.2,0.8l17.2,0.6l17.2,0.5l17.2,0.3l17.2,0.1l17.2-0.1l17.2-0.2l17.2-0.4l17.2-0.6
		l17.2-0.8l17.2-0.9l17.2-1.1l17.2-1.3c2.9-0.3,5.7-0.5,8.6-0.8c1.4-0.2,2.8-0.3,4.3-0.4c1.4-0.1,2.9-0.1,4.3-0.1l-1.7,5.7
		c-5.4-4.9-10.8-9.8-16.2-14.7l-8.1-7.4l-8-7.5l9.1,6.1l9.1,6.1c6,4.1,12,8.3,18,12.4l6.5,4.5l-8.2,1.2c-1.4,0.2-2.8,0.5-4.3,0.6
		c-1.4,0.2-2.9,0.2-4.3,0.3c-2.9,0.2-5.7,0.5-8.6,0.7l-17.2,1.3l-17.2,1.1l-17.2,1l-17.3,0.8l-17.3,0.6l-17.3,0.4l-17.3,0.2
		l-17.3,0.1l-17.3-0.1l-17.3-0.3l-17.3-0.5l-17.3-0.6l-17.2-0.8l-17.2-1c-5.7-0.4-11.5-0.8-17.2-1.2l-8.3-0.5l6.4-5.5
		c0.8-0.7,1.6-1.4,2.5-2.1c0.8-0.7,1.7-1.4,2.6-2l5.3-3.8l10.6-7.7l10.6-7.6l5.3-3.8L303.8,760.3z"/>
</g>
<path fill="#C49A6C" stroke="#754C29" stroke-width="6.75" stroke-miterlimit="10" d="M311,792.1c-0.6-5.3-1-11,5-15.1
	c6-4.1,21.1-4.6,25.8,0.2c1.6,1.6,1.7,3.5,2.7,5.2c2.2,3.8,8.9,6.9,16.4,7.6s15.3-1,19.1-4.2c4.9-0.4,9.7,2.4,9.4,4.9
	s-4.3,4.6-8.9,5.4c-4.6,0.9-9.8,0.8-14.8,0.7c-18.7-0.3-37.4-0.5-56.1-0.8"/>
<path fill="#C49A6C" stroke="#754C29" stroke-width="6.75" stroke-miterlimit="10" d="M463.2,786.3c-5.2-4.6-0.8-14.2,5.9-15.7
	c6.7-1.5,13.5,2.4,18.6,7.1c5,4.7,9.3,10.4,15.3,13.8c-13.9,0.3-27.7,0.5-41.6,0.8"/>
<g>
	<path fill="#754C29" d="M450.9,350c0,0-0.7,1.1-1.8,3c-0.6,1-1.2,2.1-2,3.4c-0.4,0.7-0.7,1.4-1.2,2.1c-0.4,0.8-0.8,1.6-1.2,2.4
		c-0.9,1.7-1.7,3.5-2.6,5.5c-0.5,1-0.9,2-1.3,3.1c-0.4,1.1-0.9,2.1-1.3,3.2c-0.8,2.2-1.6,4.5-2.3,6.9c-0.8,2.4-1.4,4.8-2,7.3
		c-0.6,2.5-1.2,5-1.6,7.4c-0.5,2.5-0.8,4.9-1.2,7.3c-0.1,1.2-0.3,2.4-0.4,3.5c-0.1,1.1-0.2,2.3-0.3,3.4c-0.1,1.1-0.1,2.2-0.2,3.2
		c-0.1,1-0.1,2-0.1,3c0,1-0.1,1.9-0.1,2.8c0,0.9,0,1.7,0,2.5c0,1.6,0,2.9,0.1,4c0.1,2.2,0.2,3.5,0.2,3.5s-0.2-1.3-0.5-3.5
		c-0.2-1.1-0.3-2.5-0.5-4c-0.1-0.8-0.2-1.6-0.2-2.5c-0.1-0.9-0.1-1.8-0.2-2.8c0-1-0.1-2-0.2-3c0-1,0-2.1-0.1-3.2c0-1.1,0-2.3,0-3.4
		c0-1.2,0.1-2.4,0.1-3.6c0.2-2.4,0.3-4.9,0.6-7.5c0.2-2.6,0.6-5.1,1-7.7c0.5-2.6,0.9-5.1,1.5-7.6c0.5-2.5,1.2-5,1.8-7.3
		c0.3-1.2,0.7-2.3,1-3.5c0.3-1.1,0.7-2.2,1.1-3.3c0.7-2.1,1.4-4.1,2.2-6c0.4-0.9,0.7-1.8,1-2.6c0.4-0.8,0.7-1.6,1.1-2.4
		c0.7-1.5,1.2-2.8,1.8-3.8c1-2,1.6-3.2,1.6-3.2L450.9,350z"/>
</g>
<g>
	<polygon fill="#754C29" points="355.5,430.3 352.5,401.8 362,428.8 	"/>
</g>
<g>
	<polygon fill="#754C29" points="380.3,427.8 382.1,389.6 387,427.5 	"/>
</g>
<g>
	<path fill="#754C29" d="M405.9,427.7c0,0,0-0.8-0.1-2.1c0-1.3-0.1-3.4-0.1-5.8c0-1.2,0-2.5,0.1-3.9c0-1.4,0.1-2.8,0.2-4.3
		c0.2-3,0.5-6.1,0.9-9.3c0.4-3.1,1-6.2,1.5-9.1c0.3-1.4,0.6-2.8,0.9-4.1c0.3-1.3,0.6-2.6,0.9-3.7c0.6-2.3,1.2-4.1,1.6-5.5
		c0.4-1.3,0.7-2,0.7-2s-0.1,0.8-0.4,2.1c-0.2,1.3-0.5,3.3-0.8,5.6c-0.2,1.2-0.3,2.4-0.4,3.7c-0.1,1.3-0.2,2.7-0.3,4.2
		c-0.2,2.9-0.3,6-0.3,9.1c0,3.1,0.1,6.2,0.3,9c0.1,1.4,0.2,2.8,0.4,4.1c0.1,1.3,0.3,2.5,0.4,3.7c0.1,1.1,0.3,2.2,0.4,3.1
		c0.1,0.9,0.3,1.7,0.4,2.4c0.2,1.3,0.4,2.1,0.4,2.1L405.9,427.7z"/>
</g>
<g>
	<path fill="#FFFFFF" d="M538.5,758c14.6,2.8,30.5-5.4,36.7-18.9c6.2-13.5,2.1-30.9-9.5-40.2c-18.2-14.6-37.1-4.7-57.3-4.7
		c-16.7-0.1-38.1-12.4-52.3,2.6c6.2,7,12.3,14.1,18.5,21.1c5.2-6.1,13.5-9.4,21.5-8.5c-6.8,5.3-13.5,10.6-20.3,15.9
		c3.6,7.8,12.6,12.7,21.1,11.6s15.9-8.1,17.4-16.6"/>
	<path fill="#754C29" d="M538.5,758c4.3,0.3,8.4-0.2,12.3-1.4c3.9-1.2,7.6-3.1,10.7-5.5c3.2-2.4,5.9-5.3,7.9-8.6l0.4-0.6l0.3-0.6
		l0.7-1.3c0.2-0.4,0.4-0.9,0.6-1.3c0.1-0.2,0.2-0.4,0.3-0.6l0.2-0.3l0.1-0.2l0-0.1l0,0c0.1-0.1-0.1,0.2,0,0.1l0.6-1.5l0.3-0.7
		l0.2-0.4l0.1-0.3l0.4-1.3l0.2-0.6l0.1-0.7c0.8-3.7,1-7.6,0.4-11.3c-0.5-3.8-1.8-7.5-3.6-10.8l-0.7-1.2l-0.8-1.2
		c-0.5-0.8-1.1-1.5-1.7-2.3c-0.3-0.4-0.6-0.7-0.9-1.1l-1-1c-0.3-0.4-0.7-0.6-1-1l-0.5-0.5l-0.3-0.2l-0.1-0.1l-0.1-0.1l0,0
		c0,0,0.2,0.2,0.1,0.1c-1.7-1.2-3.5-2.6-5-3.3l-1.2-0.7c-0.4-0.2-0.9-0.4-1.3-0.6l-1.3-0.6l-0.7-0.3l-0.7-0.2
		c-3.6-1.2-7.4-1.7-11.4-1.7c-4,0-8,0.4-12.1,1c-4.1,0.6-8.3,1.3-12.7,1.7c-1.1,0.1-2.2,0.2-3.3,0.3l-1.6,0.1l-1.7,0l-1.7,0l-0.4,0
		l-0.2,0l-0.3,0l-0.8,0c-0.5,0-1.1,0-1.7-0.1c-0.6,0-1.2-0.1-1.7-0.1c-4.5-0.5-8.7-1.4-12.8-2.2c-4.1-0.9-8.2-1.7-12.1-2.1
		c-4-0.4-7.8-0.4-11.4,0.6c-3.5,0.9-6.6,2.8-9.2,5.5l0.1-4.5l18.5,21.1l-5.1,0l1.2-1.3l1.2-1.2l1.3-1.1l1.4-1l1.4-0.9l1.5-0.9
		l1.5-0.8l1.6-0.7l1.6-0.6l1.6-0.5l1.7-0.4l1.7-0.3l1.7-0.2l1.7-0.1l1.7,0l1.7,0.1l8.4,0.7l-6.7,5.3L478,727.9l1-4.1l0.6,1.2
		l0.7,1.1l0.8,1l0.9,1l1,0.9c0.3,0.3,0.7,0.6,1,0.9l1,0.9l1.1,0.8l1.2,0.7l1.2,0.6l1.3,0.5l1.3,0.4l1.4,0.3l1.4,0.2l1.4,0.1l0.7,0
		l0.4,0l0.2,0l0.1,0l0,0l0,0l0,0c0,0,0.1,0-0.1,0l1.6-0.2c0.4-0.1,0.9-0.2,1.3-0.2l1.4-0.4l1.4-0.5l1.4-0.6l1.3-0.7l1.3-0.8l1.2-0.9
		l1.2-1l1.1-1.1l1-1.2l0.9-1.2l0.8-1.3l0.7-1.4l0.6-1.5l0.5-1.5l-0.2,1.6l-0.3,1.6l-0.5,1.6l-0.6,1.5L512,728l-0.9,1.4l-1,1.4
		l-1.1,1.3l-1.2,1.2l-1.3,1.1l-1.4,1l-1.5,0.9l-1.5,0.8l-1.6,0.7l-1.8,0.6l-1.6,0.4l-1.9,0.3l-1.8,0.1l-1.8,0l-1.8-0.2l-1.8-0.3
		l-1.8-0.5l-1.7-0.6l-1.7-0.7l-1.6-0.8l-1.6-1c-0.5-0.4-1-0.7-1.5-1.1l-1.3-1.3l-1.2-1.4l-1.1-1.5l-1-1.6l-0.9-1.7l-1.2-2.4l2.2-1.7
		l20.3-15.9l1.7,6l-1.3-0.1l-1.3,0l-1.3,0.1l-1.3,0.1l-1.3,0.2l-1.3,0.3l-1.2,0.4l-1.2,0.4l-1.2,0.5l-1.2,0.6l-1.1,0.7l-1.1,0.7
		l-1,0.8l-1,0.8l-0.9,0.9l-0.9,1l-2.6,2.9l-2.5-2.9l-18.5-21.1l-2-2.3l2.1-2.2c1.7-1.7,3.5-3.3,5.6-4.5c2.1-1.3,4.4-2.2,6.7-2.8
		c4.7-1.3,9.4-1.3,13.8-0.8c4.4,0.5,8.7,1.3,12.8,2.2c4.1,0.9,8.2,1.7,12.1,2.1c0.5,0.1,1,0.1,1.4,0.1c0.5,0,0.9,0.1,1.5,0.1l0.8,0
		l0.7,0l1.5,0l1.5,0l1.5-0.1c1-0.1,2-0.1,3-0.3c4.1-0.4,8.2-1.1,12.4-1.7c4.2-0.6,8.6-1.1,13.1-1.1c1.1,0,2.2,0,3.4,0.1l3.4,0.3
		l3.4,0.6c1.1,0.3,2.2,0.6,3.3,1l0.8,0.3l0.8,0.3l1.6,0.7c0.5,0.2,1.1,0.4,1.6,0.7l1.6,0.9c2.3,1.2,3.8,2.4,5.5,3.7l0.2,0.1l0,0
		l0.1,0.1l0.2,0.1l0.3,0.3l0.7,0.6c0.4,0.4,0.9,0.8,1.3,1.2l1.2,1.3c0.4,0.4,0.8,0.9,1.1,1.3c0.7,0.9,1.5,1.8,2.1,2.8l1,1.5l0.8,1.5
		c2.2,4.1,3.7,8.5,4.4,13.1c0.6,4.6,0.5,9.3-0.5,13.8l-0.2,0.9l-0.3,0.9l-0.5,1.8l-0.1,0.4l-0.1,0.4l-0.3,0.7l-0.6,1.5l-0.1,0.2l0,0
		l0,0.1l-0.1,0.2l-0.2,0.4l-0.4,0.8c-0.3,0.5-0.5,1-0.9,1.5l-1,1.4l-0.5,0.7l-0.6,0.7c-3,3.5-6.7,6.4-10.6,8.5
		c-3.9,2.2-8.3,3.5-12.6,4C547,759.5,542.5,759.2,538.5,758z"/>
</g>
<path fill="none" stroke="#754C29" stroke-width="6.75" stroke-miterlimit="10" d="M380.5,492.2c-5.8,0.9-12.3-0.4-16.3-4.8
	c-3.9-4.3-4.1-11.9,0.6-15.3c4.7-3.5,13.1-0.1,13,5.7c-0.1,3.1-2.7,6-5.9,6.4s-6.6-1.7-7.6-4.7"/>
<path fill="none" stroke="#754C29" stroke-width="6.75" stroke-miterlimit="10" d="M400.4,491.7c5.3-0.3,10.9-2.8,13.6-7.3
	c2.7-4.5,1.5-11.1-3.2-13.2c-4.8-2.1-11.7,2.5-10.6,7.5c0.6,2.7,3.5,4.7,6.4,4.4c2.9-0.3,5.6-2.8,5.9-5.6"/>
<path id="SVGID_x5F_1_x5F_" fill="none" d="M233,925.8c111,19,223.8,20,334.9,2.9"/>
<text><textPath  xlink:href="#SVGID_x5F_1_x5F_" startOffset="0.823%">
<tspan  opacity="0.33" fill="#D4D4D4" font-family="'FFFTusj-Bold'" font-size="12">      </tspan><tspan  opacity="0.33" fill="#754C29" font-family="'FFFTusj-Bold'" font-size="12"> </tspan><tspan  opacity="0.33" fill="#724829" font-family="'FFFTusj-Bold'" font-size="12">Monica M Raffaelli 2015</tspan></textPath>
</text>
<g>
	<path fill="#603913" d="M450.6,957.7c1.9,0.9,3.7,1.8,5.6,2.7c1.8,1,3.7,2,5.5,3l2.7,1.7l2.6,1.8l2.6,1.9c0.8,0.7,1.6,1.4,2.5,2
		c0.8,0.7,1.6,1.5,2.4,2.2c0.8,0.8,1.5,1.6,2.2,2.4c0.7,0.8,1.4,1.7,2.1,2.6c0.7,0.9,1.2,1.8,1.8,2.8c0.5,1,1,2,1.5,3
		c0.4,1,0.8,2.1,1.2,3.2c0.3,1.1,0.5,2.2,0.8,3.4l0.3,3.5l0.3,2.6l-2.9,0.2c-4.7,0.4-9.3,0.7-14,1.1c-4.7,0.3-9.3,0.6-14,0.9
		l-3.7,0.2l0.2-3.8l0.1-1.3l0-1.3l-0.1-1.3l-0.2-1.3l-0.2-1.3l-0.3-1.3L449,986l-0.5-1.2l-0.5-1.2l-0.6-1.2l-0.7-1.1l-0.7-1.1
		l-0.8-1l-0.9-1l-0.9-0.9l-1-0.9l5.4-2.9c0.3,3,0.8,6,1.1,9.2c0.3,3.2,0.7,6.4,0.5,9.8c-0.1,1.7-0.3,3.5-1,5.4
		c-0.3,0.9-0.9,1.9-1.6,2.8c-0.8,0.9-1.8,1.7-2.9,2.1c-0.6,0.3-1.1,0.4-1.7,0.5c-0.5,0.1-1.1,0.1-1.6,0.2c-0.5,0-1,0-1.5-0.1
		l-1.4-0.2c-1.8-0.4-3.4-1-4.9-1.7c-0.4-0.2-0.7-0.4-1.1-0.5l-1.2-0.6c-0.7-0.4-1.3-0.8-2-1.3c-0.7-0.6-1.5-1.1-2.1-1.7
		c-0.6-0.6-1.2-1.2-1.8-1.8c-1.1-1.3-2.1-2.7-2.9-4.2c-0.4-0.8-0.8-1.5-1-2.3l-0.4-1.2c-0.1-0.4-0.2-0.8-0.3-1.2l-0.3-1.2l-0.2-1.2
		c-0.1-0.8-0.2-1.6-0.2-2.5c-0.1-1.6,0.2-3.3,0.5-4.9c0.1-0.8,0.4-1.6,0.7-2.3c0.3-0.8,0.6-1.5,0.9-2.2c0.4-0.7,0.8-1.4,1.2-2.1
		c0.5-0.6,0.9-1.3,1.4-1.9l-1,2.1c-0.3,0.7-0.5,1.5-0.8,2.2c-0.2,0.8-0.4,1.5-0.5,2.2c-0.1,0.8-0.2,1.5-0.3,2.2
		c-0.1,1.5,0,3,0.2,4.4c0.1,0.7,0.2,1.5,0.4,2.2l0.3,1.1l0.4,1c0.1,0.3,0.2,0.7,0.4,1l0.5,1c0.3,0.7,0.7,1.2,1.1,1.8
		c0.8,1.2,1.7,2.3,2.7,3.2c0.5,0.5,1.1,0.9,1.6,1.3c0.6,0.4,1.1,0.7,1.6,1.1c0.7,0.4,1.4,0.7,2.1,1l0,0l0,0c-0.2-0.1-0.1,0-0.1-0.1
		l0.1,0l0.1,0.1l0.3,0.1l0.5,0.2c0.3,0.1,0.7,0.3,1,0.4c1.4,0.5,2.7,0.9,4,1.1c1.3,0.2,2.4,0.1,3-0.3c0.3-0.1,0.5-0.4,0.8-0.7
		c0.1-0.2,0.2-0.3,0.3-0.6c0.1-0.2,0.2-0.4,0.3-0.7c0.3-1,0.5-2.4,0.5-3.7c0-2.8-0.4-5.8-0.8-8.8c-0.5-3-1-6.1-1.4-9.3l-1.1-8.5
		l6.5,5.6l1.3,1.1l1.2,1.2l1.1,1.3l1.1,1.3l1,1.4l0.9,1.5l0.8,1.5l0.7,1.5l0.6,1.6l0.5,1.6l0.4,1.7l0.3,1.7l0.2,1.7l0.1,1.7l0,1.7
		l-0.1,1.7l-3.5-3.6c4.7-0.2,9.3-0.4,14-0.6c4.7-0.2,9.3-0.3,14-0.4l-2.7,2.8l-0.1-2.7l-0.4-2.7c-0.3-0.9-0.5-1.8-0.8-2.7
		c-0.4-0.9-0.7-1.7-1.1-2.6c-0.5-0.8-0.9-1.7-1.4-2.5c-0.5-0.8-1-1.6-1.6-2.4c-0.6-0.8-1.2-1.6-1.8-2.3l-2-2.2l-2.1-2.2l-2.2-2.1
		l-2.3-2l-2.4-1.9C457.3,962.6,453.9,960.2,450.6,957.7z"/>
</g>
<g>
	<path fill="#603913" d="M374.9,958.7c-3.3,2.5-6.7,4.9-9.9,7.5l-2.4,1.9l-2.3,2l-2.2,2.1l-2.1,2.2l-2,2.2c-0.6,0.8-1.2,1.6-1.8,2.3
		c-0.6,0.8-1.1,1.6-1.6,2.4c-0.5,0.8-0.9,1.7-1.4,2.5c-0.4,0.9-0.7,1.7-1.1,2.6c-0.3,0.9-0.5,1.8-0.8,2.7l-0.4,2.7l-0.1,2.7
		l-2.7-2.8c4.7,0.1,9.3,0.2,14,0.4c4.7,0.1,9.3,0.4,14,0.6l-3.5,3.6l-0.1-1.7l0-1.7l0.1-1.7l0.2-1.7l0.3-1.7l0.4-1.7l0.5-1.6
		l0.6-1.6l0.7-1.5l0.8-1.5l0.9-1.5l1-1.4l1.1-1.3l1.1-1.3l1.2-1.2l1.3-1.1l6.5-5.6l-1.1,8.5c-0.4,3.2-0.9,6.3-1.4,9.3
		c-0.5,3-0.8,6-0.8,8.8c0,1.4,0.1,2.7,0.5,3.7c0.1,0.3,0.2,0.5,0.3,0.7c0.1,0.2,0.2,0.4,0.3,0.6c0.2,0.3,0.4,0.5,0.8,0.7
		c0.6,0.4,1.7,0.5,3,0.3c1.3-0.2,2.6-0.6,4-1.1c0.3-0.1,0.7-0.3,1-0.4l0.5-0.2l0.3-0.1l0.1-0.1l0.1,0c0,0,0.1-0.1-0.1,0.1l0,0l0,0
		c0.7-0.4,1.4-0.7,2.1-1c0.5-0.4,1.1-0.7,1.6-1.1c0.5-0.5,1.1-0.9,1.6-1.3c1-1,1.9-2,2.7-3.2c0.4-0.6,0.8-1.2,1.1-1.8l0.5-1
		c0.2-0.3,0.3-0.7,0.4-1l0.4-1l0.3-1.1c0.2-0.7,0.3-1.4,0.4-2.2c0.2-1.5,0.3-2.9,0.2-4.4c0-0.8-0.2-1.5-0.3-2.2
		c-0.1-0.7-0.4-1.5-0.5-2.2c-0.2-0.7-0.5-1.4-0.8-2.2l-1-2.1c0.5,0.6,0.9,1.3,1.4,1.9c0.4,0.7,0.8,1.4,1.2,2.1
		c0.3,0.7,0.7,1.5,0.9,2.2c0.2,0.8,0.5,1.5,0.7,2.3c0.3,1.6,0.6,3.2,0.5,4.9c0,0.8,0,1.6-0.2,2.5l-0.2,1.2l-0.3,1.2
		c-0.1,0.4-0.2,0.8-0.3,1.2l-0.4,1.2c-0.3,0.8-0.6,1.6-1,2.3c-0.8,1.5-1.8,2.9-2.9,4.2c-0.6,0.7-1.2,1.2-1.8,1.8
		c-0.7,0.6-1.4,1.1-2.1,1.7c-0.7,0.4-1.3,0.8-2,1.3l-1.2,0.6c-0.4,0.2-0.7,0.4-1.1,0.5c-1.5,0.7-3.1,1.3-4.9,1.7l-1.4,0.2
		c-0.5,0-1,0.1-1.5,0.1c-0.5,0-1.1-0.1-1.6-0.2c-0.6-0.1-1.1-0.2-1.7-0.5c-1.1-0.4-2.1-1.3-2.9-2.1c-0.7-0.9-1.3-1.9-1.6-2.8
		c-0.7-1.9-0.9-3.7-1-5.4c-0.2-3.4,0.2-6.7,0.5-9.8c0.3-3.1,0.8-6.2,1.1-9.2l5.4,2.9l-1,0.9l-0.9,0.9l-0.9,1l-0.8,1l-0.7,1.1
		l-0.7,1.1l-0.6,1.2l-0.5,1.2l-0.5,1.2l-0.4,1.2l-0.3,1.3l-0.2,1.3l-0.2,1.3l-0.1,1.3l0,1.3l0.1,1.3l0.2,3.8l-3.7-0.2
		c-4.7-0.3-9.3-0.6-14-0.9c-4.7-0.3-9.3-0.7-14-1.1l-2.9-0.2l0.3-2.6l0.3-3.5c0.3-1.1,0.5-2.2,0.8-3.4c0.4-1.1,0.8-2.2,1.2-3.2
		c0.5-1,1-2,1.5-3c0.6-0.9,1.2-1.9,1.8-2.8c0.7-0.9,1.4-1.7,2.1-2.6c0.7-0.8,1.5-1.6,2.2-2.4c0.8-0.7,1.6-1.5,2.4-2.2
		c0.8-0.7,1.6-1.4,2.5-2l2.6-1.9l2.6-1.8l2.7-1.7c1.8-1.1,3.6-2.1,5.5-3C371.1,960.5,373,959.6,374.9,958.7z"/>
</g>
<g>
	<path fill="#C49A6C" d="M445.8,433c11.9-13.7,13.8-44.9-2.1-54.6c-25.3-15.5-9.2,36.8-23.3,47"/>
	<path fill="#754C29" d="M445.8,433c0,0,0.3-0.4,0.8-1.2c0.5-0.8,1.1-1.9,1.9-3.4c0.7-1.5,1.5-3.4,2.2-5.6c0.7-2.2,1.3-4.7,1.7-7.5
		c0.4-2.8,0.7-5.8,0.7-9c0-3.2-0.3-6.5-1.1-9.9c-0.4-1.7-0.9-3.3-1.5-4.9c-0.6-1.6-1.4-3.1-2.3-4.6c-0.9-1.5-2-2.8-3.2-3.9
		c-0.3-0.3-0.6-0.6-0.9-0.8c-0.3-0.3-0.6-0.5-1-0.8c-0.3-0.2-0.7-0.5-1-0.7c-0.4-0.2-0.9-0.5-1.2-0.7c-1.4-0.8-3.1-1.5-4.4-1.7
		c-0.7-0.1-1.2,0-1.6,0.1c-0.4,0.1-0.8,0.4-1.2,0.8c-0.8,0.8-1.5,2.3-1.9,3.9c-0.5,1.6-0.8,3.3-1,5c-0.5,3.5-0.8,6.9-1.1,10.2
		c-0.3,3.3-0.7,6.5-1.1,9.4c-0.4,2.9-1,5.6-1.7,7.9c-0.7,2.3-1.6,4.3-2.5,5.8c-0.9,1.5-2,2.5-2.7,3c-0.4,0.3-0.7,0.5-0.9,0.6
		c-0.2,0.1-0.3,0.2-0.3,0.2s0.1-0.1,0.3-0.3c0.2-0.2,0.4-0.4,0.7-0.8c0.6-0.7,1.3-1.8,1.9-3.3c0.6-1.5,1.1-3.5,1.4-5.7
		c0.3-2.3,0.5-4.9,0.6-7.7c0.1-2.9,0.1-6,0.1-9.3c0-3.3,0.1-6.9,0.4-10.6c0.2-1.9,0.4-3.8,0.9-5.8c0.5-2,1.2-4.2,2.9-6.2
		c0.9-1,2.1-1.9,3.5-2.4c1.4-0.5,2.8-0.5,4.1-0.4c2.5,0.3,4.5,1.3,6.4,2.3c0.5,0.3,0.9,0.5,1.3,0.7c0.5,0.3,0.9,0.6,1.4,0.9
		c0.5,0.3,0.9,0.7,1.3,1c0.4,0.3,0.8,0.7,1.2,1.1c1.6,1.5,2.9,3.3,4,5.1c2.1,3.7,3.3,7.6,3.9,11.4c0.6,3.8,0.7,7.5,0.4,11
		c-0.3,3.5-0.9,6.7-1.7,9.5c-1.6,5.8-4.1,10.2-6.1,13c-1,1.4-1.9,2.4-2.6,3.1C446.1,432.7,445.8,433,445.8,433z"/>
</g>
<g>
	<path fill="#C49A6C" d="M314.7,444.5c-13.8-11.7-20.5-42.3-6.2-54.3c22.7-19.1,14.7,35,30.2,42.9"/>
	<path fill="#754C29" d="M314.7,444.5c0,0-0.4-0.3-1.1-0.8c-0.7-0.6-1.8-1.4-3-2.6c-2.4-2.5-5.5-6.4-8-11.9
		c-1.2-2.7-2.4-5.8-3.2-9.2c-0.8-3.4-1.3-7-1.3-10.9c0-3.8,0.6-7.9,2.2-11.9c0.8-2,1.8-3.9,3.1-5.6c0.3-0.4,0.7-0.9,1-1.3
		c0.4-0.4,0.7-0.8,1.1-1.2c0.4-0.4,0.8-0.7,1.3-1.1c0.4-0.3,0.7-0.6,1.2-0.9c1.8-1.3,3.6-2.5,6-3.2c1.2-0.3,2.6-0.5,4.1-0.3
		c1.5,0.2,2.8,1,3.8,1.8c2,1.7,3,3.8,3.8,5.7c0.8,1.9,1.3,3.8,1.8,5.6c0.9,3.7,1.5,7.1,2,10.4c0.5,3.3,1,6.4,1.5,9.2
		c0.6,2.8,1.1,5.4,1.8,7.6c0.7,2.2,1.5,4,2.3,5.5c0.8,1.4,1.7,2.4,2.4,3c0.3,0.3,0.6,0.5,0.8,0.6c0.2,0.1,0.3,0.2,0.3,0.2
		s-0.1,0-0.3-0.1c-0.2-0.1-0.5-0.2-0.9-0.5c-0.8-0.5-2-1.3-3.1-2.6c-1.2-1.3-2.3-3.1-3.4-5.3c-1.1-2.2-2-4.7-2.9-7.6
		c-0.9-2.8-1.7-5.9-2.5-9.1c-0.8-3.2-1.6-6.6-2.7-10c-0.5-1.7-1.1-3.3-1.8-4.8c-0.7-1.5-1.6-2.9-2.5-3.6c-0.5-0.3-0.9-0.5-1.3-0.6
		c-0.5-0.1-1,0-1.6,0.2c-1.3,0.4-2.8,1.3-4.1,2.3c-0.3,0.2-0.7,0.6-1.1,0.9c-0.3,0.2-0.6,0.5-0.9,0.8c-0.3,0.3-0.6,0.6-0.9,0.9
		c-0.3,0.3-0.6,0.6-0.8,1c-1,1.3-1.9,2.8-2.5,4.3c-0.6,1.6-1.2,3.2-1.5,4.9c-0.3,1.7-0.6,3.4-0.7,5.1c-0.2,3.4,0,6.8,0.5,9.9
		c0.5,3.2,1.2,6.1,2,8.8c0.9,2.7,1.9,5.1,2.9,7.2c1,2.1,2.1,3.8,3,5.2c1,1.4,1.8,2.4,2.4,3.1C314.4,444.1,314.7,444.5,314.7,444.5z"
		/>
</g>
<g>
	<path fill="#754C29" d="M242.2,497.3c-5.4-1.4-10.9-2.9-16.2-4.6c-5.4-1.7-10.7-3.6-15.9-6c-5.2-2.4-10.3-5.1-15.1-8.5
		c-1.2-0.8-2.4-1.7-3.5-2.7c-0.6-0.5-1.1-1-1.6-1.5l-0.8-0.8l-0.2-0.2l-0.2-0.2l-0.1-0.1l-0.4-0.4c-0.9-1.1-1.9-2-2.9-3.2l-1.5-1.8
		c-0.5-0.6-0.9-1.2-1.3-1.8c-3.5-4.8-6.2-10.2-8.1-15.9c-1.8-5.7-2.7-11.8-2.2-17.9c0-0.4,0-0.8,0.1-1.1l0.2-1.1l0.3-2.3
		c0.1-0.8,0.4-1.5,0.5-2.2c0.2-0.7,0.3-1.5,0.6-2.2l0.8-2.2c0.1-0.4,0.3-0.7,0.4-1.1l0.5-1l1.1-2.1l0.1-0.3l0-0.1
		c0,0.1,0.1-0.2,0.1-0.2l0.1-0.1l0.3-0.4l0.6-0.9c3.4-5.3,8.1-9.4,13.3-12.5c5.2-3.1,10.9-5.1,16.8-6.2c1.5-0.3,2.9-0.5,4.5-0.6
		l2.1-0.2l2.3-0.1c3-0.1,5.9,0.1,8.8,0.4c5.8,0.6,11.5,1.9,17,3.5c5.5,1.6,10.9,3.7,16.1,5.8c5.3,2.2,10.4,4.6,15.5,7.3
		c5,2.7,10,5.6,14.7,8.7c9.6,6.2,18.6,13.3,26.8,21.2l-3.5-0.7l8.1-2.9c2.7-0.9,5.4-1.8,8.2-2.6c2.8-0.8,5.5-1.6,8.3-2.4
		c2.8-0.7,5.5-1.4,8.3-2.1l8.4-1.8l8.4-1.6l8.5-1.3l8.5-1l8.6-0.7c2.9-0.2,5.7-0.3,8.6-0.4c2.9-0.1,5.7,0,8.6-0.1
		c1.4,0,2.9,0.1,4.3,0.1c1.4,0,2.9,0.1,4.3,0.1c1.4,0.1,2.9,0.4,4.3,0.5l4.3,0.6c2.8,0.5,5.7,1.1,8.5,1.6c2.8,0.6,5.6,1.3,8.4,2
		c2.8,0.8,5.5,1.7,8.2,2.6l0.9,0.3l0.1,0.8c0.6,3.5,1.3,6.9,1.9,10.4l1.8,10.4l-3.3-10c-1.1-3.3-2.2-6.7-3.3-10l1,1
		c-2.8-0.5-5.5-1-8.3-1.4c-2.8-0.3-5.5-0.7-8.3-1c-2.8-0.2-5.6-0.5-8.3-0.6l-8.3-0.2c-2.8,0-5.5-0.4-8.3-0.4c-2.8,0-5.6,0-8.3,0.1
		c-2.8,0.1-5.6,0.2-8.3,0.4l-8.3,0.7l-8.3,1l-8.3,1.2l-8.2,1.5l-8.2,1.8c-2.7,0.6-5.4,1.4-8.1,2c-2.7,0.7-5.4,1.5-8,2.3
		c-2.7,0.8-5.3,1.7-8,2.6l-7.9,2.8l-2,0.7l-1.5-1.4c-8-7.6-16.7-14.4-25.9-20.4c-4.6-3-9.3-5.8-14.2-8.4c-4.9-2.6-9.9-4.9-14.9-7
		c-5.1-2.1-10.3-4.1-15.5-5.6c-5.2-1.5-10.5-2.8-15.8-3.3c-2.7-0.3-5.3-0.4-7.9-0.4l-1.9,0.1l-2.1,0.2c-1.2,0.1-2.6,0.3-3.8,0.5
		c-2.6,0.5-5.1,1.1-7.6,2c-2.4,0.9-4.8,2-7,3.3c-4.4,2.6-8.3,6.2-11,10.3l-0.6,0.9l-0.3,0.4l-0.1,0.1c0,0,0.1-0.2,0-0.1l0,0.1
		l-0.1,0.2l-0.8,1.7l-0.4,0.8c-0.1,0.3-0.2,0.6-0.3,0.9l-0.7,1.8c-0.2,0.6-0.3,1.2-0.5,1.8c-0.1,0.6-0.3,1.2-0.5,1.8l-0.3,1.9
		l-0.1,0.9c0,0.3,0,0.6-0.1,1c-0.4,5.1,0.4,10.3,1.9,15.3c1.6,5,4.1,9.7,7.1,14c0.4,0.5,0.8,1.1,1.2,1.6l1.2,1.5c0.7,1,1.8,2,2.8,3
		l0.4,0.4l0.1,0.1l0,0c-0.2-0.2,0,0,0,0l0.2,0.2l0.7,0.7c0.5,0.5,1,0.9,1.5,1.4c1,0.9,2,1.8,3,2.7c4,3.6,8.5,6.7,13.2,9.6
		c4.7,2.8,9.7,5.4,14.7,7.8C231.9,492.8,237.1,495.1,242.2,497.3z"/>
</g>
<g>
	<path fill="#754C29" d="M233,932c0,0,1.3,0.1,3.8,0.4c2.4,0.3,6.1,0.7,10.6,1.2c2.3,0.3,4.8,0.6,7.6,0.9c2.8,0.3,5.7,0.6,8.9,0.9
		c3.2,0.3,6.6,0.7,10.1,1.1c3.6,0.3,7.3,0.7,11.2,1.1c3.9,0.4,8,0.8,12.2,1.1c4.2,0.3,8.6,0.7,13.1,1c2.2,0.2,4.5,0.4,6.8,0.5
		c2.3,0.1,4.6,0.3,7,0.4c4.7,0.3,9.5,0.6,14.4,0.9c4.9,0.2,9.9,0.5,14.9,0.7c5,0.3,10.2,0.4,15.3,0.6c10.3,0.5,20.8,0.5,31.3,0.7
		c10.5,0,21,0.1,31.3-0.1c2.6,0,5.1-0.1,7.7-0.1c2.6,0,5.1-0.1,7.6-0.2c5.1-0.2,10-0.3,15-0.5c4.9-0.2,9.7-0.5,14.5-0.7
		c2.4-0.1,4.7-0.2,7-0.3c2.3-0.1,4.6-0.3,6.8-0.4c4.5-0.3,8.9-0.6,13.1-0.8c4.2-0.3,8.3-0.6,12.2-0.9c3.9-0.3,7.7-0.6,11.3-0.9
		c3.6-0.3,7-0.6,10.2-0.9c3.2-0.3,6.2-0.5,8.9-0.8c2.8-0.2,5.3-0.5,7.6-0.8c4.6-0.5,8.2-0.8,10.6-1c2.5-0.2,3.8-0.4,3.8-0.4
		s-1.3,0.2-3.7,0.7c-2.4,0.5-6,1.2-10.5,2c-2.3,0.4-4.8,0.9-7.5,1.4c-2.7,0.4-5.7,0.9-8.9,1.4c-3.2,0.5-6.5,1-10.1,1.6
		c-3.6,0.5-7.3,1-11.2,1.5c-3.9,0.5-8,1.1-12.2,1.5c-4.2,0.4-8.6,0.9-13.1,1.3c-2.3,0.2-4.5,0.5-6.9,0.7c-2.3,0.2-4.7,0.4-7,0.6
		c-4.7,0.4-9.6,0.7-14.5,1.1c-9.9,0.5-20.1,1.2-30.4,1.3c-10.4,0.4-20.9,0.3-31.5,0.4c-10.5-0.3-21.1-0.4-31.5-0.9
		c-10.4-0.3-20.6-1.2-30.4-1.9c-4.9-0.4-9.8-0.9-14.5-1.3c-2.4-0.2-4.7-0.5-7-0.7c-2.3-0.3-4.6-0.5-6.8-0.8
		c-4.5-0.5-8.9-1.1-13.1-1.6c-4.2-0.6-8.3-1.2-12.2-1.8c-3.9-0.6-7.7-1.1-11.2-1.7c-3.5-0.6-6.9-1.2-10.1-1.8
		c-3.2-0.6-6.1-1.1-8.9-1.6c-2.7-0.5-5.2-1-7.5-1.5c-4.5-0.9-8-1.7-10.5-2.2C234.3,932.3,233,932,233,932z"/>
</g>
</svg>
