<?xml version="1.0" encoding="utf-8"?>
<!-- Generator: Adobe Illustrator 18.1.1, SVG Export Plug-In . SVG Version: 6.00 Build 0)  -->
<svg version="1.1" id="Layer_1" xmlns="http://www.w3.org/2000/svg" xmlns:xlink="http://www.w3.org/1999/xlink" x="0px" y="0px"
	 viewBox="0 0 87.9 36.4" enable-background="new 0 0 87.9 36.4" xml:space="preserve">
<g>
	<g>
		<g>
			<g>
				<g>
					<polygon fill="#FFFFFF" points="72.4,17 72.1,16.5 71.7,17.5 					"/>
					<path fill="#FFFFFF" d="M66.1,19.1c-0.2,0.9-1,1.8-0.4,3l0.4-1.5c0.6,0.8,1.2,0.5,1.6-0.1L67,20.8c0.1-0.2-0.3-0.7-0.2-0.9
						c1.2,0,0.8-1.4,2.2-0.8l0,0.1l0.4-0.9c0.3,0,0.4,0.5,0.4,0.7c0.4-0.8,0.7-1.5,1.6-1.8c-0.7-0.7-1.1-0.2-1.4,0.4
						c-0.4,0.5-0.7,1.1-1.4,0.4l0-0.1C68.1,18.8,66.7,18.2,66.1,19.1z"/>
					<path fill="#FFFFFF" d="M69.8,19L69.8,19C69.8,19.1,69.8,19.1,69.8,19z"/>
					<path fill="#FFFFFF" d="M36.9,29.5l0,0.3C36.9,29.7,37,29.6,36.9,29.5z"/>
					<path fill="#FFFFFF" d="M47.5,31L47.5,31C47.5,31.4,47.5,31.3,47.5,31z"/>
					<path fill="#FFFFFF" d="M7.6,14.9l-0.4,0.3C7.5,15.1,7.6,15,7.6,14.9z"/>
					<path fill="#FFFFFF" d="M23.6,24.5L23.6,24.5L23.6,24.5z"/>
					<path fill="#FFFFFF" d="M15.8,19.8l0.1-0.3C15.9,19.6,15.8,19.7,15.8,19.8z"/>
					<path fill="#FFFFFF" d="M19.2,19.5c0.1,0.1,0.2,0.1,0.3,0.1C19.4,19.4,19.3,19.4,19.2,19.5z"/>
					<path fill="#FFFFFF" d="M23.4,24.8c0-0.1,0.1-0.2,0.1-0.2C23.5,24.6,23.4,24.7,23.4,24.8z"/>
					<path fill="#FFFFFF" d="M13.6,15.4c0,0,0.2-0.1,0.5-0.1c0.2-0.1,0.5-0.1,0.5-0.1C14.2,15.2,13.9,15.3,13.6,15.4z"/>
					<path fill="#FFFFFF" d="M19.6,18.6c0.1,0.2,0.2,0.2,0.3,0.3C19.7,18.7,19.6,18.5,19.6,18.6z"/>
					<path fill="#FFFFFF" d="M65.2,19.6c0.1-0.1,0.3-0.2,0.4-0.3C65.4,19.3,65.3,19.4,65.2,19.6z"/>
					<path fill="#FFFFFF" d="M29,8.9c-0.1,0.1-0.2,0.1-0.3,0.2C28.8,9.1,28.9,9,29,8.9z"/>
					<path fill="#FFFFFF" d="M17.9,9L17.9,9c0,0.1,0.1,0.1,0.1,0.2L17.9,9z"/>
					<path fill="#FFFFFF" d="M21.2,7.5c0,0.1,0,0.1,0,0.2C21.2,7.6,21.2,7.5,21.2,7.5z"/>
					<path fill="#FFFFFF" d="M16.6,11.4c0,0.1,0.1,0.2,0.2,0.3L16.6,11.4z"/>
					<path fill="#FFFFFF" d="M14.7,12.6c0.4,0,0.6,0.3,0.9,0.4c0.3-0.1,0.2-0.3,0.1-0.5c-0.1-0.2,0-0.4,0.4-0.4c0,0-0.1,0-0.3,0
						c-0.1,0-0.3,0-0.3,0c-0.5-0.7-0.1-1.4,0.9-1l0.2,0.3c-0.2-0.4,0.1-0.4,0.4-0.4c0.3,0,0.5,0,0.4-0.3C17,10.4,17,10.1,16.5,10
						c0,0,0.3-1.3,0.3-1.3l0.8,1c0,0,0-0.2,0.1-0.3c0-0.2,0.1-0.3,0.1-0.3c-0.4-0.4,0.8,0,0.3-1.1c0.5,0.3,0.3,0.9,0.5,1.4
						c0.1-0.5,0.4,0,0.3-0.8c0,0,0.2,0.2,0.4,0.4c0.2,0.2,0.4,0.5,0.4,0.5s0.1-0.3,0.2-0.5c0.1-0.3,0.2-0.5,0.2-0.5
						c0,0.1,0.1,0.2,0.1,0.3c0-0.5,0.3-0.5,0.5-0.5c0.3,0,0.5-0.1,0.5-1c0,0.1,0,0.1,0,0.2c0.1-0.9,0.9-0.5,1.2-0.3
						c0.4-0.3,0-1.1,0-1.6c0.7,0.1,1,0.1,1.2-0.1c0.2-0.2,0.4-0.5,1-1.2c0.4,0.7,0.1,1.3-0.1,1.8c-0.2,0.5-0.3,1,0.1,1.5
						c0.1-0.7,0.7-1.2,1.4-1.4c0.5,0.6,1.4,1.2,1.3,2.3l0.3-0.9c0,0,0.9-0.2,0.9-0.2c0,0-0.3,0.3-0.5,0.5c-0.2,0.3-0.4,0.5-0.4,0.5
						c0.2-0.2,0.8-0.6,1.2-0.9c1.1-0.2-0.9,1.9,0.4,1C29.1,8.7,29,8.8,29,8.9c0.6-0.4,0.7,0.1,1.2,0.3c0,0-0.3,0.1-0.5,0.3
						c-0.3,0.2-0.5,0.3-0.5,0.3l0-0.4c-0.4,0.4-0.3,0.5-0.1,0.5c0.2,0,0.6-0.1,0.6,0.1c0.5,0,1.3-0.5,1.7-0.5c0,0.2,0.4,0.2,0.2,0.5
						c-0.2,0.5-1.3,0.5-1.8,0.7c0.6-0.1,0.9-0.1,1.1-0.1c0.2,0.1,0.4,0.2,0.7,0.5c-0.6,0.2-0.8,0.2-0.9,0.1c0.2,0.1,0.4,0.1,1,0.1
						c0,0-0.2,0.1-0.3,0.2c-0.2,0.1-0.3,0.2-0.3,0.2c-0.4,0.4,0.1,0.5,0.8,0.7c0.6,0.2,1.4,0.5,1.2,0.9c-0.3-0.1-0.3,0.1-0.3,0.3
						c0,0.3-0.1,0.7-0.5,0.8c-0.1-0.4-1.7-0.2-2.4-0.6c-0.6,0.8,1.3,0.6,1.4,1.4l-1.4-0.6c0.5,0.8,0.7,0.3,1,1.2
						c-0.4-0.3-0.5,0.2-0.8-0.3c-0.4,0.9-0.2,0.7-0.6,1.5l1.4,0.4c0.1,0.3-0.6,0.3-0.8,0.3c0-0.1,0.1-0.3-0.1-0.3
						c-1.3,0,0.5,0.7-0.7,0.8c0.5,0,1.1,0.1,1.1,0.4c-0.8-0.3-0.9,0.3-1.3,0.3c0.6-0.1,0.1,0.8,1,1.1c-0.7,0.2-0.6-0.3-1.1-0.4
						c1,0.6-0.2,1.5,0.3,1.9c-0.1,0-0.2,0-0.2,0c0.5,0.6,0.5,1.4,1.2,2.5l-0.7-0.5c-0.6,0.8,1.5,1,1.3,1.7c-1.1-0.5-0.2,1.2-1.4,0.5
						c0.5,0.6,0.7,1.1,1.6,1.7c-0.7,0.2-1.3-1.2-1.8-0.7c0,0,0.1,0.2,0.2,0.4c0.1,0.2,0.2,0.4,0.2,0.4l-0.7,0
						c0.5,0.1,0.3,0.8,0.7,0.8c-0.8,0-1.5,0.3-2,0.3c0,0.1,0,0.3-0.1,0.5c-0.1,0,0.1,0,0.2,0l0.4,0c0.2,0,0.5,0,0.7,0l0.8,0l0.2,0
						l0.1,0c0,0,0,0,0,0l0,0c-0.1,0.2-0.1,0.3-0.2,0.6l0,0c-0.1,0.3-0.3,1-0.5,1.2c0,0,0,0,0,0c0,0,0,0,0,0.1c0,0,0,0.3,0,0.3
						c0,0.3,0.2,0.4,0.4,0.3c0.1,0,0.2-0.1,0.4-0.1c0.2-0.1,0.4-0.2,0.6-0.2c0.1,0,0.3,0.1,0.5,0.1c0.1,0,0.2,0.1,0.3,0.2
						c-0.7,0.2-0.9,0.4-0.9,0.7c0,0.3,0.2,0.6,0.1,0.8c0.3,0.2,1.5,0.5,2.1,0c-0.7,0.5-0.8,1.1-1.7,0.9c-0.2,0.7,0.2,0.8,0.8,0.7
						c0.5,0,1.1-0.3,1.6-0.1L33,35.2c1.3-0.1,1.5-1.3,2.2-2.4c0,0.8-0.1,1-0.6,1.8c0.7,0.6,2,0.2,2.9,0.2c0.3,0.6,0.1,0.9-0.2,1.2
						c0.5-0.3,1-0.3,1.5-0.4c0.5-0.1,0.9-0.3,1.1-1.1c-0.2,0.6,0.4,0.3,0.8,0.6c0-0.3,0-0.7,0-0.7c0.5-0.7,1.5-1.4,2.2-1L42.7,34
						c1.5-0.1,1.4-2.7,3.1-2.1c0.4,0.2,0.1,1.2,0.6,1c0.1-0.6-0.3-1.6,0.4-1.6l0.3,0.9l0.1-1.1c-0.5-0.7-1.1-0.1-0.9-1.2
						c0.9,0.6,0.2-1,1.3-0.3c-0.1,0.2-0.1,0.9-0.1,1.3c1.9,0.5,1.7-1.7,3.7-1.2c0.4-1,1.3-1.6,1.5-2.5c0.4,0.9,0.7,1.6,0.7,2.5
						c0.7-0.2,0-2.3,1.1-1.2c-0.3-1.3,1.4-1.6,0.7-3.3c0.2,0.3,0.7-0.3,0.5,0.9c0.6-1,1.8,0.9,2.2,0.6c0.2-0.2-0.8-0.9-0.3-1.2
						c0.1,0,0.2,0.2,0.3,0.2l0-0.5c0.4,0.3,0.2,0.9,0.4,1.3c0.9,0,0.6-1.5,1.4-2.1l0,0.4l0.9-0.4l0,0.1l0.4-0.9l0.2,0.4
						c0.1-0.2,0-0.5,0.2-0.6l0.2,0.6c-0.2-0.9,0.3-1.8,0.7-2l0.2,0.2l0.4-1.5c0.8,0.3,0,1.6,0.8,0.7l0.3,1.2
						c0.5-0.8,0.9-0.3,1.1-0.9c-0.5-0.4-0.8-0.2-0.8-0.8c1.2,0.9,0.7-0.8,1-1.5c-0.3,0.2-0.4,0.2-0.3,1c-0.3,0.1-0.4-0.5-0.6-0.5
						l-0.1,0.8l-0.5-0.7l-0.4,0.9c-0.4-0.9-0.7,0.2-0.9-0.8c-0.3,0.6-0.9,0.1-0.8,1.2c-0.6-0.3,0.2-0.9-0.2-0.8
						c-1.5,1.7-3.5,2.6-5.6,3.3l0-0.5c0,0.5-0.1,0.9-0.1,1.3c-0.7-0.5-2.4-0.8-2.2,0.7c-0.1,0-0.1-0.3-0.1-0.4
						c-0.6,0.5-2.2,0.1-3,0.7c0.2,1.6-1.7-0.3-1.3,1.8l0-0.5c0.5,0.4,0.1,1.5,0.2,2c-0.8-1.1-0.4-0.9-1.2-2l0.5,0.3l-0.5-1
						c0,1.6-0.7,1.5-1.3,1.3c-0.6-0.2-1.2-0.6-1.2,0.6c0-0.1-0.1-0.3-0.1-0.4c-0.7-0.4-0.6,1-0.8,1.5c-0.2-0.5-0.1-0.9,0-1.4
						c-0.9-0.1-1.9,1.7-3.1,1.1c-0.2,0.8,0.3,0.9,0.1,1.6c-0.3-0.1-0.7-0.7-0.4-1.1c-0.5-0.6-1.1-0.2-1.8,0.1c-0.7,0.3-1.4,0.6-2,0
						c-0.6,0.8-0.2,1.2-1.2,1.7c0.2-0.5-0.1-1.8,0.4-1.9l0.1-0.6c-0.9-0.1-1.8-0.5-2.6,1c0.2-1.2,0-0.3,0.2-0.9
						c-0.1,0.1-0.1,0.2-0.1,0.2c-0.2,0.5-0.3,0.5-0.3,0.3c0-0.1,0.1-0.3,0.1-0.3l0.1-0.2c0,0-0.6,0.6-0.6,0.6
						c0.1-0.1,0.2-0.4,0.5-0.7l-0.6,0.7c-0.1-0.1,0.8-0.9,0.6-0.7l-0.5,0.5c0.1-0.1,0.1-0.1,0-0.1c-0.1,0-0.5,0.1,0.2-0.3
						C34,29,34,29,34,29c0.7-0.4,0.6-0.3,0.3-0.3l0,0c-0.2,0.1-0.5,0.1-0.1,0c0,0-0.4,0.1-0.8,0.2c-0.4,0.1-0.8,0.3-0.8,0.3
						c-0.4-0.1,0.4-0.2,0.9-0.4c0-0.1,0.5-0.2,0.7-0.3c-0.4,0-0.5,0-0.9,0c0,0,0.4-0.1,0.4-0.1c0,0,0.7,0.1,0.7,0.1
						c-2.1,0,0.6-1.3-1-2.3c0.5-0.2,0.7,0.5,1,0.4c1.1-0.8-0.6-2.7,0.6-3.3c1.3-1.2,0.8-3,1.9-4.4l-0.4-0.1l0.6-1.1
						c-0.7-0.5-0.2-1.2-1-1.9c0.3,0.1,0.7,0.1,0.9,0.3c0-0.5-0.3-1.2,0.3-1.4l0.3,0.2c0.1-0.3,0.2-0.5,0.3-1.2
						c0.1-0.5,0.1-1.2,0-1.5c-0.1-0.8-0.4-1.5-0.7-1.8c-0.1-0.5,0.5-0.6,0.9-0.8C37.8,9,37.3,8.5,36.5,8c0.1-0.2,0.1-0.5,0.3-0.8
						c0,0-0.2,0-0.5,0c-0.2,0-0.5,0-0.5,0c0-0.4,0.6-0.4,0.7-0.8c-0.8-0.4-1.3-1-1.7-1.6c-0.4-0.6-0.7-1.3-1.1-1.6l-0.2,0.4
						c-0.5,0-0.8-1-0.1-1c-0.7-0.9-1.5-1-2.4-1c-0.9,0-1.8,0.1-2.9-0.3c0.1-0.8-0.5-0.9-1.1-0.8c-0.5,0-1.1,0-1.2-0.9
						c-1,0.4-1.7-0.4-2.4,0.7c0-0.2-0.1-0.3,0-0.3c-0.4-0.7-1.7-0.1-2.6,0.6l-0.1-0.5c-0.1,1.2-1.8,1.2-1.7,2.5
						c-0.2-0.2,0-0.5,0.1-0.8c-0.8-0.9-0.6,0.7-1.3,0.7c-0.1-0.3-0.3-0.5-0.3-0.8c-1.2-0.3-2.4,0.5-3.4,1.5c-1.1,1-2,2.1-3.3,2.9
						c-0.6,0.6,1.1,0.6,0.4,1.3c-0.7-0.1-0.6-1.2-1.2-0.8c0.3,0.9,0.1,0.9-0.4,1.4C9.5,7.8,9.2,7.8,9.3,7.2c-0.3,0-0.4,0.5-0.5,1
						c-0.1,0.5-0.2,1-0.9,1.2C8.3,9.6,8.4,9.8,8.6,10c0.3,0.7-0.2,1.2-0.6,1.7c-0.5,0.4-0.9,0.8-0.6,0.9c0,0,0.1,0.4,0.3,0.1
						c-0.1,0.4-0.3,1-0.9,0.9c0.3,0.3,0.8,0.5,0.8,0.8l-0.7-0.2c0.1,0.2,0.6,0.5,0.7,0.6L8,14.6c-0.6,0.5,0.9,1.4-0.4,1.5l0-0.2
						c0,0-0.1,0.3-0.2,0.5C7.1,16.6,7,16.9,7,16.9c0.6,0.3,1.2,0.5,1.2,1.2c-0.6,0.3-0.6,0.8-0.3,1.2c0.3,0.5,0.7,0.9,0.9,1.3
						l-0.4,0.2c0.5,0.2,0.9,0.6,1.2,1c0.3,0.4,0.6,0.6,0.6,0.4c0.4,0.5,0.9,1.4,0.4,1.5c0.6,0.2,1.6,0.9,2.2,0.3
						c0,0,0.4,1.5,0.4,1.5c0.7-0.6,1.1-0.3,1.5,0c0.4,0.3,0.8,0.5,1-0.4c0.5,0.4,0.3,0.8,0.7,1.1c1-0.7,1.7-0.6,2.7-0.5l0,0.2
						c0.9,0.1,1.8-1,2.8-1.5c0,0,0.2,0.3,0.4,0.6c0.2,0.3,0.4,0.6,0.4,0.6c0.6-0.5,0.2-1.5,0.8-1.5c0.2,0.1,0.2,0.2,0.1,0.4
						c0.4-0.5,1.2-0.7,1.8-0.8c0-0.7,0.2-1.1,0.3-1.5c0.1-0.4,0.2-0.8,0-1.4c0.7,0.1,0.6,0.4,0.6,0.7c-0.1,0.3-0.2,0.6,0.5,0.7
						c1.4-0.7,1.6-2.4,1.4-3.9c0.3,0,0.4,0.2,0.7,0.3c0,0-0.5-1-1.4-1.8c-0.9-0.8-2-1.3-2.7-1.1c-0.4-0.2-0.8-0.3-1.1-0.3
						c-0.3-0.1-0.7,0.2-1.1,0.3c0.5,0.2,1,1,0,0.8l0.9,0.3c0.1,0.5-0.4,0.3-0.9,0.1c-0.5-0.2-1.1-0.4-1.2-0.1l0.4,0
						c0,0.1,0.5,0.6,0.1,0.6c-0.2-0.1-0.3-0.3-0.5-0.4c0,0,0.2,0.3,0.4,0.6c0.2,0.3,0.3,0.7,0.3,0.7c-0.5-0.3-0.7-0.5-0.9-0.9
						c-0.2,0.2,0.2,0.5,0.5,0.7c0.3,0.2,0.5,0.5,0.1,0.7c-0.4-0.2-0.4-0.5-0.5-0.8c-0.8-0.3-0.4,0.3-0.5,1c-0.5-0.7-0.3-0.7-0.8-1
						c0.3,0.3,0.7,0.9,0.6,1.1c-0.4-0.8-0.4-0.3-0.7-0.4c0.2,0.2,0.3,0.6,0.3,0.8c-0.1,0.2-0.3-0.1-0.4,0c0,0,0.1,0.2,0.3,0.3
						c0.2,0.2,0.3,0.3,0.3,0.3c-0.1,0.5-0.3,0.4-0.6,0.2c-0.2-0.2-0.5-0.5-0.7-0.7c0-0.2,0-0.3,0.1-0.3c-0.4-0.3-0.7-0.9-1-0.2
						l0-0.1c-0.4,0.4-0.4,0.8-0.3,1.1c0,0.3,0.1,0.7-0.6,1c-0.4-0.2,0.6-2.7-0.3-1.9c0.1,0.4-0.1,0.8-0.5,1.1
						c-0.3,0.3-0.8,0.5-1.2,0.5c0,0,0.3-0.3,0.6-0.7c0.3-0.3,0.5-0.7,0.5-0.7c-0.2-0.1-0.6,0.2-0.6,0l-0.1,0.3
						c-0.3,0.6-0.4,0.5-0.6,0.3c-0.1-0.2-0.3-0.5-0.6-0.3c0.7-0.6,1-1,1.3-1.2c0.2-0.3,0.5-0.6,0.9-1.4c-0.6,0.8-1.5,1.4-1.7,0.9
						c0,0,1.2-0.9,1.2-0.9c-0.1-0.3-0.5,0-1.2,0.1c-0.7,0.2-1.6,0.3-2.3,0.2c1-0.3,1.3-0.7,2.2-0.9c0,0-0.4-0.4-0.4-0.4
						c0,0,0.3-0.1,0.6-0.1c0.3-0.1,0.6-0.2,0.6-0.2c-1.2,0.3-0.5-0.3-2,0.2c0.2,0,0.4-0.1,0.4,0.1c-0.5,0.1-1.4,0.3-1.5-0.1
						c0.3-0.4,0.6,0,1.1-0.2c-0.7-0.1,0.3-0.3-0.2-0.5c0,0-0.2,0.1-0.3,0.2c-0.2,0.1-0.3,0.2-0.3,0.2c-0.9,0-0.1-0.4-0.6-0.7
						c0.4,0.3,0.9,0.1,1.5-0.1l-0.1,0c-0.1-0.2-0.7-0.4-0.2-0.5c0,0,0.3,0,0.6,0c0.3,0,0.6,0,0.6,0s-0.2,0-0.5-0.1
						c-0.2-0.1-0.5-0.1-0.5-0.1c0.2-0.1,0.6-0.2,0.8,0c0.8-0.7-2.8,0-1.5-1.1c0.5,0.1,0.8,0.2,0.5,0.5c0.8,0.1,1.2,0.1,1.5-0.1
						c0.1,0,0.1,0,0.1,0C15.2,13.6,15.4,13.2,14.7,12.6z"/>
					<path fill="#FFFFFF" d="M15.1,14.1c0,0.2,0,0.4,0.1,0.5C15.5,14.5,15.9,14.2,15.1,14.1z"/>
					<path fill="#FFFFFF" d="M37.3,36.1c-0.1,0-0.1,0.1-0.2,0.1L37.3,36.1z"/>
					<path fill="#FFFFFF" d="M40.9,35.4c-0.1-0.1-0.1-0.2-0.2-0.3C40.7,35.4,40.8,35.6,40.9,35.4z"/>
					<path fill="#FFFFFF" d="M30.6,11.1C30.6,11.1,30.6,11.1,30.6,11.1C30.6,11.1,30.6,11.1,30.6,11.1z"/>
					<path fill="#FFFFFF" d="M26.7,27.7c0.3,0.5,0.6,0.7,0.9,0.7C27.6,28.2,27.3,27.9,26.7,27.7z"/>
					<path fill="#FFFFFF" d="M29,21.4c0-0.1-0.1-0.1-0.2-0.2C28.9,21.3,28.9,21.4,29,21.4z"/>
					<path fill="#FFFFFF" d="M29.8,10.7c0.4,0,0.5,0.2,0.8,0.4C30.4,11,30.6,10.5,29.8,10.7z"/>
					<polygon fill="#FFFFFF" points="44.6,33.2 44.5,33.9 44.7,33.4 					"/>
					<path fill="#FFFFFF" d="M41.7,34.3c-0.2-0.1-0.6,0.4-0.4,0.7C41.4,34.6,41.5,34.5,41.7,34.3z"/>
					<path fill="#FFFFFF" d="M29.8,32l-0.5,0.2c0,0,0.4,0,0.4,0C29.7,32.2,29.8,32,29.8,32z"/>
				</g>
			</g>
		</g>
	</g>
</g>
</svg>
